%TF.GenerationSoftware,KiCad,Pcbnew,8.0.0*%
%TF.CreationDate,2024-03-14T10:46:30-06:00*%
%TF.ProjectId,underglow3,756e6465-7267-46c6-9f77-332e6b696361,rev?*%
%TF.SameCoordinates,Original*%
%TF.FileFunction,Copper,L2,Inr*%
%TF.FilePolarity,Positive*%
%FSLAX46Y46*%
G04 Gerber Fmt 4.6, Leading zero omitted, Abs format (unit mm)*
G04 Created by KiCad (PCBNEW 8.0.0) date 2024-03-14 10:46:30*
%MOMM*%
%LPD*%
G01*
G04 APERTURE LIST*
%TA.AperFunction,ComponentPad*%
%ADD10C,2.000000*%
%TD*%
%TA.AperFunction,ViaPad*%
%ADD11C,0.700000*%
%TD*%
%TA.AperFunction,ViaPad*%
%ADD12C,1.000000*%
%TD*%
G04 APERTURE END LIST*
D10*
%TO.N,/Power/RGB1_OUT*%
%TO.C,J301*%
X49475000Y12500000D03*
%TO.N,/Power/RGB_B1*%
X45325000Y12500000D03*
%TO.N,/Power/RGB_G1*%
X41995000Y12500000D03*
%TO.N,/Power/RGB_R1*%
X38665000Y12500000D03*
%TO.N,/Power/RGB_B2*%
X35335000Y12500000D03*
%TO.N,/Power/RGB_G2*%
X32005000Y12500000D03*
%TO.N,/Power/RGB_R2*%
X28675000Y12500000D03*
%TO.N,/Power/RGB2_OUT*%
X24525000Y12500000D03*
%TO.N,GND*%
X49475000Y8300000D03*
%TO.N,/Power/CAN_L*%
X45325000Y8300000D03*
%TO.N,/Power/CAN_H*%
X41995000Y8300000D03*
%TO.N,/Power/PI1*%
X38665000Y8300000D03*
%TO.N,/Power/PI2*%
X35335000Y8300000D03*
%TO.N,/Power/LEDC_OUT*%
X32005000Y8300000D03*
X28675000Y8300000D03*
%TO.N,GND*%
X24525000Y8300000D03*
X49475000Y4100000D03*
%TO.N,/Power/RGB_B1*%
X45325000Y4100000D03*
%TO.N,/Power/RGB_G1*%
X41995000Y4100000D03*
%TO.N,/Power/RGB_R1*%
X38665000Y4100000D03*
%TO.N,/Power/RGB_B2*%
X35335000Y4100000D03*
%TO.N,/Power/RGB_G2*%
X32005000Y4100000D03*
%TO.N,/Power/RGB_R2*%
X28675000Y4100000D03*
%TO.N,/Power/VIN*%
X24525000Y4100000D03*
%TD*%
D11*
%TO.N,GND*%
X31000000Y74000000D03*
X31200000Y87900000D03*
X33200000Y21800000D03*
D12*
X15900000Y83800000D03*
D11*
X52600000Y68350000D03*
X55400000Y32699949D03*
X20000000Y69800000D03*
D12*
X45500000Y19600000D03*
X65000000Y75000000D03*
X7600000Y60000000D03*
D11*
X41500000Y71500000D03*
X27300000Y45300000D03*
D12*
X45600000Y60200000D03*
D11*
X39100000Y32400000D03*
D12*
X60800000Y52000000D03*
D11*
X16863538Y41390064D03*
X11500000Y15500000D03*
D12*
X-800000Y22800000D03*
D11*
X14000000Y22800000D03*
D12*
X15200000Y72200000D03*
X17300000Y85200000D03*
D11*
X58829795Y38000051D03*
D12*
X75000000Y75000000D03*
D11*
X35200000Y42000000D03*
D12*
X33000000Y94800000D03*
D11*
X30200000Y46800000D03*
D12*
X71000000Y1000000D03*
X44200000Y60200000D03*
X66000000Y6000000D03*
X13200000Y70800000D03*
D11*
X9000000Y17500000D03*
D12*
X13200000Y72200000D03*
D11*
X13500000Y15500000D03*
X25800000Y21800000D03*
X71800000Y49800051D03*
X51189795Y35600000D03*
X22200000Y41687522D03*
X58600000Y69000000D03*
D12*
X62600000Y48200000D03*
X600000Y60000000D03*
X19800000Y64600000D03*
D11*
X24800000Y35587522D03*
X25500000Y85200000D03*
D12*
X31600000Y94800000D03*
D11*
X35500000Y77000000D03*
X41075654Y43446087D03*
D12*
X15900000Y85200000D03*
D11*
X6500000Y17500000D03*
X26400000Y41687522D03*
X72529795Y55100051D03*
X34000000Y77000000D03*
D12*
X19800000Y63000000D03*
X-600000Y68000000D03*
X30600000Y19600000D03*
D11*
X17400000Y73000000D03*
X17726870Y22818283D03*
D12*
X70000000Y75000000D03*
D11*
X12000000Y43180064D03*
X71200000Y57800000D03*
X23500000Y85200000D03*
X44529795Y48550051D03*
X37000000Y72500000D03*
X55200000Y25400000D03*
D12*
X70000000Y80000000D03*
D11*
X58800000Y35000000D03*
D12*
X600000Y64400000D03*
D11*
X32200000Y68000000D03*
X31000000Y77000000D03*
X67800000Y18400000D03*
X55129795Y38000051D03*
X40000000Y25400000D03*
X32500000Y77000000D03*
D12*
X68200000Y36600000D03*
X33000000Y93400000D03*
D11*
X37000000Y75500000D03*
X59700000Y38000000D03*
X17400000Y69800000D03*
X26400000Y35587522D03*
X46200000Y48200000D03*
X32400000Y25400000D03*
D12*
X17300000Y83800000D03*
D11*
X43000000Y41600000D03*
D12*
X15200000Y70800000D03*
X58800000Y48200000D03*
X34200000Y59600000D03*
D11*
X71800000Y51350152D03*
X36000000Y71000000D03*
D12*
X61000000Y1000000D03*
D11*
X13500000Y17500000D03*
X24800000Y41687522D03*
X58600000Y67700000D03*
X8600000Y21400000D03*
D12*
X23200000Y19600000D03*
D11*
X59229795Y62500051D03*
D12*
X65000000Y80000000D03*
D11*
X37000000Y74000000D03*
X28800000Y40800000D03*
X34200000Y67000000D03*
X43200000Y87900000D03*
X37000000Y26800000D03*
D12*
X44200000Y61600000D03*
X66000000Y1000000D03*
D11*
X44529795Y44300051D03*
X20000000Y68600000D03*
X35200000Y40800000D03*
X47400000Y25400000D03*
X39400000Y21800000D03*
D12*
X38000000Y19600000D03*
D11*
X37800000Y32400000D03*
D12*
X70000000Y70000000D03*
D11*
X58600000Y66750000D03*
D12*
X-800000Y24400000D03*
X3800000Y60000000D03*
D11*
X58600000Y71400000D03*
D12*
X61000000Y6000000D03*
X31600000Y93400000D03*
D11*
X33200000Y67000000D03*
X45800000Y34200000D03*
X56000000Y21800000D03*
X24000000Y82200000D03*
X36000000Y72000000D03*
X60129795Y62500051D03*
X29600000Y26800000D03*
X64400000Y18400000D03*
X8000000Y24400000D03*
X32200000Y70000000D03*
X71429795Y44600051D03*
X32200000Y71000000D03*
X46000000Y55500000D03*
X32200000Y69000000D03*
X55400000Y35899949D03*
D12*
X10600000Y60000000D03*
D11*
X31000000Y75500000D03*
D12*
X45600000Y61600000D03*
D11*
X45849795Y43000051D03*
D12*
X60800000Y48200000D03*
X52629795Y61600000D03*
D11*
X31600000Y64400000D03*
X60600000Y25800000D03*
D12*
X9400000Y41000000D03*
D11*
X72100003Y27000000D03*
X31000000Y40800000D03*
X71429795Y43600051D03*
D12*
X59800000Y18400000D03*
D11*
X17400000Y70700000D03*
X57600000Y71400000D03*
X37400000Y87900000D03*
X32200000Y67000000D03*
X58600000Y70400000D03*
D12*
X6000000Y86800000D03*
D11*
X48649795Y40000051D03*
D12*
X62600000Y50100000D03*
D11*
X19100000Y83600000D03*
X44600000Y32400000D03*
D12*
X68000000Y86800000D03*
X60800000Y33200000D03*
D11*
X11500000Y17500000D03*
X26200000Y45300000D03*
X48400000Y21800000D03*
D12*
X60800000Y50100000D03*
D11*
X73400000Y18000000D03*
X32600000Y33700000D03*
D12*
X75000000Y70000000D03*
X-600000Y71200000D03*
X74600000Y36600000D03*
X71000000Y6000000D03*
D11*
X44200000Y71500000D03*
D12*
X62600000Y52000000D03*
D11*
X17800000Y25400000D03*
D12*
X15800000Y76600000D03*
D11*
X32200000Y72000000D03*
X31000000Y72500000D03*
X59849975Y35000000D03*
D12*
X58800000Y33200000D03*
D11*
X41400000Y32400000D03*
X52000000Y26800000D03*
X48649795Y45300051D03*
X34800000Y49800000D03*
X22200000Y26800000D03*
D12*
X75000000Y80000000D03*
X65000000Y70000000D03*
D11*
X44400000Y26800000D03*
D12*
X58800000Y52000000D03*
X53000000Y19600000D03*
D11*
X44804795Y42005051D03*
D12*
X58800000Y50100000D03*
X74600000Y33200000D03*
D11*
X62229795Y38000051D03*
X16863538Y35400000D03*
D12*
X68200000Y38000000D03*
X-600000Y69600000D03*
D11*
X61300000Y38000000D03*
D12*
X9400000Y43200000D03*
D11*
X37000000Y77000000D03*
X11400000Y22800000D03*
D12*
X3800000Y64400000D03*
D11*
X16863538Y34200000D03*
D12*
X15800000Y77800000D03*
D11*
%TO.N,+3V3*%
X16863538Y37520064D03*
D12*
X54099771Y61600000D03*
D11*
X16863538Y44050064D03*
X16863538Y46750064D03*
X40400000Y32400000D03*
X43900000Y55500000D03*
X52529795Y38000051D03*
D12*
X29400000Y39600000D03*
D11*
X38400000Y55500000D03*
D12*
X34000000Y39587522D03*
D11*
X42800000Y55500000D03*
X48600000Y43000000D03*
X71200000Y27000000D03*
X45829795Y37700051D03*
X47100000Y55500000D03*
X52529795Y39100051D03*
X31600000Y33667522D03*
X69829795Y45300051D03*
X16863538Y40080064D03*
X12000000Y41000000D03*
X48600000Y58100000D03*
X70829795Y49800051D03*
X16863538Y45390064D03*
X35600000Y32400000D03*
D12*
X32400000Y39587522D03*
X31000000Y39587522D03*
D11*
X39500000Y55500000D03*
X36700000Y55500000D03*
X45829795Y39030051D03*
X40600000Y55500000D03*
X16863538Y38800064D03*
%TO.N,+0v9*%
X34000000Y33700000D03*
X59149925Y60000051D03*
X70829795Y51350152D03*
X62200000Y40700000D03*
X58300000Y40800000D03*
%TO.N,/Application/LDOA_OUT*%
X65000000Y55800000D03*
X65000000Y62900000D03*
%TO.N,/Application/VCC_DRAM*%
X45849795Y40000051D03*
X59849975Y36500000D03*
X69829795Y42900051D03*
%TO.N,+5V*%
X27300000Y44237518D03*
X31500000Y42300000D03*
%TO.N,/Power/RGB1_OUT*%
X47600000Y23400000D03*
X41000000Y22600000D03*
X55200000Y23400000D03*
X63200000Y23400000D03*
D12*
X9600000Y6100000D03*
D11*
%TO.N,/Power/RGB2_OUT*%
X40110001Y23388162D03*
X18600000Y22600000D03*
X32800000Y23400000D03*
D12*
X6000000Y6100000D03*
D11*
X25200000Y23400000D03*
%TO.N,/Application/SPI0_MISO*%
X35900000Y47800000D03*
X35900000Y37200000D03*
%TO.N,/Application/SPI0_MOSI*%
X39800000Y40000000D03*
X39800203Y49799949D03*
%TO.N,/Application/WIFI_CLK*%
X57549771Y65400000D03*
X41472170Y65400000D03*
%TO.N,/Power/PI1_DIV*%
X71000000Y40000000D03*
X71000000Y33200000D03*
%TO.N,/Power/PI2_DIV*%
X70000000Y40000000D03*
X70000000Y33200000D03*
%TO.N,/Application/LEDC*%
X8000000Y25400000D03*
X14000000Y25400000D03*
%TO.N,/Application/WL_REG_ON*%
X57600000Y69000000D03*
X36900000Y66825000D03*
%TO.N,/Application/WIFI_CMD*%
X40600000Y66100000D03*
X60100000Y65800000D03*
%TO.N,/Application/WIFI_DAT0*%
X42372170Y64500000D03*
X59369143Y64477879D03*
%TO.N,/Application/WIFI_DAT1*%
X43300000Y63800000D03*
X57549771Y63788803D03*
%TO.N,/Application/WIFI_DAT2*%
X38700000Y67700000D03*
X57600000Y67700000D03*
%TO.N,/Application/WIFI_DAT3*%
X39700000Y66800000D03*
X57600000Y66750000D03*
%TO.N,/Application/BT_EN*%
X54900000Y71500000D03*
X46000000Y71500000D03*
%TO.N,/Application/AP_WAKE_BT*%
X57000000Y70400000D03*
X34200000Y64325003D03*
%TO.N,/Application/SPI0_CS0*%
X38300000Y47600000D03*
X40400000Y36200000D03*
%TO.N,/Application/SPI0_CLK*%
X37859795Y36200000D03*
X37800000Y40600000D03*
%TO.N,/Application/SPI0_WP*%
X36800000Y49000000D03*
X36800000Y39600000D03*
%TO.N,/Application/SPI0_HLD*%
X38600000Y40000000D03*
X37550000Y50950000D03*
%TO.N,/Application/WL_WAKE_AP*%
X49800000Y68350000D03*
X37807565Y68350000D03*
%TO.N,/Application/BT_WAKE_AP*%
X55800000Y69700000D03*
X34200000Y63425000D03*
%TO.N,/Application/HCI_RX*%
X39000000Y73800000D03*
X38772170Y71200000D03*
%TO.N,/Application/HCI_TX*%
X39000000Y75000000D03*
X37872170Y71200000D03*
%TD*%
%TA.AperFunction,Conductor*%
%TO.N,GND*%
G36*
X15042539Y96598569D02*
G01*
X15088294Y96545765D01*
X15099500Y96494254D01*
X15099500Y96160117D01*
X15129463Y96087780D01*
X15130024Y96086426D01*
X15186426Y96030024D01*
X15260118Y95999500D01*
X15260120Y95999500D01*
X25039880Y95999500D01*
X25039882Y95999500D01*
X25113574Y96030024D01*
X25169976Y96086426D01*
X25200500Y96160118D01*
X25200500Y96494254D01*
X25220185Y96561293D01*
X25272989Y96607048D01*
X25324500Y96618254D01*
X74930790Y96618254D01*
X74938279Y96618028D01*
X75216293Y96601207D01*
X75231144Y96599402D01*
X75501400Y96549871D01*
X75515929Y96546290D01*
X75682910Y96494254D01*
X75778244Y96464545D01*
X75792245Y96459235D01*
X76042793Y96346468D01*
X76056051Y96339509D01*
X76291174Y96197369D01*
X76303497Y96188863D01*
X76506235Y96030025D01*
X76519778Y96019415D01*
X76530986Y96009485D01*
X76725257Y95815210D01*
X76735187Y95804002D01*
X76904636Y95587711D01*
X76913141Y95575388D01*
X77055274Y95340269D01*
X77062233Y95327011D01*
X77174999Y95076453D01*
X77180308Y95062452D01*
X77262044Y94800151D01*
X77265628Y94785612D01*
X77315152Y94515358D01*
X77316957Y94500494D01*
X77333822Y94221703D01*
X77334048Y94214216D01*
X77334048Y-777495D01*
X77333822Y-784982D01*
X77317005Y-1062991D01*
X77315200Y-1077855D01*
X77265675Y-1348107D01*
X77262092Y-1362646D01*
X77180351Y-1624968D01*
X77175041Y-1638969D01*
X77062276Y-1889524D01*
X77055317Y-1902782D01*
X76913181Y-2137908D01*
X76904675Y-2150232D01*
X76735223Y-2366524D01*
X76725294Y-2377731D01*
X76531018Y-2572012D01*
X76519810Y-2581942D01*
X76303524Y-2751394D01*
X76291201Y-2759900D01*
X76056074Y-2902043D01*
X76042816Y-2909002D01*
X75792262Y-3021771D01*
X75778262Y-3027081D01*
X75515951Y-3108826D01*
X75501412Y-3112409D01*
X75231150Y-3161941D01*
X75216285Y-3163747D01*
X74939072Y-3180520D01*
X74931583Y-3180746D01*
X22324500Y-3180746D01*
X22257461Y-3161061D01*
X22211706Y-3108257D01*
X22200500Y-3056746D01*
X22200500Y-1160119D01*
X22200499Y-1160116D01*
X22169976Y-1086426D01*
X22113574Y-1030024D01*
X22039883Y-999500D01*
X22039882Y-999500D01*
X20039882Y-999500D01*
X19960118Y-999500D01*
X19960116Y-999500D01*
X19886425Y-1030024D01*
X19830024Y-1086425D01*
X19799500Y-1160116D01*
X19799500Y-3056746D01*
X19779815Y-3123785D01*
X19727011Y-3169540D01*
X19675500Y-3180746D01*
X-1011135Y-3180746D01*
X-1011143Y-3180745D01*
X-1061710Y-3180745D01*
X-1069195Y-3180519D01*
X-1347203Y-3163708D01*
X-1362068Y-3161903D01*
X-1632325Y-3112381D01*
X-1646863Y-3108798D01*
X-1909182Y-3027061D01*
X-1923184Y-3021751D01*
X-2173732Y-2908992D01*
X-2186991Y-2902034D01*
X-2422132Y-2759890D01*
X-2434455Y-2751383D01*
X-2650745Y-2581934D01*
X-2661953Y-2572005D01*
X-2856233Y-2377729D01*
X-2866163Y-2366521D01*
X-3035613Y-2150237D01*
X-3044120Y-2137913D01*
X-3186267Y-1902776D01*
X-3193225Y-1889518D01*
X-3305990Y-1638970D01*
X-3311298Y-1624976D01*
X-3393043Y-1362646D01*
X-3396625Y-1348116D01*
X-3396627Y-1348107D01*
X-3446154Y-1077853D01*
X-3447958Y-1062990D01*
X-3464726Y-785775D01*
X-3464952Y-778288D01*
X-3464952Y3560118D01*
X15299500Y3560118D01*
X15330024Y3486426D01*
X15386426Y3430024D01*
X15460118Y3399500D01*
X15460120Y3399500D01*
X17939880Y3399500D01*
X17939882Y3399500D01*
X18013574Y3430024D01*
X18069976Y3486426D01*
X18100500Y3560118D01*
X18100500Y4099999D01*
X23219532Y4099999D01*
X23239364Y3873314D01*
X23239366Y3873303D01*
X23298258Y3653512D01*
X23298261Y3653503D01*
X23394431Y3447268D01*
X23394432Y3447266D01*
X23524954Y3260859D01*
X23685858Y3099955D01*
X23685861Y3099953D01*
X23872266Y2969432D01*
X24078504Y2873261D01*
X24298308Y2814365D01*
X24460230Y2800199D01*
X24524998Y2794532D01*
X24525000Y2794532D01*
X24525002Y2794532D01*
X24581673Y2799491D01*
X24751692Y2814365D01*
X24971496Y2873261D01*
X25177734Y2969432D01*
X25364139Y3099953D01*
X25525047Y3260861D01*
X25655568Y3447266D01*
X25751739Y3653504D01*
X25810635Y3873308D01*
X25830468Y4099999D01*
X27369532Y4099999D01*
X27389364Y3873314D01*
X27389366Y3873303D01*
X27448258Y3653512D01*
X27448261Y3653503D01*
X27544431Y3447268D01*
X27544432Y3447266D01*
X27674954Y3260859D01*
X27835858Y3099955D01*
X27835861Y3099953D01*
X28022266Y2969432D01*
X28228504Y2873261D01*
X28448308Y2814365D01*
X28610230Y2800199D01*
X28674998Y2794532D01*
X28675000Y2794532D01*
X28675002Y2794532D01*
X28731673Y2799491D01*
X28901692Y2814365D01*
X29121496Y2873261D01*
X29327734Y2969432D01*
X29514139Y3099953D01*
X29675047Y3260861D01*
X29805568Y3447266D01*
X29901739Y3653504D01*
X29960635Y3873308D01*
X29980468Y4099999D01*
X30699532Y4099999D01*
X30719364Y3873314D01*
X30719366Y3873303D01*
X30778258Y3653512D01*
X30778261Y3653503D01*
X30874431Y3447268D01*
X30874432Y3447266D01*
X31004954Y3260859D01*
X31165858Y3099955D01*
X31165861Y3099953D01*
X31352266Y2969432D01*
X31558504Y2873261D01*
X31778308Y2814365D01*
X31940230Y2800199D01*
X32004998Y2794532D01*
X32005000Y2794532D01*
X32005002Y2794532D01*
X32061673Y2799491D01*
X32231692Y2814365D01*
X32451496Y2873261D01*
X32657734Y2969432D01*
X32844139Y3099953D01*
X33005047Y3260861D01*
X33135568Y3447266D01*
X33231739Y3653504D01*
X33290635Y3873308D01*
X33310468Y4099999D01*
X34029532Y4099999D01*
X34049364Y3873314D01*
X34049366Y3873303D01*
X34108258Y3653512D01*
X34108261Y3653503D01*
X34204431Y3447268D01*
X34204432Y3447266D01*
X34334954Y3260859D01*
X34495858Y3099955D01*
X34495861Y3099953D01*
X34682266Y2969432D01*
X34888504Y2873261D01*
X35108308Y2814365D01*
X35270230Y2800199D01*
X35334998Y2794532D01*
X35335000Y2794532D01*
X35335002Y2794532D01*
X35391673Y2799491D01*
X35561692Y2814365D01*
X35781496Y2873261D01*
X35987734Y2969432D01*
X36174139Y3099953D01*
X36335047Y3260861D01*
X36465568Y3447266D01*
X36561739Y3653504D01*
X36620635Y3873308D01*
X36640468Y4099999D01*
X37359532Y4099999D01*
X37379364Y3873314D01*
X37379366Y3873303D01*
X37438258Y3653512D01*
X37438261Y3653503D01*
X37534431Y3447268D01*
X37534432Y3447266D01*
X37664954Y3260859D01*
X37825858Y3099955D01*
X37825861Y3099953D01*
X38012266Y2969432D01*
X38218504Y2873261D01*
X38438308Y2814365D01*
X38600230Y2800199D01*
X38664998Y2794532D01*
X38665000Y2794532D01*
X38665002Y2794532D01*
X38721673Y2799491D01*
X38891692Y2814365D01*
X39111496Y2873261D01*
X39317734Y2969432D01*
X39504139Y3099953D01*
X39665047Y3260861D01*
X39795568Y3447266D01*
X39891739Y3653504D01*
X39950635Y3873308D01*
X39970468Y4099999D01*
X40689532Y4099999D01*
X40709364Y3873314D01*
X40709366Y3873303D01*
X40768258Y3653512D01*
X40768261Y3653503D01*
X40864431Y3447268D01*
X40864432Y3447266D01*
X40994954Y3260859D01*
X41155858Y3099955D01*
X41155861Y3099953D01*
X41342266Y2969432D01*
X41548504Y2873261D01*
X41768308Y2814365D01*
X41930230Y2800199D01*
X41994998Y2794532D01*
X41995000Y2794532D01*
X41995002Y2794532D01*
X42051673Y2799491D01*
X42221692Y2814365D01*
X42441496Y2873261D01*
X42647734Y2969432D01*
X42834139Y3099953D01*
X42995047Y3260861D01*
X43125568Y3447266D01*
X43221739Y3653504D01*
X43280635Y3873308D01*
X43300468Y4099999D01*
X44019532Y4099999D01*
X44039364Y3873314D01*
X44039366Y3873303D01*
X44098258Y3653512D01*
X44098261Y3653503D01*
X44194431Y3447268D01*
X44194432Y3447266D01*
X44324954Y3260859D01*
X44485858Y3099955D01*
X44485861Y3099953D01*
X44672266Y2969432D01*
X44878504Y2873261D01*
X45098308Y2814365D01*
X45260230Y2800199D01*
X45324998Y2794532D01*
X45325000Y2794532D01*
X45325002Y2794532D01*
X45381673Y2799491D01*
X45551692Y2814365D01*
X45771496Y2873261D01*
X45977734Y2969432D01*
X46164139Y3099953D01*
X46325047Y3260861D01*
X46455568Y3447266D01*
X46508192Y3560118D01*
X55899500Y3560118D01*
X55930024Y3486426D01*
X55986426Y3430024D01*
X56060118Y3399500D01*
X56060120Y3399500D01*
X58539880Y3399500D01*
X58539882Y3399500D01*
X58613574Y3430024D01*
X58669976Y3486426D01*
X58700500Y3560118D01*
X58700500Y7339882D01*
X58669976Y7413574D01*
X58613574Y7469976D01*
X58539883Y7500500D01*
X58539882Y7500500D01*
X56139882Y7500500D01*
X56060118Y7500500D01*
X56060116Y7500500D01*
X55986425Y7469976D01*
X55930024Y7413575D01*
X55899500Y7339884D01*
X55899500Y7339882D01*
X55899500Y3560118D01*
X46508192Y3560118D01*
X46551739Y3653504D01*
X46610635Y3873308D01*
X46630468Y4100000D01*
X46610635Y4326692D01*
X46551739Y4546496D01*
X46455568Y4752734D01*
X46325047Y4939139D01*
X46325045Y4939142D01*
X46164141Y5100046D01*
X45977734Y5230568D01*
X45977732Y5230569D01*
X45771497Y5326739D01*
X45771488Y5326742D01*
X45551697Y5385634D01*
X45551693Y5385635D01*
X45551692Y5385635D01*
X45551691Y5385636D01*
X45551686Y5385636D01*
X45325002Y5405468D01*
X45324998Y5405468D01*
X45098313Y5385636D01*
X45098302Y5385634D01*
X44878511Y5326742D01*
X44878502Y5326739D01*
X44672267Y5230569D01*
X44672265Y5230568D01*
X44485858Y5100046D01*
X44324954Y4939142D01*
X44194432Y4752735D01*
X44194431Y4752733D01*
X44098261Y4546498D01*
X44098258Y4546489D01*
X44039366Y4326698D01*
X44039364Y4326687D01*
X44019532Y4100002D01*
X44019532Y4099999D01*
X43300468Y4099999D01*
X43300468Y4100000D01*
X43280635Y4326692D01*
X43221739Y4546496D01*
X43125568Y4752734D01*
X42995047Y4939139D01*
X42995045Y4939142D01*
X42834141Y5100046D01*
X42647734Y5230568D01*
X42647732Y5230569D01*
X42441497Y5326739D01*
X42441488Y5326742D01*
X42221697Y5385634D01*
X42221693Y5385635D01*
X42221692Y5385635D01*
X42221691Y5385636D01*
X42221686Y5385636D01*
X41995002Y5405468D01*
X41994998Y5405468D01*
X41768313Y5385636D01*
X41768302Y5385634D01*
X41548511Y5326742D01*
X41548502Y5326739D01*
X41342267Y5230569D01*
X41342265Y5230568D01*
X41155858Y5100046D01*
X40994954Y4939142D01*
X40864432Y4752735D01*
X40864431Y4752733D01*
X40768261Y4546498D01*
X40768258Y4546489D01*
X40709366Y4326698D01*
X40709364Y4326687D01*
X40689532Y4100002D01*
X40689532Y4099999D01*
X39970468Y4099999D01*
X39970468Y4100000D01*
X39950635Y4326692D01*
X39891739Y4546496D01*
X39795568Y4752734D01*
X39665047Y4939139D01*
X39665045Y4939142D01*
X39504141Y5100046D01*
X39317734Y5230568D01*
X39317732Y5230569D01*
X39111497Y5326739D01*
X39111488Y5326742D01*
X38891697Y5385634D01*
X38891693Y5385635D01*
X38891692Y5385635D01*
X38891691Y5385636D01*
X38891686Y5385636D01*
X38665002Y5405468D01*
X38664998Y5405468D01*
X38438313Y5385636D01*
X38438302Y5385634D01*
X38218511Y5326742D01*
X38218502Y5326739D01*
X38012267Y5230569D01*
X38012265Y5230568D01*
X37825858Y5100046D01*
X37664954Y4939142D01*
X37534432Y4752735D01*
X37534431Y4752733D01*
X37438261Y4546498D01*
X37438258Y4546489D01*
X37379366Y4326698D01*
X37379364Y4326687D01*
X37359532Y4100002D01*
X37359532Y4099999D01*
X36640468Y4099999D01*
X36640468Y4100000D01*
X36620635Y4326692D01*
X36561739Y4546496D01*
X36465568Y4752734D01*
X36335047Y4939139D01*
X36335045Y4939142D01*
X36174141Y5100046D01*
X35987734Y5230568D01*
X35987732Y5230569D01*
X35781497Y5326739D01*
X35781488Y5326742D01*
X35561697Y5385634D01*
X35561693Y5385635D01*
X35561692Y5385635D01*
X35561691Y5385636D01*
X35561686Y5385636D01*
X35335002Y5405468D01*
X35334998Y5405468D01*
X35108313Y5385636D01*
X35108302Y5385634D01*
X34888511Y5326742D01*
X34888502Y5326739D01*
X34682267Y5230569D01*
X34682265Y5230568D01*
X34495858Y5100046D01*
X34334954Y4939142D01*
X34204432Y4752735D01*
X34204431Y4752733D01*
X34108261Y4546498D01*
X34108258Y4546489D01*
X34049366Y4326698D01*
X34049364Y4326687D01*
X34029532Y4100002D01*
X34029532Y4099999D01*
X33310468Y4099999D01*
X33310468Y4100000D01*
X33290635Y4326692D01*
X33231739Y4546496D01*
X33135568Y4752734D01*
X33005047Y4939139D01*
X33005045Y4939142D01*
X32844141Y5100046D01*
X32657734Y5230568D01*
X32657732Y5230569D01*
X32451497Y5326739D01*
X32451488Y5326742D01*
X32231697Y5385634D01*
X32231693Y5385635D01*
X32231692Y5385635D01*
X32231691Y5385636D01*
X32231686Y5385636D01*
X32005002Y5405468D01*
X32004998Y5405468D01*
X31778313Y5385636D01*
X31778302Y5385634D01*
X31558511Y5326742D01*
X31558502Y5326739D01*
X31352267Y5230569D01*
X31352265Y5230568D01*
X31165858Y5100046D01*
X31004954Y4939142D01*
X30874432Y4752735D01*
X30874431Y4752733D01*
X30778261Y4546498D01*
X30778258Y4546489D01*
X30719366Y4326698D01*
X30719364Y4326687D01*
X30699532Y4100002D01*
X30699532Y4099999D01*
X29980468Y4099999D01*
X29980468Y4100000D01*
X29960635Y4326692D01*
X29901739Y4546496D01*
X29805568Y4752734D01*
X29675047Y4939139D01*
X29675045Y4939142D01*
X29514141Y5100046D01*
X29327734Y5230568D01*
X29327732Y5230569D01*
X29121497Y5326739D01*
X29121488Y5326742D01*
X28901697Y5385634D01*
X28901693Y5385635D01*
X28901692Y5385635D01*
X28901691Y5385636D01*
X28901686Y5385636D01*
X28675002Y5405468D01*
X28674998Y5405468D01*
X28448313Y5385636D01*
X28448302Y5385634D01*
X28228511Y5326742D01*
X28228502Y5326739D01*
X28022267Y5230569D01*
X28022265Y5230568D01*
X27835858Y5100046D01*
X27674954Y4939142D01*
X27544432Y4752735D01*
X27544431Y4752733D01*
X27448261Y4546498D01*
X27448258Y4546489D01*
X27389366Y4326698D01*
X27389364Y4326687D01*
X27369532Y4100002D01*
X27369532Y4099999D01*
X25830468Y4099999D01*
X25830468Y4100000D01*
X25810635Y4326692D01*
X25751739Y4546496D01*
X25655568Y4752734D01*
X25525047Y4939139D01*
X25525045Y4939142D01*
X25364141Y5100046D01*
X25177734Y5230568D01*
X25177732Y5230569D01*
X24971497Y5326739D01*
X24971488Y5326742D01*
X24751697Y5385634D01*
X24751693Y5385635D01*
X24751692Y5385635D01*
X24751691Y5385636D01*
X24751686Y5385636D01*
X24525002Y5405468D01*
X24524998Y5405468D01*
X24298313Y5385636D01*
X24298302Y5385634D01*
X24078511Y5326742D01*
X24078502Y5326739D01*
X23872267Y5230569D01*
X23872265Y5230568D01*
X23685858Y5100046D01*
X23524954Y4939142D01*
X23394432Y4752735D01*
X23394431Y4752733D01*
X23298261Y4546498D01*
X23298258Y4546489D01*
X23239366Y4326698D01*
X23239364Y4326687D01*
X23219532Y4100002D01*
X23219532Y4099999D01*
X18100500Y4099999D01*
X18100500Y8299999D01*
X27369532Y8299999D01*
X27389364Y8073314D01*
X27389366Y8073303D01*
X27448258Y7853512D01*
X27448261Y7853503D01*
X27544431Y7647268D01*
X27544432Y7647266D01*
X27674954Y7460859D01*
X27835858Y7299955D01*
X27835861Y7299953D01*
X28022266Y7169432D01*
X28228504Y7073261D01*
X28448308Y7014365D01*
X28610230Y7000199D01*
X28674998Y6994532D01*
X28675000Y6994532D01*
X28675002Y6994532D01*
X28731673Y6999491D01*
X28901692Y7014365D01*
X29121496Y7073261D01*
X29327734Y7169432D01*
X29514139Y7299953D01*
X29675047Y7460861D01*
X29805568Y7647266D01*
X29901739Y7853504D01*
X29960635Y8073308D01*
X29980468Y8299999D01*
X30699532Y8299999D01*
X30719364Y8073314D01*
X30719366Y8073303D01*
X30778258Y7853512D01*
X30778261Y7853503D01*
X30874431Y7647268D01*
X30874432Y7647266D01*
X31004954Y7460859D01*
X31165858Y7299955D01*
X31165861Y7299953D01*
X31352266Y7169432D01*
X31558504Y7073261D01*
X31778308Y7014365D01*
X31940230Y7000199D01*
X32004998Y6994532D01*
X32005000Y6994532D01*
X32005002Y6994532D01*
X32061673Y6999491D01*
X32231692Y7014365D01*
X32451496Y7073261D01*
X32657734Y7169432D01*
X32844139Y7299953D01*
X33005047Y7460861D01*
X33135568Y7647266D01*
X33231739Y7853504D01*
X33290635Y8073308D01*
X33310468Y8299999D01*
X34029532Y8299999D01*
X34049364Y8073314D01*
X34049366Y8073303D01*
X34108258Y7853512D01*
X34108261Y7853503D01*
X34204431Y7647268D01*
X34204432Y7647266D01*
X34334954Y7460859D01*
X34495858Y7299955D01*
X34495861Y7299953D01*
X34682266Y7169432D01*
X34888504Y7073261D01*
X35108308Y7014365D01*
X35270230Y7000199D01*
X35334998Y6994532D01*
X35335000Y6994532D01*
X35335002Y6994532D01*
X35391673Y6999491D01*
X35561692Y7014365D01*
X35781496Y7073261D01*
X35987734Y7169432D01*
X36174139Y7299953D01*
X36335047Y7460861D01*
X36465568Y7647266D01*
X36561739Y7853504D01*
X36620635Y8073308D01*
X36640468Y8299999D01*
X37359532Y8299999D01*
X37379364Y8073314D01*
X37379366Y8073303D01*
X37438258Y7853512D01*
X37438261Y7853503D01*
X37534431Y7647268D01*
X37534432Y7647266D01*
X37664954Y7460859D01*
X37825858Y7299955D01*
X37825861Y7299953D01*
X38012266Y7169432D01*
X38218504Y7073261D01*
X38438308Y7014365D01*
X38600230Y7000199D01*
X38664998Y6994532D01*
X38665000Y6994532D01*
X38665002Y6994532D01*
X38721673Y6999491D01*
X38891692Y7014365D01*
X39111496Y7073261D01*
X39317734Y7169432D01*
X39504139Y7299953D01*
X39665047Y7460861D01*
X39795568Y7647266D01*
X39891739Y7853504D01*
X39950635Y8073308D01*
X39970468Y8299999D01*
X40689532Y8299999D01*
X40709364Y8073314D01*
X40709366Y8073303D01*
X40768258Y7853512D01*
X40768261Y7853503D01*
X40864431Y7647268D01*
X40864432Y7647266D01*
X40994954Y7460859D01*
X41155858Y7299955D01*
X41155861Y7299953D01*
X41342266Y7169432D01*
X41548504Y7073261D01*
X41768308Y7014365D01*
X41930230Y7000199D01*
X41994998Y6994532D01*
X41995000Y6994532D01*
X41995002Y6994532D01*
X42051673Y6999491D01*
X42221692Y7014365D01*
X42441496Y7073261D01*
X42647734Y7169432D01*
X42834139Y7299953D01*
X42995047Y7460861D01*
X43125568Y7647266D01*
X43221739Y7853504D01*
X43280635Y8073308D01*
X43300468Y8299999D01*
X44019532Y8299999D01*
X44039364Y8073314D01*
X44039366Y8073303D01*
X44098258Y7853512D01*
X44098261Y7853503D01*
X44194431Y7647268D01*
X44194432Y7647266D01*
X44324954Y7460859D01*
X44485858Y7299955D01*
X44485861Y7299953D01*
X44672266Y7169432D01*
X44878504Y7073261D01*
X45098308Y7014365D01*
X45260230Y7000199D01*
X45324998Y6994532D01*
X45325000Y6994532D01*
X45325002Y6994532D01*
X45381673Y6999491D01*
X45551692Y7014365D01*
X45771496Y7073261D01*
X45977734Y7169432D01*
X46164139Y7299953D01*
X46325047Y7460861D01*
X46455568Y7647266D01*
X46551739Y7853504D01*
X46610635Y8073308D01*
X46630468Y8300000D01*
X46610635Y8526692D01*
X46551739Y8746496D01*
X46455568Y8952734D01*
X46325047Y9139139D01*
X46325045Y9139142D01*
X46164141Y9300046D01*
X45977734Y9430568D01*
X45977732Y9430569D01*
X45771497Y9526739D01*
X45771488Y9526742D01*
X45551697Y9585634D01*
X45551693Y9585635D01*
X45551692Y9585635D01*
X45551691Y9585636D01*
X45551686Y9585636D01*
X45325002Y9605468D01*
X45324998Y9605468D01*
X45098313Y9585636D01*
X45098302Y9585634D01*
X44878511Y9526742D01*
X44878502Y9526739D01*
X44672267Y9430569D01*
X44672265Y9430568D01*
X44485858Y9300046D01*
X44324954Y9139142D01*
X44194432Y8952735D01*
X44194431Y8952733D01*
X44098261Y8746498D01*
X44098258Y8746489D01*
X44039366Y8526698D01*
X44039364Y8526687D01*
X44019532Y8300002D01*
X44019532Y8299999D01*
X43300468Y8299999D01*
X43300468Y8300000D01*
X43280635Y8526692D01*
X43221739Y8746496D01*
X43125568Y8952734D01*
X42995047Y9139139D01*
X42995045Y9139142D01*
X42834141Y9300046D01*
X42647734Y9430568D01*
X42647732Y9430569D01*
X42441497Y9526739D01*
X42441488Y9526742D01*
X42221697Y9585634D01*
X42221693Y9585635D01*
X42221692Y9585635D01*
X42221691Y9585636D01*
X42221686Y9585636D01*
X41995002Y9605468D01*
X41994998Y9605468D01*
X41768313Y9585636D01*
X41768302Y9585634D01*
X41548511Y9526742D01*
X41548502Y9526739D01*
X41342267Y9430569D01*
X41342265Y9430568D01*
X41155858Y9300046D01*
X40994954Y9139142D01*
X40864432Y8952735D01*
X40864431Y8952733D01*
X40768261Y8746498D01*
X40768258Y8746489D01*
X40709366Y8526698D01*
X40709364Y8526687D01*
X40689532Y8300002D01*
X40689532Y8299999D01*
X39970468Y8299999D01*
X39970468Y8300000D01*
X39950635Y8526692D01*
X39891739Y8746496D01*
X39795568Y8952734D01*
X39665047Y9139139D01*
X39665045Y9139142D01*
X39504141Y9300046D01*
X39317734Y9430568D01*
X39317732Y9430569D01*
X39111497Y9526739D01*
X39111488Y9526742D01*
X38891697Y9585634D01*
X38891693Y9585635D01*
X38891692Y9585635D01*
X38891691Y9585636D01*
X38891686Y9585636D01*
X38665002Y9605468D01*
X38664998Y9605468D01*
X38438313Y9585636D01*
X38438302Y9585634D01*
X38218511Y9526742D01*
X38218502Y9526739D01*
X38012267Y9430569D01*
X38012265Y9430568D01*
X37825858Y9300046D01*
X37664954Y9139142D01*
X37534432Y8952735D01*
X37534431Y8952733D01*
X37438261Y8746498D01*
X37438258Y8746489D01*
X37379366Y8526698D01*
X37379364Y8526687D01*
X37359532Y8300002D01*
X37359532Y8299999D01*
X36640468Y8299999D01*
X36640468Y8300000D01*
X36620635Y8526692D01*
X36561739Y8746496D01*
X36465568Y8952734D01*
X36335047Y9139139D01*
X36335045Y9139142D01*
X36174141Y9300046D01*
X35987734Y9430568D01*
X35987732Y9430569D01*
X35781497Y9526739D01*
X35781488Y9526742D01*
X35561697Y9585634D01*
X35561693Y9585635D01*
X35561692Y9585635D01*
X35561691Y9585636D01*
X35561686Y9585636D01*
X35335002Y9605468D01*
X35334998Y9605468D01*
X35108313Y9585636D01*
X35108302Y9585634D01*
X34888511Y9526742D01*
X34888502Y9526739D01*
X34682267Y9430569D01*
X34682265Y9430568D01*
X34495858Y9300046D01*
X34334954Y9139142D01*
X34204432Y8952735D01*
X34204431Y8952733D01*
X34108261Y8746498D01*
X34108258Y8746489D01*
X34049366Y8526698D01*
X34049364Y8526687D01*
X34029532Y8300002D01*
X34029532Y8299999D01*
X33310468Y8299999D01*
X33310468Y8300000D01*
X33290635Y8526692D01*
X33231739Y8746496D01*
X33135568Y8952734D01*
X33005047Y9139139D01*
X33005045Y9139142D01*
X32844141Y9300046D01*
X32657734Y9430568D01*
X32657732Y9430569D01*
X32451497Y9526739D01*
X32451488Y9526742D01*
X32231697Y9585634D01*
X32231693Y9585635D01*
X32231692Y9585635D01*
X32231691Y9585636D01*
X32231686Y9585636D01*
X32005002Y9605468D01*
X32004998Y9605468D01*
X31778313Y9585636D01*
X31778302Y9585634D01*
X31558511Y9526742D01*
X31558502Y9526739D01*
X31352267Y9430569D01*
X31352265Y9430568D01*
X31165858Y9300046D01*
X31004954Y9139142D01*
X30874432Y8952735D01*
X30874431Y8952733D01*
X30778261Y8746498D01*
X30778258Y8746489D01*
X30719366Y8526698D01*
X30719364Y8526687D01*
X30699532Y8300002D01*
X30699532Y8299999D01*
X29980468Y8299999D01*
X29980468Y8300000D01*
X29960635Y8526692D01*
X29901739Y8746496D01*
X29805568Y8952734D01*
X29675047Y9139139D01*
X29675045Y9139142D01*
X29514141Y9300046D01*
X29327734Y9430568D01*
X29327732Y9430569D01*
X29121497Y9526739D01*
X29121488Y9526742D01*
X28901697Y9585634D01*
X28901693Y9585635D01*
X28901692Y9585635D01*
X28901691Y9585636D01*
X28901686Y9585636D01*
X28675002Y9605468D01*
X28674998Y9605468D01*
X28448313Y9585636D01*
X28448302Y9585634D01*
X28228511Y9526742D01*
X28228502Y9526739D01*
X28022267Y9430569D01*
X28022265Y9430568D01*
X27835858Y9300046D01*
X27674954Y9139142D01*
X27544432Y8952735D01*
X27544431Y8952733D01*
X27448261Y8746498D01*
X27448258Y8746489D01*
X27389366Y8526698D01*
X27389364Y8526687D01*
X27369532Y8300002D01*
X27369532Y8299999D01*
X18100500Y8299999D01*
X18100500Y8839882D01*
X18069976Y8913574D01*
X18013574Y8969976D01*
X17939883Y9000500D01*
X17939882Y9000500D01*
X15539882Y9000500D01*
X15460118Y9000500D01*
X15460116Y9000500D01*
X15386425Y8969976D01*
X15330024Y8913575D01*
X15299500Y8839884D01*
X15299500Y8839882D01*
X15299500Y3560118D01*
X-3464952Y3560118D01*
X-3464952Y6099997D01*
X5194435Y6099997D01*
X5214630Y5920751D01*
X5214631Y5920746D01*
X5274211Y5750477D01*
X5370184Y5597738D01*
X5497738Y5470184D01*
X5650478Y5374211D01*
X5786137Y5326742D01*
X5820745Y5314632D01*
X5820750Y5314631D01*
X5999996Y5294435D01*
X6000000Y5294435D01*
X6000004Y5294435D01*
X6179249Y5314631D01*
X6179252Y5314632D01*
X6179255Y5314632D01*
X6349522Y5374211D01*
X6502262Y5470184D01*
X6629816Y5597738D01*
X6725789Y5750478D01*
X6785368Y5920745D01*
X6805565Y6099997D01*
X8794435Y6099997D01*
X8814630Y5920751D01*
X8814631Y5920746D01*
X8874211Y5750477D01*
X8970184Y5597738D01*
X9097738Y5470184D01*
X9250478Y5374211D01*
X9386137Y5326742D01*
X9420745Y5314632D01*
X9420750Y5314631D01*
X9599996Y5294435D01*
X9600000Y5294435D01*
X9600004Y5294435D01*
X9779249Y5314631D01*
X9779252Y5314632D01*
X9779255Y5314632D01*
X9949522Y5374211D01*
X10102262Y5470184D01*
X10229816Y5597738D01*
X10325789Y5750478D01*
X10385368Y5920745D01*
X10405565Y6100000D01*
X10385368Y6279255D01*
X10325789Y6449522D01*
X10229816Y6602262D01*
X10102262Y6729816D01*
X9949523Y6825789D01*
X9779254Y6885369D01*
X9779249Y6885370D01*
X9600004Y6905565D01*
X9599996Y6905565D01*
X9420750Y6885370D01*
X9420745Y6885369D01*
X9250476Y6825789D01*
X9097737Y6729816D01*
X8970184Y6602263D01*
X8874211Y6449524D01*
X8814631Y6279255D01*
X8814630Y6279250D01*
X8794435Y6100004D01*
X8794435Y6099997D01*
X6805565Y6099997D01*
X6805565Y6100000D01*
X6785368Y6279255D01*
X6725789Y6449522D01*
X6629816Y6602262D01*
X6502262Y6729816D01*
X6349523Y6825789D01*
X6179254Y6885369D01*
X6179249Y6885370D01*
X6000004Y6905565D01*
X5999996Y6905565D01*
X5820750Y6885370D01*
X5820745Y6885369D01*
X5650476Y6825789D01*
X5497737Y6729816D01*
X5370184Y6602263D01*
X5274211Y6449524D01*
X5214631Y6279255D01*
X5214630Y6279250D01*
X5194435Y6100004D01*
X5194435Y6099997D01*
X-3464952Y6099997D01*
X-3464952Y12499999D01*
X23219532Y12499999D01*
X23239364Y12273314D01*
X23239366Y12273303D01*
X23298258Y12053512D01*
X23298261Y12053503D01*
X23394431Y11847268D01*
X23394432Y11847266D01*
X23524954Y11660859D01*
X23685858Y11499955D01*
X23685861Y11499953D01*
X23872266Y11369432D01*
X24078504Y11273261D01*
X24298308Y11214365D01*
X24460230Y11200199D01*
X24524998Y11194532D01*
X24525000Y11194532D01*
X24525002Y11194532D01*
X24581673Y11199491D01*
X24751692Y11214365D01*
X24971496Y11273261D01*
X25177734Y11369432D01*
X25364139Y11499953D01*
X25525047Y11660861D01*
X25655568Y11847266D01*
X25751739Y12053504D01*
X25810635Y12273308D01*
X25830468Y12499999D01*
X27369532Y12499999D01*
X27389364Y12273314D01*
X27389366Y12273303D01*
X27448258Y12053512D01*
X27448261Y12053503D01*
X27544431Y11847268D01*
X27544432Y11847266D01*
X27674954Y11660859D01*
X27835858Y11499955D01*
X27835861Y11499953D01*
X28022266Y11369432D01*
X28228504Y11273261D01*
X28448308Y11214365D01*
X28610230Y11200199D01*
X28674998Y11194532D01*
X28675000Y11194532D01*
X28675002Y11194532D01*
X28731673Y11199491D01*
X28901692Y11214365D01*
X29121496Y11273261D01*
X29327734Y11369432D01*
X29514139Y11499953D01*
X29675047Y11660861D01*
X29805568Y11847266D01*
X29901739Y12053504D01*
X29960635Y12273308D01*
X29980468Y12499999D01*
X30699532Y12499999D01*
X30719364Y12273314D01*
X30719366Y12273303D01*
X30778258Y12053512D01*
X30778261Y12053503D01*
X30874431Y11847268D01*
X30874432Y11847266D01*
X31004954Y11660859D01*
X31165858Y11499955D01*
X31165861Y11499953D01*
X31352266Y11369432D01*
X31558504Y11273261D01*
X31778308Y11214365D01*
X31940230Y11200199D01*
X32004998Y11194532D01*
X32005000Y11194532D01*
X32005002Y11194532D01*
X32061673Y11199491D01*
X32231692Y11214365D01*
X32451496Y11273261D01*
X32657734Y11369432D01*
X32844139Y11499953D01*
X33005047Y11660861D01*
X33135568Y11847266D01*
X33231739Y12053504D01*
X33290635Y12273308D01*
X33310468Y12499999D01*
X34029532Y12499999D01*
X34049364Y12273314D01*
X34049366Y12273303D01*
X34108258Y12053512D01*
X34108261Y12053503D01*
X34204431Y11847268D01*
X34204432Y11847266D01*
X34334954Y11660859D01*
X34495858Y11499955D01*
X34495861Y11499953D01*
X34682266Y11369432D01*
X34888504Y11273261D01*
X35108308Y11214365D01*
X35270230Y11200199D01*
X35334998Y11194532D01*
X35335000Y11194532D01*
X35335002Y11194532D01*
X35391673Y11199491D01*
X35561692Y11214365D01*
X35781496Y11273261D01*
X35987734Y11369432D01*
X36174139Y11499953D01*
X36335047Y11660861D01*
X36465568Y11847266D01*
X36561739Y12053504D01*
X36620635Y12273308D01*
X36640468Y12499999D01*
X37359532Y12499999D01*
X37379364Y12273314D01*
X37379366Y12273303D01*
X37438258Y12053512D01*
X37438261Y12053503D01*
X37534431Y11847268D01*
X37534432Y11847266D01*
X37664954Y11660859D01*
X37825858Y11499955D01*
X37825861Y11499953D01*
X38012266Y11369432D01*
X38218504Y11273261D01*
X38438308Y11214365D01*
X38600230Y11200199D01*
X38664998Y11194532D01*
X38665000Y11194532D01*
X38665002Y11194532D01*
X38721673Y11199491D01*
X38891692Y11214365D01*
X39111496Y11273261D01*
X39317734Y11369432D01*
X39504139Y11499953D01*
X39665047Y11660861D01*
X39795568Y11847266D01*
X39891739Y12053504D01*
X39950635Y12273308D01*
X39970468Y12499999D01*
X40689532Y12499999D01*
X40709364Y12273314D01*
X40709366Y12273303D01*
X40768258Y12053512D01*
X40768261Y12053503D01*
X40864431Y11847268D01*
X40864432Y11847266D01*
X40994954Y11660859D01*
X41155858Y11499955D01*
X41155861Y11499953D01*
X41342266Y11369432D01*
X41548504Y11273261D01*
X41768308Y11214365D01*
X41930230Y11200199D01*
X41994998Y11194532D01*
X41995000Y11194532D01*
X41995002Y11194532D01*
X42051673Y11199491D01*
X42221692Y11214365D01*
X42441496Y11273261D01*
X42647734Y11369432D01*
X42834139Y11499953D01*
X42995047Y11660861D01*
X43125568Y11847266D01*
X43221739Y12053504D01*
X43280635Y12273308D01*
X43300468Y12499999D01*
X44019532Y12499999D01*
X44039364Y12273314D01*
X44039366Y12273303D01*
X44098258Y12053512D01*
X44098261Y12053503D01*
X44194431Y11847268D01*
X44194432Y11847266D01*
X44324954Y11660859D01*
X44485858Y11499955D01*
X44485861Y11499953D01*
X44672266Y11369432D01*
X44878504Y11273261D01*
X45098308Y11214365D01*
X45260230Y11200199D01*
X45324998Y11194532D01*
X45325000Y11194532D01*
X45325002Y11194532D01*
X45381673Y11199491D01*
X45551692Y11214365D01*
X45771496Y11273261D01*
X45977734Y11369432D01*
X46164139Y11499953D01*
X46325047Y11660861D01*
X46455568Y11847266D01*
X46551739Y12053504D01*
X46610635Y12273308D01*
X46630468Y12499999D01*
X48169532Y12499999D01*
X48189364Y12273314D01*
X48189366Y12273303D01*
X48248258Y12053512D01*
X48248261Y12053503D01*
X48344431Y11847268D01*
X48344432Y11847266D01*
X48474954Y11660859D01*
X48635858Y11499955D01*
X48635861Y11499953D01*
X48822266Y11369432D01*
X49028504Y11273261D01*
X49248308Y11214365D01*
X49410230Y11200199D01*
X49474998Y11194532D01*
X49475000Y11194532D01*
X49475002Y11194532D01*
X49531673Y11199491D01*
X49701692Y11214365D01*
X49921496Y11273261D01*
X50127734Y11369432D01*
X50314139Y11499953D01*
X50475047Y11660861D01*
X50605568Y11847266D01*
X50701739Y12053504D01*
X50760635Y12273308D01*
X50780468Y12500000D01*
X50760635Y12726692D01*
X50701739Y12946496D01*
X50605568Y13152734D01*
X50475047Y13339139D01*
X50475045Y13339142D01*
X50314141Y13500046D01*
X50127734Y13630568D01*
X50127732Y13630569D01*
X49921497Y13726739D01*
X49921488Y13726742D01*
X49701697Y13785634D01*
X49701693Y13785635D01*
X49701692Y13785635D01*
X49701691Y13785636D01*
X49701686Y13785636D01*
X49475002Y13805468D01*
X49474998Y13805468D01*
X49248313Y13785636D01*
X49248302Y13785634D01*
X49028511Y13726742D01*
X49028502Y13726739D01*
X48822267Y13630569D01*
X48822265Y13630568D01*
X48635858Y13500046D01*
X48474954Y13339142D01*
X48344432Y13152735D01*
X48344431Y13152733D01*
X48248261Y12946498D01*
X48248258Y12946489D01*
X48189366Y12726698D01*
X48189364Y12726687D01*
X48169532Y12500002D01*
X48169532Y12499999D01*
X46630468Y12499999D01*
X46630468Y12500000D01*
X46610635Y12726692D01*
X46551739Y12946496D01*
X46455568Y13152734D01*
X46325047Y13339139D01*
X46325045Y13339142D01*
X46164141Y13500046D01*
X45977734Y13630568D01*
X45977732Y13630569D01*
X45771497Y13726739D01*
X45771488Y13726742D01*
X45551697Y13785634D01*
X45551693Y13785635D01*
X45551692Y13785635D01*
X45551691Y13785636D01*
X45551686Y13785636D01*
X45325002Y13805468D01*
X45324998Y13805468D01*
X45098313Y13785636D01*
X45098302Y13785634D01*
X44878511Y13726742D01*
X44878502Y13726739D01*
X44672267Y13630569D01*
X44672265Y13630568D01*
X44485858Y13500046D01*
X44324954Y13339142D01*
X44194432Y13152735D01*
X44194431Y13152733D01*
X44098261Y12946498D01*
X44098258Y12946489D01*
X44039366Y12726698D01*
X44039364Y12726687D01*
X44019532Y12500002D01*
X44019532Y12499999D01*
X43300468Y12499999D01*
X43300468Y12500000D01*
X43280635Y12726692D01*
X43221739Y12946496D01*
X43125568Y13152734D01*
X42995047Y13339139D01*
X42995045Y13339142D01*
X42834141Y13500046D01*
X42647734Y13630568D01*
X42647732Y13630569D01*
X42441497Y13726739D01*
X42441488Y13726742D01*
X42221697Y13785634D01*
X42221693Y13785635D01*
X42221692Y13785635D01*
X42221691Y13785636D01*
X42221686Y13785636D01*
X41995002Y13805468D01*
X41994998Y13805468D01*
X41768313Y13785636D01*
X41768302Y13785634D01*
X41548511Y13726742D01*
X41548502Y13726739D01*
X41342267Y13630569D01*
X41342265Y13630568D01*
X41155858Y13500046D01*
X40994954Y13339142D01*
X40864432Y13152735D01*
X40864431Y13152733D01*
X40768261Y12946498D01*
X40768258Y12946489D01*
X40709366Y12726698D01*
X40709364Y12726687D01*
X40689532Y12500002D01*
X40689532Y12499999D01*
X39970468Y12499999D01*
X39970468Y12500000D01*
X39950635Y12726692D01*
X39891739Y12946496D01*
X39795568Y13152734D01*
X39665047Y13339139D01*
X39665045Y13339142D01*
X39504141Y13500046D01*
X39317734Y13630568D01*
X39317732Y13630569D01*
X39111497Y13726739D01*
X39111488Y13726742D01*
X38891697Y13785634D01*
X38891693Y13785635D01*
X38891692Y13785635D01*
X38891691Y13785636D01*
X38891686Y13785636D01*
X38665002Y13805468D01*
X38664998Y13805468D01*
X38438313Y13785636D01*
X38438302Y13785634D01*
X38218511Y13726742D01*
X38218502Y13726739D01*
X38012267Y13630569D01*
X38012265Y13630568D01*
X37825858Y13500046D01*
X37664954Y13339142D01*
X37534432Y13152735D01*
X37534431Y13152733D01*
X37438261Y12946498D01*
X37438258Y12946489D01*
X37379366Y12726698D01*
X37379364Y12726687D01*
X37359532Y12500002D01*
X37359532Y12499999D01*
X36640468Y12499999D01*
X36640468Y12500000D01*
X36620635Y12726692D01*
X36561739Y12946496D01*
X36465568Y13152734D01*
X36335047Y13339139D01*
X36335045Y13339142D01*
X36174141Y13500046D01*
X35987734Y13630568D01*
X35987732Y13630569D01*
X35781497Y13726739D01*
X35781488Y13726742D01*
X35561697Y13785634D01*
X35561693Y13785635D01*
X35561692Y13785635D01*
X35561691Y13785636D01*
X35561686Y13785636D01*
X35335002Y13805468D01*
X35334998Y13805468D01*
X35108313Y13785636D01*
X35108302Y13785634D01*
X34888511Y13726742D01*
X34888502Y13726739D01*
X34682267Y13630569D01*
X34682265Y13630568D01*
X34495858Y13500046D01*
X34334954Y13339142D01*
X34204432Y13152735D01*
X34204431Y13152733D01*
X34108261Y12946498D01*
X34108258Y12946489D01*
X34049366Y12726698D01*
X34049364Y12726687D01*
X34029532Y12500002D01*
X34029532Y12499999D01*
X33310468Y12499999D01*
X33310468Y12500000D01*
X33290635Y12726692D01*
X33231739Y12946496D01*
X33135568Y13152734D01*
X33005047Y13339139D01*
X33005045Y13339142D01*
X32844141Y13500046D01*
X32657734Y13630568D01*
X32657732Y13630569D01*
X32451497Y13726739D01*
X32451488Y13726742D01*
X32231697Y13785634D01*
X32231693Y13785635D01*
X32231692Y13785635D01*
X32231691Y13785636D01*
X32231686Y13785636D01*
X32005002Y13805468D01*
X32004998Y13805468D01*
X31778313Y13785636D01*
X31778302Y13785634D01*
X31558511Y13726742D01*
X31558502Y13726739D01*
X31352267Y13630569D01*
X31352265Y13630568D01*
X31165858Y13500046D01*
X31004954Y13339142D01*
X30874432Y13152735D01*
X30874431Y13152733D01*
X30778261Y12946498D01*
X30778258Y12946489D01*
X30719366Y12726698D01*
X30719364Y12726687D01*
X30699532Y12500002D01*
X30699532Y12499999D01*
X29980468Y12499999D01*
X29980468Y12500000D01*
X29960635Y12726692D01*
X29901739Y12946496D01*
X29805568Y13152734D01*
X29675047Y13339139D01*
X29675045Y13339142D01*
X29514141Y13500046D01*
X29327734Y13630568D01*
X29327732Y13630569D01*
X29121497Y13726739D01*
X29121488Y13726742D01*
X28901697Y13785634D01*
X28901693Y13785635D01*
X28901692Y13785635D01*
X28901691Y13785636D01*
X28901686Y13785636D01*
X28675002Y13805468D01*
X28674998Y13805468D01*
X28448313Y13785636D01*
X28448302Y13785634D01*
X28228511Y13726742D01*
X28228502Y13726739D01*
X28022267Y13630569D01*
X28022265Y13630568D01*
X27835858Y13500046D01*
X27674954Y13339142D01*
X27544432Y13152735D01*
X27544431Y13152733D01*
X27448261Y12946498D01*
X27448258Y12946489D01*
X27389366Y12726698D01*
X27389364Y12726687D01*
X27369532Y12500002D01*
X27369532Y12499999D01*
X25830468Y12499999D01*
X25830468Y12500000D01*
X25810635Y12726692D01*
X25751739Y12946496D01*
X25655568Y13152734D01*
X25525047Y13339139D01*
X25525045Y13339142D01*
X25364141Y13500046D01*
X25177734Y13630568D01*
X25177732Y13630569D01*
X24971497Y13726739D01*
X24971488Y13726742D01*
X24751697Y13785634D01*
X24751693Y13785635D01*
X24751692Y13785635D01*
X24751691Y13785636D01*
X24751686Y13785636D01*
X24525002Y13805468D01*
X24524998Y13805468D01*
X24298313Y13785636D01*
X24298302Y13785634D01*
X24078511Y13726742D01*
X24078502Y13726739D01*
X23872267Y13630569D01*
X23872265Y13630568D01*
X23685858Y13500046D01*
X23524954Y13339142D01*
X23394432Y13152735D01*
X23394431Y13152733D01*
X23298261Y12946498D01*
X23298258Y12946489D01*
X23239366Y12726698D01*
X23239364Y12726687D01*
X23219532Y12500002D01*
X23219532Y12499999D01*
X-3464952Y12499999D01*
X-3464952Y22600000D01*
X17944722Y22600000D01*
X17963762Y22443182D01*
X18019780Y22295477D01*
X18109517Y22165470D01*
X18227760Y22060717D01*
X18227762Y22060716D01*
X18367634Y21987304D01*
X18521014Y21949500D01*
X18521015Y21949500D01*
X18678985Y21949500D01*
X18832365Y21987304D01*
X18972240Y22060717D01*
X19090483Y22165470D01*
X19180220Y22295477D01*
X19236237Y22443182D01*
X19255278Y22600000D01*
X19255278Y22600005D01*
X19236237Y22756819D01*
X19201323Y22848879D01*
X19180220Y22904523D01*
X19090483Y23034530D01*
X18972240Y23139283D01*
X18972238Y23139284D01*
X18972237Y23139285D01*
X18832365Y23212697D01*
X18678986Y23250500D01*
X18678985Y23250500D01*
X18521015Y23250500D01*
X18521014Y23250500D01*
X18367634Y23212697D01*
X18227762Y23139285D01*
X18109516Y23034529D01*
X18019781Y22904525D01*
X18019780Y22904524D01*
X17963762Y22756819D01*
X17944722Y22600001D01*
X17944722Y22600000D01*
X-3464952Y22600000D01*
X-3464952Y23400000D01*
X24544722Y23400000D01*
X24563762Y23243182D01*
X24619780Y23095477D01*
X24709517Y22965470D01*
X24827760Y22860717D01*
X24827762Y22860716D01*
X24967634Y22787304D01*
X25121014Y22749500D01*
X25121015Y22749500D01*
X25278985Y22749500D01*
X25432365Y22787304D01*
X25445355Y22794122D01*
X25572240Y22860717D01*
X25690483Y22965470D01*
X25780220Y23095477D01*
X25836237Y23243182D01*
X25855278Y23400000D01*
X32144722Y23400000D01*
X32163762Y23243182D01*
X32219780Y23095477D01*
X32309517Y22965470D01*
X32427760Y22860717D01*
X32427762Y22860716D01*
X32567634Y22787304D01*
X32721014Y22749500D01*
X32721015Y22749500D01*
X32878985Y22749500D01*
X33032365Y22787304D01*
X33045355Y22794122D01*
X33172240Y22860717D01*
X33290483Y22965470D01*
X33380220Y23095477D01*
X33436237Y23243182D01*
X33453841Y23388162D01*
X39454723Y23388162D01*
X39473763Y23231344D01*
X39508677Y23139285D01*
X39529781Y23083639D01*
X39619518Y22953632D01*
X39737761Y22848879D01*
X39737763Y22848878D01*
X39877635Y22775466D01*
X40031015Y22737662D01*
X40031016Y22737662D01*
X40188987Y22737662D01*
X40188987Y22737663D01*
X40191879Y22738375D01*
X40192330Y22738486D01*
X40194858Y22738375D01*
X40196433Y22738566D01*
X40196464Y22738305D01*
X40262132Y22735418D01*
X40319195Y22695100D01*
X40345401Y22630331D01*
X40345104Y22603152D01*
X40344722Y22600005D01*
X40344722Y22600000D01*
X40363762Y22443182D01*
X40419780Y22295477D01*
X40509517Y22165470D01*
X40627760Y22060717D01*
X40627762Y22060716D01*
X40767634Y21987304D01*
X40921014Y21949500D01*
X40921015Y21949500D01*
X41078985Y21949500D01*
X41232365Y21987304D01*
X41372240Y22060717D01*
X41490483Y22165470D01*
X41580220Y22295477D01*
X41636237Y22443182D01*
X41655278Y22600000D01*
X41655278Y22600005D01*
X41636237Y22756819D01*
X41601323Y22848879D01*
X41580220Y22904523D01*
X41490483Y23034530D01*
X41372240Y23139283D01*
X41372238Y23139284D01*
X41372237Y23139285D01*
X41232365Y23212697D01*
X41078986Y23250500D01*
X41078985Y23250500D01*
X40921015Y23250500D01*
X40921014Y23250500D01*
X40917657Y23249673D01*
X40915122Y23249785D01*
X40913568Y23249596D01*
X40913536Y23249855D01*
X40847855Y23252749D01*
X40790796Y23293074D01*
X40764597Y23357846D01*
X40764898Y23385024D01*
X40765279Y23388161D01*
X40765279Y23388163D01*
X40763842Y23400000D01*
X46944722Y23400000D01*
X46963762Y23243182D01*
X47019780Y23095477D01*
X47109517Y22965470D01*
X47227760Y22860717D01*
X47227762Y22860716D01*
X47367634Y22787304D01*
X47521014Y22749500D01*
X47521015Y22749500D01*
X47678985Y22749500D01*
X47832365Y22787304D01*
X47845355Y22794122D01*
X47972240Y22860717D01*
X48090483Y22965470D01*
X48180220Y23095477D01*
X48236237Y23243182D01*
X48255278Y23400000D01*
X54544722Y23400000D01*
X54563762Y23243182D01*
X54619780Y23095477D01*
X54709517Y22965470D01*
X54827760Y22860717D01*
X54827762Y22860716D01*
X54967634Y22787304D01*
X55121014Y22749500D01*
X55121015Y22749500D01*
X55278985Y22749500D01*
X55432365Y22787304D01*
X55445355Y22794122D01*
X55572240Y22860717D01*
X55690483Y22965470D01*
X55780220Y23095477D01*
X55836237Y23243182D01*
X55855278Y23400000D01*
X62544722Y23400000D01*
X62563762Y23243182D01*
X62619780Y23095477D01*
X62709517Y22965470D01*
X62827760Y22860717D01*
X62827762Y22860716D01*
X62967634Y22787304D01*
X63121014Y22749500D01*
X63121015Y22749500D01*
X63278985Y22749500D01*
X63432365Y22787304D01*
X63445355Y22794122D01*
X63572240Y22860717D01*
X63690483Y22965470D01*
X63780220Y23095477D01*
X63836237Y23243182D01*
X63855278Y23400000D01*
X63837675Y23544980D01*
X63836237Y23556819D01*
X63814992Y23612836D01*
X63780220Y23704523D01*
X63690483Y23834530D01*
X63572240Y23939283D01*
X63572238Y23939284D01*
X63572237Y23939285D01*
X63432365Y24012697D01*
X63278986Y24050500D01*
X63278985Y24050500D01*
X63121015Y24050500D01*
X63121014Y24050500D01*
X62967634Y24012697D01*
X62827762Y23939285D01*
X62709516Y23834529D01*
X62619781Y23704525D01*
X62619780Y23704524D01*
X62563762Y23556819D01*
X62544722Y23400001D01*
X62544722Y23400000D01*
X55855278Y23400000D01*
X55837675Y23544980D01*
X55836237Y23556819D01*
X55814992Y23612836D01*
X55780220Y23704523D01*
X55690483Y23834530D01*
X55572240Y23939283D01*
X55572238Y23939284D01*
X55572237Y23939285D01*
X55432365Y24012697D01*
X55278986Y24050500D01*
X55278985Y24050500D01*
X55121015Y24050500D01*
X55121014Y24050500D01*
X54967634Y24012697D01*
X54827762Y23939285D01*
X54709516Y23834529D01*
X54619781Y23704525D01*
X54619780Y23704524D01*
X54563762Y23556819D01*
X54544722Y23400001D01*
X54544722Y23400000D01*
X48255278Y23400000D01*
X48237675Y23544980D01*
X48236237Y23556819D01*
X48214992Y23612836D01*
X48180220Y23704523D01*
X48090483Y23834530D01*
X47972240Y23939283D01*
X47972238Y23939284D01*
X47972237Y23939285D01*
X47832365Y24012697D01*
X47678986Y24050500D01*
X47678985Y24050500D01*
X47521015Y24050500D01*
X47521014Y24050500D01*
X47367634Y24012697D01*
X47227762Y23939285D01*
X47109516Y23834529D01*
X47019781Y23704525D01*
X47019780Y23704524D01*
X46963762Y23556819D01*
X46944722Y23400001D01*
X46944722Y23400000D01*
X40763842Y23400000D01*
X40746238Y23544981D01*
X40724993Y23600998D01*
X40690221Y23692685D01*
X40600484Y23822692D01*
X40482241Y23927445D01*
X40482239Y23927446D01*
X40482238Y23927447D01*
X40342366Y24000859D01*
X40188987Y24038662D01*
X40188986Y24038662D01*
X40031016Y24038662D01*
X40031015Y24038662D01*
X39877635Y24000859D01*
X39737763Y23927447D01*
X39737761Y23927445D01*
X39632881Y23834530D01*
X39619517Y23822691D01*
X39529782Y23692687D01*
X39529781Y23692686D01*
X39473763Y23544981D01*
X39454723Y23388163D01*
X39454723Y23388162D01*
X33453841Y23388162D01*
X33455278Y23400000D01*
X33437675Y23544980D01*
X33436237Y23556819D01*
X33414992Y23612836D01*
X33380220Y23704523D01*
X33290483Y23834530D01*
X33172240Y23939283D01*
X33172238Y23939284D01*
X33172237Y23939285D01*
X33032365Y24012697D01*
X32878986Y24050500D01*
X32878985Y24050500D01*
X32721015Y24050500D01*
X32721014Y24050500D01*
X32567634Y24012697D01*
X32427762Y23939285D01*
X32309516Y23834529D01*
X32219781Y23704525D01*
X32219780Y23704524D01*
X32163762Y23556819D01*
X32144722Y23400001D01*
X32144722Y23400000D01*
X25855278Y23400000D01*
X25837675Y23544980D01*
X25836237Y23556819D01*
X25814992Y23612836D01*
X25780220Y23704523D01*
X25690483Y23834530D01*
X25572240Y23939283D01*
X25572238Y23939284D01*
X25572237Y23939285D01*
X25432365Y24012697D01*
X25278986Y24050500D01*
X25278985Y24050500D01*
X25121015Y24050500D01*
X25121014Y24050500D01*
X24967634Y24012697D01*
X24827762Y23939285D01*
X24709516Y23834529D01*
X24619781Y23704525D01*
X24619780Y23704524D01*
X24563762Y23556819D01*
X24544722Y23400001D01*
X24544722Y23400000D01*
X-3464952Y23400000D01*
X-3464952Y25400000D01*
X7344722Y25400000D01*
X7363762Y25243182D01*
X7419780Y25095477D01*
X7509517Y24965470D01*
X7627760Y24860717D01*
X7627762Y24860716D01*
X7767634Y24787304D01*
X7921014Y24749500D01*
X7921015Y24749500D01*
X8078985Y24749500D01*
X8232365Y24787304D01*
X8372240Y24860717D01*
X8490483Y24965470D01*
X8580220Y25095477D01*
X8636237Y25243182D01*
X8655278Y25400000D01*
X13344722Y25400000D01*
X13363762Y25243182D01*
X13419780Y25095477D01*
X13509517Y24965470D01*
X13627760Y24860717D01*
X13627762Y24860716D01*
X13767634Y24787304D01*
X13921014Y24749500D01*
X13921015Y24749500D01*
X14078985Y24749500D01*
X14232365Y24787304D01*
X14372240Y24860717D01*
X14490483Y24965470D01*
X14580220Y25095477D01*
X14636237Y25243182D01*
X14655278Y25400000D01*
X14636237Y25556818D01*
X14580220Y25704523D01*
X14490483Y25834530D01*
X14372240Y25939283D01*
X14372238Y25939284D01*
X14372237Y25939285D01*
X14232365Y26012697D01*
X14078986Y26050500D01*
X14078985Y26050500D01*
X13921015Y26050500D01*
X13921014Y26050500D01*
X13767634Y26012697D01*
X13627762Y25939285D01*
X13509516Y25834529D01*
X13419781Y25704525D01*
X13419780Y25704524D01*
X13363762Y25556819D01*
X13344722Y25400001D01*
X13344722Y25400000D01*
X8655278Y25400000D01*
X8636237Y25556818D01*
X8580220Y25704523D01*
X8490483Y25834530D01*
X8372240Y25939283D01*
X8372238Y25939284D01*
X8372237Y25939285D01*
X8232365Y26012697D01*
X8078986Y26050500D01*
X8078985Y26050500D01*
X7921015Y26050500D01*
X7921014Y26050500D01*
X7767634Y26012697D01*
X7627762Y25939285D01*
X7509516Y25834529D01*
X7419781Y25704525D01*
X7419780Y25704524D01*
X7363762Y25556819D01*
X7344722Y25400001D01*
X7344722Y25400000D01*
X-3464952Y25400000D01*
X-3464952Y27000000D01*
X70544722Y27000000D01*
X70563762Y26843182D01*
X70619780Y26695477D01*
X70709517Y26565470D01*
X70827760Y26460717D01*
X70827762Y26460716D01*
X70967634Y26387304D01*
X71121014Y26349500D01*
X71121015Y26349500D01*
X71278985Y26349500D01*
X71432365Y26387304D01*
X71572240Y26460717D01*
X71690483Y26565470D01*
X71780220Y26695477D01*
X71836237Y26843182D01*
X71855278Y27000000D01*
X71836237Y27156818D01*
X71780220Y27304523D01*
X71690483Y27434530D01*
X71572240Y27539283D01*
X71572238Y27539284D01*
X71572237Y27539285D01*
X71432365Y27612697D01*
X71278986Y27650500D01*
X71278985Y27650500D01*
X71121015Y27650500D01*
X71121014Y27650500D01*
X70967634Y27612697D01*
X70827762Y27539285D01*
X70709516Y27434529D01*
X70619781Y27304525D01*
X70619780Y27304524D01*
X70563762Y27156819D01*
X70544722Y27000001D01*
X70544722Y27000000D01*
X-3464952Y27000000D01*
X-3464952Y32400000D01*
X34944722Y32400000D01*
X34963762Y32243182D01*
X35019780Y32095477D01*
X35109517Y31965470D01*
X35227760Y31860717D01*
X35227762Y31860716D01*
X35367634Y31787304D01*
X35521014Y31749500D01*
X35521015Y31749500D01*
X35678985Y31749500D01*
X35832365Y31787304D01*
X35972240Y31860717D01*
X36090483Y31965470D01*
X36180220Y32095477D01*
X36236237Y32243182D01*
X36255278Y32400000D01*
X39744722Y32400000D01*
X39763762Y32243182D01*
X39819780Y32095477D01*
X39909517Y31965470D01*
X40027760Y31860717D01*
X40027762Y31860716D01*
X40167634Y31787304D01*
X40321014Y31749500D01*
X40321015Y31749500D01*
X40478985Y31749500D01*
X40632365Y31787304D01*
X40772240Y31860717D01*
X40890483Y31965470D01*
X40980220Y32095477D01*
X41036237Y32243182D01*
X41055278Y32400000D01*
X41036237Y32556818D01*
X41035758Y32558080D01*
X40996834Y32660715D01*
X40980220Y32704523D01*
X40890483Y32834530D01*
X40772240Y32939283D01*
X40772238Y32939284D01*
X40772237Y32939285D01*
X40632365Y33012697D01*
X40478986Y33050500D01*
X40478985Y33050500D01*
X40321015Y33050500D01*
X40321014Y33050500D01*
X40167634Y33012697D01*
X40027762Y32939285D01*
X39909516Y32834529D01*
X39819781Y32704525D01*
X39819780Y32704524D01*
X39763762Y32556819D01*
X39744722Y32400001D01*
X39744722Y32400000D01*
X36255278Y32400000D01*
X36236237Y32556818D01*
X36235758Y32558080D01*
X36196834Y32660715D01*
X36180220Y32704523D01*
X36090483Y32834530D01*
X35972240Y32939283D01*
X35972238Y32939284D01*
X35972237Y32939285D01*
X35832365Y33012697D01*
X35678986Y33050500D01*
X35678985Y33050500D01*
X35521015Y33050500D01*
X35521014Y33050500D01*
X35367634Y33012697D01*
X35227762Y32939285D01*
X35109516Y32834529D01*
X35019781Y32704525D01*
X35019780Y32704524D01*
X34963762Y32556819D01*
X34944722Y32400001D01*
X34944722Y32400000D01*
X-3464952Y32400000D01*
X-3464952Y33667522D01*
X30944722Y33667522D01*
X30963762Y33510704D01*
X31007463Y33395477D01*
X31019780Y33362999D01*
X31109517Y33232992D01*
X31227760Y33128239D01*
X31227762Y33128238D01*
X31367634Y33054826D01*
X31521014Y33017022D01*
X31521015Y33017022D01*
X31678985Y33017022D01*
X31832365Y33054826D01*
X31972240Y33128239D01*
X32090483Y33232992D01*
X32180220Y33362999D01*
X32236237Y33510704D01*
X32255278Y33667522D01*
X32251335Y33700000D01*
X33344722Y33700000D01*
X33363762Y33543182D01*
X33404205Y33436545D01*
X33419780Y33395477D01*
X33509517Y33265470D01*
X33627760Y33160717D01*
X33627762Y33160716D01*
X33767634Y33087304D01*
X33921014Y33049500D01*
X33921015Y33049500D01*
X34078985Y33049500D01*
X34232365Y33087304D01*
X34310359Y33128239D01*
X34343325Y33145541D01*
X49173995Y33145541D01*
X49202653Y33001466D01*
X49202656Y33001456D01*
X49258873Y32865734D01*
X49258878Y32865725D01*
X49340493Y32743581D01*
X49340496Y32743577D01*
X49444371Y32639702D01*
X49444375Y32639699D01*
X49566519Y32558084D01*
X49566528Y32558079D01*
X49587240Y32549500D01*
X49702253Y32501860D01*
X49846335Y32473201D01*
X49846339Y32473200D01*
X49846340Y32473200D01*
X49993251Y32473200D01*
X49993252Y32473201D01*
X50137337Y32501860D01*
X50273064Y32558080D01*
X50395215Y32639699D01*
X50499096Y32743580D01*
X50580715Y32865731D01*
X50636935Y33001458D01*
X50665595Y33145545D01*
X50665595Y33200000D01*
X69344722Y33200000D01*
X69363762Y33043182D01*
X69419780Y32895477D01*
X69509517Y32765470D01*
X69627760Y32660717D01*
X69627762Y32660716D01*
X69767634Y32587304D01*
X69921014Y32549500D01*
X69921015Y32549500D01*
X70078985Y32549500D01*
X70232365Y32587304D01*
X70372237Y32660715D01*
X70372238Y32660717D01*
X70372240Y32660717D01*
X70417774Y32701057D01*
X70481006Y32730777D01*
X70550270Y32721593D01*
X70582224Y32701058D01*
X70616890Y32670347D01*
X70627762Y32660715D01*
X70767634Y32587304D01*
X70921014Y32549500D01*
X70921015Y32549500D01*
X71078985Y32549500D01*
X71232365Y32587304D01*
X71372240Y32660717D01*
X71490483Y32765470D01*
X71580220Y32895477D01*
X71636237Y33043182D01*
X71655278Y33200000D01*
X71644052Y33292460D01*
X71636237Y33356819D01*
X71606002Y33436542D01*
X71580220Y33504523D01*
X71490483Y33634530D01*
X71372240Y33739283D01*
X71372238Y33739284D01*
X71372237Y33739285D01*
X71232365Y33812697D01*
X71078986Y33850500D01*
X71078985Y33850500D01*
X70921015Y33850500D01*
X70921014Y33850500D01*
X70767634Y33812697D01*
X70627761Y33739285D01*
X70627759Y33739283D01*
X70582226Y33698945D01*
X70518992Y33669224D01*
X70449729Y33678408D01*
X70417774Y33698945D01*
X70372240Y33739283D01*
X70372238Y33739285D01*
X70232365Y33812697D01*
X70078986Y33850500D01*
X70078985Y33850500D01*
X69921015Y33850500D01*
X69921014Y33850500D01*
X69767634Y33812697D01*
X69627762Y33739285D01*
X69509516Y33634529D01*
X69419781Y33504525D01*
X69419780Y33504524D01*
X69363762Y33356819D01*
X69344722Y33200001D01*
X69344722Y33200000D01*
X50665595Y33200000D01*
X50665595Y33292455D01*
X50636935Y33436542D01*
X50580715Y33572269D01*
X50580714Y33572270D01*
X50580711Y33572276D01*
X50499096Y33694420D01*
X50499093Y33694424D01*
X50395218Y33798299D01*
X50395214Y33798302D01*
X50273070Y33879917D01*
X50273061Y33879922D01*
X50137339Y33936139D01*
X50137340Y33936139D01*
X50137337Y33936140D01*
X50137333Y33936141D01*
X50137329Y33936142D01*
X49993254Y33964800D01*
X49993250Y33964800D01*
X49846340Y33964800D01*
X49846335Y33964800D01*
X49702260Y33936142D01*
X49702250Y33936139D01*
X49566528Y33879922D01*
X49566519Y33879917D01*
X49444375Y33798302D01*
X49444371Y33798299D01*
X49340496Y33694424D01*
X49340493Y33694420D01*
X49258878Y33572276D01*
X49258873Y33572267D01*
X49202656Y33436545D01*
X49202653Y33436535D01*
X49173995Y33292460D01*
X49173995Y33145541D01*
X34343325Y33145541D01*
X34372240Y33160717D01*
X34490483Y33265470D01*
X34580220Y33395477D01*
X34636237Y33543182D01*
X34655278Y33700000D01*
X34643343Y33798299D01*
X34636237Y33856819D01*
X34614992Y33912836D01*
X34580220Y34004523D01*
X34490483Y34134530D01*
X34459994Y34161541D01*
X54253995Y34161541D01*
X54282653Y34017466D01*
X54282655Y34017458D01*
X54288013Y34004523D01*
X54338873Y33881734D01*
X54338878Y33881725D01*
X54420493Y33759581D01*
X54420496Y33759577D01*
X54524371Y33655702D01*
X54524375Y33655699D01*
X54646519Y33574084D01*
X54646525Y33574081D01*
X54646526Y33574080D01*
X54782253Y33517860D01*
X54926335Y33489201D01*
X54926339Y33489200D01*
X54926340Y33489200D01*
X55073251Y33489200D01*
X55073252Y33489201D01*
X55217337Y33517860D01*
X55353064Y33574080D01*
X55475215Y33655699D01*
X55579096Y33759580D01*
X55660715Y33881731D01*
X55716935Y34017458D01*
X55745595Y34161545D01*
X55745595Y34308455D01*
X55716935Y34452542D01*
X55660715Y34588269D01*
X55660714Y34588270D01*
X55660711Y34588276D01*
X55579096Y34710420D01*
X55579093Y34710424D01*
X55475218Y34814299D01*
X55475214Y34814302D01*
X55353070Y34895917D01*
X55353061Y34895922D01*
X55217339Y34952139D01*
X55217340Y34952139D01*
X55217337Y34952140D01*
X55217333Y34952141D01*
X55217329Y34952142D01*
X55073254Y34980800D01*
X55073250Y34980800D01*
X54926340Y34980800D01*
X54926335Y34980800D01*
X54782260Y34952142D01*
X54782250Y34952139D01*
X54646528Y34895922D01*
X54646519Y34895917D01*
X54524375Y34814302D01*
X54524371Y34814299D01*
X54420496Y34710424D01*
X54420493Y34710420D01*
X54338878Y34588276D01*
X54338873Y34588267D01*
X54282656Y34452545D01*
X54282653Y34452535D01*
X54253995Y34308460D01*
X54253995Y34161541D01*
X34459994Y34161541D01*
X34372240Y34239283D01*
X34372238Y34239284D01*
X34372237Y34239285D01*
X34232365Y34312697D01*
X34078986Y34350500D01*
X34078985Y34350500D01*
X33921015Y34350500D01*
X33921014Y34350500D01*
X33767634Y34312697D01*
X33627762Y34239285D01*
X33509516Y34134529D01*
X33419781Y34004525D01*
X33419780Y34004524D01*
X33363762Y33856819D01*
X33344722Y33700001D01*
X33344722Y33700000D01*
X32251335Y33700000D01*
X32236237Y33824341D01*
X32193836Y33936142D01*
X32180220Y33972045D01*
X32090483Y34102052D01*
X31972240Y34206805D01*
X31972238Y34206806D01*
X31972237Y34206807D01*
X31832365Y34280219D01*
X31678986Y34318022D01*
X31678985Y34318022D01*
X31521015Y34318022D01*
X31521014Y34318022D01*
X31367634Y34280219D01*
X31227762Y34206807D01*
X31109516Y34102051D01*
X31019781Y33972047D01*
X31019780Y33972046D01*
X30963762Y33824341D01*
X30944722Y33667523D01*
X30944722Y33667522D01*
X-3464952Y33667522D01*
X-3464952Y34879344D01*
X-3463549Y34897060D01*
X-3463578Y34897797D01*
X-3463576Y34897799D01*
X-3464440Y34920404D01*
X-3447329Y34988143D01*
X-3396310Y35035880D01*
X-3339758Y35049133D01*
X-3317149Y35048991D01*
X-3317148Y35048992D01*
X-3308895Y35048940D01*
X-3302347Y35049564D01*
X-2304804Y35049564D01*
X-2304136Y35049562D01*
X-2245003Y35049244D01*
X-2134466Y35073954D01*
X-2032288Y35122826D01*
X-1963558Y35177541D01*
X49173995Y35177541D01*
X49202653Y35033466D01*
X49202656Y35033456D01*
X49258873Y34897734D01*
X49258878Y34897725D01*
X49340493Y34775581D01*
X49340496Y34775577D01*
X49444371Y34671702D01*
X49444375Y34671699D01*
X49566519Y34590084D01*
X49566525Y34590081D01*
X49566526Y34590080D01*
X49702253Y34533860D01*
X49846335Y34505201D01*
X49846339Y34505200D01*
X49846340Y34505200D01*
X49993251Y34505200D01*
X49993252Y34505201D01*
X50137337Y34533860D01*
X50273064Y34590080D01*
X50395215Y34671699D01*
X50499096Y34775580D01*
X50580715Y34897731D01*
X50636935Y35033458D01*
X50665595Y35177545D01*
X50665595Y35324455D01*
X50636935Y35468542D01*
X50580715Y35604269D01*
X50580714Y35604270D01*
X50580711Y35604276D01*
X50499096Y35726420D01*
X50499093Y35726424D01*
X50395218Y35830299D01*
X50395214Y35830302D01*
X50273070Y35911917D01*
X50273061Y35911922D01*
X50137339Y35968139D01*
X50137340Y35968139D01*
X50137337Y35968140D01*
X50137333Y35968141D01*
X50137329Y35968142D01*
X49993254Y35996800D01*
X49993250Y35996800D01*
X49846340Y35996800D01*
X49846335Y35996800D01*
X49702260Y35968142D01*
X49702250Y35968139D01*
X49566528Y35911922D01*
X49566519Y35911917D01*
X49444375Y35830302D01*
X49444371Y35830299D01*
X49340496Y35726424D01*
X49340493Y35726420D01*
X49258878Y35604276D01*
X49258873Y35604267D01*
X49202656Y35468545D01*
X49202653Y35468535D01*
X49173995Y35324460D01*
X49173995Y35177541D01*
X-1963558Y35177541D01*
X-1943674Y35193370D01*
X-1873140Y35281993D01*
X-1824280Y35384177D01*
X-1799584Y35494717D01*
X-1799596Y35496760D01*
X-1799481Y35497937D01*
X-1799500Y35497937D01*
X-1799500Y36816255D01*
X1413013Y36816255D01*
X1445695Y36651952D01*
X1445697Y36651944D01*
X1509808Y36497166D01*
X1602886Y36357864D01*
X1721350Y36239400D01*
X1814007Y36177489D01*
X1860650Y36146323D01*
X2015431Y36082210D01*
X2179741Y36049527D01*
X2179745Y36049526D01*
X2179746Y36049526D01*
X2347281Y36049526D01*
X2347282Y36049527D01*
X2511595Y36082210D01*
X2666376Y36146323D01*
X2746709Y36200000D01*
X37204517Y36200000D01*
X37223557Y36043182D01*
X37254833Y35960716D01*
X37279575Y35895477D01*
X37369312Y35765470D01*
X37487555Y35660717D01*
X37487557Y35660716D01*
X37627429Y35587304D01*
X37780809Y35549500D01*
X37780810Y35549500D01*
X37938780Y35549500D01*
X38092160Y35587304D01*
X38232035Y35660717D01*
X38350278Y35765470D01*
X38440015Y35895477D01*
X38496032Y36043182D01*
X38515073Y36200000D01*
X39744722Y36200000D01*
X39763762Y36043182D01*
X39795038Y35960716D01*
X39819780Y35895477D01*
X39909517Y35765470D01*
X40027760Y35660717D01*
X40027762Y35660716D01*
X40167634Y35587304D01*
X40321014Y35549500D01*
X40321015Y35549500D01*
X40478985Y35549500D01*
X40632365Y35587304D01*
X40772240Y35660717D01*
X40890483Y35765470D01*
X40980220Y35895477D01*
X41036237Y36043182D01*
X41055278Y36200000D01*
X41036237Y36356818D01*
X41035840Y36357864D01*
X40981935Y36500000D01*
X59194697Y36500000D01*
X59213737Y36343182D01*
X59253097Y36239400D01*
X59269755Y36195477D01*
X59359492Y36065470D01*
X59477735Y35960717D01*
X59477737Y35960716D01*
X59617609Y35887304D01*
X59770989Y35849500D01*
X59770990Y35849500D01*
X59928960Y35849500D01*
X60082340Y35887304D01*
X60097912Y35895477D01*
X60222215Y35960717D01*
X60340458Y36065470D01*
X60430195Y36195477D01*
X60486212Y36343182D01*
X60505253Y36500000D01*
X60494653Y36587304D01*
X60486212Y36656819D01*
X60454936Y36739285D01*
X60430195Y36804523D01*
X60340458Y36934530D01*
X60222215Y37039283D01*
X60222213Y37039284D01*
X60222212Y37039285D01*
X60082340Y37112697D01*
X59928961Y37150500D01*
X59928960Y37150500D01*
X59770990Y37150500D01*
X59770989Y37150500D01*
X59617609Y37112697D01*
X59477737Y37039285D01*
X59359491Y36934529D01*
X59269756Y36804525D01*
X59269755Y36804524D01*
X59213737Y36656819D01*
X59194697Y36500001D01*
X59194697Y36500000D01*
X40981935Y36500000D01*
X40980220Y36504523D01*
X40890483Y36634530D01*
X40772240Y36739283D01*
X40772238Y36739284D01*
X40772237Y36739285D01*
X40632365Y36812697D01*
X40478986Y36850500D01*
X40478985Y36850500D01*
X40321015Y36850500D01*
X40321014Y36850500D01*
X40167634Y36812697D01*
X40027762Y36739285D01*
X39909516Y36634529D01*
X39819781Y36504525D01*
X39819780Y36504524D01*
X39763762Y36356819D01*
X39744722Y36200001D01*
X39744722Y36200000D01*
X38515073Y36200000D01*
X38496032Y36356818D01*
X38495635Y36357864D01*
X38441730Y36500000D01*
X38440015Y36504523D01*
X38350278Y36634530D01*
X38232035Y36739283D01*
X38232033Y36739284D01*
X38232032Y36739285D01*
X38092160Y36812697D01*
X37938781Y36850500D01*
X37938780Y36850500D01*
X37780810Y36850500D01*
X37780809Y36850500D01*
X37627429Y36812697D01*
X37487557Y36739285D01*
X37369311Y36634529D01*
X37279576Y36504525D01*
X37279575Y36504524D01*
X37223557Y36356819D01*
X37204517Y36200001D01*
X37204517Y36200000D01*
X2746709Y36200000D01*
X2805675Y36239400D01*
X2924139Y36357864D01*
X3017216Y36497163D01*
X3081329Y36651944D01*
X3114013Y36816259D01*
X3114013Y36983793D01*
X3081329Y37148108D01*
X3017216Y37302889D01*
X2976887Y37363246D01*
X2924139Y37442189D01*
X2846264Y37520064D01*
X16208260Y37520064D01*
X16227300Y37363246D01*
X16250191Y37302889D01*
X16283318Y37215541D01*
X16373055Y37085534D01*
X16491298Y36980781D01*
X16491300Y36980780D01*
X16631172Y36907368D01*
X16784552Y36869564D01*
X16784553Y36869564D01*
X16942523Y36869564D01*
X17095903Y36907368D01*
X17147655Y36934530D01*
X17235778Y36980781D01*
X17354021Y37085534D01*
X17433031Y37200000D01*
X35244722Y37200000D01*
X35263762Y37043182D01*
X35315270Y36907368D01*
X35319780Y36895477D01*
X35409517Y36765470D01*
X35527760Y36660717D01*
X35527762Y36660716D01*
X35667634Y36587304D01*
X35821014Y36549500D01*
X35821015Y36549500D01*
X35978985Y36549500D01*
X36132365Y36587304D01*
X36272240Y36660717D01*
X36390483Y36765470D01*
X36480220Y36895477D01*
X36536237Y37043182D01*
X36555278Y37200000D01*
X36536237Y37356818D01*
X36533799Y37363246D01*
X36496814Y37460768D01*
X36480220Y37504523D01*
X36390483Y37634530D01*
X36316524Y37700051D01*
X45174517Y37700051D01*
X45193557Y37543233D01*
X45224833Y37460767D01*
X45249575Y37395528D01*
X45339312Y37265521D01*
X45457555Y37160768D01*
X45457557Y37160767D01*
X45597429Y37087355D01*
X45750809Y37049551D01*
X45750810Y37049551D01*
X45908780Y37049551D01*
X46062160Y37087355D01*
X46202035Y37160768D01*
X46320278Y37265521D01*
X46410015Y37395528D01*
X46466032Y37543233D01*
X46485073Y37700051D01*
X46480310Y37739283D01*
X46466032Y37856870D01*
X46411730Y38000051D01*
X51874517Y38000051D01*
X51893557Y37843233D01*
X51928717Y37750526D01*
X51949575Y37695528D01*
X52039312Y37565521D01*
X52157555Y37460768D01*
X52157557Y37460767D01*
X52297429Y37387355D01*
X52450809Y37349551D01*
X52450810Y37349551D01*
X52608780Y37349551D01*
X52762160Y37387355D01*
X52777732Y37395528D01*
X52902035Y37460768D01*
X53020278Y37565521D01*
X53110015Y37695528D01*
X53166032Y37843233D01*
X53185073Y38000051D01*
X53177270Y38064320D01*
X53166032Y38156870D01*
X53129053Y38254375D01*
X53110015Y38304574D01*
X53020278Y38434581D01*
X52994705Y38457237D01*
X52957580Y38516424D01*
X52958347Y38586290D01*
X52994705Y38642866D01*
X53020278Y38665521D01*
X53110015Y38795528D01*
X53166032Y38943233D01*
X53185073Y39100051D01*
X53174532Y39186869D01*
X53166032Y39256870D01*
X53132866Y39344320D01*
X53110015Y39404574D01*
X53020278Y39534581D01*
X52902035Y39639334D01*
X52902033Y39639335D01*
X52902032Y39639336D01*
X52762160Y39712748D01*
X52608781Y39750551D01*
X52608780Y39750551D01*
X52450810Y39750551D01*
X52450809Y39750551D01*
X52297429Y39712748D01*
X52157557Y39639336D01*
X52113152Y39599997D01*
X52046311Y39540781D01*
X52039311Y39534580D01*
X51949576Y39404576D01*
X51949575Y39404575D01*
X51893557Y39256870D01*
X51874517Y39100052D01*
X51874517Y39100051D01*
X51893557Y38943233D01*
X51942330Y38814632D01*
X51949575Y38795528D01*
X51994443Y38730525D01*
X52039311Y38665522D01*
X52064884Y38642866D01*
X52102010Y38583676D01*
X52101242Y38513810D01*
X52064884Y38457236D01*
X52039311Y38434581D01*
X51949576Y38304576D01*
X51949575Y38304575D01*
X51893557Y38156870D01*
X51874517Y38000052D01*
X51874517Y38000051D01*
X46411730Y38000051D01*
X46410015Y38004574D01*
X46320278Y38134581D01*
X46202035Y38239334D01*
X46171699Y38255256D01*
X46121489Y38303839D01*
X46105514Y38371858D01*
X46128849Y38437716D01*
X46171698Y38474847D01*
X46202035Y38490768D01*
X46320278Y38595521D01*
X46410015Y38725528D01*
X46466032Y38873233D01*
X46485073Y39030051D01*
X46478370Y39085260D01*
X46466032Y39186870D01*
X46441259Y39252189D01*
X46410015Y39334574D01*
X46344062Y39430124D01*
X46322179Y39496479D01*
X46339645Y39564130D01*
X46344053Y39570991D01*
X46430015Y39695528D01*
X46486032Y39843233D01*
X46505067Y40000000D01*
X69344722Y40000000D01*
X69363762Y39843182D01*
X69392741Y39766772D01*
X69419780Y39695477D01*
X69509517Y39565470D01*
X69627760Y39460717D01*
X69627762Y39460716D01*
X69767634Y39387304D01*
X69921014Y39349500D01*
X69921015Y39349500D01*
X70078985Y39349500D01*
X70232365Y39387304D01*
X70372237Y39460715D01*
X70372238Y39460717D01*
X70372240Y39460717D01*
X70417774Y39501057D01*
X70481006Y39530777D01*
X70550270Y39521593D01*
X70582224Y39501058D01*
X70587393Y39496479D01*
X70627762Y39460715D01*
X70767634Y39387304D01*
X70921014Y39349500D01*
X70921015Y39349500D01*
X71078985Y39349500D01*
X71232365Y39387304D01*
X71265270Y39404574D01*
X71372240Y39460717D01*
X71490483Y39565470D01*
X71580220Y39695477D01*
X71636237Y39843182D01*
X71655278Y40000000D01*
X71651086Y40034529D01*
X71636237Y40156819D01*
X71613285Y40217338D01*
X71580220Y40304523D01*
X71490483Y40434530D01*
X71372240Y40539283D01*
X71372238Y40539284D01*
X71372237Y40539285D01*
X71232365Y40612697D01*
X71078986Y40650500D01*
X71078985Y40650500D01*
X70921015Y40650500D01*
X70921014Y40650500D01*
X70767634Y40612697D01*
X70627761Y40539285D01*
X70627759Y40539283D01*
X70582226Y40498945D01*
X70518992Y40469224D01*
X70449729Y40478408D01*
X70417774Y40498945D01*
X70372240Y40539283D01*
X70372238Y40539285D01*
X70232365Y40612697D01*
X70078986Y40650500D01*
X70078985Y40650500D01*
X69921015Y40650500D01*
X69921014Y40650500D01*
X69767634Y40612697D01*
X69627762Y40539285D01*
X69559046Y40478408D01*
X69509574Y40434580D01*
X69509516Y40434529D01*
X69419781Y40304525D01*
X69419780Y40304524D01*
X69363762Y40156819D01*
X69344722Y40000001D01*
X69344722Y40000000D01*
X46505067Y40000000D01*
X46505073Y40000051D01*
X46494178Y40089785D01*
X46486032Y40156870D01*
X46455687Y40236883D01*
X46430015Y40304574D01*
X46340278Y40434581D01*
X46222035Y40539334D01*
X46222033Y40539335D01*
X46222032Y40539336D01*
X46082160Y40612748D01*
X45928781Y40650551D01*
X45928780Y40650551D01*
X45770810Y40650551D01*
X45770809Y40650551D01*
X45617429Y40612748D01*
X45477557Y40539336D01*
X45359311Y40434580D01*
X45269576Y40304576D01*
X45269575Y40304575D01*
X45213557Y40156870D01*
X45194517Y40000052D01*
X45194517Y40000051D01*
X45213557Y39843233D01*
X45249814Y39747633D01*
X45269575Y39695528D01*
X45269611Y39695476D01*
X45335527Y39599979D01*
X45357410Y39533624D01*
X45339944Y39465972D01*
X45335527Y39459100D01*
X45249578Y39334581D01*
X45249575Y39334575D01*
X45193557Y39186870D01*
X45174517Y39030052D01*
X45174517Y39030051D01*
X45193557Y38873233D01*
X45223442Y38794435D01*
X45249575Y38725528D01*
X45339312Y38595521D01*
X45457555Y38490768D01*
X45477202Y38480457D01*
X45487889Y38474847D01*
X45538101Y38426262D01*
X45554075Y38358243D01*
X45530739Y38292385D01*
X45487889Y38255255D01*
X45457556Y38239335D01*
X45339311Y38134580D01*
X45249576Y38004576D01*
X45249575Y38004575D01*
X45193557Y37856870D01*
X45174517Y37700052D01*
X45174517Y37700051D01*
X36316524Y37700051D01*
X36272240Y37739283D01*
X36272238Y37739284D01*
X36272237Y37739285D01*
X36132365Y37812697D01*
X35978986Y37850500D01*
X35978985Y37850500D01*
X35821015Y37850500D01*
X35821014Y37850500D01*
X35667634Y37812697D01*
X35527762Y37739285D01*
X35409516Y37634529D01*
X35319781Y37504525D01*
X35319780Y37504524D01*
X35263762Y37356819D01*
X35244722Y37200001D01*
X35244722Y37200000D01*
X17433031Y37200000D01*
X17443758Y37215541D01*
X17499775Y37363246D01*
X17518816Y37520064D01*
X17504918Y37634530D01*
X17499775Y37676883D01*
X17476109Y37739285D01*
X17443758Y37824587D01*
X17354021Y37954594D01*
X17235778Y38059347D01*
X17235776Y38059348D01*
X17230164Y38064320D01*
X17231435Y38065756D01*
X17193719Y38112296D01*
X17186059Y38181745D01*
X17217162Y38244310D01*
X17230280Y38255677D01*
X17230164Y38255808D01*
X17235776Y38260781D01*
X17235778Y38260781D01*
X17354021Y38365534D01*
X17443758Y38495541D01*
X17499775Y38643246D01*
X17518816Y38800064D01*
X17499775Y38956882D01*
X17499462Y38957706D01*
X17460396Y39060716D01*
X17443758Y39104587D01*
X17354021Y39234594D01*
X17235778Y39339347D01*
X17235776Y39339348D01*
X17230164Y39344320D01*
X17231435Y39345756D01*
X17193719Y39392296D01*
X17186059Y39461745D01*
X17217162Y39524310D01*
X17230280Y39535677D01*
X17230164Y39535808D01*
X17235776Y39540781D01*
X17235778Y39540781D01*
X17302620Y39599997D01*
X28594435Y39599997D01*
X28614630Y39420751D01*
X28614631Y39420746D01*
X28674211Y39250477D01*
X28714179Y39186869D01*
X28770184Y39097738D01*
X28897738Y38970184D01*
X29050478Y38874211D01*
X29220745Y38814632D01*
X29220750Y38814631D01*
X29399996Y38794435D01*
X29400000Y38794435D01*
X29400004Y38794435D01*
X29579249Y38814631D01*
X29579252Y38814632D01*
X29579255Y38814632D01*
X29749522Y38874211D01*
X29902262Y38970184D01*
X30029816Y39097738D01*
X30032022Y39101248D01*
X30038956Y39112286D01*
X30091086Y39195250D01*
X30143419Y39241540D01*
X30212472Y39252189D01*
X30276321Y39223814D01*
X30301073Y39195249D01*
X30358039Y39104589D01*
X30370184Y39085260D01*
X30497738Y38957706D01*
X30650478Y38861733D01*
X30785085Y38814632D01*
X30820745Y38802154D01*
X30820750Y38802153D01*
X30999996Y38781957D01*
X31000000Y38781957D01*
X31000004Y38781957D01*
X31179249Y38802153D01*
X31179252Y38802154D01*
X31179255Y38802154D01*
X31349522Y38861733D01*
X31502262Y38957706D01*
X31612319Y39067763D01*
X31673642Y39101248D01*
X31743334Y39096264D01*
X31787681Y39067763D01*
X31897738Y38957706D01*
X32050478Y38861733D01*
X32185085Y38814632D01*
X32220745Y38802154D01*
X32220750Y38802153D01*
X32399996Y38781957D01*
X32400000Y38781957D01*
X32400004Y38781957D01*
X32579249Y38802153D01*
X32579252Y38802154D01*
X32579255Y38802154D01*
X32749522Y38861733D01*
X32902262Y38957706D01*
X33029816Y39085260D01*
X33095007Y39189012D01*
X33147341Y39235301D01*
X33216394Y39245949D01*
X33280243Y39217574D01*
X33304992Y39189013D01*
X33370184Y39085260D01*
X33497738Y38957706D01*
X33650478Y38861733D01*
X33785085Y38814632D01*
X33820745Y38802154D01*
X33820750Y38802153D01*
X33999996Y38781957D01*
X34000000Y38781957D01*
X34000004Y38781957D01*
X34179249Y38802153D01*
X34179252Y38802154D01*
X34179255Y38802154D01*
X34349522Y38861733D01*
X34502262Y38957706D01*
X34629816Y39085260D01*
X34725789Y39238000D01*
X34785368Y39408267D01*
X34785369Y39408273D01*
X34805565Y39587519D01*
X34805565Y39587526D01*
X34804160Y39600000D01*
X36144722Y39600000D01*
X36163762Y39443182D01*
X36204952Y39334575D01*
X36219780Y39295477D01*
X36309517Y39165470D01*
X36427760Y39060717D01*
X36427762Y39060716D01*
X36567634Y38987304D01*
X36721014Y38949500D01*
X36721015Y38949500D01*
X36878985Y38949500D01*
X37032365Y38987304D01*
X37172240Y39060717D01*
X37290483Y39165470D01*
X37380220Y39295477D01*
X37436237Y39443182D01*
X37455278Y39600000D01*
X37436237Y39756818D01*
X37409765Y39826617D01*
X37404399Y39896279D01*
X37437546Y39957785D01*
X37498684Y39991606D01*
X37559972Y39987562D01*
X37560351Y39989099D01*
X37721014Y39949500D01*
X37840999Y39949500D01*
X37908038Y39929815D01*
X37953793Y39877011D01*
X37961317Y39850305D01*
X37961968Y39850465D01*
X37963763Y39843179D01*
X38013230Y39712748D01*
X38019780Y39695477D01*
X38109517Y39565470D01*
X38227760Y39460717D01*
X38227762Y39460716D01*
X38367634Y39387304D01*
X38521014Y39349500D01*
X38521015Y39349500D01*
X38678985Y39349500D01*
X38832365Y39387304D01*
X38865270Y39404574D01*
X38972240Y39460717D01*
X39090483Y39565470D01*
X39097950Y39576289D01*
X39152233Y39620278D01*
X39221681Y39627938D01*
X39284246Y39596835D01*
X39302049Y39576289D01*
X39309517Y39565470D01*
X39427760Y39460717D01*
X39427762Y39460716D01*
X39567634Y39387304D01*
X39721014Y39349500D01*
X39721015Y39349500D01*
X39878985Y39349500D01*
X40032365Y39387304D01*
X40065270Y39404574D01*
X40172240Y39460717D01*
X40290483Y39565470D01*
X40380220Y39695477D01*
X40436237Y39843182D01*
X40455278Y40000000D01*
X40451086Y40034529D01*
X40436237Y40156819D01*
X40413285Y40217338D01*
X40380220Y40304523D01*
X40290483Y40434530D01*
X40172240Y40539283D01*
X40172238Y40539284D01*
X40172237Y40539285D01*
X40032365Y40612697D01*
X39878986Y40650500D01*
X39878985Y40650500D01*
X39721015Y40650500D01*
X39721014Y40650500D01*
X39567634Y40612697D01*
X39427762Y40539285D01*
X39309515Y40434529D01*
X39302048Y40423710D01*
X39247764Y40379721D01*
X39178315Y40372064D01*
X39115751Y40403169D01*
X39097952Y40423710D01*
X39090484Y40434529D01*
X39090483Y40434530D01*
X38972240Y40539283D01*
X38972238Y40539284D01*
X38972237Y40539285D01*
X38832365Y40612697D01*
X38678986Y40650500D01*
X38678985Y40650500D01*
X38559001Y40650500D01*
X38491962Y40670185D01*
X38446207Y40722989D01*
X38438681Y40749697D01*
X38438032Y40749536D01*
X38436237Y40756819D01*
X38419860Y40800000D01*
X57644722Y40800000D01*
X57663762Y40643182D01*
X57712530Y40514594D01*
X57719780Y40495477D01*
X57809517Y40365470D01*
X57927760Y40260717D01*
X57927762Y40260716D01*
X58067634Y40187304D01*
X58221014Y40149500D01*
X58221015Y40149500D01*
X58378985Y40149500D01*
X58532365Y40187304D01*
X58572548Y40208394D01*
X58672240Y40260717D01*
X58790483Y40365470D01*
X58880220Y40495477D01*
X58936237Y40643182D01*
X58943136Y40700000D01*
X61544722Y40700000D01*
X61563762Y40543182D01*
X61610198Y40420743D01*
X61619780Y40395477D01*
X61709517Y40265470D01*
X61827760Y40160717D01*
X61827762Y40160716D01*
X61967634Y40087304D01*
X62121014Y40049500D01*
X62121015Y40049500D01*
X62278985Y40049500D01*
X62432365Y40087304D01*
X62460865Y40102262D01*
X62572240Y40160717D01*
X62690483Y40265470D01*
X62780220Y40395477D01*
X62836237Y40543182D01*
X62855278Y40700000D01*
X62836237Y40856818D01*
X62780220Y41004523D01*
X62690483Y41134530D01*
X62572240Y41239283D01*
X62572238Y41239284D01*
X62572237Y41239285D01*
X62432365Y41312697D01*
X62278986Y41350500D01*
X62278985Y41350500D01*
X62121015Y41350500D01*
X62121014Y41350500D01*
X61967634Y41312697D01*
X61827762Y41239285D01*
X61709516Y41134529D01*
X61619781Y41004525D01*
X61619780Y41004524D01*
X61563762Y40856819D01*
X61544722Y40700001D01*
X61544722Y40700000D01*
X58943136Y40700000D01*
X58955278Y40800000D01*
X58942587Y40904525D01*
X58936237Y40956819D01*
X58906765Y41034530D01*
X58880220Y41104523D01*
X58790483Y41234530D01*
X58672240Y41339283D01*
X58672238Y41339284D01*
X58672237Y41339285D01*
X58532365Y41412697D01*
X58378986Y41450500D01*
X58378985Y41450500D01*
X58221015Y41450500D01*
X58221014Y41450500D01*
X58067634Y41412697D01*
X57927762Y41339285D01*
X57809516Y41234529D01*
X57719781Y41104525D01*
X57719780Y41104524D01*
X57663762Y40956819D01*
X57644722Y40800001D01*
X57644722Y40800000D01*
X38419860Y40800000D01*
X38414992Y40812836D01*
X38380220Y40904523D01*
X38290483Y41034530D01*
X38172240Y41139283D01*
X38172238Y41139284D01*
X38172237Y41139285D01*
X38032365Y41212697D01*
X37878986Y41250500D01*
X37878985Y41250500D01*
X37721015Y41250500D01*
X37721014Y41250500D01*
X37567634Y41212697D01*
X37427762Y41139285D01*
X37309516Y41034529D01*
X37219781Y40904525D01*
X37219780Y40904524D01*
X37163762Y40756819D01*
X37144722Y40600001D01*
X37144722Y40600000D01*
X37163763Y40443182D01*
X37190233Y40373385D01*
X37195600Y40303722D01*
X37162452Y40242215D01*
X37101314Y40208394D01*
X37040028Y40212440D01*
X37039649Y40210901D01*
X36878986Y40250500D01*
X36878985Y40250500D01*
X36721015Y40250500D01*
X36721014Y40250500D01*
X36567634Y40212697D01*
X36427762Y40139285D01*
X36309516Y40034529D01*
X36219781Y39904525D01*
X36219780Y39904524D01*
X36163762Y39756819D01*
X36144722Y39600001D01*
X36144722Y39600000D01*
X34804160Y39600000D01*
X34785369Y39766772D01*
X34785368Y39766777D01*
X34782301Y39775541D01*
X34725789Y39937044D01*
X34724092Y39939744D01*
X34629815Y40089785D01*
X34502262Y40217338D01*
X34349523Y40313311D01*
X34179254Y40372891D01*
X34179249Y40372892D01*
X34000004Y40393087D01*
X33999996Y40393087D01*
X33820750Y40372892D01*
X33820745Y40372891D01*
X33650476Y40313311D01*
X33497737Y40217338D01*
X33370184Y40089785D01*
X33304994Y39986035D01*
X33252659Y39939744D01*
X33183605Y39929096D01*
X33119757Y39957471D01*
X33095006Y39986035D01*
X33029815Y40089785D01*
X32902262Y40217338D01*
X32749523Y40313311D01*
X32579254Y40372891D01*
X32579249Y40372892D01*
X32400004Y40393087D01*
X32399996Y40393087D01*
X32220750Y40372892D01*
X32220745Y40372891D01*
X32050476Y40313311D01*
X31897737Y40217338D01*
X31787681Y40107281D01*
X31726358Y40073796D01*
X31656666Y40078780D01*
X31612319Y40107281D01*
X31502262Y40217338D01*
X31349523Y40313311D01*
X31179254Y40372891D01*
X31179249Y40372892D01*
X31000004Y40393087D01*
X30999996Y40393087D01*
X30820750Y40372892D01*
X30820745Y40372891D01*
X30650476Y40313311D01*
X30497737Y40217338D01*
X30370184Y40089785D01*
X30370179Y40089779D01*
X30308913Y39992274D01*
X30256579Y39945983D01*
X30187525Y39935335D01*
X30123677Y39963710D01*
X30098926Y39992274D01*
X30029816Y40102262D01*
X29902262Y40229816D01*
X29853085Y40260716D01*
X29749523Y40325789D01*
X29579254Y40385369D01*
X29579249Y40385370D01*
X29400004Y40405565D01*
X29399996Y40405565D01*
X29220750Y40385370D01*
X29220745Y40385369D01*
X29050476Y40325789D01*
X28897737Y40229816D01*
X28770184Y40102263D01*
X28674211Y39949524D01*
X28614631Y39779255D01*
X28614630Y39779250D01*
X28594435Y39600004D01*
X28594435Y39599997D01*
X17302620Y39599997D01*
X17354021Y39645534D01*
X17443758Y39775541D01*
X17499775Y39923246D01*
X17518816Y40080064D01*
X17517637Y40089779D01*
X17499775Y40236883D01*
X17443757Y40384589D01*
X17391209Y40460717D01*
X17354021Y40514594D01*
X17235778Y40619347D01*
X17235776Y40619348D01*
X17235775Y40619349D01*
X17095903Y40692761D01*
X16942524Y40730564D01*
X16942523Y40730564D01*
X16784553Y40730564D01*
X16784552Y40730564D01*
X16631172Y40692761D01*
X16491300Y40619349D01*
X16373054Y40514593D01*
X16283319Y40384589D01*
X16227300Y40236883D01*
X16208260Y40080065D01*
X16208260Y40080064D01*
X16227300Y39923246D01*
X16257665Y39843182D01*
X16283318Y39775541D01*
X16373055Y39645534D01*
X16491298Y39540781D01*
X16491299Y39540781D01*
X16496912Y39535808D01*
X16495641Y39534375D01*
X16533361Y39487819D01*
X16541014Y39418370D01*
X16509904Y39355808D01*
X16496796Y39344451D01*
X16496912Y39344320D01*
X16491299Y39339348D01*
X16491298Y39339347D01*
X16373853Y39235301D01*
X16373054Y39234593D01*
X16283319Y39104589D01*
X16283318Y39104588D01*
X16227300Y38956883D01*
X16208260Y38800065D01*
X16208260Y38800064D01*
X16227300Y38643246D01*
X16275398Y38516424D01*
X16283318Y38495541D01*
X16373055Y38365534D01*
X16491298Y38260781D01*
X16491299Y38260781D01*
X16496912Y38255808D01*
X16495641Y38254375D01*
X16533361Y38207819D01*
X16541014Y38138370D01*
X16509904Y38075808D01*
X16496796Y38064451D01*
X16496912Y38064320D01*
X16491299Y38059348D01*
X16491298Y38059347D01*
X16424367Y38000052D01*
X16373054Y37954593D01*
X16283319Y37824589D01*
X16283318Y37824588D01*
X16227300Y37676883D01*
X16208260Y37520065D01*
X16208260Y37520064D01*
X2846264Y37520064D01*
X2805675Y37560653D01*
X2666373Y37653731D01*
X2511595Y37717842D01*
X2511587Y37717844D01*
X2347284Y37750526D01*
X2347280Y37750526D01*
X2179746Y37750526D01*
X2179741Y37750526D01*
X2015438Y37717844D01*
X2015430Y37717842D01*
X1860652Y37653731D01*
X1721350Y37560653D01*
X1602886Y37442189D01*
X1509808Y37302887D01*
X1445697Y37148109D01*
X1445695Y37148101D01*
X1413013Y36983798D01*
X1413013Y36816255D01*
X-1799500Y36816255D01*
X-1799500Y41000000D01*
X11344722Y41000000D01*
X11363762Y40843182D01*
X11396516Y40756819D01*
X11419780Y40695477D01*
X11509517Y40565470D01*
X11627760Y40460717D01*
X11627762Y40460716D01*
X11767634Y40387304D01*
X11921014Y40349500D01*
X11921015Y40349500D01*
X12078985Y40349500D01*
X12232365Y40387304D01*
X12267158Y40405565D01*
X12372240Y40460717D01*
X12490483Y40565470D01*
X12580220Y40695477D01*
X12636237Y40843182D01*
X12655278Y41000000D01*
X12651086Y41034529D01*
X12636237Y41156819D01*
X12600708Y41250500D01*
X12580220Y41304523D01*
X12490483Y41434530D01*
X12372240Y41539283D01*
X12372238Y41539284D01*
X12372237Y41539285D01*
X12232365Y41612697D01*
X12078986Y41650500D01*
X12078985Y41650500D01*
X11921015Y41650500D01*
X11921014Y41650500D01*
X11767634Y41612697D01*
X11627762Y41539285D01*
X11509516Y41434529D01*
X11419781Y41304525D01*
X11419780Y41304524D01*
X11363762Y41156819D01*
X11344722Y41000001D01*
X11344722Y41000000D01*
X-1799500Y41000000D01*
X-1799500Y42300000D01*
X30844722Y42300000D01*
X30863762Y42143182D01*
X30919780Y41995477D01*
X31009517Y41865470D01*
X31127760Y41760717D01*
X31127762Y41760716D01*
X31267634Y41687304D01*
X31421014Y41649500D01*
X31421015Y41649500D01*
X31578985Y41649500D01*
X31732365Y41687304D01*
X31872240Y41760717D01*
X31990483Y41865470D01*
X32080220Y41995477D01*
X32136237Y42143182D01*
X32155278Y42300000D01*
X32147900Y42360768D01*
X32136237Y42456819D01*
X32114992Y42512836D01*
X32080220Y42604523D01*
X31990483Y42734530D01*
X31872240Y42839283D01*
X31872238Y42839284D01*
X31872237Y42839285D01*
X31732365Y42912697D01*
X31578986Y42950500D01*
X31578985Y42950500D01*
X31421015Y42950500D01*
X31421014Y42950500D01*
X31267634Y42912697D01*
X31127762Y42839285D01*
X31009516Y42734529D01*
X30919781Y42604525D01*
X30919780Y42604524D01*
X30863762Y42456819D01*
X30844722Y42300001D01*
X30844722Y42300000D01*
X-1799500Y42300000D01*
X-1799500Y43000000D01*
X47944722Y43000000D01*
X47963762Y42843182D01*
X48019780Y42695477D01*
X48109517Y42565470D01*
X48227760Y42460717D01*
X48227762Y42460716D01*
X48367634Y42387304D01*
X48521014Y42349500D01*
X48521015Y42349500D01*
X48678985Y42349500D01*
X48832365Y42387304D01*
X48972240Y42460717D01*
X49090483Y42565470D01*
X49180220Y42695477D01*
X49236237Y42843182D01*
X49243142Y42900051D01*
X69174517Y42900051D01*
X69193557Y42743233D01*
X69246163Y42604525D01*
X69249575Y42595528D01*
X69339312Y42465521D01*
X69457555Y42360768D01*
X69457557Y42360767D01*
X69597429Y42287355D01*
X69750809Y42249551D01*
X69750810Y42249551D01*
X69908780Y42249551D01*
X70062160Y42287355D01*
X70086253Y42300000D01*
X70202035Y42360768D01*
X70320278Y42465521D01*
X70410015Y42595528D01*
X70466032Y42743233D01*
X70485073Y42900051D01*
X70478948Y42950500D01*
X70466032Y43056870D01*
X70428126Y43156819D01*
X70410015Y43204574D01*
X70320278Y43334581D01*
X70202035Y43439334D01*
X70202033Y43439335D01*
X70202032Y43439336D01*
X70062160Y43512748D01*
X69908781Y43550551D01*
X69908780Y43550551D01*
X69750810Y43550551D01*
X69750809Y43550551D01*
X69597429Y43512748D01*
X69457557Y43439336D01*
X69339311Y43334580D01*
X69249576Y43204576D01*
X69249575Y43204575D01*
X69193557Y43056870D01*
X69174517Y42900052D01*
X69174517Y42900051D01*
X49243142Y42900051D01*
X49255278Y43000000D01*
X49236237Y43156818D01*
X49180220Y43304523D01*
X49090483Y43434530D01*
X48972240Y43539283D01*
X48972238Y43539284D01*
X48972237Y43539285D01*
X48832365Y43612697D01*
X48678986Y43650500D01*
X48678985Y43650500D01*
X48521015Y43650500D01*
X48521014Y43650500D01*
X48367634Y43612697D01*
X48227762Y43539285D01*
X48195586Y43510780D01*
X48112721Y43437368D01*
X48109516Y43434529D01*
X48019781Y43304525D01*
X48019780Y43304524D01*
X47963762Y43156819D01*
X47944722Y43000001D01*
X47944722Y43000000D01*
X-1799500Y43000000D01*
X-1799500Y44816255D01*
X1413013Y44816255D01*
X1445695Y44651952D01*
X1445697Y44651944D01*
X1509808Y44497166D01*
X1602886Y44357864D01*
X1721350Y44239400D01*
X1770017Y44206882D01*
X1860650Y44146323D01*
X2015431Y44082210D01*
X2177036Y44050065D01*
X2179741Y44049527D01*
X2179745Y44049526D01*
X2179746Y44049526D01*
X2347281Y44049526D01*
X2347282Y44049527D01*
X2349982Y44050064D01*
X16208260Y44050064D01*
X16227300Y43893246D01*
X16261531Y43802988D01*
X16283318Y43745541D01*
X16373055Y43615534D01*
X16491298Y43510781D01*
X16491300Y43510780D01*
X16631172Y43437368D01*
X16784552Y43399564D01*
X16784553Y43399564D01*
X16942523Y43399564D01*
X17095903Y43437368D01*
X17099653Y43439336D01*
X17235778Y43510781D01*
X17354021Y43615534D01*
X17443758Y43745541D01*
X17499775Y43893246D01*
X17518816Y44050064D01*
X17499775Y44206882D01*
X17488156Y44237518D01*
X26644722Y44237518D01*
X26663762Y44080700D01*
X26719780Y43932995D01*
X26809517Y43802988D01*
X26927760Y43698235D01*
X26927762Y43698234D01*
X27067634Y43624822D01*
X27221014Y43587018D01*
X27221015Y43587018D01*
X27378985Y43587018D01*
X27532365Y43624822D01*
X27672240Y43698235D01*
X27790483Y43802988D01*
X27880220Y43932995D01*
X27936237Y44080700D01*
X27955278Y44237518D01*
X27955050Y44239400D01*
X27936237Y44394337D01*
X27902007Y44484593D01*
X27880220Y44542041D01*
X27790483Y44672048D01*
X27672240Y44776801D01*
X27672238Y44776802D01*
X27672237Y44776803D01*
X27532365Y44850215D01*
X27378986Y44888018D01*
X27378985Y44888018D01*
X27221015Y44888018D01*
X27221014Y44888018D01*
X27067634Y44850215D01*
X26927762Y44776803D01*
X26809516Y44672047D01*
X26719781Y44542043D01*
X26719780Y44542042D01*
X26663762Y44394337D01*
X26644722Y44237519D01*
X26644722Y44237518D01*
X17488156Y44237518D01*
X17443758Y44354587D01*
X17354021Y44484594D01*
X17235778Y44589347D01*
X17195917Y44610268D01*
X17145705Y44658852D01*
X17129730Y44726871D01*
X17153065Y44792729D01*
X17195916Y44829860D01*
X17235778Y44850781D01*
X17354021Y44955534D01*
X17443758Y45085541D01*
X17499775Y45233246D01*
X17507887Y45300051D01*
X69174517Y45300051D01*
X69193557Y45143233D01*
X69249575Y44995528D01*
X69339312Y44865521D01*
X69457555Y44760768D01*
X69457557Y44760767D01*
X69597429Y44687355D01*
X69750809Y44649551D01*
X69750810Y44649551D01*
X69908780Y44649551D01*
X70062160Y44687355D01*
X70087327Y44700564D01*
X70202035Y44760768D01*
X70320278Y44865521D01*
X70410015Y44995528D01*
X70466032Y45143233D01*
X70485073Y45300051D01*
X70484729Y45302889D01*
X70466032Y45456870D01*
X70444787Y45512887D01*
X70410015Y45604574D01*
X70320278Y45734581D01*
X70202035Y45839334D01*
X70202033Y45839335D01*
X70202032Y45839336D01*
X70062160Y45912748D01*
X69908781Y45950551D01*
X69908780Y45950551D01*
X69750810Y45950551D01*
X69750809Y45950551D01*
X69597429Y45912748D01*
X69457557Y45839336D01*
X69339311Y45734580D01*
X69249576Y45604576D01*
X69249575Y45604575D01*
X69193557Y45456870D01*
X69174517Y45300052D01*
X69174517Y45300051D01*
X17507887Y45300051D01*
X17518816Y45390064D01*
X17510705Y45456869D01*
X17499775Y45546883D01*
X17459253Y45653729D01*
X17443758Y45694587D01*
X17354021Y45824594D01*
X17235778Y45929347D01*
X17235776Y45929348D01*
X17235775Y45929349D01*
X17176864Y45960268D01*
X17126652Y46008852D01*
X17110677Y46076871D01*
X17134012Y46142729D01*
X17176864Y46179860D01*
X17189249Y46186361D01*
X17235778Y46210781D01*
X17354021Y46315534D01*
X17443758Y46445541D01*
X17499775Y46593246D01*
X17518816Y46750064D01*
X17518436Y46753198D01*
X17499775Y46906883D01*
X17469275Y46987304D01*
X17443758Y47054587D01*
X17354021Y47184594D01*
X17235778Y47289347D01*
X17235776Y47289348D01*
X17235775Y47289349D01*
X17095903Y47362761D01*
X16942524Y47400564D01*
X16942523Y47400564D01*
X16784553Y47400564D01*
X16784552Y47400564D01*
X16631172Y47362761D01*
X16491300Y47289349D01*
X16373054Y47184593D01*
X16283319Y47054589D01*
X16283318Y47054588D01*
X16227300Y46906883D01*
X16208260Y46750065D01*
X16208260Y46750064D01*
X16227300Y46593246D01*
X16283318Y46445541D01*
X16373055Y46315534D01*
X16447954Y46249180D01*
X16491300Y46210779D01*
X16550211Y46179860D01*
X16600424Y46131275D01*
X16616398Y46063256D01*
X16593062Y45997398D01*
X16550211Y45960268D01*
X16491300Y45929350D01*
X16373054Y45824593D01*
X16283319Y45694589D01*
X16283318Y45694588D01*
X16227300Y45546883D01*
X16208260Y45390065D01*
X16208260Y45390064D01*
X16227300Y45233246D01*
X16259592Y45148101D01*
X16283318Y45085541D01*
X16373055Y44955534D01*
X16449266Y44888018D01*
X16491300Y44850779D01*
X16531158Y44829860D01*
X16581371Y44781275D01*
X16597345Y44713256D01*
X16574010Y44647399D01*
X16531158Y44610268D01*
X16491300Y44589350D01*
X16373054Y44484593D01*
X16283319Y44354589D01*
X16283318Y44354588D01*
X16227300Y44206883D01*
X16208260Y44050065D01*
X16208260Y44050064D01*
X2349982Y44050064D01*
X2511595Y44082210D01*
X2666376Y44146323D01*
X2805675Y44239400D01*
X2924139Y44357864D01*
X3017216Y44497163D01*
X3081329Y44651944D01*
X3114013Y44816259D01*
X3114013Y44983793D01*
X3081329Y45148108D01*
X3017216Y45302889D01*
X2986050Y45349532D01*
X2924139Y45442189D01*
X2805675Y45560653D01*
X2666373Y45653731D01*
X2511595Y45717842D01*
X2511587Y45717844D01*
X2347284Y45750526D01*
X2347280Y45750526D01*
X2179746Y45750526D01*
X2179741Y45750526D01*
X2015438Y45717844D01*
X2015430Y45717842D01*
X1860652Y45653731D01*
X1721350Y45560653D01*
X1602886Y45442189D01*
X1509808Y45302887D01*
X1445697Y45148109D01*
X1445695Y45148101D01*
X1413013Y44983798D01*
X1413013Y44816255D01*
X-1799500Y44816255D01*
X-1799500Y46205027D01*
X-1798874Y46212241D01*
X-1799467Y46237988D01*
X-1799500Y46240847D01*
X-1799500Y46293181D01*
X-1801051Y46307258D01*
X-1801207Y46314010D01*
X-1807944Y46340660D01*
X-1828456Y46421818D01*
X-1828458Y46421821D01*
X-1828458Y46421823D01*
X-1879028Y46520862D01*
X-1950380Y46606157D01*
X-1950385Y46606161D01*
X-1950386Y46606162D01*
X-2038930Y46673424D01*
X-2038931Y46673425D01*
X-2140236Y46719290D01*
X-2249209Y46741448D01*
X-2249214Y46741448D01*
X-2284799Y46740599D01*
X-2287756Y46740564D01*
X-3340952Y46740564D01*
X-3407991Y46760249D01*
X-3453746Y46813053D01*
X-3464952Y46864564D01*
X-3464952Y47800000D01*
X35244722Y47800000D01*
X35263762Y47643182D01*
X35319780Y47495477D01*
X35409517Y47365470D01*
X35527760Y47260717D01*
X35527762Y47260716D01*
X35667634Y47187304D01*
X35821014Y47149500D01*
X35821015Y47149500D01*
X35978985Y47149500D01*
X36132365Y47187304D01*
X36272240Y47260717D01*
X36390483Y47365470D01*
X36480220Y47495477D01*
X36519860Y47600000D01*
X37644722Y47600000D01*
X37663762Y47443182D01*
X37694263Y47362760D01*
X37719780Y47295477D01*
X37809517Y47165470D01*
X37927760Y47060717D01*
X37927762Y47060716D01*
X38067634Y46987304D01*
X38221014Y46949500D01*
X38221015Y46949500D01*
X38378985Y46949500D01*
X38532365Y46987304D01*
X38672240Y47060717D01*
X38790483Y47165470D01*
X38880220Y47295477D01*
X38936237Y47443182D01*
X38955278Y47600000D01*
X38936237Y47756818D01*
X38880220Y47904523D01*
X38790483Y48034530D01*
X38672240Y48139283D01*
X38672238Y48139284D01*
X38672237Y48139285D01*
X38532365Y48212697D01*
X38378986Y48250500D01*
X38378985Y48250500D01*
X38221015Y48250500D01*
X38221014Y48250500D01*
X38067634Y48212697D01*
X37927762Y48139285D01*
X37809516Y48034529D01*
X37719781Y47904525D01*
X37719780Y47904524D01*
X37663762Y47756819D01*
X37644722Y47600001D01*
X37644722Y47600000D01*
X36519860Y47600000D01*
X36536237Y47643182D01*
X36555278Y47800000D01*
X36542587Y47904525D01*
X36536237Y47956819D01*
X36506765Y48034530D01*
X36480220Y48104523D01*
X36410278Y48205851D01*
X36388396Y48272204D01*
X36405861Y48339856D01*
X36457129Y48387326D01*
X36525922Y48399543D01*
X36560274Y48389045D01*
X36560623Y48389963D01*
X36567634Y48387304D01*
X36721014Y48349500D01*
X36721015Y48349500D01*
X36878985Y48349500D01*
X37032365Y48387304D01*
X37055684Y48399543D01*
X37172240Y48460717D01*
X37290483Y48565470D01*
X37380220Y48695477D01*
X37436237Y48843182D01*
X37455278Y49000000D01*
X37436237Y49156818D01*
X37380220Y49304523D01*
X37290483Y49434530D01*
X37172240Y49539283D01*
X37172238Y49539284D01*
X37172237Y49539285D01*
X37032365Y49612697D01*
X36878986Y49650500D01*
X36878985Y49650500D01*
X36721015Y49650500D01*
X36721014Y49650500D01*
X36567634Y49612697D01*
X36427762Y49539285D01*
X36309516Y49434529D01*
X36219781Y49304525D01*
X36219780Y49304524D01*
X36163762Y49156819D01*
X36144722Y49000001D01*
X36144722Y49000000D01*
X36163762Y48843182D01*
X36219780Y48695477D01*
X36219781Y48695476D01*
X36289720Y48594151D01*
X36311603Y48527796D01*
X36294138Y48460145D01*
X36242870Y48412675D01*
X36174076Y48400458D01*
X36139725Y48410955D01*
X36139377Y48410037D01*
X36132365Y48412697D01*
X35978986Y48450500D01*
X35978985Y48450500D01*
X35821015Y48450500D01*
X35821014Y48450500D01*
X35667634Y48412697D01*
X35527762Y48339285D01*
X35409516Y48234529D01*
X35319781Y48104525D01*
X35319780Y48104524D01*
X35263762Y47956819D01*
X35244722Y47800001D01*
X35244722Y47800000D01*
X-3464952Y47800000D01*
X-3464952Y49799949D01*
X39144925Y49799949D01*
X39163965Y49643131D01*
X39203350Y49539283D01*
X39219983Y49495426D01*
X39309720Y49365419D01*
X39427963Y49260666D01*
X39427965Y49260665D01*
X39567837Y49187253D01*
X39721217Y49149449D01*
X39721218Y49149449D01*
X39879188Y49149449D01*
X40032568Y49187253D01*
X40032762Y49187355D01*
X40172443Y49260666D01*
X40290686Y49365419D01*
X40380423Y49495426D01*
X40436440Y49643131D01*
X40455481Y49799949D01*
X40455469Y49800051D01*
X70174517Y49800051D01*
X70193557Y49643233D01*
X70232980Y49539285D01*
X70249575Y49495528D01*
X70339312Y49365521D01*
X70457555Y49260768D01*
X70457557Y49260767D01*
X70597429Y49187355D01*
X70750809Y49149551D01*
X70750810Y49149551D01*
X70908780Y49149551D01*
X71062160Y49187355D01*
X71202035Y49260768D01*
X71320278Y49365521D01*
X71410015Y49495528D01*
X71466032Y49643233D01*
X71485073Y49800051D01*
X71466045Y49956767D01*
X71466032Y49956870D01*
X71444787Y50012887D01*
X71410015Y50104574D01*
X71320278Y50234581D01*
X71202035Y50339334D01*
X71202033Y50339335D01*
X71202032Y50339336D01*
X71062160Y50412748D01*
X70908781Y50450551D01*
X70908780Y50450551D01*
X70750810Y50450551D01*
X70750809Y50450551D01*
X70597429Y50412748D01*
X70457557Y50339336D01*
X70339311Y50234580D01*
X70249576Y50104576D01*
X70249575Y50104575D01*
X70193557Y49956870D01*
X70174517Y49800052D01*
X70174517Y49800051D01*
X40455469Y49800051D01*
X40455469Y49800052D01*
X40436440Y49956768D01*
X40415195Y50012785D01*
X40380423Y50104472D01*
X40290686Y50234479D01*
X40172443Y50339232D01*
X40172441Y50339233D01*
X40172440Y50339234D01*
X40032568Y50412646D01*
X39879189Y50450449D01*
X39879188Y50450449D01*
X39721218Y50450449D01*
X39721217Y50450449D01*
X39567837Y50412646D01*
X39427965Y50339234D01*
X39309719Y50234478D01*
X39219984Y50104474D01*
X39219983Y50104473D01*
X39163965Y49956768D01*
X39144925Y49799950D01*
X39144925Y49799949D01*
X-3464952Y49799949D01*
X-3464952Y50950000D01*
X36894722Y50950000D01*
X36913762Y50793182D01*
X36949234Y50699652D01*
X36969780Y50645477D01*
X37059517Y50515470D01*
X37177760Y50410717D01*
X37177762Y50410716D01*
X37317634Y50337304D01*
X37471014Y50299500D01*
X37471015Y50299500D01*
X37628985Y50299500D01*
X37782365Y50337304D01*
X37786237Y50339336D01*
X37922240Y50410717D01*
X38040483Y50515470D01*
X38130220Y50645477D01*
X38186237Y50793182D01*
X38205278Y50950000D01*
X38186237Y51106818D01*
X38130220Y51254523D01*
X38064212Y51350152D01*
X70174517Y51350152D01*
X70193557Y51193334D01*
X70226369Y51106818D01*
X70249575Y51045629D01*
X70339312Y50915622D01*
X70457555Y50810869D01*
X70457557Y50810868D01*
X70597429Y50737456D01*
X70750809Y50699652D01*
X70750810Y50699652D01*
X70908780Y50699652D01*
X71062160Y50737456D01*
X71202035Y50810869D01*
X71320278Y50915622D01*
X71410015Y51045629D01*
X71466032Y51193334D01*
X71485073Y51350152D01*
X71466032Y51506970D01*
X71410015Y51654675D01*
X71320278Y51784682D01*
X71202035Y51889435D01*
X71202033Y51889436D01*
X71202032Y51889437D01*
X71062160Y51962849D01*
X70908781Y52000652D01*
X70908780Y52000652D01*
X70750810Y52000652D01*
X70750809Y52000652D01*
X70597429Y51962849D01*
X70457557Y51889437D01*
X70339311Y51784681D01*
X70249576Y51654677D01*
X70249575Y51654676D01*
X70193557Y51506971D01*
X70174517Y51350153D01*
X70174517Y51350152D01*
X38064212Y51350152D01*
X38040483Y51384530D01*
X37922240Y51489283D01*
X37922238Y51489284D01*
X37922237Y51489285D01*
X37782365Y51562697D01*
X37628986Y51600500D01*
X37628985Y51600500D01*
X37471015Y51600500D01*
X37471014Y51600500D01*
X37317634Y51562697D01*
X37177762Y51489285D01*
X37059516Y51384529D01*
X36969781Y51254525D01*
X36969780Y51254524D01*
X36913762Y51106819D01*
X36894722Y50950001D01*
X36894722Y50950000D01*
X-3464952Y50950000D01*
X-3464952Y55500000D01*
X36044722Y55500000D01*
X36063762Y55343182D01*
X36095038Y55260716D01*
X36119780Y55195477D01*
X36209517Y55065470D01*
X36327760Y54960717D01*
X36327762Y54960716D01*
X36467634Y54887304D01*
X36621014Y54849500D01*
X36621015Y54849500D01*
X36778985Y54849500D01*
X36932365Y54887304D01*
X37072240Y54960717D01*
X37190483Y55065470D01*
X37280220Y55195477D01*
X37336237Y55343182D01*
X37355278Y55500000D01*
X37744722Y55500000D01*
X37763762Y55343182D01*
X37795038Y55260716D01*
X37819780Y55195477D01*
X37909517Y55065470D01*
X38027760Y54960717D01*
X38027762Y54960716D01*
X38167634Y54887304D01*
X38321014Y54849500D01*
X38321015Y54849500D01*
X38478985Y54849500D01*
X38632365Y54887304D01*
X38772237Y54960715D01*
X38772238Y54960717D01*
X38772240Y54960717D01*
X38867775Y55045354D01*
X38931006Y55075073D01*
X39000270Y55065889D01*
X39032222Y55045355D01*
X39111125Y54975454D01*
X39127762Y54960715D01*
X39267634Y54887304D01*
X39421014Y54849500D01*
X39421015Y54849500D01*
X39578985Y54849500D01*
X39732365Y54887304D01*
X39872237Y54960715D01*
X39872238Y54960717D01*
X39872240Y54960717D01*
X39967775Y55045354D01*
X40031006Y55075073D01*
X40100270Y55065889D01*
X40132222Y55045355D01*
X40211125Y54975454D01*
X40227762Y54960715D01*
X40367634Y54887304D01*
X40521014Y54849500D01*
X40521015Y54849500D01*
X40678985Y54849500D01*
X40832365Y54887304D01*
X40972240Y54960717D01*
X41090483Y55065470D01*
X41180220Y55195477D01*
X41236237Y55343182D01*
X41255278Y55500000D01*
X42144722Y55500000D01*
X42163762Y55343182D01*
X42195038Y55260716D01*
X42219780Y55195477D01*
X42309517Y55065470D01*
X42427760Y54960717D01*
X42427762Y54960716D01*
X42567634Y54887304D01*
X42721014Y54849500D01*
X42721015Y54849500D01*
X42878985Y54849500D01*
X43032365Y54887304D01*
X43172237Y54960715D01*
X43172238Y54960717D01*
X43172240Y54960717D01*
X43267775Y55045354D01*
X43331006Y55075073D01*
X43400270Y55065889D01*
X43432222Y55045355D01*
X43511125Y54975454D01*
X43527762Y54960715D01*
X43667634Y54887304D01*
X43821014Y54849500D01*
X43821015Y54849500D01*
X43978985Y54849500D01*
X44132365Y54887304D01*
X44272240Y54960717D01*
X44390483Y55065470D01*
X44480220Y55195477D01*
X44536237Y55343182D01*
X44555278Y55500000D01*
X46444722Y55500000D01*
X46463762Y55343182D01*
X46495038Y55260716D01*
X46519780Y55195477D01*
X46609517Y55065470D01*
X46727760Y54960717D01*
X46727762Y54960716D01*
X46867634Y54887304D01*
X47021014Y54849500D01*
X47021015Y54849500D01*
X47178985Y54849500D01*
X47332365Y54887304D01*
X47472240Y54960717D01*
X47590483Y55065470D01*
X47680220Y55195477D01*
X47736237Y55343182D01*
X47755278Y55500000D01*
X47736237Y55656818D01*
X47681935Y55800000D01*
X64344722Y55800000D01*
X64363762Y55643182D01*
X64418064Y55500001D01*
X64419780Y55495477D01*
X64509517Y55365470D01*
X64627760Y55260717D01*
X64627762Y55260716D01*
X64767634Y55187304D01*
X64921014Y55149500D01*
X64921015Y55149500D01*
X65078985Y55149500D01*
X65232365Y55187304D01*
X65247937Y55195477D01*
X65372240Y55260717D01*
X65490483Y55365470D01*
X65580220Y55495477D01*
X65636237Y55643182D01*
X65655278Y55800000D01*
X65636237Y55956818D01*
X65580220Y56104523D01*
X65490483Y56234530D01*
X65372240Y56339283D01*
X65372238Y56339284D01*
X65372237Y56339285D01*
X65232365Y56412697D01*
X65078986Y56450500D01*
X65078985Y56450500D01*
X64921015Y56450500D01*
X64921014Y56450500D01*
X64767634Y56412697D01*
X64627762Y56339285D01*
X64509516Y56234529D01*
X64419781Y56104525D01*
X64419780Y56104524D01*
X64363762Y55956819D01*
X64344722Y55800001D01*
X64344722Y55800000D01*
X47681935Y55800000D01*
X47680220Y55804523D01*
X47590483Y55934530D01*
X47472240Y56039283D01*
X47472238Y56039284D01*
X47472237Y56039285D01*
X47332365Y56112697D01*
X47178986Y56150500D01*
X47178985Y56150500D01*
X47021015Y56150500D01*
X47021014Y56150500D01*
X46867634Y56112697D01*
X46727762Y56039285D01*
X46609516Y55934529D01*
X46519781Y55804525D01*
X46519780Y55804524D01*
X46463762Y55656819D01*
X46444722Y55500001D01*
X46444722Y55500000D01*
X44555278Y55500000D01*
X44536237Y55656818D01*
X44480220Y55804523D01*
X44390483Y55934530D01*
X44272240Y56039283D01*
X44272238Y56039284D01*
X44272237Y56039285D01*
X44132365Y56112697D01*
X43978986Y56150500D01*
X43978985Y56150500D01*
X43821015Y56150500D01*
X43821014Y56150500D01*
X43667634Y56112697D01*
X43527761Y56039285D01*
X43527759Y56039284D01*
X43432226Y55954649D01*
X43368993Y55924928D01*
X43299730Y55934112D01*
X43267774Y55954649D01*
X43172240Y56039284D01*
X43172238Y56039285D01*
X43032365Y56112697D01*
X42878986Y56150500D01*
X42878985Y56150500D01*
X42721015Y56150500D01*
X42721014Y56150500D01*
X42567634Y56112697D01*
X42427762Y56039285D01*
X42309516Y55934529D01*
X42219781Y55804525D01*
X42219780Y55804524D01*
X42163762Y55656819D01*
X42144722Y55500001D01*
X42144722Y55500000D01*
X41255278Y55500000D01*
X41236237Y55656818D01*
X41180220Y55804523D01*
X41090483Y55934530D01*
X40972240Y56039283D01*
X40972238Y56039284D01*
X40972237Y56039285D01*
X40832365Y56112697D01*
X40678986Y56150500D01*
X40678985Y56150500D01*
X40521015Y56150500D01*
X40521014Y56150500D01*
X40367634Y56112697D01*
X40227761Y56039285D01*
X40227759Y56039284D01*
X40132226Y55954649D01*
X40068993Y55924928D01*
X39999730Y55934112D01*
X39967774Y55954649D01*
X39872240Y56039284D01*
X39872238Y56039285D01*
X39732365Y56112697D01*
X39578986Y56150500D01*
X39578985Y56150500D01*
X39421015Y56150500D01*
X39421014Y56150500D01*
X39267634Y56112697D01*
X39127761Y56039285D01*
X39127759Y56039284D01*
X39032226Y55954649D01*
X38968993Y55924928D01*
X38899730Y55934112D01*
X38867774Y55954649D01*
X38772240Y56039284D01*
X38772238Y56039285D01*
X38632365Y56112697D01*
X38478986Y56150500D01*
X38478985Y56150500D01*
X38321015Y56150500D01*
X38321014Y56150500D01*
X38167634Y56112697D01*
X38027762Y56039285D01*
X37909516Y55934529D01*
X37819781Y55804525D01*
X37819780Y55804524D01*
X37763762Y55656819D01*
X37744722Y55500001D01*
X37744722Y55500000D01*
X37355278Y55500000D01*
X37336237Y55656818D01*
X37280220Y55804523D01*
X37190483Y55934530D01*
X37072240Y56039283D01*
X37072238Y56039284D01*
X37072237Y56039285D01*
X36932365Y56112697D01*
X36778986Y56150500D01*
X36778985Y56150500D01*
X36621015Y56150500D01*
X36621014Y56150500D01*
X36467634Y56112697D01*
X36327762Y56039285D01*
X36209516Y55934529D01*
X36119781Y55804525D01*
X36119780Y55804524D01*
X36063762Y55656819D01*
X36044722Y55500001D01*
X36044722Y55500000D01*
X-3464952Y55500000D01*
X-3464952Y58100000D01*
X47944722Y58100000D01*
X47963762Y57943182D01*
X48019780Y57795477D01*
X48109517Y57665470D01*
X48227760Y57560717D01*
X48227762Y57560716D01*
X48367634Y57487304D01*
X48521014Y57449500D01*
X48521015Y57449500D01*
X48678985Y57449500D01*
X48832365Y57487304D01*
X48972240Y57560717D01*
X49090483Y57665470D01*
X49180220Y57795477D01*
X49236237Y57943182D01*
X49255278Y58100000D01*
X49236237Y58256818D01*
X49180220Y58404523D01*
X49090483Y58534530D01*
X48972240Y58639283D01*
X48972238Y58639284D01*
X48972237Y58639285D01*
X48832365Y58712697D01*
X48678986Y58750500D01*
X48678985Y58750500D01*
X48521015Y58750500D01*
X48521014Y58750500D01*
X48367634Y58712697D01*
X48227762Y58639285D01*
X48109516Y58534529D01*
X48019781Y58404525D01*
X48019780Y58404524D01*
X47963762Y58256819D01*
X47944722Y58100001D01*
X47944722Y58100000D01*
X-3464952Y58100000D01*
X-3464952Y60000051D01*
X58494647Y60000051D01*
X58513687Y59843233D01*
X58569705Y59695528D01*
X58659442Y59565521D01*
X58777685Y59460768D01*
X58777687Y59460767D01*
X58917559Y59387355D01*
X59070939Y59349551D01*
X59070940Y59349551D01*
X59228910Y59349551D01*
X59382290Y59387355D01*
X59522165Y59460768D01*
X59640408Y59565521D01*
X59730145Y59695528D01*
X59786162Y59843233D01*
X59805203Y60000051D01*
X59786162Y60156869D01*
X59730145Y60304574D01*
X59640408Y60434581D01*
X59522165Y60539334D01*
X59522163Y60539335D01*
X59522162Y60539336D01*
X59382290Y60612748D01*
X59228911Y60650551D01*
X59228910Y60650551D01*
X59070940Y60650551D01*
X59070939Y60650551D01*
X58917559Y60612748D01*
X58777687Y60539336D01*
X58659441Y60434580D01*
X58569706Y60304576D01*
X58569705Y60304575D01*
X58513687Y60156870D01*
X58494647Y60000052D01*
X58494647Y60000051D01*
X-3464952Y60000051D01*
X-3464952Y61599997D01*
X53294206Y61599997D01*
X53314401Y61420751D01*
X53314402Y61420746D01*
X53373982Y61250477D01*
X53469955Y61097738D01*
X53597509Y60970184D01*
X53750249Y60874211D01*
X53920516Y60814632D01*
X53920521Y60814631D01*
X54099767Y60794435D01*
X54099771Y60794435D01*
X54099775Y60794435D01*
X54279020Y60814631D01*
X54279023Y60814632D01*
X54279026Y60814632D01*
X54449293Y60874211D01*
X54602033Y60970184D01*
X54729587Y61097738D01*
X54825560Y61250478D01*
X54885139Y61420745D01*
X54905336Y61600000D01*
X54885139Y61779255D01*
X54825560Y61949522D01*
X54729587Y62102262D01*
X54602033Y62229816D01*
X54570706Y62249500D01*
X54449294Y62325789D01*
X54279025Y62385369D01*
X54279020Y62385370D01*
X54099775Y62405565D01*
X54099767Y62405565D01*
X53920521Y62385370D01*
X53920516Y62385369D01*
X53750247Y62325789D01*
X53597508Y62229816D01*
X53469955Y62102263D01*
X53373982Y61949524D01*
X53314402Y61779255D01*
X53314401Y61779250D01*
X53294206Y61600004D01*
X53294206Y61599997D01*
X-3464952Y61599997D01*
X-3464952Y63425000D01*
X33544722Y63425000D01*
X33563762Y63268182D01*
X33619780Y63120477D01*
X33709517Y62990470D01*
X33827760Y62885717D01*
X33827762Y62885716D01*
X33967634Y62812304D01*
X34121014Y62774500D01*
X34121015Y62774500D01*
X34278985Y62774500D01*
X34432365Y62812304D01*
X34572240Y62885717D01*
X34588362Y62900000D01*
X64344722Y62900000D01*
X64363762Y62743182D01*
X64419780Y62595477D01*
X64509517Y62465470D01*
X64627760Y62360717D01*
X64627762Y62360716D01*
X64767634Y62287304D01*
X64921014Y62249500D01*
X64921015Y62249500D01*
X65078985Y62249500D01*
X65232365Y62287304D01*
X65305691Y62325789D01*
X65372240Y62360717D01*
X65490483Y62465470D01*
X65580220Y62595477D01*
X65636237Y62743182D01*
X65655278Y62900000D01*
X65636237Y63056818D01*
X65580220Y63204523D01*
X65490483Y63334530D01*
X65372240Y63439283D01*
X65372238Y63439284D01*
X65372237Y63439285D01*
X65232365Y63512697D01*
X65078986Y63550500D01*
X65078985Y63550500D01*
X64921015Y63550500D01*
X64921014Y63550500D01*
X64767634Y63512697D01*
X64627762Y63439285D01*
X64548931Y63369448D01*
X64531803Y63354273D01*
X64509516Y63334529D01*
X64419781Y63204525D01*
X64419780Y63204524D01*
X64363762Y63056819D01*
X64344722Y62900001D01*
X64344722Y62900000D01*
X34588362Y62900000D01*
X34690483Y62990470D01*
X34780220Y63120477D01*
X34836237Y63268182D01*
X34855278Y63425000D01*
X34836237Y63581818D01*
X34780220Y63729523D01*
X34728423Y63804564D01*
X34706541Y63870916D01*
X34724006Y63938568D01*
X34728412Y63945424D01*
X34780220Y64020480D01*
X34836237Y64168185D01*
X34855278Y64325003D01*
X34854904Y64328088D01*
X34836237Y64481822D01*
X34783463Y64620974D01*
X34780220Y64629526D01*
X34690483Y64759533D01*
X34572240Y64864286D01*
X34572238Y64864287D01*
X34572237Y64864288D01*
X34432365Y64937700D01*
X34278986Y64975503D01*
X34278985Y64975503D01*
X34121015Y64975503D01*
X34121014Y64975503D01*
X33967634Y64937700D01*
X33827762Y64864288D01*
X33709516Y64759532D01*
X33619781Y64629528D01*
X33619780Y64629527D01*
X33563762Y64481822D01*
X33544722Y64325004D01*
X33544722Y64325003D01*
X33563762Y64168185D01*
X33619780Y64020480D01*
X33619781Y64020479D01*
X33671575Y63945442D01*
X33693458Y63879088D01*
X33675993Y63811436D01*
X33671575Y63804562D01*
X33619781Y63729525D01*
X33619780Y63729524D01*
X33563762Y63581819D01*
X33544722Y63425001D01*
X33544722Y63425000D01*
X-3464952Y63425000D01*
X-3464952Y66825000D01*
X36244722Y66825000D01*
X36263762Y66668182D01*
X36314450Y66534530D01*
X36319780Y66520477D01*
X36409517Y66390470D01*
X36527760Y66285717D01*
X36527762Y66285716D01*
X36667634Y66212304D01*
X36821014Y66174500D01*
X36821015Y66174500D01*
X36978985Y66174500D01*
X37132365Y66212304D01*
X37272240Y66285717D01*
X37390483Y66390470D01*
X37480220Y66520477D01*
X37536237Y66668182D01*
X37555278Y66825000D01*
X37545344Y66906819D01*
X37536237Y66981819D01*
X37508663Y67054525D01*
X37480220Y67129523D01*
X37390483Y67259530D01*
X37272240Y67364283D01*
X37272238Y67364284D01*
X37272237Y67364285D01*
X37132365Y67437697D01*
X36978986Y67475500D01*
X36978985Y67475500D01*
X36821015Y67475500D01*
X36821014Y67475500D01*
X36667634Y67437697D01*
X36527762Y67364285D01*
X36409516Y67259529D01*
X36319781Y67129525D01*
X36319780Y67129524D01*
X36263762Y66981819D01*
X36244722Y66825001D01*
X36244722Y66825000D01*
X-3464952Y66825000D01*
X-3464952Y68350000D01*
X37152287Y68350000D01*
X37171327Y68193182D01*
X37227345Y68045477D01*
X37317082Y67915470D01*
X37435325Y67810717D01*
X37435327Y67810716D01*
X37575199Y67737304D01*
X37728579Y67699500D01*
X37728580Y67699500D01*
X37886549Y67699500D01*
X37886550Y67699500D01*
X37904283Y67703871D01*
X37974082Y67700804D01*
X38031146Y67660486D01*
X38057055Y67598423D01*
X38063763Y67543181D01*
X38103768Y67437697D01*
X38119780Y67395477D01*
X38209517Y67265470D01*
X38327760Y67160717D01*
X38327762Y67160716D01*
X38467634Y67087304D01*
X38621014Y67049500D01*
X38621015Y67049500D01*
X38778985Y67049500D01*
X38909725Y67081724D01*
X38979526Y67078655D01*
X39036588Y67038335D01*
X39062794Y66973566D01*
X39062495Y66946381D01*
X39044722Y66800001D01*
X39044722Y66800000D01*
X39063762Y66643182D01*
X39110299Y66520477D01*
X39119780Y66495477D01*
X39209517Y66365470D01*
X39327760Y66260717D01*
X39327762Y66260716D01*
X39467634Y66187304D01*
X39621014Y66149500D01*
X39621015Y66149500D01*
X39778983Y66149500D01*
X39778985Y66149500D01*
X39798171Y66154229D01*
X39867971Y66151160D01*
X39925034Y66110841D01*
X39950941Y66048779D01*
X39963763Y65943181D01*
X40018064Y65800001D01*
X40019780Y65795477D01*
X40109517Y65665470D01*
X40227760Y65560717D01*
X40227762Y65560716D01*
X40367634Y65487304D01*
X40521014Y65449500D01*
X40521015Y65449500D01*
X40678982Y65449500D01*
X40678985Y65449500D01*
X40678987Y65449501D01*
X40685867Y65450336D01*
X40754791Y65438876D01*
X40806577Y65391973D01*
X40823911Y65342187D01*
X40835933Y65243181D01*
X40879472Y65128379D01*
X40891950Y65095477D01*
X40981687Y64965470D01*
X41099930Y64860717D01*
X41099932Y64860716D01*
X41239804Y64787304D01*
X41393184Y64749500D01*
X41393185Y64749500D01*
X41551155Y64749500D01*
X41578808Y64756316D01*
X41648609Y64753249D01*
X41705672Y64712930D01*
X41731878Y64648162D01*
X41731580Y64620974D01*
X41716892Y64500001D01*
X41716892Y64500000D01*
X41735932Y64343182D01*
X41781386Y64223332D01*
X41791950Y64195477D01*
X41881687Y64065470D01*
X41999930Y63960717D01*
X41999932Y63960716D01*
X42139804Y63887304D01*
X42293184Y63849500D01*
X42293185Y63849500D01*
X42451155Y63849500D01*
X42497362Y63860889D01*
X42567163Y63857820D01*
X42624225Y63817500D01*
X42650132Y63755439D01*
X42663763Y63643181D01*
X42713249Y63512697D01*
X42719780Y63495477D01*
X42809517Y63365470D01*
X42927760Y63260717D01*
X42927762Y63260716D01*
X43067634Y63187304D01*
X43221014Y63149500D01*
X43221015Y63149500D01*
X43378985Y63149500D01*
X43532365Y63187304D01*
X43672240Y63260717D01*
X43790483Y63365470D01*
X43880220Y63495477D01*
X43936237Y63643182D01*
X43953918Y63788803D01*
X56894493Y63788803D01*
X56913533Y63631985D01*
X56965305Y63495476D01*
X56969551Y63484280D01*
X57059288Y63354273D01*
X57177531Y63249520D01*
X57177533Y63249519D01*
X57317405Y63176107D01*
X57470785Y63138303D01*
X57470786Y63138303D01*
X57628756Y63138303D01*
X57782136Y63176107D01*
X57836281Y63204525D01*
X57922011Y63249520D01*
X58040254Y63354273D01*
X58129991Y63484280D01*
X58186008Y63631985D01*
X58205049Y63788803D01*
X58203690Y63800000D01*
X58186008Y63945622D01*
X58157618Y64020480D01*
X58129991Y64093326D01*
X58040254Y64223333D01*
X57922011Y64328086D01*
X57922009Y64328087D01*
X57922008Y64328088D01*
X57782136Y64401500D01*
X57628757Y64439303D01*
X57628756Y64439303D01*
X57470786Y64439303D01*
X57470785Y64439303D01*
X57317405Y64401500D01*
X57177533Y64328088D01*
X57059287Y64223332D01*
X56969552Y64093328D01*
X56969551Y64093327D01*
X56913533Y63945622D01*
X56894493Y63788804D01*
X56894493Y63788803D01*
X43953918Y63788803D01*
X43955278Y63800000D01*
X43953890Y63811436D01*
X43936237Y63956819D01*
X43903419Y64043351D01*
X43880220Y64104523D01*
X43790483Y64234530D01*
X43672240Y64339283D01*
X43672238Y64339284D01*
X43672237Y64339285D01*
X43532365Y64412697D01*
X43378986Y64450500D01*
X43378985Y64450500D01*
X43221015Y64450500D01*
X43221011Y64450500D01*
X43174806Y64439112D01*
X43105004Y64442182D01*
X43054486Y64477879D01*
X58713865Y64477879D01*
X58732905Y64321061D01*
X58780534Y64195476D01*
X58788923Y64173356D01*
X58878660Y64043349D01*
X58996903Y63938596D01*
X58996905Y63938595D01*
X59136777Y63865183D01*
X59290157Y63827379D01*
X59290158Y63827379D01*
X59448128Y63827379D01*
X59601508Y63865183D01*
X59628001Y63879088D01*
X59741383Y63938596D01*
X59859626Y64043349D01*
X59949363Y64173356D01*
X60005380Y64321061D01*
X60024421Y64477879D01*
X60005380Y64634697D01*
X60000273Y64648162D01*
X59958036Y64759533D01*
X59949363Y64782402D01*
X59859626Y64912409D01*
X59803207Y64962391D01*
X59766081Y65021580D01*
X59766849Y65091445D01*
X59805266Y65149805D01*
X59869137Y65178130D01*
X59915108Y65175604D01*
X60021015Y65149500D01*
X60178985Y65149500D01*
X60332365Y65187304D01*
X60438828Y65243181D01*
X60472240Y65260717D01*
X60590483Y65365470D01*
X60680220Y65495477D01*
X60736237Y65643182D01*
X60755278Y65800000D01*
X60751086Y65834529D01*
X60736237Y65956819D01*
X60700708Y66050500D01*
X60680220Y66104523D01*
X60590483Y66234530D01*
X60472240Y66339283D01*
X60472238Y66339284D01*
X60472237Y66339285D01*
X60332365Y66412697D01*
X60178986Y66450500D01*
X60178985Y66450500D01*
X60021015Y66450500D01*
X60021014Y66450500D01*
X59867634Y66412697D01*
X59727762Y66339285D01*
X59609516Y66234529D01*
X59519781Y66104525D01*
X59519780Y66104524D01*
X59463762Y65956819D01*
X59444722Y65800001D01*
X59444722Y65800000D01*
X59463762Y65643182D01*
X59495038Y65560716D01*
X59519780Y65495477D01*
X59609517Y65365470D01*
X59665934Y65315489D01*
X59703060Y65256301D01*
X59702293Y65186435D01*
X59663876Y65128075D01*
X59600006Y65099750D01*
X59554033Y65102277D01*
X59448129Y65128379D01*
X59448128Y65128379D01*
X59290158Y65128379D01*
X59290157Y65128379D01*
X59136777Y65090576D01*
X58996905Y65017164D01*
X58878659Y64912408D01*
X58788924Y64782404D01*
X58788923Y64782403D01*
X58732905Y64634698D01*
X58713865Y64477880D01*
X58713865Y64477879D01*
X43054486Y64477879D01*
X43047942Y64482503D01*
X43022037Y64544563D01*
X43012759Y64620974D01*
X43008407Y64656818D01*
X42952390Y64804523D01*
X42862653Y64934530D01*
X42744410Y65039283D01*
X42744408Y65039284D01*
X42744407Y65039285D01*
X42604535Y65112697D01*
X42451156Y65150500D01*
X42451155Y65150500D01*
X42293185Y65150500D01*
X42293184Y65150500D01*
X42265529Y65143684D01*
X42195726Y65146754D01*
X42138665Y65187074D01*
X42112460Y65251844D01*
X42112759Y65279028D01*
X42127448Y65400000D01*
X42108407Y65556818D01*
X42106928Y65560717D01*
X42087162Y65612836D01*
X42052390Y65704523D01*
X41962653Y65834530D01*
X41844410Y65939283D01*
X41844408Y65939284D01*
X41844407Y65939285D01*
X41704535Y66012697D01*
X41551156Y66050500D01*
X41551155Y66050500D01*
X41393185Y66050500D01*
X41393180Y66050500D01*
X41386291Y66049664D01*
X41317369Y66061130D01*
X41265586Y66108037D01*
X41248258Y66157815D01*
X41243381Y66197979D01*
X41236237Y66256818D01*
X41180220Y66404523D01*
X41090483Y66534530D01*
X40972240Y66639283D01*
X40972238Y66639284D01*
X40972237Y66639285D01*
X40832365Y66712697D01*
X40678986Y66750500D01*
X40678985Y66750500D01*
X40521015Y66750500D01*
X40521014Y66750500D01*
X40501825Y66745771D01*
X40432023Y66748843D01*
X40374962Y66789164D01*
X40349058Y66851223D01*
X40336237Y66956818D01*
X40280220Y67104523D01*
X40190483Y67234530D01*
X40072240Y67339283D01*
X40072238Y67339284D01*
X40072237Y67339285D01*
X39932365Y67412697D01*
X39778986Y67450500D01*
X39778985Y67450500D01*
X39621015Y67450500D01*
X39621014Y67450500D01*
X39490274Y67418277D01*
X39420472Y67421347D01*
X39363410Y67461667D01*
X39337205Y67526437D01*
X39337503Y67553617D01*
X39355278Y67700000D01*
X39336237Y67856818D01*
X39280220Y68004523D01*
X39190483Y68134530D01*
X39072240Y68239283D01*
X39072238Y68239284D01*
X39072237Y68239285D01*
X38932365Y68312697D01*
X38781015Y68350000D01*
X49144722Y68350000D01*
X49163762Y68193182D01*
X49219780Y68045477D01*
X49309517Y67915470D01*
X49427760Y67810717D01*
X49427762Y67810716D01*
X49567634Y67737304D01*
X49721014Y67699500D01*
X49721015Y67699500D01*
X49878985Y67699500D01*
X50032365Y67737304D01*
X50042322Y67742530D01*
X50172240Y67810717D01*
X50290483Y67915470D01*
X50380220Y68045477D01*
X50436237Y68193182D01*
X50455278Y68350000D01*
X50454452Y68356807D01*
X50436237Y68506819D01*
X50413993Y68565472D01*
X50380220Y68654523D01*
X50290483Y68784530D01*
X50172240Y68889283D01*
X50172238Y68889284D01*
X50172237Y68889285D01*
X50032365Y68962697D01*
X49878986Y69000500D01*
X49878985Y69000500D01*
X49721015Y69000500D01*
X49721014Y69000500D01*
X49567634Y68962697D01*
X49427762Y68889285D01*
X49309516Y68784529D01*
X49219781Y68654525D01*
X49219780Y68654524D01*
X49163762Y68506819D01*
X49144722Y68350001D01*
X49144722Y68350000D01*
X38781015Y68350000D01*
X38778986Y68350500D01*
X38778985Y68350500D01*
X38621015Y68350500D01*
X38621011Y68350500D01*
X38603278Y68346129D01*
X38533476Y68349199D01*
X38476415Y68389519D01*
X38450509Y68451580D01*
X38449917Y68456455D01*
X38443802Y68506818D01*
X38387785Y68654523D01*
X38298048Y68784530D01*
X38179805Y68889283D01*
X38179803Y68889284D01*
X38179802Y68889285D01*
X38039930Y68962697D01*
X37886551Y69000500D01*
X37886550Y69000500D01*
X37728580Y69000500D01*
X37728579Y69000500D01*
X37575199Y68962697D01*
X37435327Y68889285D01*
X37317081Y68784529D01*
X37227346Y68654525D01*
X37227345Y68654524D01*
X37171327Y68506819D01*
X37152287Y68350001D01*
X37152287Y68350000D01*
X-3464952Y68350000D01*
X-3464952Y69700000D01*
X55144722Y69700000D01*
X55163762Y69543182D01*
X55219780Y69395477D01*
X55309517Y69265470D01*
X55427760Y69160717D01*
X55427762Y69160716D01*
X55567634Y69087304D01*
X55721014Y69049500D01*
X55721015Y69049500D01*
X55878985Y69049500D01*
X56032365Y69087304D01*
X56172240Y69160717D01*
X56290483Y69265470D01*
X56380220Y69395477D01*
X56436237Y69543182D01*
X56455278Y69700000D01*
X56451173Y69733805D01*
X56462633Y69802726D01*
X56509536Y69854512D01*
X56576992Y69872720D01*
X56631895Y69858546D01*
X56767634Y69787304D01*
X56921014Y69749500D01*
X56921015Y69749500D01*
X57078985Y69749500D01*
X57127111Y69761362D01*
X57196913Y69758293D01*
X57253975Y69717973D01*
X57280181Y69653204D01*
X57267209Y69584549D01*
X57232636Y69545088D01*
X57233374Y69544256D01*
X57227761Y69539284D01*
X57227760Y69539283D01*
X57109517Y69434530D01*
X57109516Y69434529D01*
X57019781Y69304525D01*
X57019780Y69304524D01*
X56963762Y69156819D01*
X56944722Y69000001D01*
X56944722Y69000000D01*
X56963762Y68843182D01*
X57019780Y68695477D01*
X57109517Y68565470D01*
X57227760Y68460717D01*
X57227762Y68460716D01*
X57229518Y68459794D01*
X57230566Y68458780D01*
X57233934Y68456455D01*
X57233547Y68455895D01*
X57279728Y68411207D01*
X57295700Y68343187D01*
X57272362Y68277331D01*
X57233723Y68243851D01*
X57233934Y68243545D01*
X57231167Y68241636D01*
X57229518Y68240206D01*
X57227762Y68239285D01*
X57109516Y68134529D01*
X57019781Y68004525D01*
X57019780Y68004524D01*
X56963762Y67856819D01*
X56944722Y67700001D01*
X56944722Y67700000D01*
X56963762Y67543182D01*
X57019780Y67395477D01*
X57019781Y67395476D01*
X57088830Y67295440D01*
X57110713Y67229085D01*
X57093247Y67161434D01*
X57088830Y67154560D01*
X57019781Y67054525D01*
X57019780Y67054524D01*
X56963762Y66906819D01*
X56944722Y66750001D01*
X56944722Y66750000D01*
X56963762Y66593182D01*
X57000818Y66495476D01*
X57019780Y66445477D01*
X57109517Y66315470D01*
X57227760Y66210717D01*
X57252032Y66197978D01*
X57302244Y66149395D01*
X57318219Y66081376D01*
X57294885Y66015518D01*
X57252033Y65978386D01*
X57177532Y65939284D01*
X57059287Y65834529D01*
X56969552Y65704525D01*
X56969551Y65704524D01*
X56913533Y65556819D01*
X56894493Y65400001D01*
X56894493Y65400000D01*
X56913533Y65243182D01*
X56957073Y65128379D01*
X56969551Y65095477D01*
X57059288Y64965470D01*
X57177531Y64860717D01*
X57177533Y64860716D01*
X57317405Y64787304D01*
X57470785Y64749500D01*
X57470786Y64749500D01*
X57628756Y64749500D01*
X57782136Y64787304D01*
X57922011Y64860717D01*
X58040254Y64965470D01*
X58129991Y65095477D01*
X58186008Y65243182D01*
X58205049Y65400000D01*
X58194449Y65487304D01*
X58186008Y65556819D01*
X58164763Y65612836D01*
X58129991Y65704523D01*
X58040254Y65834530D01*
X57922011Y65939283D01*
X57922009Y65939284D01*
X57922008Y65939285D01*
X57897738Y65952023D01*
X57847526Y66000607D01*
X57831551Y66068626D01*
X57854886Y66134484D01*
X57897734Y66171614D01*
X57972240Y66210717D01*
X58090483Y66315470D01*
X58180220Y66445477D01*
X58236237Y66593182D01*
X58255278Y66750000D01*
X58246172Y66825000D01*
X58236237Y66906819D01*
X58186359Y67038335D01*
X58180220Y67054523D01*
X58111168Y67154562D01*
X58089286Y67220914D01*
X58106751Y67288566D01*
X58111159Y67295425D01*
X58180220Y67395477D01*
X58236237Y67543182D01*
X58255278Y67700000D01*
X58236237Y67856818D01*
X58180220Y68004523D01*
X58090483Y68134530D01*
X57972240Y68239283D01*
X57970486Y68240204D01*
X57969440Y68241217D01*
X57966066Y68243545D01*
X57966453Y68244106D01*
X57920274Y68288788D01*
X57904299Y68356807D01*
X57927634Y68422664D01*
X57966277Y68456150D01*
X57966066Y68456455D01*
X57968839Y68458370D01*
X57970487Y68459797D01*
X57972240Y68460717D01*
X58090483Y68565470D01*
X58180220Y68695477D01*
X58236237Y68843182D01*
X58255278Y69000000D01*
X58244678Y69087304D01*
X58236237Y69156819D01*
X58214992Y69212836D01*
X58180220Y69304523D01*
X58090483Y69434530D01*
X57972240Y69539283D01*
X57972238Y69539284D01*
X57972237Y69539285D01*
X57832365Y69612697D01*
X57678986Y69650500D01*
X57678985Y69650500D01*
X57521015Y69650500D01*
X57521009Y69650500D01*
X57472885Y69638639D01*
X57403083Y69641709D01*
X57346022Y69682030D01*
X57319818Y69746800D01*
X57332791Y69815455D01*
X57367364Y69854910D01*
X57366626Y69855744D01*
X57372238Y69860717D01*
X57372240Y69860717D01*
X57490483Y69965470D01*
X57580220Y70095477D01*
X57636237Y70243182D01*
X57655278Y70400000D01*
X57636237Y70556818D01*
X57580220Y70704523D01*
X57490483Y70834530D01*
X57372240Y70939283D01*
X57372238Y70939284D01*
X57372237Y70939285D01*
X57232365Y71012697D01*
X57078986Y71050500D01*
X57078985Y71050500D01*
X56921015Y71050500D01*
X56921014Y71050500D01*
X56767634Y71012697D01*
X56627762Y70939285D01*
X56509516Y70834529D01*
X56419781Y70704525D01*
X56419780Y70704524D01*
X56363762Y70556819D01*
X56344722Y70400001D01*
X56344722Y70399999D01*
X56348826Y70366196D01*
X56337365Y70297273D01*
X56290461Y70245487D01*
X56223005Y70227281D01*
X56168104Y70241455D01*
X56032365Y70312697D01*
X55878986Y70350500D01*
X55878985Y70350500D01*
X55721015Y70350500D01*
X55721014Y70350500D01*
X55567634Y70312697D01*
X55427762Y70239285D01*
X55309516Y70134529D01*
X55219781Y70004525D01*
X55219780Y70004524D01*
X55163762Y69856819D01*
X55144722Y69700001D01*
X55144722Y69700000D01*
X-3464952Y69700000D01*
X-3464952Y71200000D01*
X37216892Y71200000D01*
X37235932Y71043182D01*
X37291950Y70895477D01*
X37381687Y70765470D01*
X37499930Y70660717D01*
X37499932Y70660716D01*
X37639804Y70587304D01*
X37793184Y70549500D01*
X37793185Y70549500D01*
X37951155Y70549500D01*
X38104535Y70587304D01*
X38244408Y70660716D01*
X38244407Y70660716D01*
X38244410Y70660717D01*
X38244411Y70660719D01*
X38250582Y70664977D01*
X38252263Y70662542D01*
X38303125Y70686474D01*
X38372393Y70677319D01*
X38393094Y70664016D01*
X38393758Y70664977D01*
X38399931Y70660716D01*
X38539804Y70587304D01*
X38693184Y70549500D01*
X38693185Y70549500D01*
X38851155Y70549500D01*
X39004535Y70587304D01*
X39144410Y70660717D01*
X39262653Y70765470D01*
X39352390Y70895477D01*
X39408407Y71043182D01*
X39427448Y71200000D01*
X39408407Y71356818D01*
X39354105Y71500000D01*
X45344722Y71500000D01*
X45363762Y71343182D01*
X45418064Y71200001D01*
X45419780Y71195477D01*
X45509517Y71065470D01*
X45627760Y70960717D01*
X45627762Y70960716D01*
X45767634Y70887304D01*
X45921014Y70849500D01*
X45921015Y70849500D01*
X46078985Y70849500D01*
X46232365Y70887304D01*
X46331401Y70939283D01*
X46372240Y70960717D01*
X46490483Y71065470D01*
X46580220Y71195477D01*
X46636237Y71343182D01*
X46655278Y71500000D01*
X54244722Y71500000D01*
X54263762Y71343182D01*
X54318064Y71200001D01*
X54319780Y71195477D01*
X54409517Y71065470D01*
X54527760Y70960717D01*
X54527762Y70960716D01*
X54667634Y70887304D01*
X54821014Y70849500D01*
X54821015Y70849500D01*
X54978985Y70849500D01*
X55132365Y70887304D01*
X55231401Y70939283D01*
X55272240Y70960717D01*
X55390483Y71065470D01*
X55480220Y71195477D01*
X55536237Y71343182D01*
X55555278Y71500000D01*
X55536237Y71656818D01*
X55480220Y71804523D01*
X55390483Y71934530D01*
X55272240Y72039283D01*
X55272238Y72039284D01*
X55272237Y72039285D01*
X55132365Y72112697D01*
X54978986Y72150500D01*
X54978985Y72150500D01*
X54821015Y72150500D01*
X54821014Y72150500D01*
X54667634Y72112697D01*
X54527762Y72039285D01*
X54409516Y71934529D01*
X54319781Y71804525D01*
X54319780Y71804524D01*
X54263762Y71656819D01*
X54244722Y71500001D01*
X54244722Y71500000D01*
X46655278Y71500000D01*
X46636237Y71656818D01*
X46580220Y71804523D01*
X46490483Y71934530D01*
X46372240Y72039283D01*
X46372238Y72039284D01*
X46372237Y72039285D01*
X46232365Y72112697D01*
X46078986Y72150500D01*
X46078985Y72150500D01*
X45921015Y72150500D01*
X45921014Y72150500D01*
X45767634Y72112697D01*
X45627762Y72039285D01*
X45509516Y71934529D01*
X45419781Y71804525D01*
X45419780Y71804524D01*
X45363762Y71656819D01*
X45344722Y71500001D01*
X45344722Y71500000D01*
X39354105Y71500000D01*
X39352390Y71504523D01*
X39262653Y71634530D01*
X39144410Y71739283D01*
X39144408Y71739284D01*
X39144407Y71739285D01*
X39004535Y71812697D01*
X38851156Y71850500D01*
X38851155Y71850500D01*
X38693185Y71850500D01*
X38693184Y71850500D01*
X38539804Y71812697D01*
X38399934Y71739286D01*
X38393757Y71735022D01*
X38392080Y71737452D01*
X38341162Y71713519D01*
X38271898Y71722704D01*
X38251242Y71735979D01*
X38250583Y71735022D01*
X38244412Y71739281D01*
X38244410Y71739283D01*
X38244407Y71739285D01*
X38244405Y71739286D01*
X38104535Y71812697D01*
X37951156Y71850500D01*
X37951155Y71850500D01*
X37793185Y71850500D01*
X37793184Y71850500D01*
X37639804Y71812697D01*
X37499932Y71739285D01*
X37381686Y71634529D01*
X37291951Y71504525D01*
X37291950Y71504524D01*
X37235932Y71356819D01*
X37216892Y71200001D01*
X37216892Y71200000D01*
X-3464952Y71200000D01*
X-3464952Y73800000D01*
X38344722Y73800000D01*
X38363762Y73643182D01*
X38419780Y73495477D01*
X38509517Y73365470D01*
X38627760Y73260717D01*
X38627762Y73260716D01*
X38767634Y73187304D01*
X38921014Y73149500D01*
X38921015Y73149500D01*
X39078985Y73149500D01*
X39232365Y73187304D01*
X39372240Y73260717D01*
X39490483Y73365470D01*
X39580220Y73495477D01*
X39636237Y73643182D01*
X39655278Y73800000D01*
X39636237Y73956818D01*
X39580220Y74104523D01*
X39490483Y74234530D01*
X39408471Y74307186D01*
X39371346Y74366373D01*
X39372113Y74436239D01*
X39408471Y74492815D01*
X39490483Y74565470D01*
X39580220Y74695477D01*
X39636237Y74843182D01*
X39655278Y75000000D01*
X39636237Y75156818D01*
X39580220Y75304523D01*
X39490483Y75434530D01*
X39372240Y75539283D01*
X39372238Y75539284D01*
X39372237Y75539285D01*
X39232365Y75612697D01*
X39078986Y75650500D01*
X39078985Y75650500D01*
X38921015Y75650500D01*
X38921014Y75650500D01*
X38767634Y75612697D01*
X38627762Y75539285D01*
X38509516Y75434529D01*
X38419781Y75304525D01*
X38419780Y75304524D01*
X38363762Y75156819D01*
X38344722Y75000001D01*
X38344722Y75000000D01*
X38363762Y74843182D01*
X38419780Y74695477D01*
X38419781Y74695476D01*
X38509518Y74565469D01*
X38591527Y74492815D01*
X38628654Y74433626D01*
X38627886Y74363760D01*
X38591527Y74307185D01*
X38509518Y74234532D01*
X38419781Y74104525D01*
X38419780Y74104524D01*
X38363762Y73956819D01*
X38344722Y73800001D01*
X38344722Y73800000D01*
X-3464952Y73800000D01*
X-3464952Y83818749D01*
X4353990Y83818749D01*
X4374181Y83575071D01*
X4374183Y83575059D01*
X4434210Y83338020D01*
X4532435Y83114088D01*
X4666179Y82909376D01*
X4780426Y82785272D01*
X4831793Y82729473D01*
X5024759Y82579281D01*
X5239814Y82462899D01*
X5239817Y82462898D01*
X5471088Y82383503D01*
X5471090Y82383503D01*
X5471092Y82383502D01*
X5712284Y82343254D01*
X5712285Y82343254D01*
X5956809Y82343254D01*
X5956810Y82343254D01*
X6198002Y82383502D01*
X6429280Y82462899D01*
X6644335Y82579281D01*
X6837301Y82729473D01*
X7002915Y82909377D01*
X7136658Y83114087D01*
X7234883Y83338018D01*
X7294911Y83575062D01*
X7315104Y83818749D01*
X66553991Y83818749D01*
X66574182Y83575071D01*
X66574184Y83575059D01*
X66634211Y83338020D01*
X66732436Y83114088D01*
X66866180Y82909376D01*
X66980427Y82785272D01*
X67031794Y82729473D01*
X67224760Y82579281D01*
X67439815Y82462899D01*
X67439818Y82462898D01*
X67671089Y82383503D01*
X67671091Y82383503D01*
X67671093Y82383502D01*
X67912285Y82343254D01*
X67912286Y82343254D01*
X68156810Y82343254D01*
X68156811Y82343254D01*
X68398003Y82383502D01*
X68629281Y82462899D01*
X68844336Y82579281D01*
X69037302Y82729473D01*
X69202916Y82909377D01*
X69336659Y83114087D01*
X69434884Y83338018D01*
X69494912Y83575062D01*
X69515105Y83818754D01*
X69494912Y84062446D01*
X69434884Y84299490D01*
X69336659Y84523421D01*
X69324103Y84542640D01*
X69202915Y84728133D01*
X69037305Y84908032D01*
X69037295Y84908041D01*
X68844339Y85058225D01*
X68844335Y85058228D01*
X68629282Y85174609D01*
X68629277Y85174611D01*
X68398006Y85254006D01*
X68217109Y85284192D01*
X68156811Y85294254D01*
X67912285Y85294254D01*
X67864046Y85286205D01*
X67671089Y85254006D01*
X67439818Y85174611D01*
X67439813Y85174609D01*
X67224760Y85058228D01*
X67224756Y85058225D01*
X67031800Y84908041D01*
X67031790Y84908032D01*
X66866180Y84728133D01*
X66732436Y84523421D01*
X66634211Y84299489D01*
X66574184Y84062450D01*
X66574182Y84062438D01*
X66553991Y83818760D01*
X66553991Y83818749D01*
X7315104Y83818749D01*
X7315104Y83818754D01*
X7294911Y84062446D01*
X7234883Y84299490D01*
X7136658Y84523421D01*
X7124102Y84542640D01*
X7002914Y84728133D01*
X6837304Y84908032D01*
X6837294Y84908041D01*
X6644338Y85058225D01*
X6644334Y85058228D01*
X6429281Y85174609D01*
X6429276Y85174611D01*
X6198005Y85254006D01*
X6017108Y85284192D01*
X5956810Y85294254D01*
X5712284Y85294254D01*
X5664045Y85286205D01*
X5471088Y85254006D01*
X5239817Y85174611D01*
X5239812Y85174609D01*
X5024759Y85058228D01*
X5024755Y85058225D01*
X4831799Y84908041D01*
X4831789Y84908032D01*
X4666179Y84728133D01*
X4532435Y84523421D01*
X4434210Y84299489D01*
X4374183Y84062450D01*
X4374181Y84062438D01*
X4353990Y83818760D01*
X4353990Y83818749D01*
X-3464952Y83818749D01*
X-3464952Y85351365D01*
X36374544Y85351365D01*
X36412991Y85158080D01*
X36412993Y85158072D01*
X36488412Y84975993D01*
X36488417Y84975984D01*
X36597907Y84812122D01*
X36597910Y84812118D01*
X36737263Y84672765D01*
X36737267Y84672762D01*
X36901129Y84563272D01*
X36901135Y84563269D01*
X36901136Y84563268D01*
X37083218Y84487847D01*
X37276510Y84449399D01*
X37276514Y84449398D01*
X37276515Y84449398D01*
X37473600Y84449398D01*
X37473601Y84449399D01*
X37666896Y84487847D01*
X37848978Y84563268D01*
X38012847Y84672762D01*
X38152206Y84812121D01*
X38261700Y84975990D01*
X38337121Y85158072D01*
X38375570Y85351369D01*
X38375570Y85548453D01*
X38337121Y85741750D01*
X38261700Y85923832D01*
X38261699Y85923833D01*
X38261696Y85923839D01*
X38152206Y86087701D01*
X38152203Y86087705D01*
X38012850Y86227058D01*
X38012846Y86227061D01*
X37848984Y86336551D01*
X37848975Y86336556D01*
X37666896Y86411975D01*
X37666888Y86411977D01*
X37473603Y86450424D01*
X37473599Y86450424D01*
X37276515Y86450424D01*
X37276510Y86450424D01*
X37083225Y86411977D01*
X37083217Y86411975D01*
X36901138Y86336556D01*
X36901129Y86336551D01*
X36737267Y86227061D01*
X36737263Y86227058D01*
X36597910Y86087705D01*
X36597907Y86087701D01*
X36488417Y85923839D01*
X36488412Y85923830D01*
X36412993Y85741751D01*
X36412991Y85741743D01*
X36374544Y85548458D01*
X36374544Y85351365D01*
X-3464952Y85351365D01*
X-3464952Y89818749D01*
X4353990Y89818749D01*
X4374181Y89575071D01*
X4374183Y89575059D01*
X4434210Y89338020D01*
X4532435Y89114088D01*
X4666179Y88909376D01*
X4780426Y88785272D01*
X4831793Y88729473D01*
X5024759Y88579281D01*
X5239814Y88462899D01*
X5239817Y88462898D01*
X5471088Y88383503D01*
X5471090Y88383503D01*
X5471092Y88383502D01*
X5712284Y88343254D01*
X5712285Y88343254D01*
X5956809Y88343254D01*
X5956810Y88343254D01*
X6198002Y88383502D01*
X6429280Y88462899D01*
X6644335Y88579281D01*
X6837301Y88729473D01*
X7002915Y88909377D01*
X7136658Y89114087D01*
X7234883Y89338018D01*
X7294911Y89575062D01*
X7315104Y89818754D01*
X7310346Y89876171D01*
X7297925Y90026080D01*
X17249499Y90026080D01*
X17278340Y89881093D01*
X17278343Y89881083D01*
X17334912Y89744512D01*
X17334919Y89744499D01*
X17417048Y89621585D01*
X17417051Y89621581D01*
X17521580Y89517052D01*
X17521584Y89517049D01*
X17644498Y89434920D01*
X17644511Y89434913D01*
X17781082Y89378344D01*
X17781087Y89378342D01*
X17781091Y89378342D01*
X17781092Y89378341D01*
X17926079Y89349500D01*
X17926082Y89349500D01*
X18073920Y89349500D01*
X18171462Y89368904D01*
X18218913Y89378342D01*
X18355495Y89434916D01*
X18478416Y89517049D01*
X18582951Y89621584D01*
X18665084Y89744505D01*
X18721658Y89881087D01*
X18750500Y90026080D01*
X21649499Y90026080D01*
X21678340Y89881093D01*
X21678343Y89881083D01*
X21734912Y89744512D01*
X21734919Y89744499D01*
X21817048Y89621585D01*
X21817051Y89621581D01*
X21921580Y89517052D01*
X21921584Y89517049D01*
X22044498Y89434920D01*
X22044511Y89434913D01*
X22181082Y89378344D01*
X22181087Y89378342D01*
X22181091Y89378342D01*
X22181092Y89378341D01*
X22326079Y89349500D01*
X22326082Y89349500D01*
X22473920Y89349500D01*
X22571462Y89368904D01*
X22618913Y89378342D01*
X22755495Y89434916D01*
X22878416Y89517049D01*
X22982951Y89621584D01*
X23065084Y89744505D01*
X23121658Y89881087D01*
X23150500Y90026082D01*
X23150500Y90173918D01*
X23150500Y90173921D01*
X23135059Y90251543D01*
X36374544Y90251543D01*
X36412991Y90058258D01*
X36412993Y90058250D01*
X36488412Y89876171D01*
X36488417Y89876162D01*
X36597907Y89712300D01*
X36597910Y89712296D01*
X36737263Y89572943D01*
X36737267Y89572940D01*
X36901129Y89463450D01*
X36901135Y89463447D01*
X36901136Y89463446D01*
X37083218Y89388025D01*
X37276510Y89349577D01*
X37276514Y89349576D01*
X37276515Y89349576D01*
X37473600Y89349576D01*
X37473601Y89349577D01*
X37666896Y89388025D01*
X37848978Y89463446D01*
X38012847Y89572940D01*
X38152206Y89712299D01*
X38223334Y89818749D01*
X66553991Y89818749D01*
X66574182Y89575071D01*
X66574184Y89575059D01*
X66634211Y89338020D01*
X66732436Y89114088D01*
X66866180Y88909376D01*
X66980427Y88785272D01*
X67031794Y88729473D01*
X67224760Y88579281D01*
X67439815Y88462899D01*
X67439818Y88462898D01*
X67671089Y88383503D01*
X67671091Y88383503D01*
X67671093Y88383502D01*
X67912285Y88343254D01*
X67912286Y88343254D01*
X68156810Y88343254D01*
X68156811Y88343254D01*
X68398003Y88383502D01*
X68629281Y88462899D01*
X68844336Y88579281D01*
X69037302Y88729473D01*
X69202916Y88909377D01*
X69336659Y89114087D01*
X69434884Y89338018D01*
X69494912Y89575062D01*
X69515105Y89818754D01*
X69510347Y89876171D01*
X69494913Y90062438D01*
X69494911Y90062450D01*
X69466683Y90173918D01*
X69434884Y90299490D01*
X69336659Y90523421D01*
X69259234Y90641929D01*
X69202915Y90728133D01*
X69037305Y90908032D01*
X69037295Y90908041D01*
X68844339Y91058225D01*
X68844335Y91058228D01*
X68629282Y91174609D01*
X68629277Y91174611D01*
X68398006Y91254006D01*
X68217109Y91284192D01*
X68156811Y91294254D01*
X67912285Y91294254D01*
X67864046Y91286205D01*
X67671089Y91254006D01*
X67439818Y91174611D01*
X67439813Y91174609D01*
X67224760Y91058228D01*
X67224756Y91058225D01*
X67031800Y90908041D01*
X67031790Y90908032D01*
X66866180Y90728133D01*
X66732436Y90523421D01*
X66634211Y90299489D01*
X66574184Y90062450D01*
X66574182Y90062438D01*
X66553991Y89818760D01*
X66553991Y89818749D01*
X38223334Y89818749D01*
X38261700Y89876168D01*
X38337121Y90058250D01*
X38375570Y90251547D01*
X38375570Y90448631D01*
X38337121Y90641928D01*
X38262674Y90821658D01*
X38261701Y90824008D01*
X38261696Y90824017D01*
X38152206Y90987879D01*
X38152203Y90987883D01*
X38012850Y91127236D01*
X38012846Y91127239D01*
X37848984Y91236729D01*
X37848975Y91236734D01*
X37666896Y91312153D01*
X37666888Y91312155D01*
X37473603Y91350602D01*
X37473599Y91350602D01*
X37276515Y91350602D01*
X37276510Y91350602D01*
X37083225Y91312155D01*
X37083217Y91312153D01*
X36901138Y91236734D01*
X36901129Y91236729D01*
X36737267Y91127239D01*
X36737263Y91127236D01*
X36597910Y90987883D01*
X36597907Y90987879D01*
X36488417Y90824017D01*
X36488412Y90824008D01*
X36412993Y90641929D01*
X36412991Y90641921D01*
X36374544Y90448636D01*
X36374544Y90251543D01*
X23135059Y90251543D01*
X23121659Y90318908D01*
X23121658Y90318909D01*
X23121658Y90318913D01*
X23121656Y90318918D01*
X23065087Y90455489D01*
X23065080Y90455502D01*
X22982951Y90578416D01*
X22982948Y90578420D01*
X22878419Y90682949D01*
X22878415Y90682952D01*
X22755501Y90765081D01*
X22755488Y90765088D01*
X22618917Y90821657D01*
X22618907Y90821660D01*
X22473920Y90850500D01*
X22473918Y90850500D01*
X22326082Y90850500D01*
X22326080Y90850500D01*
X22181092Y90821660D01*
X22181082Y90821657D01*
X22044511Y90765088D01*
X22044498Y90765081D01*
X21921584Y90682952D01*
X21921580Y90682949D01*
X21817051Y90578420D01*
X21817048Y90578416D01*
X21734919Y90455502D01*
X21734912Y90455489D01*
X21678343Y90318918D01*
X21678340Y90318908D01*
X21649500Y90173921D01*
X21649500Y90173918D01*
X21649500Y90026082D01*
X21649500Y90026080D01*
X21649499Y90026080D01*
X18750500Y90026080D01*
X18750500Y90026082D01*
X18750500Y90173918D01*
X18750500Y90173921D01*
X18721659Y90318908D01*
X18721658Y90318909D01*
X18721658Y90318913D01*
X18721656Y90318918D01*
X18665087Y90455489D01*
X18665080Y90455502D01*
X18582951Y90578416D01*
X18582948Y90578420D01*
X18478419Y90682949D01*
X18478415Y90682952D01*
X18355501Y90765081D01*
X18355488Y90765088D01*
X18218917Y90821657D01*
X18218907Y90821660D01*
X18073920Y90850500D01*
X18073918Y90850500D01*
X17926082Y90850500D01*
X17926080Y90850500D01*
X17781092Y90821660D01*
X17781082Y90821657D01*
X17644511Y90765088D01*
X17644498Y90765081D01*
X17521584Y90682952D01*
X17521580Y90682949D01*
X17417051Y90578420D01*
X17417048Y90578416D01*
X17334919Y90455502D01*
X17334912Y90455489D01*
X17278343Y90318918D01*
X17278340Y90318908D01*
X17249500Y90173921D01*
X17249500Y90173918D01*
X17249500Y90026082D01*
X17249500Y90026080D01*
X17249499Y90026080D01*
X7297925Y90026080D01*
X7294912Y90062438D01*
X7294910Y90062450D01*
X7266682Y90173918D01*
X7234883Y90299490D01*
X7136658Y90523421D01*
X7059233Y90641929D01*
X7002914Y90728133D01*
X6837304Y90908032D01*
X6837294Y90908041D01*
X6644338Y91058225D01*
X6644334Y91058228D01*
X6429281Y91174609D01*
X6429276Y91174611D01*
X6198005Y91254006D01*
X6017108Y91284192D01*
X5956810Y91294254D01*
X5712284Y91294254D01*
X5664045Y91286205D01*
X5471088Y91254006D01*
X5239817Y91174611D01*
X5239812Y91174609D01*
X5024759Y91058228D01*
X5024755Y91058225D01*
X4831799Y90908041D01*
X4831789Y90908032D01*
X4666179Y90728133D01*
X4532435Y90523421D01*
X4434210Y90299489D01*
X4374183Y90062450D01*
X4374181Y90062438D01*
X4353990Y89818760D01*
X4353990Y89818749D01*
X-3464952Y89818749D01*
X-3464952Y94215004D01*
X-3464726Y94222491D01*
X-3447910Y94500493D01*
X-3446105Y94515358D01*
X-3414359Y94688589D01*
X-3396577Y94785624D01*
X-3392995Y94800151D01*
X-3311251Y95062474D01*
X-3305948Y95076453D01*
X-3193179Y95327014D01*
X-3186224Y95340264D01*
X-3044080Y95575395D01*
X-3035574Y95587718D01*
X-2866119Y95804008D01*
X-2856206Y95815197D01*
X-2661909Y96009490D01*
X-2650716Y96019406D01*
X-2434425Y96188857D01*
X-2422113Y96197355D01*
X-2186964Y96339503D01*
X-2173723Y96346452D01*
X-1923156Y96459220D01*
X-1909176Y96464522D01*
X-1646847Y96546262D01*
X-1632317Y96549843D01*
X-1362055Y96599365D01*
X-1347205Y96601169D01*
X-1068395Y96618029D01*
X-1060922Y96618254D01*
X-1025574Y96618253D01*
X-1025572Y96618254D01*
X14975500Y96618254D01*
X15042539Y96598569D01*
G37*
%TD.AperFunction*%
%TD*%
M02*
