%TF.GenerationSoftware,KiCad,Pcbnew,8.0.3*%
%TF.CreationDate,2024-06-17T20:01:43-07:00*%
%TF.ProjectId,underglow3,756e6465-7267-46c6-9f77-332e6b696361,rev?*%
%TF.SameCoordinates,Original*%
%TF.FileFunction,Copper,L4,Bot*%
%TF.FilePolarity,Positive*%
%FSLAX46Y46*%
G04 Gerber Fmt 4.6, Leading zero omitted, Abs format (unit mm)*
G04 Created by KiCad (PCBNEW 8.0.3) date 2024-06-17 20:01:43*
%MOMM*%
%LPD*%
G01*
G04 APERTURE LIST*
%TA.AperFunction,ComponentPad*%
%ADD10C,2.000000*%
%TD*%
%TA.AperFunction,ComponentPad*%
%ADD11C,0.600000*%
%TD*%
%TA.AperFunction,SMDPad,CuDef*%
%ADD12R,2.950000X4.500000*%
%TD*%
%TA.AperFunction,ViaPad*%
%ADD13C,0.600000*%
%TD*%
%TA.AperFunction,Conductor*%
%ADD14C,1.000000*%
%TD*%
%TA.AperFunction,Conductor*%
%ADD15C,0.500000*%
%TD*%
%TA.AperFunction,Conductor*%
%ADD16C,0.300000*%
%TD*%
%TA.AperFunction,Conductor*%
%ADD17C,0.200000*%
%TD*%
%TA.AperFunction,Conductor*%
%ADD18C,2.000000*%
%TD*%
%TA.AperFunction,Conductor*%
%ADD19C,1.750000*%
%TD*%
%TA.AperFunction,Conductor*%
%ADD20C,0.800000*%
%TD*%
G04 APERTURE END LIST*
D10*
%TO.P,J301,A1*%
%TO.N,/Power/RGB1_OUT*%
X49475000Y12500000D03*
%TO.P,J301,A2*%
%TO.N,/Power/RGB_B1*%
X45325000Y12500000D03*
%TO.P,J301,A3*%
%TO.N,/Power/RGB_G1*%
X41995000Y12500000D03*
%TO.P,J301,A4*%
%TO.N,/Power/RGB_R1*%
X38665000Y12500000D03*
%TO.P,J301,A5*%
%TO.N,/Power/RGB_B2*%
X35335000Y12500000D03*
%TO.P,J301,A6*%
%TO.N,/Power/RGB_G2*%
X32005000Y12500000D03*
%TO.P,J301,A7*%
%TO.N,/Power/RGB_R2*%
X28675000Y12500000D03*
%TO.P,J301,A8*%
%TO.N,/Power/RGB2_OUT*%
X24525000Y12500000D03*
%TO.P,J301,B1*%
%TO.N,GND*%
X49475000Y8300000D03*
%TO.P,J301,B2*%
%TO.N,/Power/CAN_L*%
X45325000Y8300000D03*
%TO.P,J301,B3*%
%TO.N,/Power/CAN_H*%
X41995000Y8300000D03*
%TO.P,J301,B4*%
%TO.N,/Power/PI1*%
X38665000Y8300000D03*
%TO.P,J301,B5*%
%TO.N,/Power/PI2*%
X35335000Y8300000D03*
%TO.P,J301,B6*%
%TO.N,/Power/LEDC_OUT*%
X32005000Y8300000D03*
%TO.P,J301,B7*%
X28675000Y8300000D03*
%TO.P,J301,B8*%
%TO.N,GND*%
X24525000Y8300000D03*
%TO.P,J301,C1*%
X49475000Y4100000D03*
%TO.P,J301,C2*%
%TO.N,/Power/RGB_B1*%
X45325000Y4100000D03*
%TO.P,J301,C3*%
%TO.N,/Power/RGB_G1*%
X41995000Y4100000D03*
%TO.P,J301,C4*%
%TO.N,/Power/RGB_R1*%
X38665000Y4100000D03*
%TO.P,J301,C5*%
%TO.N,/Power/RGB_B2*%
X35335000Y4100000D03*
%TO.P,J301,C6*%
%TO.N,/Power/RGB_G2*%
X32005000Y4100000D03*
%TO.P,J301,C7*%
%TO.N,/Power/RGB_R2*%
X28675000Y4100000D03*
%TO.P,J301,C8*%
%TO.N,/Power/VIN*%
X24525000Y4100000D03*
%TD*%
D11*
%TO.P,U310,9,GNDPAD*%
%TO.N,GND*%
X10100000Y67105000D03*
X10100000Y65905000D03*
X10100000Y64605000D03*
X10100000Y63505000D03*
D12*
X10700000Y65305000D03*
D11*
X11300000Y67105000D03*
X11300000Y65905000D03*
X11300000Y64605000D03*
X11300000Y63505000D03*
%TD*%
D13*
%TO.N,GND*%
X27400000Y69957359D03*
X31050000Y87900000D03*
X19000000Y63000000D03*
X65000000Y37600000D03*
X8650000Y18854200D03*
X33500000Y33600000D03*
X60200000Y37600000D03*
X45100000Y61400000D03*
X32554999Y45309999D03*
X32600000Y37000000D03*
X60800000Y52000000D03*
X17800000Y42700000D03*
X54900000Y35600000D03*
X75000000Y75000000D03*
X41000000Y40000000D03*
X35200000Y56400000D03*
X32000000Y19062500D03*
X35454999Y46972480D03*
X8400000Y26200000D03*
X71000000Y1000000D03*
X25000000Y26000000D03*
X20600000Y80600000D03*
X200000Y16000000D03*
X66000000Y6000000D03*
X41700000Y56400000D03*
X63700000Y30000000D03*
X14400000Y6200000D03*
X72400000Y49000000D03*
X57600000Y87900000D03*
X54500000Y46200000D03*
X51189795Y35600000D03*
X20000000Y26000000D03*
X42900000Y25500000D03*
X50000000Y49200000D03*
X75000000Y64800000D03*
X70200000Y32200000D03*
X59000000Y69000000D03*
X62600000Y48200000D03*
X37500000Y56400000D03*
X12400000Y21800000D03*
X28460660Y75260660D03*
X41000000Y41600000D03*
X14200000Y11000000D03*
X20400000Y19062500D03*
X11800000Y38800000D03*
X9600000Y16400000D03*
X33200000Y63000000D03*
X72529795Y54188323D03*
X27400000Y74200000D03*
X18100000Y84800000D03*
X30900000Y26000000D03*
X20585156Y85565917D03*
X10200000Y26200000D03*
X64400000Y60000000D03*
X70000000Y64800000D03*
X35454999Y45859999D03*
X70000000Y75000000D03*
X11800000Y43180064D03*
X70000000Y58200000D03*
X18100000Y83400000D03*
X20400000Y17962500D03*
X44529795Y48550051D03*
X32703301Y73139340D03*
X70000000Y80000000D03*
X49700000Y24900000D03*
X48200000Y57600000D03*
X25278680Y72078680D03*
X54300000Y37400000D03*
X26339340Y73139340D03*
X19800000Y33000000D03*
X36900000Y26000000D03*
X30581981Y75260660D03*
X29800000Y91400000D03*
X2000000Y16000000D03*
X15200000Y21800000D03*
X43000000Y41600000D03*
X58800000Y48200000D03*
X38200000Y19062500D03*
X72400000Y51099949D03*
X30935837Y67966697D03*
X61000000Y1000000D03*
X38250000Y60900000D03*
X25200000Y89800000D03*
X73100000Y32200000D03*
X2000000Y27000000D03*
X59229795Y62500051D03*
X5000000Y20800000D03*
X29800000Y35400000D03*
X31642641Y74200000D03*
X67600000Y21200000D03*
X33057157Y65845377D03*
X54900000Y32200000D03*
X43200000Y87900000D03*
X44300000Y17962500D03*
X44200000Y60000000D03*
X9800000Y29400000D03*
X66000000Y1000000D03*
X44600000Y44200000D03*
X6200000Y16600000D03*
X16800000Y33000000D03*
X62900000Y37600000D03*
X29000000Y56600000D03*
X31996497Y66906037D03*
X15200000Y24200000D03*
X38200000Y17962500D03*
X44300000Y19062500D03*
X70000000Y70000000D03*
X58975000Y66750000D03*
X75800000Y22000000D03*
X61000000Y6000000D03*
X-1600000Y3100000D03*
X20600000Y63000000D03*
X34600000Y43300000D03*
X50200000Y17962500D03*
X60129795Y62500051D03*
X43400000Y37400000D03*
X53700000Y42400000D03*
X14200000Y14700000D03*
X38250000Y63400000D03*
X6600000Y66400000D03*
X71429795Y44600051D03*
X64400000Y21200000D03*
X3800000Y20800000D03*
X66000000Y32500000D03*
X34560660Y69439340D03*
X26339340Y71018019D03*
X57100000Y12800000D03*
X33500000Y70500000D03*
X60800000Y48200000D03*
X52629795Y61744669D03*
X31600000Y64400000D03*
X16500000Y84800000D03*
X72200000Y27000000D03*
X37600000Y40800000D03*
X64000000Y37600000D03*
X71429795Y43600051D03*
X12400000Y24200000D03*
X29875177Y69027358D03*
X37400000Y87900000D03*
X58975000Y70600000D03*
X18400000Y21400000D03*
X48625735Y39974265D03*
X62600000Y50100000D03*
X31400000Y35400000D03*
X26300000Y17962500D03*
X70000000Y37400000D03*
X59200000Y37600000D03*
X2200000Y66400000D03*
X32439339Y71560660D03*
X28979998Y58800000D03*
X61600000Y33200000D03*
X31454999Y45309999D03*
X61600000Y30600000D03*
X13000000Y6200000D03*
X75800000Y24300000D03*
X50200000Y19062500D03*
X43400000Y39200000D03*
X45900000Y60000000D03*
X15600000Y19800000D03*
X60800000Y50100000D03*
X73400000Y18000000D03*
X50000000Y51000000D03*
X4000000Y27000000D03*
X32000000Y17962500D03*
X30000000Y41600000D03*
X75000000Y70000000D03*
X49200000Y57600000D03*
X59600000Y30600000D03*
X71000000Y6000000D03*
X44172170Y71200000D03*
X62600000Y52000000D03*
X72550000Y40300000D03*
X54800000Y44200000D03*
X28460660Y68896699D03*
X41900000Y71300000D03*
X19600000Y22800000D03*
X31600000Y41600000D03*
X59600000Y33200000D03*
X19800000Y35000000D03*
X48649795Y45300051D03*
X16500000Y83400000D03*
X75000000Y80000000D03*
X3800000Y16600000D03*
X54500000Y47600000D03*
X35400000Y91400000D03*
X58800000Y52000000D03*
X4400000Y66400000D03*
X16800000Y35000000D03*
X58800000Y50100000D03*
X33000000Y92600000D03*
X26300000Y19062500D03*
X57600000Y82800000D03*
X16400000Y15700000D03*
X29700000Y33600000D03*
X29521320Y76321320D03*
X57100000Y22700000D03*
X43200000Y82800000D03*
%TO.N,+3V3*%
X37600000Y39700000D03*
X16800000Y37570064D03*
X54149771Y61749796D03*
X11800000Y41000000D03*
X16800000Y40030064D03*
X24200000Y39700000D03*
X63700000Y31000000D03*
X45829795Y37700051D03*
X16800000Y46800000D03*
X48900000Y43200000D03*
X46400000Y50859999D03*
X69800000Y45400000D03*
X30600000Y60700000D03*
X16800000Y45400000D03*
X51907675Y39000000D03*
X16800000Y38850064D03*
X69800000Y49000000D03*
X71000000Y27000000D03*
X37600000Y34218242D03*
X45829795Y39030051D03*
X16800000Y44000000D03*
%TO.N,+0v9*%
X59129795Y60020181D03*
X62800000Y40800000D03*
X40390001Y36009999D03*
X59400000Y40500000D03*
X70000000Y51000000D03*
%TO.N,/Application/VCC_DRAM*%
X46400000Y41000000D03*
X46400000Y40000000D03*
X67650000Y41550000D03*
X60700000Y41400000D03*
%TO.N,/RL-SM02BD-8723BS/VDD_WIFI*%
X33200000Y61600000D03*
X40600000Y55400000D03*
X46800000Y58600000D03*
X48600000Y58600000D03*
X36600000Y55400000D03*
X44000000Y55400000D03*
X42600000Y76000000D03*
%TO.N,+5V*%
X6380002Y25200000D03*
X400000Y19900000D03*
X48900000Y24062500D03*
X11620000Y25180000D03*
X42900000Y24062500D03*
X28654999Y38009999D03*
X55200000Y24062500D03*
X4400000Y72000000D03*
X32554999Y44247517D03*
X2200000Y72000000D03*
X27200000Y91800000D03*
X9310000Y25200000D03*
X25000000Y24062500D03*
X27200000Y82200000D03*
X6600000Y72000000D03*
X36717479Y42347519D03*
X36900000Y24062500D03*
X30900000Y24062500D03*
%TO.N,/Power/RGB1_OUT*%
X9600000Y2000000D03*
%TO.N,/Power/RGB2_OUT*%
X5800000Y2000000D03*
%TO.N,/Application/WIFI_CLK*%
X57800000Y65400000D03*
X41850000Y64750000D03*
%TO.N,/Power/PI1_DIV*%
X71900000Y39100000D03*
X72300000Y33200000D03*
%TO.N,/Power/PI2_DIV*%
X71000000Y38400000D03*
X71000000Y33000000D03*
%TO.N,/Application/WL_REG_ON*%
X57600000Y69000000D03*
X36972170Y63700000D03*
%TO.N,/Application/WIFI_CMD*%
X40750000Y66000000D03*
X60200000Y65800000D03*
%TO.N,/Application/WIFI_DAT0*%
X42300000Y63400000D03*
X59369143Y64600000D03*
%TO.N,/Application/WIFI_DAT1*%
X43300000Y62500000D03*
X57500000Y63700000D03*
%TO.N,/Application/WIFI_DAT2*%
X39475000Y67700000D03*
X59000000Y67900000D03*
%TO.N,/Application/WIFI_DAT3*%
X38850000Y65800000D03*
X57600000Y67000000D03*
%TO.N,/Application/BT_EN*%
X55250000Y71350000D03*
X46000000Y71500000D03*
%TO.N,/Application/HCI_CTS*%
X39672170Y71300000D03*
X42600000Y73000000D03*
%TO.N,/Application/AP_WAKE_BT*%
X57600000Y70600000D03*
X34200000Y64325003D03*
%TO.N,/Application/WL_WAKE_AP*%
X49100000Y68500000D03*
X37600000Y65100000D03*
%TO.N,/Application/BT_WAKE_AP*%
X55800000Y69700000D03*
X34200000Y63000000D03*
%TO.N,/Application/HCI_RX*%
X42600000Y74400000D03*
X39186085Y73113915D03*
%TO.N,/Application/HCI_TX*%
X43800000Y75000000D03*
X38100000Y72100000D03*
%TO.N,/Application/HCI_RTS*%
X36972170Y71200000D03*
X43800000Y73700000D03*
%TD*%
D14*
%TO.N,+3V3*%
X73600000Y59400000D02*
X73600000Y50885735D01*
X27400000Y53000000D02*
X27400000Y59900000D01*
X47540001Y52000000D02*
X28400000Y52000000D01*
X48900000Y43200000D02*
X46400000Y43200000D01*
X70800000Y50000000D02*
X69800000Y49000000D01*
X16800000Y41000000D02*
X16800000Y46800000D01*
X71800000Y61200000D02*
X73600000Y59400000D01*
X72714265Y50000000D02*
X70800000Y50000000D01*
X54149771Y61749796D02*
X54150000Y61749567D01*
X54150000Y52950000D02*
X53200000Y52000000D01*
X52407675Y39500000D02*
X68700000Y39500000D01*
X71000000Y29400000D02*
X69400000Y31000000D01*
X61500000Y39500000D02*
X61500000Y35700000D01*
X53200000Y52000000D02*
X47540001Y52000000D01*
X16800000Y37570064D02*
X16800000Y41000000D01*
X57900000Y61750000D02*
X58450000Y61200000D01*
X46400000Y52000000D02*
X46400000Y50859999D01*
X71000000Y27000000D02*
X71000000Y29400000D01*
X37600000Y39700000D02*
X24200000Y39700000D01*
X45829795Y37700051D02*
X45829795Y39030051D01*
X61500000Y35700000D02*
X63700000Y33500000D01*
X63700000Y33500000D02*
X63700000Y31000000D01*
X54149771Y61749796D02*
X54149975Y61750000D01*
X58450000Y61200000D02*
X71800000Y61200000D01*
X46400000Y43200000D02*
X46185786Y43200000D01*
X28200000Y60700000D02*
X30600000Y60700000D01*
X47540001Y52000000D02*
X46400000Y52000000D01*
X28400000Y52000000D02*
X27400000Y53000000D01*
X54149975Y61750000D02*
X57900000Y61750000D01*
X11800000Y41000000D02*
X16800000Y41000000D01*
X45300000Y39559846D02*
X45829795Y39030051D01*
X37618242Y34200000D02*
X40000000Y34200000D01*
X40000000Y34200000D02*
X40600000Y34800000D01*
X46400000Y50859999D02*
X46400000Y43200000D01*
X73600000Y50885735D02*
X72714265Y50000000D01*
X68700000Y39500000D02*
X69800000Y40600000D01*
X69800000Y45400000D02*
X69800000Y49000000D01*
X54150000Y61749567D02*
X54150000Y52950000D01*
X51900000Y39000000D02*
X51907675Y39000000D01*
X69800000Y40600000D02*
X69800000Y45400000D01*
X40600000Y34800000D02*
X47700000Y34800000D01*
X23500000Y39700000D02*
X21370064Y37570064D01*
X21370064Y37570064D02*
X16800000Y37570064D01*
X47700000Y34800000D02*
X51900000Y39000000D01*
X27400000Y59900000D02*
X28200000Y60700000D01*
X45300000Y42314214D02*
X45300000Y39559846D01*
X37600000Y34218242D02*
X37618242Y34200000D01*
X51907675Y39000000D02*
X52407675Y39500000D01*
X69400000Y31000000D02*
X63700000Y31000000D01*
X37600000Y34218242D02*
X37600000Y39700000D01*
X46185786Y43200000D02*
X45300000Y42314214D01*
X24200000Y39700000D02*
X23500000Y39700000D01*
D15*
%TO.N,+0v9*%
X68200000Y40800000D02*
X62800000Y40800000D01*
X59129795Y60020181D02*
X59129795Y56870205D01*
X59200000Y40700000D02*
X59400000Y40500000D01*
X61160661Y40800000D02*
X62800000Y40800000D01*
X40390001Y36009999D02*
X40400000Y36000000D01*
X47200000Y36000000D02*
X51900000Y40700000D01*
X68000000Y56400000D02*
X68600000Y55800000D01*
X68600000Y51000000D02*
X70000000Y51000000D01*
X60860661Y40500000D02*
X61160661Y40800000D01*
X51900000Y40700000D02*
X59200000Y40700000D01*
X68600000Y41200000D02*
X68200000Y40800000D01*
X59600000Y56400000D02*
X68000000Y56400000D01*
X59129795Y56870205D02*
X59600000Y56400000D01*
X68600000Y55800000D02*
X68600000Y41200000D01*
X59400000Y40500000D02*
X60860661Y40500000D01*
X40400000Y36000000D02*
X47200000Y36000000D01*
%TO.N,/Application/VCC_DRAM*%
X60850000Y41550000D02*
X60700000Y41400000D01*
X60550000Y41550000D02*
X50850000Y41550000D01*
X67650000Y41550000D02*
X60850000Y41550000D01*
X50300000Y41000000D02*
X46400000Y41000000D01*
X60700000Y41400000D02*
X60550000Y41550000D01*
X50850000Y41550000D02*
X50300000Y41000000D01*
X46400000Y40000000D02*
X46400000Y41000000D01*
D16*
%TO.N,/RL-SM02BD-8723BS/VDD_WIFI*%
X60850000Y64050000D02*
X60200000Y63400000D01*
D15*
X48600000Y58600000D02*
X46800000Y58600000D01*
D16*
X58100000Y62900000D02*
X51700000Y62900000D01*
X50900000Y59200000D02*
X50300000Y58600000D01*
X60850000Y71350000D02*
X60850000Y64050000D01*
D15*
X45800000Y58600000D02*
X46800000Y58600000D01*
X45100000Y57900000D02*
X45800000Y58600000D01*
D16*
X50900000Y62100000D02*
X50900000Y59200000D01*
D15*
X34200000Y55400000D02*
X44000000Y55400000D01*
D16*
X48050000Y76000000D02*
X51050000Y73000000D01*
X51700000Y62900000D02*
X50900000Y62100000D01*
X50300000Y58600000D02*
X48600000Y58600000D01*
X51050000Y73000000D02*
X59200000Y73000000D01*
X58600000Y63400000D02*
X58100000Y62900000D01*
X59200000Y73000000D02*
X60850000Y71350000D01*
D15*
X33200000Y61600000D02*
X33200000Y56400000D01*
X33200000Y56400000D02*
X34200000Y55400000D01*
D16*
X42600000Y76000000D02*
X48050000Y76000000D01*
D15*
X45100000Y56500000D02*
X45100000Y57900000D01*
D16*
X60200000Y63400000D02*
X58600000Y63400000D01*
D15*
X44000000Y55400000D02*
X45100000Y56500000D01*
%TO.N,+5V*%
X36900000Y24062500D02*
X30900000Y24062500D01*
D14*
X2200000Y72000000D02*
X4400000Y72000000D01*
D17*
X36679959Y42309999D02*
X32954999Y42309999D01*
D14*
X6600000Y72000000D02*
X16800000Y82200000D01*
X19385786Y25200000D02*
X20523286Y24062500D01*
X20523286Y24062500D02*
X23700000Y24062500D01*
X26709999Y38009999D02*
X23700000Y35000000D01*
X400000Y25200000D02*
X19385786Y25200000D01*
X28654999Y38009999D02*
X26709999Y38009999D01*
D17*
X36717479Y42347519D02*
X36679959Y42309999D01*
D14*
X400000Y70800000D02*
X1600000Y72000000D01*
X27200000Y82200000D02*
X27200000Y91800000D01*
X400000Y19900000D02*
X400000Y70800000D01*
X16800000Y82200000D02*
X27200000Y82200000D01*
D17*
X32554999Y42709999D02*
X32554999Y44247517D01*
D15*
X55200000Y24062500D02*
X48900000Y24062500D01*
X48900000Y24062500D02*
X36900000Y24062500D01*
D17*
X32954999Y42309999D02*
X32554999Y42709999D01*
D14*
X4400000Y72000000D02*
X6600000Y72000000D01*
D15*
X30900000Y24062500D02*
X25000000Y24062500D01*
D14*
X1600000Y72000000D02*
X2200000Y72000000D01*
X23700000Y24062500D02*
X25000000Y24062500D01*
X23700000Y35000000D02*
X23700000Y24062500D01*
D18*
%TO.N,/Power/RGB1_OUT*%
X9600000Y2000000D02*
X11400000Y200000D01*
X52800000Y12400000D02*
X52700000Y12500000D01*
X52700000Y12500000D02*
X49475000Y12500000D01*
X23900000Y200000D02*
X52800000Y200000D01*
X52800000Y200000D02*
X52800000Y12400000D01*
D19*
X11400000Y200000D02*
X23900000Y200000D01*
D18*
%TO.N,/Power/RGB2_OUT*%
X13500000Y3300000D02*
X12200000Y4600000D01*
D19*
X20800000Y4900000D02*
X20800000Y3500000D01*
D18*
X21000000Y12400000D02*
X21100000Y12500000D01*
X20800000Y4900000D02*
X20800000Y12400000D01*
D19*
X14400000Y2400000D02*
X13500000Y3300000D01*
D18*
X5800000Y4600000D02*
X5800000Y2000000D01*
D19*
X19700000Y2400000D02*
X14400000Y2400000D01*
X20800000Y3500000D02*
X19700000Y2400000D01*
D18*
X20800000Y12400000D02*
X21000000Y12400000D01*
X12200000Y4600000D02*
X5800000Y4600000D01*
X21100000Y12500000D02*
X24525000Y12500000D01*
D14*
%TO.N,/Power/RGB_R1*%
X37015000Y10850000D02*
X37015000Y9400000D01*
D20*
X37015000Y9400000D02*
X37015000Y7100000D01*
D14*
X37015000Y7100000D02*
X37015000Y5750000D01*
X38665000Y12500000D02*
X37015000Y10850000D01*
X37015000Y5750000D02*
X38665000Y4100000D01*
%TO.N,/Power/RGB_G1*%
X40345000Y10850000D02*
X40345000Y9400000D01*
X40345000Y7100000D02*
X40345000Y5750000D01*
D20*
X40345000Y9400000D02*
X40345000Y7100000D01*
D14*
X41995000Y12500000D02*
X40345000Y10850000D01*
X40345000Y5750000D02*
X41995000Y4100000D01*
D20*
%TO.N,/Power/RGB_B1*%
X43675000Y9400000D02*
X43675000Y7100000D01*
D14*
X43675000Y10850000D02*
X43675000Y9400000D01*
X43675000Y7100000D02*
X43675000Y5750000D01*
X45325000Y12500000D02*
X43675000Y10850000D01*
X43675000Y5750000D02*
X45325000Y4100000D01*
D20*
%TO.N,/Power/RGB_R2*%
X26900000Y10725000D02*
X26900000Y5875000D01*
D14*
X27025000Y5750000D02*
X28675000Y4100000D01*
D20*
X26900000Y5875000D02*
X27025000Y5750000D01*
X27025000Y10850000D02*
X26900000Y10725000D01*
D14*
X28675000Y12500000D02*
X27025000Y10850000D01*
%TO.N,/Power/RGB_G2*%
X30400000Y5705000D02*
X32005000Y4100000D01*
X30400000Y7100000D02*
X30400000Y5705000D01*
D20*
X30400000Y7100000D02*
X30400000Y9400000D01*
D14*
X30400000Y10895000D02*
X32005000Y12500000D01*
X30400000Y9400000D02*
X30400000Y10895000D01*
%TO.N,/Power/RGB_B2*%
X33685000Y9400000D02*
X33685000Y10850000D01*
X33685000Y5750000D02*
X35335000Y4100000D01*
X33685000Y7100000D02*
X33685000Y5750000D01*
X33685000Y10850000D02*
X35335000Y12500000D01*
D20*
X33685000Y9400000D02*
X33685000Y7100000D01*
D17*
%TO.N,/Application/WIFI_CLK*%
X48191462Y65650000D02*
X47841462Y65650000D01*
X47476462Y64850000D02*
X47356462Y64850000D01*
X45316462Y65160000D02*
X45316462Y65090000D01*
X47116462Y65090000D02*
X47116462Y65525000D01*
X50116462Y65160000D02*
X50116462Y65090000D01*
X48916462Y65525000D02*
X48916462Y65090000D01*
X46276462Y64850000D02*
X46156462Y64850000D01*
X48316462Y65090000D02*
X48316462Y65525000D01*
X44116462Y65160000D02*
X44116462Y65090000D01*
X45916462Y65090000D02*
X45916462Y65160000D01*
X47716462Y65525000D02*
X47716462Y65090000D01*
X57800000Y65400000D02*
X50356462Y65400000D01*
X42500000Y65400000D02*
X43276462Y65400000D01*
X41850000Y64750000D02*
X42500000Y65400000D01*
X46991462Y65650000D02*
X46641462Y65650000D01*
X49516462Y65160000D02*
X49516462Y65525000D01*
X49876462Y64850000D02*
X49756462Y64850000D01*
X46516462Y65525000D02*
X46516462Y65090000D01*
X49391462Y65650000D02*
X49041462Y65650000D01*
X45076462Y64850000D02*
X44956462Y64850000D01*
X44476462Y65400000D02*
X44356462Y65400000D01*
X43876462Y64850000D02*
X43756462Y64850000D01*
X48676462Y64850000D02*
X48556462Y64850000D01*
X45676462Y65400000D02*
X45556462Y65400000D01*
X44716462Y65090000D02*
X44716462Y65160000D01*
X43516462Y65090000D02*
X43516462Y65160000D01*
X49516462Y65090000D02*
X49516462Y65160000D01*
X49756462Y64850000D02*
G75*
G02*
X49516546Y65090000I38J239954D01*
G01*
X48556462Y64850000D02*
G75*
G02*
X48316546Y65090000I38J239954D01*
G01*
X49041462Y65650000D02*
G75*
G03*
X48916454Y65525000I38J-125046D01*
G01*
X44356462Y65400000D02*
G75*
G03*
X44116454Y65160000I38J-240046D01*
G01*
X45556462Y65400000D02*
G75*
G03*
X45316454Y65160000I38J-240046D01*
G01*
X48316462Y65525000D02*
G75*
G03*
X48191462Y65649916I-124962J-46D01*
G01*
X44116462Y65090000D02*
G75*
G02*
X43876462Y64849992I-239962J-46D01*
G01*
X45916462Y65160000D02*
G75*
G03*
X45676462Y65399916I-239962J-46D01*
G01*
X46641462Y65650000D02*
G75*
G03*
X46516454Y65525000I38J-125046D01*
G01*
X46516462Y65090000D02*
G75*
G02*
X46276462Y64849992I-239962J-46D01*
G01*
X43516462Y65160000D02*
G75*
G03*
X43276462Y65399916I-239962J-46D01*
G01*
X47841462Y65650000D02*
G75*
G03*
X47716454Y65525000I38J-125046D01*
G01*
X47356462Y64850000D02*
G75*
G02*
X47116546Y65090000I38J239954D01*
G01*
X43756462Y64850000D02*
G75*
G02*
X43516546Y65090000I38J239954D01*
G01*
X50116462Y65090000D02*
G75*
G02*
X49876462Y64849992I-239962J-46D01*
G01*
X49516462Y65525000D02*
G75*
G03*
X49391462Y65649916I-124962J-46D01*
G01*
X50356462Y65400000D02*
G75*
G03*
X50116454Y65160000I38J-240046D01*
G01*
X44716462Y65160000D02*
G75*
G03*
X44476462Y65399916I-239962J-46D01*
G01*
X45316462Y65090000D02*
G75*
G02*
X45076462Y64849992I-239962J-46D01*
G01*
X46156462Y64850000D02*
G75*
G02*
X45916546Y65090000I38J239954D01*
G01*
X48916462Y65090000D02*
G75*
G02*
X48676462Y64849992I-239962J-46D01*
G01*
X47716462Y65090000D02*
G75*
G02*
X47476462Y64849992I-239962J-46D01*
G01*
X44956462Y64850000D02*
G75*
G02*
X44716546Y65090000I38J239954D01*
G01*
X47116462Y65525000D02*
G75*
G03*
X46991462Y65649916I-124962J-46D01*
G01*
%TO.N,/Power/PI1_DIV*%
X71900000Y39100000D02*
X71900000Y33600000D01*
X71900000Y33600000D02*
X72300000Y33200000D01*
%TO.N,/Power/PI2_DIV*%
X71000000Y33000000D02*
X71000000Y38400000D01*
%TO.N,/Application/WL_REG_ON*%
X54500000Y69200000D02*
X54800000Y68900000D01*
X39400000Y69200000D02*
X54500000Y69200000D01*
X57500000Y68900000D02*
X57600000Y69000000D01*
X54800000Y68900000D02*
X57500000Y68900000D01*
X36972170Y63700000D02*
X36972170Y66772170D01*
X36972170Y66772170D02*
X39400000Y69200000D01*
%TO.N,/Application/WIFI_CMD*%
X42232873Y66450000D02*
X42382873Y66450000D01*
X44632873Y66450000D02*
X44782873Y66450000D01*
X58500000Y66200000D02*
X57100000Y66200000D01*
X42607873Y66225000D02*
X42607873Y65875000D01*
X58700000Y66000000D02*
X58500000Y66200000D01*
X43432873Y66450000D02*
X43582873Y66450000D01*
X45007873Y66225000D02*
X45007873Y65875000D01*
X42732873Y65750000D02*
X43082873Y65750000D01*
X40750000Y66000000D02*
X41782873Y66000000D01*
X56900000Y66000000D02*
X45732873Y66000000D01*
X57100000Y66200000D02*
X56900000Y66000000D01*
X43207873Y65875000D02*
X43207873Y66225000D01*
X43932873Y65750000D02*
X44282873Y65750000D01*
X60200000Y65800000D02*
X60000000Y66000000D01*
X43807873Y66225000D02*
X43807873Y65875000D01*
X44407873Y65875000D02*
X44407873Y66225000D01*
X45132873Y65750000D02*
X45482873Y65750000D01*
X60000000Y66000000D02*
X58700000Y66000000D01*
X43807873Y65875000D02*
G75*
G03*
X43932873Y65749927I125027J-46D01*
G01*
X42382873Y66450000D02*
G75*
G02*
X42607946Y66225000I27J-225046D01*
G01*
X41782873Y66000000D02*
G75*
G03*
X42007854Y66225000I27J224954D01*
G01*
X43207873Y66225000D02*
G75*
G02*
X43432873Y66449981I225027J-46D01*
G01*
X43582873Y66450000D02*
G75*
G02*
X43807946Y66225000I27J-225046D01*
G01*
X45607873Y65875000D02*
G75*
G02*
X45732873Y65999981I125027J-46D01*
G01*
X45482873Y65750000D02*
G75*
G03*
X45607854Y65875000I27J124954D01*
G01*
X45007873Y65875000D02*
G75*
G03*
X45132873Y65749927I125027J-46D01*
G01*
X42607873Y65875000D02*
G75*
G03*
X42732873Y65749927I125027J-46D01*
G01*
X44407873Y66225000D02*
G75*
G02*
X44632873Y66449981I225027J-46D01*
G01*
X43082873Y65750000D02*
G75*
G03*
X43207854Y65875000I27J124954D01*
G01*
X44782873Y66450000D02*
G75*
G02*
X45007946Y66225000I27J-225046D01*
G01*
X42007873Y66225000D02*
G75*
G02*
X42232873Y66449981I225027J-46D01*
G01*
X44282873Y65750000D02*
G75*
G03*
X44407854Y65875000I27J124954D01*
G01*
%TO.N,/Application/WIFI_DAT0*%
X51610000Y64787879D02*
X51610000Y64327879D01*
X42300000Y63775000D02*
X43002879Y64477879D01*
X55210000Y64787879D02*
X55210000Y64327879D01*
X53170000Y65027879D02*
X53050000Y65027879D01*
X55060000Y64177879D02*
X54760000Y64177879D01*
X54370000Y65027879D02*
X54250000Y65027879D01*
X56770000Y65027879D02*
X56650000Y65027879D01*
X59369143Y64600000D02*
X59269143Y64500000D01*
X51010000Y64327879D02*
X51010000Y64787879D01*
X52660000Y64177879D02*
X52360000Y64177879D01*
X57010000Y64717879D02*
X57010000Y64787879D01*
X55810000Y64327879D02*
X55810000Y64787879D01*
X51970000Y65027879D02*
X51850000Y65027879D01*
X55570000Y65027879D02*
X55450000Y65027879D01*
X51460000Y64177879D02*
X51160000Y64177879D01*
X50770000Y65027879D02*
X50650000Y65027879D01*
X59269143Y64500000D02*
X57272121Y64500000D01*
X54010000Y64787879D02*
X54010000Y64327879D01*
X52210000Y64327879D02*
X52210000Y64787879D01*
X56410000Y64787879D02*
X56410000Y64717879D01*
X53410000Y64327879D02*
X53410000Y64787879D01*
X42300000Y63400000D02*
X42300000Y63775000D01*
X50410000Y64787879D02*
X50410000Y64717879D01*
X53860000Y64177879D02*
X53560000Y64177879D01*
X56410000Y64717879D02*
X56410000Y64327879D01*
X54610000Y64327879D02*
X54610000Y64787879D01*
X56260000Y64177879D02*
X55960000Y64177879D01*
X43002879Y64477879D02*
X50170000Y64477879D01*
X57272121Y64500000D02*
X57250000Y64477879D01*
X52810000Y64787879D02*
X52810000Y64327879D01*
X54760000Y64177879D02*
G75*
G02*
X54610025Y64327879I0J149975D01*
G01*
X52810000Y64327879D02*
G75*
G02*
X52660000Y64177854I-150000J-25D01*
G01*
X53560000Y64177879D02*
G75*
G02*
X53410025Y64327879I0J149975D01*
G01*
X52360000Y64177879D02*
G75*
G02*
X52210025Y64327879I0J149975D01*
G01*
X52210000Y64787879D02*
G75*
G03*
X51970000Y65027854I-240000J-25D01*
G01*
X55450000Y65027879D02*
G75*
G03*
X55209975Y64787879I0J-240025D01*
G01*
X51850000Y65027879D02*
G75*
G03*
X51609975Y64787879I0J-240025D01*
G01*
X57250000Y64477879D02*
G75*
G02*
X57010025Y64717879I0J239975D01*
G01*
X57010000Y64787879D02*
G75*
G03*
X56770000Y65027854I-240000J-25D01*
G01*
X51010000Y64787879D02*
G75*
G03*
X50770000Y65027854I-240000J-25D01*
G01*
X55960000Y64177879D02*
G75*
G02*
X55810025Y64327879I0J149975D01*
G01*
X51610000Y64327879D02*
G75*
G02*
X51460000Y64177854I-150000J-25D01*
G01*
X56650000Y65027879D02*
G75*
G03*
X56409975Y64787879I0J-240025D01*
G01*
X50410000Y64717879D02*
G75*
G02*
X50170000Y64477854I-240000J-25D01*
G01*
X51160000Y64177879D02*
G75*
G02*
X51010025Y64327879I0J149975D01*
G01*
X54010000Y64327879D02*
G75*
G02*
X53860000Y64177854I-150000J-25D01*
G01*
X53050000Y65027879D02*
G75*
G03*
X52809975Y64787879I0J-240025D01*
G01*
X50650000Y65027879D02*
G75*
G03*
X50409975Y64787879I0J-240025D01*
G01*
X54610000Y64787879D02*
G75*
G03*
X54370000Y65027854I-240000J-25D01*
G01*
X55810000Y64787879D02*
G75*
G03*
X55570000Y65027854I-240000J-25D01*
G01*
X54250000Y65027879D02*
G75*
G03*
X54009975Y64787879I0J-240025D01*
G01*
X56410000Y64327879D02*
G75*
G02*
X56260000Y64177854I-150000J-25D01*
G01*
X55210000Y64327879D02*
G75*
G02*
X55060000Y64177854I-150000J-25D01*
G01*
X53410000Y64787879D02*
G75*
G03*
X53170000Y65027854I-240000J-25D01*
G01*
%TO.N,/Application/WIFI_DAT1*%
X43300000Y63238918D02*
X43907780Y63846698D01*
X57400000Y63800000D02*
X50244237Y63800000D01*
X49094237Y64100000D02*
X49294237Y64100000D01*
X47444237Y63950000D02*
X47444237Y63000000D01*
X46094237Y64100000D02*
X46294237Y64100000D01*
X44944237Y63000000D02*
X44944237Y63950000D01*
X57500000Y63700000D02*
X57400000Y63800000D01*
X47644237Y62800000D02*
X47744237Y62800000D01*
X43300000Y62500000D02*
X43300000Y63238918D01*
X46644237Y62800000D02*
X46744237Y62800000D01*
X46944237Y63000000D02*
X46944237Y63950000D01*
X48094237Y64100000D02*
X48294237Y64100000D01*
X49944237Y63000000D02*
X49944237Y63600000D01*
X50144237Y63800000D02*
X50244237Y63800000D01*
X48444237Y63950000D02*
X48444237Y63000000D01*
X45094237Y64100000D02*
X45294237Y64100000D01*
X47094237Y64100000D02*
X47294237Y64100000D01*
X47944237Y63000000D02*
X47944237Y63950000D01*
X49444237Y63950000D02*
X49444237Y63000000D01*
X49644237Y62800000D02*
X49744237Y62800000D01*
X45944237Y63000000D02*
X45944237Y63950000D01*
X48944237Y63000000D02*
X48944237Y63950000D01*
X46444237Y63950000D02*
X46444237Y63000000D01*
X45444237Y63950000D02*
X45444237Y63000000D01*
X45644237Y62800000D02*
X45744237Y62800000D01*
X44444237Y63950000D02*
X44444237Y63000000D01*
X44094237Y64100000D02*
X44294237Y64100000D01*
X44644237Y62800000D02*
X44744237Y62800000D01*
X48644237Y62800000D02*
X48744237Y62800000D01*
X45744237Y62800000D02*
G75*
G03*
X45944154Y63000000I-37J199954D01*
G01*
X47744237Y62800000D02*
G75*
G03*
X47944154Y63000000I-37J199954D01*
G01*
X49444237Y63000000D02*
G75*
G03*
X49644237Y62799991I199963J-46D01*
G01*
X45444237Y63000000D02*
G75*
G03*
X45644237Y62799991I199963J-46D01*
G01*
X49944237Y63600000D02*
G75*
G02*
X50144237Y63799917I199963J-46D01*
G01*
X46294237Y64100000D02*
G75*
G02*
X46444246Y63950000I-37J-150046D01*
G01*
X44294237Y64100000D02*
G75*
G02*
X44444246Y63950000I-37J-150046D01*
G01*
X46744237Y62800000D02*
G75*
G03*
X46944154Y63000000I-37J199954D01*
G01*
X48294237Y64100000D02*
G75*
G02*
X48444246Y63950000I-37J-150046D01*
G01*
X46444237Y63000000D02*
G75*
G03*
X46644237Y62799991I199963J-46D01*
G01*
X45294237Y64100000D02*
G75*
G02*
X45444246Y63950000I-37J-150046D01*
G01*
X49744237Y62800000D02*
G75*
G03*
X49944154Y63000000I-37J199954D01*
G01*
X43907780Y63846698D02*
G75*
G03*
X43944244Y63950000I-149780J110956D01*
G01*
X48944237Y63950000D02*
G75*
G02*
X49094237Y64099917I149963J-46D01*
G01*
X48744237Y62800000D02*
G75*
G03*
X48944154Y63000000I-37J199954D01*
G01*
X44444237Y63000000D02*
G75*
G03*
X44644237Y62799991I199963J-46D01*
G01*
X44944237Y63950000D02*
G75*
G02*
X45094237Y64099917I149963J-46D01*
G01*
X48444237Y63000000D02*
G75*
G03*
X48644237Y62799991I199963J-46D01*
G01*
X44744237Y62800000D02*
G75*
G03*
X44944154Y63000000I-37J199954D01*
G01*
X46944237Y63950000D02*
G75*
G02*
X47094237Y64099917I149963J-46D01*
G01*
X47294237Y64100000D02*
G75*
G02*
X47444246Y63950000I-37J-150046D01*
G01*
X43944237Y63950000D02*
G75*
G02*
X44094237Y64099917I149963J-46D01*
G01*
X49294237Y64100000D02*
G75*
G02*
X49444246Y63950000I-37J-150046D01*
G01*
X47444237Y63000000D02*
G75*
G03*
X47644237Y62799991I199963J-46D01*
G01*
X45944237Y63950000D02*
G75*
G02*
X46094237Y64099917I149963J-46D01*
G01*
X47944237Y63950000D02*
G75*
G02*
X48094237Y64099917I149963J-46D01*
G01*
%TO.N,/Application/WIFI_DAT2*%
X50500000Y67600000D02*
X39575000Y67600000D01*
X39575000Y67600000D02*
X39475000Y67700000D01*
X59000000Y67900000D02*
X50800000Y67900000D01*
X50800000Y67900000D02*
X50500000Y67600000D01*
%TO.N,/Application/WIFI_DAT3*%
X52280000Y67350000D02*
X52400000Y67350000D01*
X54440000Y66575000D02*
X54440000Y67110000D01*
X55040000Y67110000D02*
X55040000Y67040000D01*
X57600000Y67000000D02*
X57600000Y66850000D01*
X54680000Y67350000D02*
X54800000Y67350000D01*
X38850000Y65800000D02*
X39850000Y66800000D01*
X53240000Y66575000D02*
X53240000Y67110000D01*
X54065000Y66350000D02*
X54215000Y66350000D01*
X52640000Y67040000D02*
X52640000Y66575000D01*
X39850000Y66800000D02*
X51800000Y66800000D01*
X53840000Y67110000D02*
X53840000Y66575000D01*
X57600000Y66850000D02*
X57550000Y66800000D01*
X52040000Y67040000D02*
X52040000Y67110000D01*
X52865000Y66350000D02*
X53015000Y66350000D01*
X52640000Y67110000D02*
X52640000Y67040000D01*
X53480000Y67350000D02*
X53600000Y67350000D01*
X55280000Y66800000D02*
X57550000Y66800000D01*
X52400000Y67350000D02*
G75*
G02*
X52640046Y67110000I0J-240046D01*
G01*
X53015000Y66350000D02*
G75*
G03*
X53239954Y66575000I0J224954D01*
G01*
X52040000Y67110000D02*
G75*
G02*
X52280000Y67349954I240000J-46D01*
G01*
X53840000Y66575000D02*
G75*
G03*
X54065000Y66349954I225000J-46D01*
G01*
X54800000Y67350000D02*
G75*
G02*
X55040046Y67110000I0J-240046D01*
G01*
X53240000Y67110000D02*
G75*
G02*
X53480000Y67349954I240000J-46D01*
G01*
X54440000Y67110000D02*
G75*
G02*
X54680000Y67349954I240000J-46D01*
G01*
X55040000Y67040000D02*
G75*
G03*
X55280000Y66799954I240000J-46D01*
G01*
X51800000Y66800000D02*
G75*
G03*
X52039954Y67040000I0J239954D01*
G01*
X52640000Y66575000D02*
G75*
G03*
X52865000Y66349954I225000J-46D01*
G01*
X53600000Y67350000D02*
G75*
G02*
X53840046Y67110000I0J-240046D01*
G01*
X54215000Y66350000D02*
G75*
G03*
X54439954Y66575000I0J224954D01*
G01*
%TO.N,/Application/BT_EN*%
X55250000Y71350000D02*
X55100000Y71500000D01*
X55100000Y71500000D02*
X46000000Y71500000D01*
%TO.N,/Application/HCI_CTS*%
X41172170Y72800000D02*
X39672170Y71300000D01*
X42600000Y73000000D02*
X42400000Y72800000D01*
X42400000Y72800000D02*
X41172170Y72800000D01*
%TO.N,/Application/AP_WAKE_BT*%
X57600000Y70600000D02*
X54700000Y70600000D01*
X35325003Y64325003D02*
X34200000Y64325003D01*
X39300000Y70400000D02*
X35900000Y67000000D01*
X54700000Y70600000D02*
X54500000Y70400000D01*
X35900000Y67000000D02*
X35900000Y64900000D01*
X35900000Y64900000D02*
X35325003Y64325003D01*
X54500000Y70400000D02*
X39300000Y70400000D01*
%TO.N,/Application/WL_WAKE_AP*%
X39426471Y68500000D02*
X49100000Y68500000D01*
X37600000Y65100000D02*
X37600000Y66673529D01*
X37600000Y66673529D02*
X39426471Y68500000D01*
%TO.N,/Application/BT_WAKE_AP*%
X36500000Y64100000D02*
X36500000Y67000000D01*
X39200000Y69700000D02*
X55800000Y69700000D01*
X36500000Y67000000D02*
X39200000Y69700000D01*
X34200000Y63000000D02*
X35400000Y63000000D01*
X35400000Y63000000D02*
X36500000Y64100000D01*
%TO.N,/Application/HCI_RX*%
X40472170Y74400000D02*
X39186085Y73113915D01*
X42600000Y74400000D02*
X40472170Y74400000D01*
%TO.N,/Application/HCI_TX*%
X43800000Y75000000D02*
X40223641Y75000000D01*
X38100000Y72876359D02*
X38100000Y72100000D01*
X40223641Y75000000D02*
X38100000Y72876359D01*
%TO.N,/Application/HCI_RTS*%
X38200000Y71200000D02*
X36972170Y71200000D01*
X43800000Y73700000D02*
X40700000Y73700000D01*
X40700000Y73700000D02*
X38200000Y71200000D01*
%TD*%
%TA.AperFunction,Conductor*%
%TO.N,GND*%
G36*
X57627027Y61030593D02*
G01*
X57638839Y61020504D01*
X57905885Y60753459D01*
X58003458Y60655886D01*
X58118182Y60579229D01*
X58118186Y60579227D01*
X58118189Y60579225D01*
X58192866Y60548293D01*
X58245671Y60526420D01*
X58272587Y60521067D01*
X58272590Y60521065D01*
X58272591Y60521066D01*
X58381007Y60499500D01*
X58666091Y60499500D01*
X58724282Y60480593D01*
X58760246Y60431093D01*
X58760246Y60369907D01*
X58740911Y60335669D01*
X58704417Y60293553D01*
X58644629Y60162638D01*
X58624148Y60020184D01*
X58624148Y60020179D01*
X58644628Y59877727D01*
X58658081Y59848270D01*
X58670348Y59821410D01*
X58679295Y59780284D01*
X58679295Y56810894D01*
X58692801Y56760492D01*
X58692801Y56760490D01*
X58692802Y56760490D01*
X58692802Y56760489D01*
X58709996Y56696318D01*
X58709997Y56696316D01*
X58709998Y56696313D01*
X58769302Y56593596D01*
X58769304Y56593594D01*
X58769306Y56593591D01*
X59323386Y56039511D01*
X59382696Y56005269D01*
X59426114Y55980201D01*
X59540691Y55949500D01*
X67772389Y55949500D01*
X67830580Y55930593D01*
X67842393Y55920504D01*
X68120504Y55642393D01*
X68148281Y55587876D01*
X68149500Y55572389D01*
X68149500Y42003028D01*
X68130593Y41944837D01*
X68081093Y41908873D01*
X68019907Y41908873D01*
X67985671Y41928207D01*
X67981127Y41932144D01*
X67860057Y42009951D01*
X67860054Y42009953D01*
X67860053Y42009953D01*
X67860050Y42009954D01*
X67721964Y42050500D01*
X67721961Y42050500D01*
X67578039Y42050500D01*
X67578035Y42050500D01*
X67439943Y42009952D01*
X67438838Y42009447D01*
X67436468Y42008932D01*
X67433153Y42007958D01*
X67433083Y42008196D01*
X67397712Y42000500D01*
X60790688Y42000500D01*
X60725620Y41983066D01*
X60674377Y41983066D01*
X60623667Y41996653D01*
X60609309Y42000500D01*
X50790691Y42000500D01*
X50733402Y41985150D01*
X50676112Y41969799D01*
X50662386Y41961873D01*
X50662385Y41961874D01*
X50573386Y41910490D01*
X50142392Y41479496D01*
X50087876Y41451719D01*
X50072389Y41450500D01*
X46652288Y41450500D01*
X46616916Y41458196D01*
X46616847Y41457958D01*
X46613531Y41458932D01*
X46611162Y41459447D01*
X46610056Y41459952D01*
X46610049Y41459954D01*
X46593605Y41464783D01*
X46471964Y41500500D01*
X46471961Y41500500D01*
X46328039Y41500500D01*
X46328035Y41500500D01*
X46189949Y41459954D01*
X46189942Y41459951D01*
X46153023Y41436224D01*
X46093848Y41420669D01*
X46036831Y41442868D01*
X46003752Y41494341D01*
X46000500Y41519508D01*
X46000500Y41983049D01*
X46019407Y42041240D01*
X46029496Y42053053D01*
X46446947Y42470504D01*
X46501464Y42498281D01*
X46516951Y42499500D01*
X48968992Y42499500D01*
X48968993Y42499500D01*
X49104328Y42526420D01*
X49231811Y42579225D01*
X49346542Y42655886D01*
X49444114Y42753458D01*
X49520775Y42868189D01*
X49573580Y42995672D01*
X49600500Y43131007D01*
X49600500Y43268993D01*
X49573580Y43404328D01*
X49520775Y43531811D01*
X49520774Y43531813D01*
X49520771Y43531818D01*
X49444114Y43646542D01*
X49346541Y43744115D01*
X49231817Y43820772D01*
X49231806Y43820778D01*
X49104328Y43873580D01*
X48968995Y43900500D01*
X48968993Y43900500D01*
X47199500Y43900500D01*
X47141309Y43919407D01*
X47105345Y43968907D01*
X47100500Y43999500D01*
X47100500Y51200500D01*
X47119407Y51258691D01*
X47168907Y51294655D01*
X47199500Y51299500D01*
X53268993Y51299500D01*
X53268994Y51299500D01*
X53404328Y51326420D01*
X53531811Y51379225D01*
X53646543Y51455886D01*
X54694114Y52503457D01*
X54770775Y52618189D01*
X54823580Y52745672D01*
X54850500Y52881006D01*
X54850500Y53018994D01*
X54850500Y60950500D01*
X54869407Y61008691D01*
X54918907Y61044655D01*
X54949500Y61049500D01*
X57568836Y61049500D01*
X57627027Y61030593D01*
G37*
%TD.AperFunction*%
%TA.AperFunction,Conductor*%
G36*
X71527026Y60480593D02*
G01*
X71538839Y60470504D01*
X72870504Y59138840D01*
X72898281Y59084323D01*
X72899500Y59068836D01*
X72899500Y51216900D01*
X72880593Y51158709D01*
X72870504Y51146896D01*
X72453104Y50729496D01*
X72398587Y50701719D01*
X72383100Y50700500D01*
X70731003Y50700500D01*
X70595674Y50673581D01*
X70595672Y50673580D01*
X70588231Y50670498D01*
X70527235Y50665700D01*
X70475067Y50697672D01*
X70451655Y50754201D01*
X70460297Y50803091D01*
X70485165Y50857543D01*
X70505647Y51000000D01*
X70485165Y51142457D01*
X70425377Y51273373D01*
X70331128Y51382143D01*
X70331127Y51382144D01*
X70331126Y51382145D01*
X70210057Y51459951D01*
X70210054Y51459953D01*
X70210053Y51459953D01*
X70210050Y51459954D01*
X70071964Y51500500D01*
X70071961Y51500500D01*
X69928039Y51500500D01*
X69928035Y51500500D01*
X69789943Y51459952D01*
X69788838Y51459447D01*
X69786468Y51458932D01*
X69783153Y51457958D01*
X69783083Y51458196D01*
X69747712Y51450500D01*
X69149500Y51450500D01*
X69091309Y51469407D01*
X69055345Y51518907D01*
X69050500Y51549500D01*
X69050500Y55859308D01*
X69050327Y55859952D01*
X69019799Y55973886D01*
X69019799Y55973887D01*
X69019799Y55973888D01*
X68960492Y56076610D01*
X68960490Y56076612D01*
X68960489Y56076614D01*
X68276614Y56760489D01*
X68276611Y56760491D01*
X68276609Y56760493D01*
X68173890Y56819798D01*
X68173886Y56819800D01*
X68149673Y56826288D01*
X68149673Y56826287D01*
X68059309Y56850500D01*
X68059307Y56850500D01*
X59827611Y56850500D01*
X59769420Y56869407D01*
X59757607Y56879496D01*
X59609291Y57027812D01*
X59581514Y57082329D01*
X59580295Y57097816D01*
X59580295Y59780284D01*
X59589241Y59821410D01*
X59614960Y59877724D01*
X59614960Y59877726D01*
X59614961Y59877727D01*
X59635442Y60020179D01*
X59635442Y60020184D01*
X59614960Y60162638D01*
X59555172Y60293553D01*
X59555172Y60293554D01*
X59518678Y60335670D01*
X59494862Y60392029D01*
X59508721Y60451624D01*
X59554962Y60491691D01*
X59593499Y60499500D01*
X71468835Y60499500D01*
X71527026Y60480593D01*
G37*
%TD.AperFunction*%
%TA.AperFunction,Conductor*%
G36*
X47922001Y75630593D02*
G01*
X47933814Y75620504D01*
X50834788Y72719530D01*
X50849767Y72710882D01*
X50896306Y72684012D01*
X50896311Y72684010D01*
X50914708Y72673388D01*
X50914709Y72673388D01*
X50914712Y72673386D01*
X51003856Y72649500D01*
X51003857Y72649500D01*
X51096144Y72649500D01*
X59013810Y72649500D01*
X59072001Y72630593D01*
X59083814Y72620504D01*
X60470504Y71233815D01*
X60498281Y71179298D01*
X60499500Y71163811D01*
X60499500Y66365938D01*
X60480593Y66307747D01*
X60431093Y66271783D01*
X60372609Y66270948D01*
X60271964Y66300500D01*
X60271961Y66300500D01*
X60128039Y66300500D01*
X60128036Y66300500D01*
X60112487Y66295934D01*
X60058978Y66295298D01*
X60039564Y66300500D01*
X60039562Y66300500D01*
X58865479Y66300500D01*
X58807288Y66319407D01*
X58795476Y66329496D01*
X58684510Y66440461D01*
X58615992Y66480020D01*
X58615988Y66480022D01*
X58539564Y66500500D01*
X58539562Y66500500D01*
X58046217Y66500500D01*
X57988026Y66519407D01*
X57952062Y66568907D01*
X57952062Y66630093D01*
X57971398Y66664331D01*
X57985877Y66681043D01*
X58025377Y66726627D01*
X58085165Y66857543D01*
X58102042Y66974925D01*
X58105647Y66999998D01*
X58105647Y67000003D01*
X58085165Y67142457D01*
X58074188Y67166493D01*
X58025377Y67273373D01*
X57931128Y67382143D01*
X57876552Y67417217D01*
X57837822Y67464582D01*
X57834329Y67525668D01*
X57867409Y67577140D01*
X57924425Y67599339D01*
X57930077Y67599500D01*
X58552917Y67599500D01*
X58611108Y67580593D01*
X58627733Y67565333D01*
X58668872Y67517857D01*
X58789947Y67440047D01*
X58873585Y67415489D01*
X58928035Y67399501D01*
X58928036Y67399501D01*
X58928039Y67399500D01*
X58928041Y67399500D01*
X59071959Y67399500D01*
X59071961Y67399500D01*
X59210053Y67440047D01*
X59331128Y67517857D01*
X59425377Y67626627D01*
X59485165Y67757543D01*
X59505647Y67900000D01*
X59505575Y67900500D01*
X59485165Y68042457D01*
X59462526Y68092028D01*
X59425377Y68173373D01*
X59331128Y68282143D01*
X59331127Y68282144D01*
X59331126Y68282145D01*
X59210057Y68359951D01*
X59210054Y68359953D01*
X59210053Y68359953D01*
X59210050Y68359954D01*
X59071964Y68400500D01*
X59071961Y68400500D01*
X58928039Y68400500D01*
X58928035Y68400500D01*
X58789949Y68359954D01*
X58789942Y68359951D01*
X58668876Y68282146D01*
X58668871Y68282142D01*
X58627736Y68234669D01*
X58575340Y68203073D01*
X58552917Y68200500D01*
X50760435Y68200500D01*
X50684011Y68180022D01*
X50684007Y68180020D01*
X50615489Y68140461D01*
X50404524Y67929496D01*
X50350008Y67901719D01*
X50334521Y67900500D01*
X49430077Y67900500D01*
X49371886Y67919407D01*
X49335922Y67968907D01*
X49335922Y68030093D01*
X49371886Y68079593D01*
X49376553Y68082784D01*
X49431128Y68117857D01*
X49525377Y68226627D01*
X49585165Y68357543D01*
X49605575Y68499500D01*
X49605647Y68499998D01*
X49605647Y68500003D01*
X49585165Y68642457D01*
X49531771Y68759373D01*
X49524796Y68820160D01*
X49554882Y68873437D01*
X49610538Y68898855D01*
X49621824Y68899500D01*
X54334521Y68899500D01*
X54392712Y68880593D01*
X54404525Y68870504D01*
X54559540Y68715489D01*
X54559539Y68715489D01*
X54615489Y68659540D01*
X54684007Y68619981D01*
X54684011Y68619979D01*
X54760435Y68599501D01*
X54760437Y68599500D01*
X54760438Y68599500D01*
X57268368Y68599500D01*
X57321889Y68583785D01*
X57389947Y68540047D01*
X57496403Y68508789D01*
X57528035Y68499501D01*
X57528036Y68499501D01*
X57528039Y68499500D01*
X57528041Y68499500D01*
X57671959Y68499500D01*
X57671961Y68499500D01*
X57810053Y68540047D01*
X57931128Y68617857D01*
X58025377Y68726627D01*
X58085165Y68857543D01*
X58105647Y69000000D01*
X58085165Y69142457D01*
X58025377Y69273373D01*
X57931128Y69382143D01*
X57931127Y69382144D01*
X57931126Y69382145D01*
X57810057Y69459951D01*
X57810054Y69459953D01*
X57810053Y69459953D01*
X57810050Y69459954D01*
X57671964Y69500500D01*
X57671961Y69500500D01*
X57528039Y69500500D01*
X57528035Y69500500D01*
X57389949Y69459954D01*
X57389942Y69459951D01*
X57268873Y69382145D01*
X57174622Y69273372D01*
X57167774Y69258375D01*
X57126403Y69213297D01*
X57077720Y69200500D01*
X56246217Y69200500D01*
X56188026Y69219407D01*
X56152062Y69268907D01*
X56152062Y69330093D01*
X56171398Y69364331D01*
X56192522Y69388710D01*
X56225377Y69426627D01*
X56285165Y69557543D01*
X56305647Y69700000D01*
X56285165Y69842457D01*
X56225377Y69973373D01*
X56131128Y70082143D01*
X56076552Y70117217D01*
X56037822Y70164582D01*
X56034329Y70225668D01*
X56067409Y70277140D01*
X56124425Y70299339D01*
X56130077Y70299500D01*
X57152917Y70299500D01*
X57211108Y70280593D01*
X57227733Y70265333D01*
X57268872Y70217857D01*
X57389947Y70140047D01*
X57496403Y70108789D01*
X57528035Y70099501D01*
X57528036Y70099501D01*
X57528039Y70099500D01*
X57528041Y70099500D01*
X57671959Y70099500D01*
X57671961Y70099500D01*
X57810053Y70140047D01*
X57931128Y70217857D01*
X58025377Y70326627D01*
X58085165Y70457543D01*
X58095155Y70527026D01*
X58105647Y70599998D01*
X58105647Y70600003D01*
X58085165Y70742457D01*
X58025377Y70873373D01*
X57931128Y70982143D01*
X57931127Y70982144D01*
X57931126Y70982145D01*
X57810057Y71059951D01*
X57810054Y71059953D01*
X57810053Y71059953D01*
X57795143Y71064331D01*
X57671964Y71100500D01*
X57671961Y71100500D01*
X57528039Y71100500D01*
X57528035Y71100500D01*
X57389949Y71059954D01*
X57389942Y71059951D01*
X57268876Y70982146D01*
X57268875Y70982145D01*
X57268872Y70982143D01*
X57249287Y70959540D01*
X57227736Y70934669D01*
X57175340Y70903073D01*
X57152917Y70900500D01*
X55739542Y70900500D01*
X55681351Y70919407D01*
X55645387Y70968907D01*
X55645387Y71030093D01*
X55664720Y71064330D01*
X55675377Y71076627D01*
X55735165Y71207543D01*
X55748386Y71299500D01*
X55755647Y71349998D01*
X55755647Y71350003D01*
X55735165Y71492457D01*
X55701939Y71565211D01*
X55675377Y71623373D01*
X55581128Y71732143D01*
X55581127Y71732144D01*
X55581126Y71732145D01*
X55460057Y71809951D01*
X55460054Y71809953D01*
X55460053Y71809953D01*
X55460050Y71809954D01*
X55321964Y71850500D01*
X55321961Y71850500D01*
X55178039Y71850500D01*
X55178035Y71850500D01*
X55039943Y71809952D01*
X55038838Y71809447D01*
X55036468Y71808932D01*
X55033153Y71807958D01*
X55033083Y71808196D01*
X54997712Y71800500D01*
X46447083Y71800500D01*
X46388892Y71819407D01*
X46372264Y71834669D01*
X46331128Y71882143D01*
X46298182Y71903316D01*
X46210057Y71959951D01*
X46210054Y71959953D01*
X46210053Y71959953D01*
X46210050Y71959954D01*
X46071964Y72000500D01*
X46071961Y72000500D01*
X45928039Y72000500D01*
X45928035Y72000500D01*
X45789949Y71959954D01*
X45789942Y71959951D01*
X45668873Y71882145D01*
X45574622Y71773372D01*
X45514834Y71642457D01*
X45494353Y71500003D01*
X45494353Y71499998D01*
X45514834Y71357544D01*
X45565529Y71246540D01*
X45574623Y71226627D01*
X45656781Y71131811D01*
X45668873Y71117856D01*
X45789942Y71040050D01*
X45789947Y71040047D01*
X45873585Y71015489D01*
X45928035Y70999501D01*
X45928036Y70999501D01*
X45928039Y70999500D01*
X45928041Y70999500D01*
X46071959Y70999500D01*
X46071961Y70999500D01*
X46210053Y71040047D01*
X46331128Y71117857D01*
X46372264Y71165332D01*
X46424660Y71196927D01*
X46447083Y71199500D01*
X54704885Y71199500D01*
X54763076Y71180593D01*
X54794938Y71141627D01*
X54805794Y71117855D01*
X54824623Y71076627D01*
X54835278Y71064330D01*
X54859095Y71007971D01*
X54845236Y70948376D01*
X54798995Y70908308D01*
X54760458Y70900500D01*
X54739562Y70900500D01*
X54660438Y70900500D01*
X54613661Y70887967D01*
X54584007Y70880021D01*
X54515493Y70840464D01*
X54515488Y70840460D01*
X54404524Y70729496D01*
X54350008Y70701719D01*
X54334521Y70700500D01*
X40002247Y70700500D01*
X39944056Y70719407D01*
X39908092Y70768907D01*
X39908092Y70830093D01*
X39944056Y70879593D01*
X39948723Y70882784D01*
X40003298Y70917857D01*
X40097547Y71026627D01*
X40157335Y71157543D01*
X40177745Y71299500D01*
X40177817Y71299998D01*
X40177817Y71300000D01*
X40174728Y71321482D01*
X40185160Y71381772D01*
X40202713Y71405574D01*
X41267645Y72470504D01*
X41322162Y72498281D01*
X41337649Y72499500D01*
X42439560Y72499500D01*
X42439562Y72499500D01*
X42458974Y72504702D01*
X42512491Y72504065D01*
X42528033Y72499501D01*
X42528038Y72499501D01*
X42528039Y72499500D01*
X42528040Y72499500D01*
X42671959Y72499500D01*
X42671961Y72499500D01*
X42810053Y72540047D01*
X42931128Y72617857D01*
X43025377Y72726627D01*
X43085165Y72857543D01*
X43099021Y72953915D01*
X43105647Y72999998D01*
X43105647Y73000003D01*
X43085165Y73142457D01*
X43031771Y73259373D01*
X43024796Y73320160D01*
X43054882Y73373437D01*
X43110538Y73398855D01*
X43121824Y73399500D01*
X43352917Y73399500D01*
X43411108Y73380593D01*
X43427733Y73365333D01*
X43468872Y73317857D01*
X43589947Y73240047D01*
X43696403Y73208789D01*
X43728035Y73199501D01*
X43728036Y73199501D01*
X43728039Y73199500D01*
X43728041Y73199500D01*
X43871959Y73199500D01*
X43871961Y73199500D01*
X44010053Y73240047D01*
X44131128Y73317857D01*
X44225377Y73426627D01*
X44285165Y73557543D01*
X44305647Y73700000D01*
X44285165Y73842457D01*
X44225377Y73973373D01*
X44131128Y74082143D01*
X44131127Y74082144D01*
X44131126Y74082145D01*
X44010057Y74159951D01*
X44010054Y74159953D01*
X44010053Y74159953D01*
X44010050Y74159954D01*
X43871964Y74200500D01*
X43871961Y74200500D01*
X43728039Y74200500D01*
X43728035Y74200500D01*
X43589949Y74159954D01*
X43589942Y74159951D01*
X43468876Y74082146D01*
X43468871Y74082142D01*
X43427736Y74034669D01*
X43375340Y74003073D01*
X43352917Y74000500D01*
X43121824Y74000500D01*
X43063633Y74019407D01*
X43027669Y74068907D01*
X43027669Y74130093D01*
X43031771Y74140627D01*
X43085165Y74257544D01*
X43105647Y74399998D01*
X43105647Y74400003D01*
X43085165Y74542457D01*
X43077440Y74559373D01*
X43070465Y74620160D01*
X43100551Y74673437D01*
X43156207Y74698855D01*
X43167493Y74699500D01*
X43352917Y74699500D01*
X43411108Y74680593D01*
X43427733Y74665333D01*
X43468872Y74617857D01*
X43589947Y74540047D01*
X43696403Y74508789D01*
X43728035Y74499501D01*
X43728036Y74499501D01*
X43728039Y74499500D01*
X43728041Y74499500D01*
X43871959Y74499500D01*
X43871961Y74499500D01*
X44010053Y74540047D01*
X44131128Y74617857D01*
X44225377Y74726627D01*
X44285165Y74857543D01*
X44305647Y75000000D01*
X44285165Y75142457D01*
X44225377Y75273373D01*
X44131128Y75382143D01*
X44131127Y75382144D01*
X44131126Y75382145D01*
X44010053Y75459954D01*
X44008974Y75460446D01*
X44008244Y75461116D01*
X44004097Y75463781D01*
X44004558Y75464499D01*
X43963895Y75501817D01*
X43951743Y75561783D01*
X43977159Y75617440D01*
X44030436Y75647528D01*
X44050098Y75649500D01*
X47863810Y75649500D01*
X47922001Y75630593D01*
G37*
%TD.AperFunction*%
%TA.AperFunction,Conductor*%
G36*
X74937535Y96618073D02*
G01*
X75217790Y96601116D01*
X75229654Y96599676D01*
X75502888Y96549599D01*
X75514485Y96546741D01*
X75779687Y96464096D01*
X75790861Y96459858D01*
X76044178Y96345845D01*
X76054751Y96340295D01*
X76265797Y96212711D01*
X76292466Y96196588D01*
X76302305Y96189797D01*
X76520970Y96018481D01*
X76529918Y96010553D01*
X76726330Y95814137D01*
X76734258Y95805188D01*
X76905564Y95586528D01*
X76912355Y95576690D01*
X77056063Y95338965D01*
X77061614Y95328387D01*
X77175617Y95075081D01*
X77179856Y95063903D01*
X77262495Y94798701D01*
X77265356Y94787094D01*
X77315425Y94513869D01*
X77316866Y94502001D01*
X77333867Y94220940D01*
X77334048Y94214963D01*
X77334048Y-778261D01*
X77333867Y-784239D01*
X77316914Y-1064499D01*
X77315473Y-1076366D01*
X77265402Y-1349600D01*
X77262541Y-1361208D01*
X77179901Y-1626410D01*
X77175662Y-1637587D01*
X77061661Y-1890892D01*
X77056106Y-1901478D01*
X76912398Y-2139204D01*
X76905606Y-2149043D01*
X76734289Y-2367715D01*
X76726362Y-2376663D01*
X76529949Y-2573080D01*
X76521001Y-2581008D01*
X76302332Y-2752328D01*
X76292494Y-2759119D01*
X76054781Y-2902826D01*
X76044195Y-2908382D01*
X75790880Y-3022393D01*
X75779703Y-3026632D01*
X75514503Y-3109277D01*
X75502895Y-3112138D01*
X75229662Y-3162214D01*
X75217794Y-3163655D01*
X74938328Y-3180565D01*
X74932349Y-3180746D01*
X22299500Y-3180746D01*
X22241309Y-3161839D01*
X22205345Y-3112339D01*
X22200500Y-3081746D01*
X22200500Y-1160117D01*
X22169977Y-1086428D01*
X22169976Y-1086427D01*
X22169976Y-1086426D01*
X22128051Y-1044501D01*
X22100276Y-989987D01*
X22109847Y-929555D01*
X22153112Y-886290D01*
X22198057Y-875500D01*
X23342691Y-875500D01*
X23387635Y-886289D01*
X23439168Y-912547D01*
X23618882Y-970940D01*
X23618883Y-970940D01*
X23618886Y-970941D01*
X23805516Y-1000500D01*
X23805519Y-1000500D01*
X52894484Y-1000500D01*
X53081113Y-970941D01*
X53081114Y-970940D01*
X53081118Y-970940D01*
X53260832Y-912547D01*
X53429199Y-826760D01*
X53582073Y-715690D01*
X53715690Y-582073D01*
X53826760Y-429199D01*
X53912547Y-260832D01*
X53970940Y-81118D01*
X54000500Y105519D01*
X54000500Y7339883D01*
X55899500Y7339883D01*
X55899500Y3560118D01*
X55930022Y3486429D01*
X55930023Y3486428D01*
X55930024Y3486426D01*
X55986426Y3430024D01*
X55986427Y3430024D01*
X55986428Y3430023D01*
X56060117Y3399500D01*
X56060118Y3399500D01*
X58539883Y3399500D01*
X58586351Y3418749D01*
X58613574Y3430024D01*
X58669976Y3486426D01*
X58700500Y3560118D01*
X58700500Y7339882D01*
X58692969Y7358063D01*
X58669977Y7413572D01*
X58669976Y7413573D01*
X58669976Y7413574D01*
X58613574Y7469976D01*
X58613572Y7469977D01*
X58613571Y7469978D01*
X58539883Y7500500D01*
X58539882Y7500500D01*
X56139882Y7500500D01*
X56060118Y7500500D01*
X56060117Y7500500D01*
X55986428Y7469978D01*
X55930022Y7413572D01*
X55899500Y7339883D01*
X54000500Y7339883D01*
X54000500Y12494481D01*
X54000500Y12494485D01*
X53970941Y12681114D01*
X53947463Y12753371D01*
X53912547Y12860832D01*
X53863423Y12957243D01*
X53826761Y13029198D01*
X53760226Y13120775D01*
X53760225Y13120776D01*
X53750115Y13134691D01*
X53715690Y13182074D01*
X53482074Y13415690D01*
X53329199Y13526760D01*
X53329198Y13526761D01*
X53329196Y13526762D01*
X53160832Y13612547D01*
X52981113Y13670942D01*
X52794484Y13700500D01*
X52794481Y13700500D01*
X49586243Y13700500D01*
X49363757Y13700500D01*
X49272132Y13683373D01*
X49269428Y13682906D01*
X49193885Y13670941D01*
X49193881Y13670941D01*
X49184064Y13667751D01*
X49171675Y13664594D01*
X49145060Y13659618D01*
X49145053Y13659617D01*
X49074932Y13632452D01*
X49069766Y13630613D01*
X49014168Y13612547D01*
X48988873Y13599659D01*
X48979695Y13595556D01*
X48937601Y13579248D01*
X48937598Y13579247D01*
X48888986Y13549148D01*
X48881819Y13545113D01*
X48845798Y13526759D01*
X48808231Y13499465D01*
X48802160Y13495388D01*
X48748436Y13462123D01*
X48719517Y13435762D01*
X48711025Y13428842D01*
X48692926Y13415690D01*
X48647349Y13370114D01*
X48644045Y13366959D01*
X48584017Y13312235D01*
X48571332Y13295438D01*
X48562348Y13285113D01*
X48559312Y13282077D01*
X48510826Y13215342D01*
X48509738Y13213874D01*
X48449942Y13134691D01*
X48449941Y13134689D01*
X48403049Y13040517D01*
X48402638Y13039702D01*
X48362456Y12960839D01*
X48360967Y12957243D01*
X48360864Y12957286D01*
X48357465Y12948973D01*
X48350770Y12935528D01*
X48326898Y12851630D01*
X48325833Y12848133D01*
X48304062Y12781127D01*
X48304059Y12781115D01*
X48301502Y12764973D01*
X48298943Y12753373D01*
X48289885Y12721540D01*
X48289884Y12721533D01*
X48283497Y12652617D01*
X48282701Y12646268D01*
X48274500Y12594486D01*
X48274500Y12560083D01*
X48274078Y12550949D01*
X48269357Y12500001D01*
X48274078Y12449052D01*
X48274500Y12439918D01*
X48274500Y12405516D01*
X48282701Y12353735D01*
X48283498Y12347384D01*
X48289885Y12278464D01*
X48289885Y12278461D01*
X48289886Y12278460D01*
X48298943Y12246625D01*
X48301502Y12235027D01*
X48304059Y12218882D01*
X48325833Y12151871D01*
X48326898Y12148372D01*
X48350770Y12064474D01*
X48350770Y12064473D01*
X48357461Y12051036D01*
X48360861Y12042720D01*
X48360964Y12042762D01*
X48362451Y12039172D01*
X48402660Y11960257D01*
X48403050Y11959482D01*
X48449942Y11865311D01*
X48509722Y11786149D01*
X48509731Y11786138D01*
X48510819Y11784668D01*
X48559306Y11717931D01*
X48562346Y11714891D01*
X48571339Y11704554D01*
X48584010Y11687775D01*
X48584013Y11687772D01*
X48584019Y11687764D01*
X48584026Y11687758D01*
X48644033Y11633053D01*
X48647340Y11629896D01*
X48692928Y11584309D01*
X48711018Y11571165D01*
X48719521Y11564236D01*
X48748433Y11537880D01*
X48748436Y11537878D01*
X48748438Y11537876D01*
X48778274Y11519403D01*
X48802157Y11504615D01*
X48808231Y11500537D01*
X48845801Y11473240D01*
X48881816Y11454890D01*
X48881818Y11454889D01*
X48888991Y11450850D01*
X48937595Y11420755D01*
X48937601Y11420752D01*
X48945192Y11417812D01*
X48979705Y11404442D01*
X48988862Y11400347D01*
X49014166Y11387454D01*
X49014170Y11387452D01*
X49014176Y11387450D01*
X49069769Y11369386D01*
X49074938Y11367547D01*
X49136823Y11343574D01*
X49145060Y11340382D01*
X49171683Y11335406D01*
X49184059Y11332252D01*
X49193882Y11329060D01*
X49193885Y11329060D01*
X49193887Y11329059D01*
X49193891Y11329058D01*
X49243806Y11321154D01*
X49269434Y11317095D01*
X49272090Y11316637D01*
X49363757Y11299500D01*
X49380519Y11299500D01*
X51500500Y11299500D01*
X51558691Y11280593D01*
X51594655Y11231093D01*
X51599500Y11200500D01*
X51599500Y1499500D01*
X51580593Y1441309D01*
X51531093Y1405345D01*
X51500500Y1400500D01*
X23805516Y1400500D01*
X23618886Y1370942D01*
X23439167Y1312547D01*
X23387636Y1286290D01*
X23342691Y1275500D01*
X20274402Y1275500D01*
X20216211Y1294407D01*
X20180247Y1343907D01*
X20180247Y1405093D01*
X20216211Y1454593D01*
X20229457Y1462710D01*
X20263685Y1480150D01*
X20400641Y1579654D01*
X21620346Y2799359D01*
X21719851Y2936315D01*
X21776834Y3048153D01*
X21796705Y3087151D01*
X21849018Y3248153D01*
X21857309Y3300500D01*
X21875500Y3415353D01*
X21875500Y4100000D01*
X23319357Y4100000D01*
X23339885Y3878464D01*
X23400771Y3664472D01*
X23499942Y3465311D01*
X23634019Y3287764D01*
X23798438Y3137876D01*
X23987599Y3020753D01*
X24195060Y2940382D01*
X24413757Y2899500D01*
X24636243Y2899500D01*
X24854940Y2940382D01*
X25062401Y3020753D01*
X25251562Y3137876D01*
X25415981Y3287764D01*
X25550058Y3465311D01*
X25649229Y3664472D01*
X25710115Y3878464D01*
X25730643Y4100000D01*
X25710115Y4321536D01*
X25649229Y4535528D01*
X25550058Y4734689D01*
X25415981Y4912236D01*
X25251562Y5062124D01*
X25062401Y5179247D01*
X24854940Y5259618D01*
X24854939Y5259619D01*
X24854937Y5259619D01*
X24636243Y5300500D01*
X24413757Y5300500D01*
X24195062Y5259619D01*
X24192073Y5258461D01*
X23987599Y5179247D01*
X23798438Y5062124D01*
X23634020Y4912237D01*
X23499943Y4734691D01*
X23499938Y4734682D01*
X23400772Y4535531D01*
X23400771Y4535528D01*
X23339885Y4321536D01*
X23319357Y4100000D01*
X21875500Y4100000D01*
X21875500Y4342691D01*
X21886290Y4387636D01*
X21896610Y4407890D01*
X21912547Y4439168D01*
X21970940Y4618882D01*
X22000500Y4805519D01*
X22000500Y8300004D01*
X23220034Y8300004D01*
X23220034Y8299997D01*
X23239857Y8073403D01*
X23298733Y7853677D01*
X23394866Y7647517D01*
X23394866Y7647516D01*
X23445973Y7574529D01*
X23923957Y8052514D01*
X23948978Y7992110D01*
X24020112Y7885649D01*
X24110649Y7795112D01*
X24217110Y7723978D01*
X24277510Y7698959D01*
X23799526Y7220976D01*
X23872518Y7169866D01*
X24078676Y7073734D01*
X24298402Y7014858D01*
X24524997Y6995034D01*
X24525003Y6995034D01*
X24751597Y7014858D01*
X24971323Y7073734D01*
X25177483Y7169867D01*
X25177486Y7169868D01*
X25250471Y7220975D01*
X24772487Y7698959D01*
X24832890Y7723978D01*
X24939351Y7795112D01*
X25029888Y7885649D01*
X25101022Y7992110D01*
X25126041Y8052513D01*
X25604025Y7574529D01*
X25655132Y7647514D01*
X25655133Y7647517D01*
X25751266Y7853677D01*
X25810142Y8073403D01*
X25829966Y8299997D01*
X25829966Y8300004D01*
X25810142Y8526598D01*
X25751266Y8746324D01*
X25655134Y8952482D01*
X25604024Y9025474D01*
X25126041Y8547490D01*
X25101022Y8607890D01*
X25029888Y8714351D01*
X24939351Y8804888D01*
X24832890Y8876022D01*
X24772486Y8901043D01*
X25250471Y9379027D01*
X25177484Y9430134D01*
X24971323Y9526267D01*
X24751597Y9585143D01*
X24525003Y9604966D01*
X24524997Y9604966D01*
X24298402Y9585143D01*
X24078676Y9526267D01*
X23872518Y9430135D01*
X23799527Y9379027D01*
X24277512Y8901042D01*
X24217110Y8876022D01*
X24110649Y8804888D01*
X24020112Y8714351D01*
X23948978Y8607890D01*
X23923958Y8547488D01*
X23445973Y9025473D01*
X23394865Y8952482D01*
X23298733Y8746324D01*
X23239857Y8526598D01*
X23220034Y8300004D01*
X22000500Y8300004D01*
X22000500Y10804057D01*
X26299499Y10804057D01*
X26299499Y10637969D01*
X26299500Y10637956D01*
X26299500Y5960137D01*
X26299499Y5960119D01*
X26299499Y5954057D01*
X26299499Y5795943D01*
X26306198Y5770942D01*
X26321127Y5715228D01*
X26324500Y5689605D01*
X26324500Y5681004D01*
X26351420Y5545673D01*
X26351420Y5545671D01*
X26404223Y5418192D01*
X26404224Y5418190D01*
X26404225Y5418189D01*
X26480886Y5303457D01*
X26978824Y4805519D01*
X27454726Y4329617D01*
X27482503Y4275100D01*
X27483300Y4250479D01*
X27469357Y4100000D01*
X27489885Y3878464D01*
X27550771Y3664472D01*
X27649942Y3465311D01*
X27784019Y3287764D01*
X27948438Y3137876D01*
X28137599Y3020753D01*
X28345060Y2940382D01*
X28563757Y2899500D01*
X28786243Y2899500D01*
X29004940Y2940382D01*
X29212401Y3020753D01*
X29401562Y3137876D01*
X29565981Y3287764D01*
X29700058Y3465311D01*
X29799229Y3664472D01*
X29860115Y3878464D01*
X29880643Y4100000D01*
X29860115Y4321536D01*
X29799229Y4535528D01*
X29700058Y4734689D01*
X29565981Y4912236D01*
X29401562Y5062124D01*
X29212401Y5179247D01*
X29004940Y5259618D01*
X29004939Y5259619D01*
X29004937Y5259619D01*
X28786243Y5300500D01*
X28563757Y5300500D01*
X28540339Y5296123D01*
X28531978Y5294560D01*
X28471304Y5302455D01*
X28443786Y5321871D01*
X27529496Y6236161D01*
X27501719Y6290678D01*
X27500500Y6306165D01*
X27500500Y7567829D01*
X27519407Y7626020D01*
X27568907Y7661984D01*
X27630093Y7661984D01*
X27678501Y7627492D01*
X27784019Y7487764D01*
X27948438Y7337876D01*
X28137599Y7220753D01*
X28345060Y7140382D01*
X28563757Y7099500D01*
X28786243Y7099500D01*
X29004940Y7140382D01*
X29212401Y7220753D01*
X29401562Y7337876D01*
X29565981Y7487764D01*
X29621497Y7561281D01*
X29671652Y7596323D01*
X29732827Y7595192D01*
X29781654Y7558320D01*
X29799500Y7501619D01*
X29799500Y7492187D01*
X29782818Y7437189D01*
X29779224Y7431810D01*
X29726420Y7304330D01*
X29726420Y7304328D01*
X29699500Y7168996D01*
X29699500Y5636004D01*
X29701339Y5626760D01*
X29723432Y5515691D01*
X29726420Y5500673D01*
X29726420Y5500671D01*
X29779223Y5373192D01*
X29855109Y5259619D01*
X29855886Y5258457D01*
X30361861Y4752482D01*
X30784726Y4329617D01*
X30812503Y4275100D01*
X30813300Y4250479D01*
X30799357Y4100000D01*
X30819885Y3878464D01*
X30880771Y3664472D01*
X30979942Y3465311D01*
X31114019Y3287764D01*
X31278438Y3137876D01*
X31467599Y3020753D01*
X31675060Y2940382D01*
X31893757Y2899500D01*
X32116243Y2899500D01*
X32334940Y2940382D01*
X32542401Y3020753D01*
X32731562Y3137876D01*
X32895981Y3287764D01*
X33030058Y3465311D01*
X33129229Y3664472D01*
X33190115Y3878464D01*
X33210643Y4100000D01*
X33190115Y4321536D01*
X33129229Y4535528D01*
X33030058Y4734689D01*
X32895981Y4912236D01*
X32731562Y5062124D01*
X32542401Y5179247D01*
X32334940Y5259618D01*
X32334939Y5259619D01*
X32334937Y5259619D01*
X32116243Y5300500D01*
X31893757Y5300500D01*
X31870339Y5296123D01*
X31861978Y5294560D01*
X31801304Y5302455D01*
X31773786Y5321871D01*
X31129496Y5966161D01*
X31101719Y6020678D01*
X31100500Y6036165D01*
X31100500Y7168992D01*
X31100500Y7168993D01*
X31078801Y7278079D01*
X31085992Y7338836D01*
X31127525Y7383767D01*
X31187534Y7395704D01*
X31242593Y7370553D01*
X31278438Y7337876D01*
X31467599Y7220753D01*
X31675060Y7140382D01*
X31893757Y7099500D01*
X32116243Y7099500D01*
X32334940Y7140382D01*
X32542401Y7220753D01*
X32731562Y7337876D01*
X32875520Y7469112D01*
X32931258Y7494340D01*
X32991184Y7481988D01*
X33032404Y7436771D01*
X33039175Y7375962D01*
X33033678Y7358066D01*
X33025316Y7337876D01*
X33011419Y7304325D01*
X32984500Y7168996D01*
X32984500Y5681004D01*
X33011420Y5545673D01*
X33011420Y5545671D01*
X33064223Y5418192D01*
X33064224Y5418190D01*
X33064225Y5418189D01*
X33140886Y5303457D01*
X33638824Y4805519D01*
X34114726Y4329617D01*
X34142503Y4275100D01*
X34143300Y4250479D01*
X34129357Y4100000D01*
X34149885Y3878464D01*
X34210771Y3664472D01*
X34309942Y3465311D01*
X34444019Y3287764D01*
X34608438Y3137876D01*
X34797599Y3020753D01*
X35005060Y2940382D01*
X35223757Y2899500D01*
X35446243Y2899500D01*
X35664940Y2940382D01*
X35872401Y3020753D01*
X36061562Y3137876D01*
X36225981Y3287764D01*
X36360058Y3465311D01*
X36459229Y3664472D01*
X36520115Y3878464D01*
X36540643Y4100000D01*
X36520115Y4321536D01*
X36459229Y4535528D01*
X36360058Y4734689D01*
X36225981Y4912236D01*
X36061562Y5062124D01*
X35872401Y5179247D01*
X35664940Y5259618D01*
X35664939Y5259619D01*
X35664937Y5259619D01*
X35446243Y5300500D01*
X35223757Y5300500D01*
X35200339Y5296123D01*
X35191978Y5294560D01*
X35131304Y5302455D01*
X35103786Y5321871D01*
X34414496Y6011161D01*
X34386719Y6065678D01*
X34385500Y6081165D01*
X34385500Y7168992D01*
X34385499Y7168996D01*
X34358580Y7304325D01*
X34358580Y7304328D01*
X34354521Y7314126D01*
X34349723Y7375121D01*
X34381693Y7427289D01*
X34438221Y7450703D01*
X34497716Y7436419D01*
X34512672Y7425178D01*
X34608438Y7337876D01*
X34797599Y7220753D01*
X35005060Y7140382D01*
X35223757Y7099500D01*
X35446243Y7099500D01*
X35664940Y7140382D01*
X35872401Y7220753D01*
X36061562Y7337876D01*
X36205520Y7469112D01*
X36261258Y7494340D01*
X36321184Y7481988D01*
X36362404Y7436771D01*
X36369175Y7375962D01*
X36363678Y7358066D01*
X36355316Y7337876D01*
X36341419Y7304325D01*
X36314500Y7168996D01*
X36314500Y5681004D01*
X36341420Y5545673D01*
X36341420Y5545671D01*
X36394223Y5418192D01*
X36394224Y5418190D01*
X36394225Y5418189D01*
X36470886Y5303457D01*
X36968824Y4805519D01*
X37444726Y4329617D01*
X37472503Y4275100D01*
X37473300Y4250479D01*
X37459357Y4100000D01*
X37479885Y3878464D01*
X37540771Y3664472D01*
X37639942Y3465311D01*
X37774019Y3287764D01*
X37938438Y3137876D01*
X38127599Y3020753D01*
X38335060Y2940382D01*
X38553757Y2899500D01*
X38776243Y2899500D01*
X38994940Y2940382D01*
X39202401Y3020753D01*
X39391562Y3137876D01*
X39555981Y3287764D01*
X39690058Y3465311D01*
X39789229Y3664472D01*
X39850115Y3878464D01*
X39870643Y4100000D01*
X39850115Y4321536D01*
X39789229Y4535528D01*
X39690058Y4734689D01*
X39555981Y4912236D01*
X39391562Y5062124D01*
X39202401Y5179247D01*
X38994940Y5259618D01*
X38994939Y5259619D01*
X38994937Y5259619D01*
X38776243Y5300500D01*
X38553757Y5300500D01*
X38530339Y5296123D01*
X38521978Y5294560D01*
X38461304Y5302455D01*
X38433786Y5321871D01*
X37744496Y6011161D01*
X37716719Y6065678D01*
X37715500Y6081165D01*
X37715500Y7168992D01*
X37715499Y7168996D01*
X37688580Y7304325D01*
X37688580Y7304328D01*
X37684521Y7314126D01*
X37679723Y7375121D01*
X37711693Y7427289D01*
X37768221Y7450703D01*
X37827716Y7436419D01*
X37842672Y7425178D01*
X37938438Y7337876D01*
X38127599Y7220753D01*
X38335060Y7140382D01*
X38553757Y7099500D01*
X38776243Y7099500D01*
X38994940Y7140382D01*
X39202401Y7220753D01*
X39391562Y7337876D01*
X39535520Y7469112D01*
X39591258Y7494340D01*
X39651184Y7481988D01*
X39692404Y7436771D01*
X39699175Y7375962D01*
X39693678Y7358066D01*
X39685316Y7337876D01*
X39671419Y7304325D01*
X39644500Y7168996D01*
X39644500Y5681004D01*
X39671420Y5545673D01*
X39671420Y5545671D01*
X39724223Y5418192D01*
X39724224Y5418190D01*
X39724225Y5418189D01*
X39800886Y5303457D01*
X40298824Y4805519D01*
X40774726Y4329617D01*
X40802503Y4275100D01*
X40803300Y4250479D01*
X40789357Y4100000D01*
X40809885Y3878464D01*
X40870771Y3664472D01*
X40969942Y3465311D01*
X41104019Y3287764D01*
X41268438Y3137876D01*
X41457599Y3020753D01*
X41665060Y2940382D01*
X41883757Y2899500D01*
X42106243Y2899500D01*
X42324940Y2940382D01*
X42532401Y3020753D01*
X42721562Y3137876D01*
X42885981Y3287764D01*
X43020058Y3465311D01*
X43119229Y3664472D01*
X43180115Y3878464D01*
X43200643Y4100000D01*
X43180115Y4321536D01*
X43119229Y4535528D01*
X43020058Y4734689D01*
X42885981Y4912236D01*
X42721562Y5062124D01*
X42532401Y5179247D01*
X42324940Y5259618D01*
X42324939Y5259619D01*
X42324937Y5259619D01*
X42106243Y5300500D01*
X41883757Y5300500D01*
X41860339Y5296123D01*
X41851978Y5294560D01*
X41791304Y5302455D01*
X41763786Y5321871D01*
X41074496Y6011161D01*
X41046719Y6065678D01*
X41045500Y6081165D01*
X41045500Y7168992D01*
X41045499Y7168996D01*
X41018580Y7304325D01*
X41018580Y7304328D01*
X41014521Y7314126D01*
X41009723Y7375121D01*
X41041693Y7427289D01*
X41098221Y7450703D01*
X41157716Y7436419D01*
X41172672Y7425178D01*
X41268438Y7337876D01*
X41457599Y7220753D01*
X41665060Y7140382D01*
X41883757Y7099500D01*
X42106243Y7099500D01*
X42324940Y7140382D01*
X42532401Y7220753D01*
X42721562Y7337876D01*
X42865520Y7469112D01*
X42921258Y7494340D01*
X42981184Y7481988D01*
X43022404Y7436771D01*
X43029175Y7375962D01*
X43023678Y7358066D01*
X43015316Y7337876D01*
X43001419Y7304325D01*
X42974500Y7168996D01*
X42974500Y5681004D01*
X43001420Y5545673D01*
X43001420Y5545671D01*
X43054223Y5418192D01*
X43054224Y5418190D01*
X43054225Y5418189D01*
X43130886Y5303457D01*
X43628824Y4805519D01*
X44104726Y4329617D01*
X44132503Y4275100D01*
X44133300Y4250479D01*
X44119357Y4100000D01*
X44139885Y3878464D01*
X44200771Y3664472D01*
X44299942Y3465311D01*
X44434019Y3287764D01*
X44598438Y3137876D01*
X44787599Y3020753D01*
X44995060Y2940382D01*
X45213757Y2899500D01*
X45436243Y2899500D01*
X45654940Y2940382D01*
X45862401Y3020753D01*
X46051562Y3137876D01*
X46215981Y3287764D01*
X46350058Y3465311D01*
X46449229Y3664472D01*
X46510115Y3878464D01*
X46530643Y4100000D01*
X46530643Y4100004D01*
X48170034Y4100004D01*
X48170034Y4099997D01*
X48189857Y3873403D01*
X48248733Y3653677D01*
X48344866Y3447517D01*
X48344866Y3447516D01*
X48395973Y3374529D01*
X48873957Y3852514D01*
X48898978Y3792110D01*
X48970112Y3685649D01*
X49060649Y3595112D01*
X49167110Y3523978D01*
X49227510Y3498959D01*
X48749526Y3020976D01*
X48822518Y2969866D01*
X49028676Y2873734D01*
X49248402Y2814858D01*
X49474997Y2795034D01*
X49475003Y2795034D01*
X49701597Y2814858D01*
X49921323Y2873734D01*
X50127483Y2969867D01*
X50127486Y2969868D01*
X50200471Y3020975D01*
X49722487Y3498959D01*
X49782890Y3523978D01*
X49889351Y3595112D01*
X49979888Y3685649D01*
X50051022Y3792110D01*
X50076041Y3852513D01*
X50554025Y3374529D01*
X50605132Y3447514D01*
X50605133Y3447517D01*
X50701266Y3653677D01*
X50760142Y3873403D01*
X50779966Y4099997D01*
X50779966Y4100004D01*
X50760142Y4326598D01*
X50701266Y4546324D01*
X50605134Y4752482D01*
X50554024Y4825474D01*
X50076041Y4347490D01*
X50051022Y4407890D01*
X49979888Y4514351D01*
X49889351Y4604888D01*
X49782890Y4676022D01*
X49722486Y4701043D01*
X50200471Y5179027D01*
X50127484Y5230134D01*
X49921323Y5326267D01*
X49701597Y5385143D01*
X49475003Y5404966D01*
X49474997Y5404966D01*
X49248402Y5385143D01*
X49028676Y5326267D01*
X48822518Y5230135D01*
X48749527Y5179027D01*
X49227512Y4701042D01*
X49167110Y4676022D01*
X49060649Y4604888D01*
X48970112Y4514351D01*
X48898978Y4407890D01*
X48873958Y4347488D01*
X48395973Y4825473D01*
X48344865Y4752482D01*
X48248733Y4546324D01*
X48189857Y4326598D01*
X48170034Y4100004D01*
X46530643Y4100004D01*
X46510115Y4321536D01*
X46449229Y4535528D01*
X46350058Y4734689D01*
X46215981Y4912236D01*
X46051562Y5062124D01*
X45862401Y5179247D01*
X45654940Y5259618D01*
X45654939Y5259619D01*
X45654937Y5259619D01*
X45436243Y5300500D01*
X45213757Y5300500D01*
X45190339Y5296123D01*
X45181978Y5294560D01*
X45121304Y5302455D01*
X45093786Y5321871D01*
X44404496Y6011161D01*
X44376719Y6065678D01*
X44375500Y6081165D01*
X44375500Y7168992D01*
X44375499Y7168996D01*
X44348580Y7304325D01*
X44348580Y7304328D01*
X44344521Y7314126D01*
X44339723Y7375121D01*
X44371693Y7427289D01*
X44428221Y7450703D01*
X44487716Y7436419D01*
X44502672Y7425178D01*
X44598438Y7337876D01*
X44787599Y7220753D01*
X44995060Y7140382D01*
X45213757Y7099500D01*
X45436243Y7099500D01*
X45654940Y7140382D01*
X45862401Y7220753D01*
X46051562Y7337876D01*
X46215981Y7487764D01*
X46350058Y7665311D01*
X46449229Y7864472D01*
X46510115Y8078464D01*
X46530643Y8300000D01*
X46530643Y8300004D01*
X48170034Y8300004D01*
X48170034Y8299997D01*
X48189857Y8073403D01*
X48248733Y7853677D01*
X48344866Y7647517D01*
X48344866Y7647516D01*
X48395973Y7574529D01*
X48873957Y8052514D01*
X48898978Y7992110D01*
X48970112Y7885649D01*
X49060649Y7795112D01*
X49167110Y7723978D01*
X49227510Y7698959D01*
X48749526Y7220976D01*
X48822518Y7169866D01*
X49028676Y7073734D01*
X49248402Y7014858D01*
X49474997Y6995034D01*
X49475003Y6995034D01*
X49701597Y7014858D01*
X49921323Y7073734D01*
X50127483Y7169867D01*
X50127486Y7169868D01*
X50200471Y7220975D01*
X49722487Y7698959D01*
X49782890Y7723978D01*
X49889351Y7795112D01*
X49979888Y7885649D01*
X50051022Y7992110D01*
X50076041Y8052513D01*
X50554025Y7574529D01*
X50605132Y7647514D01*
X50605133Y7647517D01*
X50701266Y7853677D01*
X50760142Y8073403D01*
X50779966Y8299997D01*
X50779966Y8300004D01*
X50760142Y8526598D01*
X50701266Y8746324D01*
X50605134Y8952482D01*
X50554024Y9025474D01*
X50076041Y8547490D01*
X50051022Y8607890D01*
X49979888Y8714351D01*
X49889351Y8804888D01*
X49782890Y8876022D01*
X49722486Y8901043D01*
X50200471Y9379027D01*
X50127484Y9430134D01*
X49921323Y9526267D01*
X49701597Y9585143D01*
X49475003Y9604966D01*
X49474997Y9604966D01*
X49248402Y9585143D01*
X49028676Y9526267D01*
X48822518Y9430135D01*
X48749527Y9379027D01*
X49227512Y8901042D01*
X49167110Y8876022D01*
X49060649Y8804888D01*
X48970112Y8714351D01*
X48898978Y8607890D01*
X48873958Y8547488D01*
X48395973Y9025473D01*
X48344865Y8952482D01*
X48248733Y8746324D01*
X48189857Y8526598D01*
X48170034Y8300004D01*
X46530643Y8300004D01*
X46510115Y8521536D01*
X46449229Y8735528D01*
X46350058Y8934689D01*
X46215981Y9112236D01*
X46051562Y9262124D01*
X45862401Y9379247D01*
X45654940Y9459618D01*
X45654939Y9459619D01*
X45654937Y9459619D01*
X45436243Y9500500D01*
X45213757Y9500500D01*
X44995062Y9459619D01*
X44918956Y9430135D01*
X44787599Y9379247D01*
X44701833Y9326143D01*
X44598438Y9262124D01*
X44531924Y9201489D01*
X44476182Y9176260D01*
X44416257Y9188613D01*
X44375037Y9233830D01*
X44368132Y9293967D01*
X44375500Y9331007D01*
X44375500Y10518836D01*
X44394407Y10577027D01*
X44404496Y10588840D01*
X44734653Y10918997D01*
X45093788Y11278133D01*
X45148303Y11305908D01*
X45181975Y11305442D01*
X45213757Y11299500D01*
X45213761Y11299500D01*
X45436243Y11299500D01*
X45654940Y11340382D01*
X45862401Y11420753D01*
X46051562Y11537876D01*
X46215981Y11687764D01*
X46350058Y11865311D01*
X46449229Y12064472D01*
X46510115Y12278464D01*
X46530643Y12500000D01*
X46510115Y12721536D01*
X46449229Y12935528D01*
X46350058Y13134689D01*
X46215981Y13312236D01*
X46051562Y13462124D01*
X45862401Y13579247D01*
X45654940Y13659618D01*
X45654939Y13659619D01*
X45654937Y13659619D01*
X45436243Y13700500D01*
X45213757Y13700500D01*
X44995062Y13659619D01*
X44995057Y13659617D01*
X44787599Y13579247D01*
X44598441Y13462126D01*
X44598438Y13462124D01*
X44547504Y13415691D01*
X44434019Y13312236D01*
X44421338Y13295443D01*
X44299943Y13134691D01*
X44299938Y13134682D01*
X44200772Y12935531D01*
X44200771Y12935528D01*
X44179518Y12860832D01*
X44139885Y12721536D01*
X44119357Y12500000D01*
X44133300Y12349523D01*
X44119842Y12289836D01*
X44104726Y12270386D01*
X43130887Y11296545D01*
X43130883Y11296540D01*
X43122893Y11284580D01*
X43122890Y11284576D01*
X43054228Y11181819D01*
X43054222Y11181807D01*
X43001420Y11054330D01*
X43001420Y11054328D01*
X42974500Y10918996D01*
X42974500Y9331005D01*
X42988513Y9260559D01*
X42981321Y9199798D01*
X42939789Y9154868D01*
X42879779Y9142931D01*
X42824720Y9168083D01*
X42721562Y9262124D01*
X42532401Y9379247D01*
X42324940Y9459618D01*
X42324939Y9459619D01*
X42324937Y9459619D01*
X42106243Y9500500D01*
X41883757Y9500500D01*
X41665062Y9459619D01*
X41588956Y9430135D01*
X41457599Y9379247D01*
X41371833Y9326143D01*
X41268438Y9262124D01*
X41201924Y9201489D01*
X41146182Y9176260D01*
X41086257Y9188613D01*
X41045037Y9233830D01*
X41038132Y9293967D01*
X41045500Y9331007D01*
X41045500Y10518836D01*
X41064407Y10577027D01*
X41074496Y10588840D01*
X41404653Y10918997D01*
X41763788Y11278133D01*
X41818303Y11305908D01*
X41851975Y11305442D01*
X41883757Y11299500D01*
X41883761Y11299500D01*
X42106243Y11299500D01*
X42324940Y11340382D01*
X42532401Y11420753D01*
X42721562Y11537876D01*
X42885981Y11687764D01*
X43020058Y11865311D01*
X43119229Y12064472D01*
X43180115Y12278464D01*
X43200643Y12500000D01*
X43180115Y12721536D01*
X43119229Y12935528D01*
X43020058Y13134689D01*
X42885981Y13312236D01*
X42721562Y13462124D01*
X42532401Y13579247D01*
X42324940Y13659618D01*
X42324939Y13659619D01*
X42324937Y13659619D01*
X42106243Y13700500D01*
X41883757Y13700500D01*
X41665062Y13659619D01*
X41665057Y13659617D01*
X41457599Y13579247D01*
X41268441Y13462126D01*
X41268438Y13462124D01*
X41217504Y13415691D01*
X41104019Y13312236D01*
X41091338Y13295443D01*
X40969943Y13134691D01*
X40969938Y13134682D01*
X40870772Y12935531D01*
X40870771Y12935528D01*
X40849518Y12860832D01*
X40809885Y12721536D01*
X40789357Y12500000D01*
X40803300Y12349523D01*
X40789842Y12289836D01*
X40774726Y12270386D01*
X39800887Y11296545D01*
X39800883Y11296540D01*
X39792893Y11284580D01*
X39792890Y11284576D01*
X39724228Y11181819D01*
X39724222Y11181807D01*
X39671420Y11054330D01*
X39671420Y11054328D01*
X39644500Y10918996D01*
X39644500Y9331005D01*
X39658513Y9260559D01*
X39651321Y9199798D01*
X39609789Y9154868D01*
X39549779Y9142931D01*
X39494720Y9168083D01*
X39391562Y9262124D01*
X39202401Y9379247D01*
X38994940Y9459618D01*
X38994939Y9459619D01*
X38994937Y9459619D01*
X38776243Y9500500D01*
X38553757Y9500500D01*
X38335062Y9459619D01*
X38258956Y9430135D01*
X38127599Y9379247D01*
X38041833Y9326143D01*
X37938438Y9262124D01*
X37871924Y9201489D01*
X37816182Y9176260D01*
X37756257Y9188613D01*
X37715037Y9233830D01*
X37708132Y9293967D01*
X37715500Y9331007D01*
X37715500Y10518836D01*
X37734407Y10577027D01*
X37744496Y10588840D01*
X38074653Y10918997D01*
X38433788Y11278133D01*
X38488303Y11305908D01*
X38521975Y11305442D01*
X38553757Y11299500D01*
X38553761Y11299500D01*
X38776243Y11299500D01*
X38994940Y11340382D01*
X39202401Y11420753D01*
X39391562Y11537876D01*
X39555981Y11687764D01*
X39690058Y11865311D01*
X39789229Y12064472D01*
X39850115Y12278464D01*
X39870643Y12500000D01*
X39850115Y12721536D01*
X39789229Y12935528D01*
X39690058Y13134689D01*
X39555981Y13312236D01*
X39391562Y13462124D01*
X39202401Y13579247D01*
X38994940Y13659618D01*
X38994939Y13659619D01*
X38994937Y13659619D01*
X38776243Y13700500D01*
X38553757Y13700500D01*
X38335062Y13659619D01*
X38335057Y13659617D01*
X38127599Y13579247D01*
X37938441Y13462126D01*
X37938438Y13462124D01*
X37887504Y13415691D01*
X37774019Y13312236D01*
X37761338Y13295443D01*
X37639943Y13134691D01*
X37639938Y13134682D01*
X37540772Y12935531D01*
X37540771Y12935528D01*
X37519518Y12860832D01*
X37479885Y12721536D01*
X37459357Y12500000D01*
X37473300Y12349523D01*
X37459842Y12289836D01*
X37444726Y12270386D01*
X36470887Y11296545D01*
X36470883Y11296540D01*
X36462893Y11284580D01*
X36462890Y11284576D01*
X36394228Y11181819D01*
X36394222Y11181807D01*
X36341420Y11054330D01*
X36341420Y11054328D01*
X36314500Y10918996D01*
X36314500Y9331005D01*
X36328513Y9260559D01*
X36321321Y9199798D01*
X36279789Y9154868D01*
X36219779Y9142931D01*
X36164720Y9168083D01*
X36061562Y9262124D01*
X35872401Y9379247D01*
X35664940Y9459618D01*
X35664939Y9459619D01*
X35664937Y9459619D01*
X35446243Y9500500D01*
X35223757Y9500500D01*
X35005062Y9459619D01*
X34928956Y9430135D01*
X34797599Y9379247D01*
X34711833Y9326143D01*
X34608438Y9262124D01*
X34541924Y9201489D01*
X34486182Y9176260D01*
X34426257Y9188613D01*
X34385037Y9233830D01*
X34378132Y9293967D01*
X34385500Y9331007D01*
X34385500Y10518836D01*
X34404407Y10577027D01*
X34414496Y10588840D01*
X34744653Y10918997D01*
X35103788Y11278133D01*
X35158303Y11305908D01*
X35191975Y11305442D01*
X35223757Y11299500D01*
X35223761Y11299500D01*
X35446243Y11299500D01*
X35664940Y11340382D01*
X35872401Y11420753D01*
X36061562Y11537876D01*
X36225981Y11687764D01*
X36360058Y11865311D01*
X36459229Y12064472D01*
X36520115Y12278464D01*
X36540643Y12500000D01*
X36520115Y12721536D01*
X36459229Y12935528D01*
X36360058Y13134689D01*
X36225981Y13312236D01*
X36061562Y13462124D01*
X35872401Y13579247D01*
X35664940Y13659618D01*
X35664939Y13659619D01*
X35664937Y13659619D01*
X35446243Y13700500D01*
X35223757Y13700500D01*
X35005062Y13659619D01*
X35005057Y13659617D01*
X34797599Y13579247D01*
X34608441Y13462126D01*
X34608438Y13462124D01*
X34557504Y13415691D01*
X34444019Y13312236D01*
X34431338Y13295443D01*
X34309943Y13134691D01*
X34309938Y13134682D01*
X34210772Y12935531D01*
X34210771Y12935528D01*
X34189518Y12860832D01*
X34149885Y12721536D01*
X34129357Y12500000D01*
X34143300Y12349523D01*
X34129842Y12289836D01*
X34114726Y12270386D01*
X33140887Y11296545D01*
X33140883Y11296540D01*
X33132893Y11284580D01*
X33132890Y11284576D01*
X33064228Y11181819D01*
X33064222Y11181807D01*
X33011420Y11054330D01*
X33011420Y11054328D01*
X32984500Y10918996D01*
X32984500Y9331005D01*
X32998513Y9260559D01*
X32991321Y9199798D01*
X32949789Y9154868D01*
X32889779Y9142931D01*
X32834720Y9168083D01*
X32731562Y9262124D01*
X32542401Y9379247D01*
X32334940Y9459618D01*
X32334939Y9459619D01*
X32334937Y9459619D01*
X32116243Y9500500D01*
X31893757Y9500500D01*
X31675062Y9459619D01*
X31598956Y9430135D01*
X31467599Y9379247D01*
X31381833Y9326143D01*
X31278438Y9262124D01*
X31265975Y9250762D01*
X31210233Y9225534D01*
X31150308Y9237887D01*
X31109089Y9283105D01*
X31101999Y9326143D01*
X31100500Y9326143D01*
X31100500Y10563836D01*
X31119407Y10622027D01*
X31129490Y10633834D01*
X31773788Y11278133D01*
X31828303Y11305908D01*
X31861975Y11305442D01*
X31893757Y11299500D01*
X31893761Y11299500D01*
X32116243Y11299500D01*
X32334940Y11340382D01*
X32542401Y11420753D01*
X32731562Y11537876D01*
X32895981Y11687764D01*
X33030058Y11865311D01*
X33129229Y12064472D01*
X33190115Y12278464D01*
X33210643Y12500000D01*
X33190115Y12721536D01*
X33129229Y12935528D01*
X33030058Y13134689D01*
X32895981Y13312236D01*
X32731562Y13462124D01*
X32542401Y13579247D01*
X32334940Y13659618D01*
X32334939Y13659619D01*
X32334937Y13659619D01*
X32116243Y13700500D01*
X31893757Y13700500D01*
X31675062Y13659619D01*
X31675057Y13659617D01*
X31467599Y13579247D01*
X31278441Y13462126D01*
X31278438Y13462124D01*
X31227504Y13415691D01*
X31114019Y13312236D01*
X31101338Y13295443D01*
X30979943Y13134691D01*
X30979938Y13134682D01*
X30880772Y12935531D01*
X30880771Y12935528D01*
X30859518Y12860832D01*
X30819885Y12721536D01*
X30799357Y12500000D01*
X30813300Y12349523D01*
X30799842Y12289836D01*
X30784726Y12270386D01*
X29855885Y11341543D01*
X29817823Y11284577D01*
X29817822Y11284576D01*
X29779228Y11226819D01*
X29779222Y11226807D01*
X29726420Y11099330D01*
X29726420Y11099328D01*
X29699500Y10963996D01*
X29699500Y9331005D01*
X29723480Y9210450D01*
X29716288Y9149689D01*
X29674755Y9104759D01*
X29614746Y9092822D01*
X29559687Y9117974D01*
X29401562Y9262124D01*
X29212401Y9379247D01*
X29004940Y9459618D01*
X29004939Y9459619D01*
X29004937Y9459619D01*
X28786243Y9500500D01*
X28563757Y9500500D01*
X28345062Y9459619D01*
X28268956Y9430135D01*
X28137599Y9379247D01*
X28051833Y9326143D01*
X27948438Y9262124D01*
X27935975Y9250762D01*
X27784019Y9112236D01*
X27723558Y9032172D01*
X27678504Y8972511D01*
X27628347Y8937468D01*
X27567172Y8938599D01*
X27518346Y8975471D01*
X27500500Y9032172D01*
X27500500Y10293836D01*
X27519407Y10352027D01*
X27529496Y10363840D01*
X27969713Y10804057D01*
X28443788Y11278133D01*
X28498303Y11305908D01*
X28531975Y11305442D01*
X28563757Y11299500D01*
X28563761Y11299500D01*
X28786243Y11299500D01*
X29004940Y11340382D01*
X29212401Y11420753D01*
X29401562Y11537876D01*
X29565981Y11687764D01*
X29700058Y11865311D01*
X29799229Y12064472D01*
X29860115Y12278464D01*
X29880643Y12500000D01*
X29860115Y12721536D01*
X29799229Y12935528D01*
X29700058Y13134689D01*
X29565981Y13312236D01*
X29401562Y13462124D01*
X29212401Y13579247D01*
X29004940Y13659618D01*
X29004939Y13659619D01*
X29004937Y13659619D01*
X28786243Y13700500D01*
X28563757Y13700500D01*
X28345062Y13659619D01*
X28345057Y13659617D01*
X28137599Y13579247D01*
X27948441Y13462126D01*
X27948438Y13462124D01*
X27897504Y13415691D01*
X27784019Y13312236D01*
X27771338Y13295443D01*
X27649943Y13134691D01*
X27649938Y13134682D01*
X27550772Y12935531D01*
X27550771Y12935528D01*
X27529518Y12860832D01*
X27489885Y12721536D01*
X27469357Y12500000D01*
X27483300Y12349523D01*
X27469842Y12289836D01*
X27454726Y12270386D01*
X26480885Y11296543D01*
X26404223Y11181809D01*
X26351420Y11054330D01*
X26351420Y11054328D01*
X26324500Y10918997D01*
X26324500Y10910396D01*
X26321127Y10884773D01*
X26299499Y10804057D01*
X22000500Y10804057D01*
X22000500Y11200500D01*
X22019407Y11258691D01*
X22068907Y11294655D01*
X22099500Y11299500D01*
X24636242Y11299500D01*
X24636243Y11299500D01*
X24727933Y11316641D01*
X24730494Y11317084D01*
X24806118Y11329060D01*
X24815931Y11332249D01*
X24828332Y11335408D01*
X24838746Y11337356D01*
X24854940Y11340382D01*
X24925075Y11367554D01*
X24930224Y11369386D01*
X24985832Y11387453D01*
X25011127Y11400342D01*
X25020306Y11404447D01*
X25062401Y11420753D01*
X25111010Y11450852D01*
X25118170Y11454884D01*
X25154199Y11473240D01*
X25191784Y11500549D01*
X25197822Y11504603D01*
X25251562Y11537876D01*
X25280482Y11564241D01*
X25288965Y11571155D01*
X25307073Y11584310D01*
X25352676Y11629915D01*
X25355918Y11633011D01*
X25415981Y11687764D01*
X25428671Y11704570D01*
X25437662Y11714900D01*
X25440690Y11717927D01*
X25489253Y11784771D01*
X25490191Y11786037D01*
X25550058Y11865311D01*
X25597016Y11959617D01*
X25597361Y11960301D01*
X25637547Y12039168D01*
X25637550Y12039178D01*
X25639037Y12042766D01*
X25639140Y12042723D01*
X25642540Y12051041D01*
X25649229Y12064472D01*
X25673109Y12148405D01*
X25674146Y12151812D01*
X25695940Y12218882D01*
X25698497Y12235035D01*
X25701056Y12246628D01*
X25710115Y12278464D01*
X25716501Y12347394D01*
X25717292Y12353702D01*
X25725500Y12405519D01*
X25725500Y12439918D01*
X25725922Y12449052D01*
X25725969Y12449570D01*
X25730643Y12500000D01*
X25725922Y12550949D01*
X25725500Y12560083D01*
X25725500Y12594482D01*
X25724327Y12601886D01*
X25717292Y12646299D01*
X25716501Y12652608D01*
X25710115Y12721536D01*
X25701053Y12753384D01*
X25698497Y12764973D01*
X25695940Y12781118D01*
X25674149Y12848182D01*
X25673110Y12851591D01*
X25649229Y12935528D01*
X25642541Y12948959D01*
X25639140Y12957278D01*
X25639037Y12957235D01*
X25637546Y12960834D01*
X25636563Y12962763D01*
X25597316Y13039788D01*
X25596970Y13040476D01*
X25556986Y13120775D01*
X25550058Y13134689D01*
X25550052Y13134697D01*
X25490267Y13213866D01*
X25489179Y13215334D01*
X25478067Y13230628D01*
X25440690Y13282073D01*
X25437656Y13285107D01*
X25428663Y13295443D01*
X25415983Y13312234D01*
X25355964Y13366949D01*
X25352657Y13370106D01*
X25307074Y13415689D01*
X25307071Y13415691D01*
X25288979Y13428837D01*
X25280480Y13435764D01*
X25251568Y13462119D01*
X25251559Y13462126D01*
X25197833Y13495392D01*
X25191765Y13499467D01*
X25154199Y13526760D01*
X25154197Y13526761D01*
X25154198Y13526761D01*
X25118183Y13545111D01*
X25111012Y13549149D01*
X25062403Y13579246D01*
X25062398Y13579248D01*
X25020307Y13595555D01*
X25011128Y13599659D01*
X24985835Y13612546D01*
X24930233Y13630613D01*
X24925065Y13632452D01*
X24854941Y13659618D01*
X24854938Y13659619D01*
X24828324Y13664594D01*
X24815927Y13667753D01*
X24806120Y13670940D01*
X24806109Y13670942D01*
X24730570Y13682906D01*
X24727866Y13683373D01*
X24636243Y13700500D01*
X24619481Y13700500D01*
X21005519Y13700500D01*
X21005516Y13700500D01*
X20818886Y13670942D01*
X20639166Y13612547D01*
X20588901Y13586936D01*
X20559447Y13577366D01*
X20518891Y13570942D01*
X20518887Y13570942D01*
X20339167Y13512547D01*
X20170803Y13426762D01*
X20017928Y13315691D01*
X19884309Y13182072D01*
X19773238Y13029197D01*
X19687453Y12860833D01*
X19629058Y12681114D01*
X19599500Y12494485D01*
X19599500Y4805516D01*
X19629058Y4618887D01*
X19687453Y4439168D01*
X19713710Y4387636D01*
X19724500Y4342691D01*
X19724500Y3986495D01*
X19705593Y3928304D01*
X19695504Y3916491D01*
X19283509Y3504496D01*
X19228992Y3476719D01*
X19213505Y3475500D01*
X18199500Y3475500D01*
X18141309Y3494407D01*
X18105345Y3543907D01*
X18100500Y3574500D01*
X18100500Y8839883D01*
X18069977Y8913572D01*
X18069976Y8913573D01*
X18069976Y8913574D01*
X18013574Y8969976D01*
X18013572Y8969977D01*
X18013571Y8969978D01*
X17939883Y9000500D01*
X17939882Y9000500D01*
X15539882Y9000500D01*
X15460118Y9000500D01*
X15460117Y9000500D01*
X15386428Y8969978D01*
X15330022Y8913572D01*
X15299500Y8839883D01*
X15299500Y3574500D01*
X15280593Y3516309D01*
X15231093Y3480345D01*
X15200500Y3475500D01*
X14886495Y3475500D01*
X14828304Y3494407D01*
X14816491Y3504496D01*
X14654569Y3666418D01*
X14630418Y3705830D01*
X14612547Y3760831D01*
X14612547Y3760832D01*
X14526760Y3929199D01*
X14415690Y4082073D01*
X12982074Y5515690D01*
X12829199Y5626760D01*
X12829198Y5626761D01*
X12829196Y5626762D01*
X12660832Y5712547D01*
X12481113Y5770942D01*
X12294484Y5800500D01*
X12294481Y5800500D01*
X5894481Y5800500D01*
X5705519Y5800500D01*
X5705516Y5800500D01*
X5518886Y5770942D01*
X5339167Y5712547D01*
X5170803Y5626762D01*
X5017928Y5515691D01*
X4884309Y5382072D01*
X4773238Y5229197D01*
X4687453Y5060833D01*
X4629058Y4881114D01*
X4599500Y4694485D01*
X4599500Y1905516D01*
X4629058Y1718887D01*
X4687453Y1539168D01*
X4758107Y1400500D01*
X4773240Y1370801D01*
X4884310Y1217927D01*
X5017927Y1084310D01*
X5170801Y973240D01*
X5339168Y887453D01*
X5518882Y829060D01*
X5518883Y829060D01*
X5518886Y829059D01*
X5705516Y799500D01*
X5705519Y799500D01*
X5894484Y799500D01*
X6081113Y829059D01*
X6081114Y829060D01*
X6081118Y829060D01*
X6260832Y887453D01*
X6429199Y973240D01*
X6582073Y1084310D01*
X6715690Y1217927D01*
X6826760Y1370801D01*
X6912547Y1539168D01*
X6970940Y1718882D01*
X7000500Y1905519D01*
X7000500Y3300500D01*
X7019407Y3358691D01*
X7068907Y3394655D01*
X7099500Y3399500D01*
X11661728Y3399500D01*
X11719919Y3380593D01*
X11731732Y3370504D01*
X12717927Y2384310D01*
X12870801Y2273240D01*
X13039168Y2187453D01*
X13089874Y2170978D01*
X13094170Y2169582D01*
X13133582Y2145431D01*
X13579654Y1699359D01*
X13579653Y1699359D01*
X13699353Y1579660D01*
X13699359Y1579654D01*
X13836315Y1480150D01*
X13836317Y1480149D01*
X13870543Y1462710D01*
X13913808Y1419445D01*
X13923379Y1359013D01*
X13895602Y1304497D01*
X13841085Y1276719D01*
X13825598Y1275500D01*
X12063272Y1275500D01*
X12005081Y1294407D01*
X11993268Y1304496D01*
X11203279Y2094485D01*
X10382074Y2915690D01*
X10229199Y3026760D01*
X10229198Y3026761D01*
X10229196Y3026762D01*
X10060832Y3112547D01*
X9881113Y3170942D01*
X9694484Y3200500D01*
X9694481Y3200500D01*
X9505519Y3200500D01*
X9505516Y3200500D01*
X9318886Y3170942D01*
X9139167Y3112547D01*
X8970803Y3026762D01*
X8817927Y2915691D01*
X8684309Y2782073D01*
X8573238Y2629197D01*
X8487453Y2460833D01*
X8429058Y2281114D01*
X8399500Y2094485D01*
X8399500Y1905516D01*
X8429058Y1718887D01*
X8487453Y1539168D01*
X8558107Y1400500D01*
X8573240Y1370801D01*
X8684310Y1217926D01*
X10617926Y-715690D01*
X10770801Y-826760D01*
X10939168Y-912547D01*
X11118882Y-970940D01*
X11118883Y-970940D01*
X11118886Y-970941D01*
X11305514Y-1000499D01*
X11305518Y-1000499D01*
X11494484Y-1000499D01*
X11681113Y-970941D01*
X11681114Y-970940D01*
X11681118Y-970940D01*
X11860832Y-912547D01*
X11912364Y-886289D01*
X11957309Y-875500D01*
X19801943Y-875500D01*
X19860134Y-894407D01*
X19896098Y-943907D01*
X19896098Y-1005093D01*
X19871948Y-1044501D01*
X19845974Y-1070476D01*
X19830022Y-1086428D01*
X19799500Y-1160117D01*
X19799500Y-3081746D01*
X19780593Y-3139937D01*
X19731093Y-3175901D01*
X19700500Y-3180746D01*
X-1014045Y-3180746D01*
X-1014053Y-3180745D01*
X-1062475Y-3180745D01*
X-1068451Y-3180564D01*
X-1348703Y-3163617D01*
X-1360571Y-3162177D01*
X-1633815Y-3112108D01*
X-1645422Y-3109247D01*
X-1910622Y-3026612D01*
X-1921801Y-3022373D01*
X-2175121Y-2908367D01*
X-2185699Y-2902815D01*
X-2396957Y-2775108D01*
X-2423424Y-2759109D01*
X-2433262Y-2752318D01*
X-2651931Y-2581006D01*
X-2660880Y-2573078D01*
X-2857301Y-2376661D01*
X-2865229Y-2367713D01*
X-3036549Y-2149042D01*
X-3043340Y-2139203D01*
X-3187046Y-1901488D01*
X-3192599Y-1890909D01*
X-3306617Y-1637577D01*
X-3310849Y-1626416D01*
X-3393494Y-1361200D01*
X-3396351Y-1349610D01*
X-3446427Y-1076362D01*
X-3447867Y-1064497D01*
X-3464771Y-785031D01*
X-3464952Y-779054D01*
X-3464952Y70868997D01*
X-300500Y70868997D01*
X-300500Y19831005D01*
X-273580Y19695673D01*
X-273580Y19695671D01*
X-220778Y19568194D01*
X-220772Y19568183D01*
X-144115Y19453459D01*
X-46542Y19355886D01*
X68182Y19279229D01*
X68193Y19279223D01*
X115283Y19259718D01*
X195672Y19226420D01*
X331007Y19199500D01*
X331008Y19199500D01*
X468992Y19199500D01*
X468993Y19199500D01*
X604328Y19226420D01*
X731811Y19279225D01*
X846542Y19355886D01*
X944114Y19453458D01*
X1020775Y19568189D01*
X1073580Y19695672D01*
X1100500Y19831007D01*
X1100500Y24400500D01*
X1119407Y24458691D01*
X1168907Y24494655D01*
X1199500Y24499500D01*
X19054621Y24499500D01*
X19112812Y24480593D01*
X19124625Y24470504D01*
X20076743Y23518386D01*
X20191475Y23441725D01*
X20191476Y23441725D01*
X20191477Y23441724D01*
X20220356Y23429762D01*
X20318958Y23388920D01*
X20454292Y23362000D01*
X20454293Y23362000D01*
X25068992Y23362000D01*
X25068993Y23362000D01*
X25204328Y23388920D01*
X25331811Y23441725D01*
X25446542Y23518386D01*
X25511160Y23583004D01*
X25565677Y23610781D01*
X25581164Y23612000D01*
X30647712Y23612000D01*
X30683083Y23604305D01*
X30683153Y23604542D01*
X30686468Y23603569D01*
X30688838Y23603053D01*
X30689943Y23602549D01*
X30689944Y23602549D01*
X30689947Y23602547D01*
X30803939Y23569077D01*
X30828035Y23562001D01*
X30828036Y23562001D01*
X30828039Y23562000D01*
X30828041Y23562000D01*
X30971959Y23562000D01*
X30971961Y23562000D01*
X31110053Y23602547D01*
X31110056Y23602550D01*
X31111162Y23603053D01*
X31113531Y23603569D01*
X31116847Y23604542D01*
X31116916Y23604305D01*
X31152288Y23612000D01*
X36647712Y23612000D01*
X36683083Y23604305D01*
X36683153Y23604542D01*
X36686468Y23603569D01*
X36688838Y23603053D01*
X36689943Y23602549D01*
X36689944Y23602549D01*
X36689947Y23602547D01*
X36803939Y23569077D01*
X36828035Y23562001D01*
X36828036Y23562001D01*
X36828039Y23562000D01*
X36828041Y23562000D01*
X36971959Y23562000D01*
X36971961Y23562000D01*
X37110053Y23602547D01*
X37110056Y23602550D01*
X37111162Y23603053D01*
X37113531Y23603569D01*
X37116847Y23604542D01*
X37116916Y23604305D01*
X37152288Y23612000D01*
X42647712Y23612000D01*
X42683083Y23604305D01*
X42683153Y23604542D01*
X42686468Y23603569D01*
X42688838Y23603053D01*
X42689943Y23602549D01*
X42689944Y23602549D01*
X42689947Y23602547D01*
X42803939Y23569077D01*
X42828035Y23562001D01*
X42828036Y23562001D01*
X42828039Y23562000D01*
X42828041Y23562000D01*
X42971959Y23562000D01*
X42971961Y23562000D01*
X43110053Y23602547D01*
X43110056Y23602550D01*
X43111162Y23603053D01*
X43113531Y23603569D01*
X43116847Y23604542D01*
X43116916Y23604305D01*
X43152288Y23612000D01*
X48647712Y23612000D01*
X48683083Y23604305D01*
X48683153Y23604542D01*
X48686468Y23603569D01*
X48688838Y23603053D01*
X48689943Y23602549D01*
X48689944Y23602549D01*
X48689947Y23602547D01*
X48803939Y23569077D01*
X48828035Y23562001D01*
X48828036Y23562001D01*
X48828039Y23562000D01*
X48828041Y23562000D01*
X48971959Y23562000D01*
X48971961Y23562000D01*
X49110053Y23602547D01*
X49110056Y23602550D01*
X49111162Y23603053D01*
X49113531Y23603569D01*
X49116847Y23604542D01*
X49116916Y23604305D01*
X49152288Y23612000D01*
X54947712Y23612000D01*
X54983083Y23604305D01*
X54983153Y23604542D01*
X54986468Y23603569D01*
X54988838Y23603053D01*
X54989943Y23602549D01*
X54989944Y23602549D01*
X54989947Y23602547D01*
X55103939Y23569077D01*
X55128035Y23562001D01*
X55128036Y23562001D01*
X55128039Y23562000D01*
X55128041Y23562000D01*
X55271959Y23562000D01*
X55271961Y23562000D01*
X55410053Y23602547D01*
X55531128Y23680357D01*
X55625377Y23789127D01*
X55685165Y23920043D01*
X55705647Y24062500D01*
X55685165Y24204957D01*
X55625377Y24335873D01*
X55531128Y24444643D01*
X55531127Y24444644D01*
X55531126Y24444645D01*
X55410057Y24522451D01*
X55410054Y24522453D01*
X55410053Y24522453D01*
X55410050Y24522454D01*
X55271964Y24563000D01*
X55271961Y24563000D01*
X55128039Y24563000D01*
X55128035Y24563000D01*
X54989943Y24522452D01*
X54988838Y24521947D01*
X54986468Y24521432D01*
X54983153Y24520458D01*
X54983083Y24520696D01*
X54947712Y24513000D01*
X49152288Y24513000D01*
X49116916Y24520696D01*
X49116847Y24520458D01*
X49113531Y24521432D01*
X49111162Y24521947D01*
X49110056Y24522452D01*
X49110049Y24522454D01*
X49093605Y24527283D01*
X48971964Y24563000D01*
X48971961Y24563000D01*
X48828039Y24563000D01*
X48828035Y24563000D01*
X48689943Y24522452D01*
X48688838Y24521947D01*
X48686468Y24521432D01*
X48683153Y24520458D01*
X48683083Y24520696D01*
X48647712Y24513000D01*
X43152288Y24513000D01*
X43116916Y24520696D01*
X43116847Y24520458D01*
X43113531Y24521432D01*
X43111162Y24521947D01*
X43110056Y24522452D01*
X43110049Y24522454D01*
X43093605Y24527283D01*
X42971964Y24563000D01*
X42971961Y24563000D01*
X42828039Y24563000D01*
X42828035Y24563000D01*
X42689943Y24522452D01*
X42688838Y24521947D01*
X42686468Y24521432D01*
X42683153Y24520458D01*
X42683083Y24520696D01*
X42647712Y24513000D01*
X37152288Y24513000D01*
X37116916Y24520696D01*
X37116847Y24520458D01*
X37113531Y24521432D01*
X37111162Y24521947D01*
X37110056Y24522452D01*
X37110049Y24522454D01*
X37093605Y24527283D01*
X36971964Y24563000D01*
X36971961Y24563000D01*
X36828039Y24563000D01*
X36828035Y24563000D01*
X36689943Y24522452D01*
X36688838Y24521947D01*
X36686468Y24521432D01*
X36683153Y24520458D01*
X36683083Y24520696D01*
X36647712Y24513000D01*
X31152288Y24513000D01*
X31116916Y24520696D01*
X31116847Y24520458D01*
X31113531Y24521432D01*
X31111162Y24521947D01*
X31110056Y24522452D01*
X31110049Y24522454D01*
X31093605Y24527283D01*
X30971964Y24563000D01*
X30971961Y24563000D01*
X30828039Y24563000D01*
X30828035Y24563000D01*
X30689943Y24522452D01*
X30688838Y24521947D01*
X30686468Y24521432D01*
X30683153Y24520458D01*
X30683083Y24520696D01*
X30647712Y24513000D01*
X25581164Y24513000D01*
X25522973Y24531907D01*
X25511160Y24541996D01*
X25446541Y24606615D01*
X25331817Y24683272D01*
X25331806Y24683278D01*
X25204328Y24736080D01*
X25068995Y24763000D01*
X25068993Y24763000D01*
X24499500Y24763000D01*
X24441309Y24781907D01*
X24405345Y24831407D01*
X24400500Y24862000D01*
X24400500Y33292458D01*
X49173995Y33292458D01*
X49173995Y33145543D01*
X49202655Y33001459D01*
X49202655Y33001457D01*
X49258873Y32865734D01*
X49258873Y32865733D01*
X49290864Y32817856D01*
X49340494Y32743580D01*
X49444375Y32639699D01*
X49566526Y32558080D01*
X49702253Y32501860D01*
X49846340Y32473200D01*
X49846342Y32473200D01*
X49993248Y32473200D01*
X49993250Y32473200D01*
X50137337Y32501860D01*
X50273064Y32558080D01*
X50395215Y32639699D01*
X50499096Y32743580D01*
X50580715Y32865731D01*
X50636935Y33001458D01*
X50665595Y33145545D01*
X50665595Y33292455D01*
X50636935Y33436542D01*
X50599706Y33526421D01*
X50580716Y33572267D01*
X50580716Y33572268D01*
X50560380Y33602702D01*
X50499096Y33694420D01*
X50395215Y33798301D01*
X50273064Y33879920D01*
X50273063Y33879921D01*
X50273061Y33879922D01*
X50137337Y33936140D01*
X49993252Y33964800D01*
X49993250Y33964800D01*
X49846340Y33964800D01*
X49846337Y33964800D01*
X49702253Y33936140D01*
X49702251Y33936140D01*
X49566528Y33879922D01*
X49566527Y33879922D01*
X49444375Y33798301D01*
X49444371Y33798298D01*
X49340497Y33694424D01*
X49340494Y33694420D01*
X49258873Y33572268D01*
X49258873Y33572267D01*
X49202655Y33436544D01*
X49202655Y33436542D01*
X49173995Y33292458D01*
X24400500Y33292458D01*
X24400500Y34668836D01*
X24419407Y34727027D01*
X24429496Y34738840D01*
X26971159Y37280503D01*
X27025676Y37308280D01*
X27041163Y37309499D01*
X28723991Y37309499D01*
X28723992Y37309499D01*
X28859327Y37336419D01*
X28986810Y37389224D01*
X29101541Y37465885D01*
X29199113Y37563457D01*
X29275774Y37678188D01*
X29328579Y37805671D01*
X29355499Y37941006D01*
X29355499Y38078992D01*
X29328579Y38214327D01*
X29304780Y38271783D01*
X29275776Y38341806D01*
X29275770Y38341817D01*
X29199113Y38456541D01*
X29101540Y38554114D01*
X28986816Y38630771D01*
X28986805Y38630777D01*
X28859327Y38683579D01*
X28723994Y38710499D01*
X28723992Y38710499D01*
X26641006Y38710499D01*
X26641003Y38710499D01*
X26532590Y38688935D01*
X26532590Y38688934D01*
X26519130Y38686257D01*
X26505669Y38683579D01*
X26481031Y38673373D01*
X26378188Y38630775D01*
X26287382Y38570099D01*
X26287381Y38570098D01*
X26263459Y38554115D01*
X23155883Y35446540D01*
X23103532Y35368189D01*
X23103531Y35368188D01*
X23079228Y35331818D01*
X23079222Y35331807D01*
X23026420Y35204330D01*
X23026420Y35204328D01*
X22999500Y35068996D01*
X22999500Y24862000D01*
X22980593Y24803809D01*
X22931093Y24767845D01*
X22900500Y24763000D01*
X20854451Y24763000D01*
X20796260Y24781907D01*
X20784447Y24791996D01*
X20714443Y24862000D01*
X19832329Y25744114D01*
X19717597Y25820775D01*
X19717596Y25820776D01*
X19717594Y25820777D01*
X19590114Y25873580D01*
X19454782Y25900500D01*
X19454780Y25900500D01*
X19454779Y25900500D01*
X1199500Y25900500D01*
X1141309Y25919407D01*
X1105345Y25968907D01*
X1100500Y25999500D01*
X1100500Y36983796D01*
X1413013Y36983796D01*
X1413013Y36816257D01*
X1445696Y36651947D01*
X1445698Y36651941D01*
X1509809Y36497164D01*
X1509810Y36497163D01*
X1602887Y36357864D01*
X1721351Y36239400D01*
X1860650Y36146323D01*
X2015431Y36082210D01*
X2179746Y36049526D01*
X2179747Y36049526D01*
X2347279Y36049526D01*
X2347280Y36049526D01*
X2511595Y36082210D01*
X2666376Y36146323D01*
X2805675Y36239400D01*
X2924139Y36357864D01*
X3017216Y36497163D01*
X3081329Y36651944D01*
X3114013Y36816259D01*
X3114013Y36983793D01*
X3081329Y37148108D01*
X3017216Y37302889D01*
X2924139Y37442188D01*
X2805675Y37560652D01*
X2712597Y37622845D01*
X2666375Y37653730D01*
X2511598Y37717841D01*
X2511592Y37717843D01*
X2347282Y37750526D01*
X2347280Y37750526D01*
X2179746Y37750526D01*
X2179743Y37750526D01*
X2015433Y37717843D01*
X2015427Y37717841D01*
X1860650Y37653730D01*
X1721351Y37560652D01*
X1721347Y37560649D01*
X1602890Y37442192D01*
X1602887Y37442188D01*
X1509809Y37302889D01*
X1445698Y37148112D01*
X1445696Y37148106D01*
X1413013Y36983796D01*
X1100500Y36983796D01*
X1100500Y41068996D01*
X11099500Y41068996D01*
X11099500Y40931005D01*
X11126420Y40795673D01*
X11126420Y40795671D01*
X11179222Y40668194D01*
X11179228Y40668183D01*
X11255885Y40553459D01*
X11353458Y40455886D01*
X11468182Y40379229D01*
X11468193Y40379223D01*
X11515283Y40359718D01*
X11595672Y40326420D01*
X11731007Y40299500D01*
X16000500Y40299500D01*
X16058691Y40280593D01*
X16094655Y40231093D01*
X16099500Y40200500D01*
X16099500Y37501069D01*
X16126420Y37365737D01*
X16126420Y37365735D01*
X16179222Y37238258D01*
X16179228Y37238247D01*
X16255885Y37123523D01*
X16353458Y37025950D01*
X16468182Y36949293D01*
X16468193Y36949287D01*
X16515283Y36929782D01*
X16595672Y36896484D01*
X16731007Y36869564D01*
X16731008Y36869564D01*
X21439057Y36869564D01*
X21439058Y36869564D01*
X21574392Y36896484D01*
X21701875Y36949289D01*
X21816607Y37025950D01*
X23761160Y38970505D01*
X23815677Y38998281D01*
X23831164Y38999500D01*
X24131007Y38999500D01*
X36800500Y38999500D01*
X36858691Y38980593D01*
X36894655Y38931093D01*
X36899500Y38900500D01*
X36899500Y34149246D01*
X36926420Y34013915D01*
X36926420Y34013913D01*
X36979223Y33886434D01*
X36979224Y33886432D01*
X36979225Y33886431D01*
X37055886Y33771699D01*
X37171699Y33655886D01*
X37286431Y33579225D01*
X37286432Y33579225D01*
X37286433Y33579224D01*
X37311126Y33568996D01*
X37413914Y33526420D01*
X37549248Y33499500D01*
X37549249Y33499500D01*
X40068993Y33499500D01*
X40068994Y33499500D01*
X40204328Y33526420D01*
X40331811Y33579225D01*
X40446543Y33655886D01*
X40755457Y33964800D01*
X40861162Y34070504D01*
X40915678Y34098281D01*
X40931165Y34099500D01*
X47768993Y34099500D01*
X47768994Y34099500D01*
X47904328Y34126420D01*
X48031811Y34179225D01*
X48146543Y34255886D01*
X48199115Y34308458D01*
X54253995Y34308458D01*
X54253995Y34161543D01*
X54282655Y34017459D01*
X54282655Y34017457D01*
X54338873Y33881734D01*
X54338873Y33881733D01*
X54372232Y33831809D01*
X54420494Y33759580D01*
X54524375Y33655699D01*
X54646526Y33574080D01*
X54646527Y33574080D01*
X54646528Y33574079D01*
X54650903Y33572267D01*
X54782253Y33517860D01*
X54926340Y33489200D01*
X54926342Y33489200D01*
X55073248Y33489200D01*
X55073250Y33489200D01*
X55217337Y33517860D01*
X55353064Y33574080D01*
X55475215Y33655699D01*
X55579096Y33759580D01*
X55660715Y33881731D01*
X55716935Y34017458D01*
X55745595Y34161545D01*
X55745595Y34308455D01*
X55716935Y34452542D01*
X55660716Y34588267D01*
X55660716Y34588268D01*
X55640380Y34618702D01*
X55579096Y34710420D01*
X55475215Y34814301D01*
X55353064Y34895920D01*
X55353063Y34895921D01*
X55353061Y34895922D01*
X55217337Y34952140D01*
X55073252Y34980800D01*
X55073250Y34980800D01*
X54926340Y34980800D01*
X54926337Y34980800D01*
X54782253Y34952140D01*
X54782251Y34952140D01*
X54646528Y34895922D01*
X54646527Y34895922D01*
X54524375Y34814301D01*
X54524371Y34814298D01*
X54420497Y34710424D01*
X54420494Y34710420D01*
X54338873Y34588268D01*
X54338873Y34588267D01*
X54282655Y34452544D01*
X54282655Y34452542D01*
X54253995Y34308458D01*
X48199115Y34308458D01*
X49025476Y35134820D01*
X49079991Y35162595D01*
X49140423Y35153024D01*
X49183688Y35109759D01*
X49192576Y35084128D01*
X49202655Y35033459D01*
X49202655Y35033457D01*
X49258873Y34897734D01*
X49258873Y34897733D01*
X49299544Y34836866D01*
X49340494Y34775580D01*
X49444375Y34671699D01*
X49566526Y34590080D01*
X49566527Y34590080D01*
X49566528Y34590079D01*
X49570903Y34588267D01*
X49702253Y34533860D01*
X49846340Y34505200D01*
X49846342Y34505200D01*
X49993248Y34505200D01*
X49993250Y34505200D01*
X50137337Y34533860D01*
X50273064Y34590080D01*
X50395215Y34671699D01*
X50499096Y34775580D01*
X50580715Y34897731D01*
X50636935Y35033458D01*
X50665595Y35177545D01*
X50665595Y35324455D01*
X50636935Y35468542D01*
X50580716Y35604267D01*
X50580716Y35604268D01*
X50557167Y35639511D01*
X50499096Y35726420D01*
X50395215Y35830301D01*
X50273064Y35911920D01*
X50273063Y35911921D01*
X50273061Y35911922D01*
X50137337Y35968140D01*
X50086667Y35978219D01*
X50033283Y36008116D01*
X50007667Y36063681D01*
X50019604Y36123691D01*
X50035974Y36145318D01*
X52324199Y38433544D01*
X52339195Y38445850D01*
X52354218Y38455886D01*
X52587267Y38688935D01*
X52668837Y38770504D01*
X52723353Y38798281D01*
X52738840Y38799500D01*
X60700500Y38799500D01*
X60758691Y38780593D01*
X60794655Y38731093D01*
X60799500Y38700500D01*
X60799500Y35631004D01*
X60826420Y35495673D01*
X60826420Y35495671D01*
X60879223Y35368192D01*
X60903534Y35331807D01*
X60955886Y35253457D01*
X62970505Y33238838D01*
X62998281Y33184323D01*
X62999500Y33168836D01*
X62999500Y30931005D01*
X63026420Y30795673D01*
X63026420Y30795671D01*
X63079222Y30668194D01*
X63079228Y30668183D01*
X63155885Y30553459D01*
X63253458Y30455886D01*
X63368182Y30379229D01*
X63368193Y30379223D01*
X63415283Y30359718D01*
X63495672Y30326420D01*
X63631007Y30299500D01*
X69068835Y30299500D01*
X69127026Y30280593D01*
X69138839Y30270504D01*
X70270504Y29138839D01*
X70298281Y29084322D01*
X70299500Y29068835D01*
X70299500Y26931005D01*
X70326420Y26795673D01*
X70326420Y26795671D01*
X70379222Y26668194D01*
X70379228Y26668183D01*
X70455885Y26553459D01*
X70553458Y26455886D01*
X70668182Y26379229D01*
X70668193Y26379223D01*
X70715283Y26359718D01*
X70795672Y26326420D01*
X70931007Y26299500D01*
X70931008Y26299500D01*
X71068992Y26299500D01*
X71068993Y26299500D01*
X71204328Y26326420D01*
X71331811Y26379225D01*
X71446542Y26455886D01*
X71544114Y26553458D01*
X71620775Y26668189D01*
X71673580Y26795672D01*
X71700500Y26931007D01*
X71700500Y29468993D01*
X71673580Y29604328D01*
X71620775Y29731811D01*
X71544114Y29846543D01*
X69846543Y31544114D01*
X69731811Y31620775D01*
X69731810Y31620776D01*
X69731808Y31620777D01*
X69604328Y31673580D01*
X69468996Y31700500D01*
X69468994Y31700500D01*
X69468993Y31700500D01*
X64499500Y31700500D01*
X64441309Y31719407D01*
X64405345Y31768907D01*
X64400500Y31799500D01*
X64400500Y33568996D01*
X64399849Y33572266D01*
X64399846Y33572279D01*
X64397884Y33582143D01*
X64373580Y33704328D01*
X64345672Y33771703D01*
X64320776Y33831809D01*
X64244116Y33946540D01*
X64244114Y33946543D01*
X62229496Y35961161D01*
X62201719Y36015678D01*
X62200500Y36031165D01*
X62200500Y38400003D01*
X70494353Y38400003D01*
X70494353Y38399998D01*
X70514834Y38257544D01*
X70574623Y38126627D01*
X70673509Y38012506D01*
X70671471Y38010741D01*
X70696925Y37968542D01*
X70699500Y37946107D01*
X70699500Y33453895D01*
X70680593Y33395704D01*
X70673258Y33387711D01*
X70673509Y33387494D01*
X70574622Y33273372D01*
X70514834Y33142457D01*
X70494353Y33000003D01*
X70494353Y32999998D01*
X70514834Y32857544D01*
X70566880Y32743581D01*
X70574623Y32726627D01*
X70649945Y32639700D01*
X70668873Y32617856D01*
X70789942Y32540050D01*
X70789947Y32540047D01*
X70896403Y32508789D01*
X70928035Y32499501D01*
X70928036Y32499501D01*
X70928039Y32499500D01*
X70928041Y32499500D01*
X71071959Y32499500D01*
X71071961Y32499500D01*
X71210053Y32540047D01*
X71331128Y32617857D01*
X71425377Y32726627D01*
X71485165Y32857543D01*
X71505647Y33000000D01*
X71505437Y33001458D01*
X71485165Y33142457D01*
X71466045Y33184323D01*
X71425377Y33273373D01*
X71331128Y33382143D01*
X71331127Y33382144D01*
X71326491Y33387494D01*
X71328524Y33389257D01*
X71303067Y33431495D01*
X71300500Y33453895D01*
X71300500Y37946107D01*
X71319407Y38004298D01*
X71326741Y38012289D01*
X71326491Y38012506D01*
X71425681Y38126978D01*
X71478077Y38158574D01*
X71539037Y38153338D01*
X71585278Y38113271D01*
X71599500Y38062147D01*
X71599500Y33560436D01*
X71619978Y33484012D01*
X71619979Y33484010D01*
X71626119Y33473376D01*
X71626120Y33473374D01*
X71659541Y33415488D01*
X71769453Y33305575D01*
X71797230Y33251059D01*
X71797441Y33221486D01*
X71794354Y33200003D01*
X71794353Y33199998D01*
X71814834Y33057544D01*
X71840448Y33001459D01*
X71874623Y32926627D01*
X71968872Y32817857D01*
X71968873Y32817856D01*
X72084454Y32743577D01*
X72089947Y32740047D01*
X72196403Y32708789D01*
X72228035Y32699501D01*
X72228036Y32699501D01*
X72228039Y32699500D01*
X72228041Y32699500D01*
X72371959Y32699500D01*
X72371961Y32699500D01*
X72510053Y32740047D01*
X72631128Y32817857D01*
X72725377Y32926627D01*
X72785165Y33057543D01*
X72797818Y33145548D01*
X72805647Y33199998D01*
X72805647Y33200003D01*
X72785165Y33342457D01*
X72763792Y33389257D01*
X72725377Y33473373D01*
X72631128Y33582143D01*
X72631127Y33582144D01*
X72631126Y33582145D01*
X72510057Y33659951D01*
X72510054Y33659953D01*
X72510053Y33659953D01*
X72510050Y33659954D01*
X72371964Y33700500D01*
X72371961Y33700500D01*
X72299500Y33700500D01*
X72241309Y33719407D01*
X72205345Y33768907D01*
X72200500Y33799500D01*
X72200500Y38646107D01*
X72219407Y38704298D01*
X72226741Y38712289D01*
X72226491Y38712506D01*
X72231128Y38717857D01*
X72325377Y38826627D01*
X72385165Y38957543D01*
X72391992Y39005029D01*
X72405647Y39099998D01*
X72405647Y39100003D01*
X72385165Y39242457D01*
X72325377Y39373373D01*
X72231128Y39482143D01*
X72231127Y39482144D01*
X72231126Y39482145D01*
X72110057Y39559951D01*
X72110054Y39559953D01*
X72110053Y39559953D01*
X72110050Y39559954D01*
X71971964Y39600500D01*
X71971961Y39600500D01*
X71828039Y39600500D01*
X71828035Y39600500D01*
X71689949Y39559954D01*
X71689942Y39559951D01*
X71568873Y39482145D01*
X71474622Y39373372D01*
X71414834Y39242457D01*
X71394353Y39100003D01*
X71394353Y39099998D01*
X71414834Y38957544D01*
X71422923Y38939832D01*
X71429898Y38879045D01*
X71399812Y38825768D01*
X71344156Y38800350D01*
X71284189Y38812501D01*
X71279347Y38815421D01*
X71210057Y38859951D01*
X71210054Y38859953D01*
X71210053Y38859953D01*
X71210050Y38859954D01*
X71071964Y38900500D01*
X71071961Y38900500D01*
X70928039Y38900500D01*
X70928035Y38900500D01*
X70789949Y38859954D01*
X70789942Y38859951D01*
X70668873Y38782145D01*
X70574622Y38673372D01*
X70514834Y38542457D01*
X70494353Y38400003D01*
X62200500Y38400003D01*
X62200500Y38700500D01*
X62219407Y38758691D01*
X62268907Y38794655D01*
X62299500Y38799500D01*
X68768993Y38799500D01*
X68768994Y38799500D01*
X68904328Y38826420D01*
X69031811Y38879225D01*
X69146543Y38955886D01*
X70344114Y40153457D01*
X70420775Y40268189D01*
X70473580Y40395672D01*
X70500500Y40531006D01*
X70500500Y40668994D01*
X70500500Y45468993D01*
X70500500Y48668835D01*
X70519407Y48727026D01*
X70529496Y48738839D01*
X71061161Y49270504D01*
X71115678Y49298281D01*
X71131165Y49299500D01*
X72783258Y49299500D01*
X72783259Y49299500D01*
X72918593Y49326420D01*
X73046076Y49379225D01*
X73160808Y49455886D01*
X74144113Y50439192D01*
X74144259Y50439412D01*
X74154349Y50454509D01*
X74190551Y50508691D01*
X74220775Y50553924D01*
X74273580Y50681407D01*
X74300500Y50816742D01*
X74300500Y59468993D01*
X74273580Y59604328D01*
X74271295Y59609843D01*
X74269289Y59614687D01*
X74269287Y59614691D01*
X74235744Y59695671D01*
X74235744Y59695672D01*
X74220775Y59731811D01*
X74220773Y59731814D01*
X74220771Y59731818D01*
X74144114Y59846542D01*
X73221660Y60768996D01*
X72246543Y61744114D01*
X72131811Y61820775D01*
X72131810Y61820776D01*
X72131808Y61820777D01*
X72004328Y61873580D01*
X71868996Y61900500D01*
X71868994Y61900500D01*
X71868993Y61900500D01*
X58781163Y61900500D01*
X58722972Y61919407D01*
X58711159Y61929497D01*
X58346548Y62294110D01*
X58346542Y62294115D01*
X58231808Y62370777D01*
X58205608Y62381629D01*
X58159082Y62421365D01*
X58144798Y62480860D01*
X58168213Y62537388D01*
X58217870Y62568719D01*
X58235288Y62573386D01*
X58235474Y62573494D01*
X58235519Y62573504D01*
X58235513Y62573515D01*
X58286039Y62602688D01*
X58315212Y62619530D01*
X58597509Y62901827D01*
X58716187Y63020504D01*
X58770703Y63048281D01*
X58786190Y63049500D01*
X60246142Y63049500D01*
X60246144Y63049500D01*
X60335288Y63073386D01*
X60346777Y63080020D01*
X60346779Y63080020D01*
X60365115Y63090607D01*
X60415212Y63119530D01*
X61130470Y63834788D01*
X61176614Y63914712D01*
X61200500Y64003856D01*
X61200500Y64096144D01*
X61200500Y71396144D01*
X61176614Y71485288D01*
X61130469Y71565212D01*
X61113535Y71582146D01*
X61065212Y71630470D01*
X61065212Y71630469D01*
X59415212Y73280470D01*
X59415209Y73280472D01*
X59335291Y73326613D01*
X59335287Y73326615D01*
X59329931Y73328050D01*
X59274072Y73343017D01*
X59246144Y73350500D01*
X59246143Y73350500D01*
X51236190Y73350500D01*
X51177999Y73369407D01*
X51166186Y73379496D01*
X49819053Y74726629D01*
X48265212Y76280470D01*
X48265209Y76280472D01*
X48185291Y76326613D01*
X48185287Y76326615D01*
X48179931Y76328050D01*
X48124072Y76343017D01*
X48096144Y76350500D01*
X48096143Y76350500D01*
X43003759Y76350500D01*
X42945568Y76369407D01*
X42936596Y76377641D01*
X42936480Y76377506D01*
X42931128Y76382144D01*
X42810057Y76459951D01*
X42810054Y76459953D01*
X42810053Y76459953D01*
X42810050Y76459954D01*
X42671964Y76500500D01*
X42671961Y76500500D01*
X42528039Y76500500D01*
X42528035Y76500500D01*
X42389949Y76459954D01*
X42389942Y76459951D01*
X42268873Y76382145D01*
X42174622Y76273372D01*
X42114834Y76142457D01*
X42094353Y76000003D01*
X42094353Y75999998D01*
X42114834Y75857544D01*
X42174622Y75726629D01*
X42174623Y75726627D01*
X42268872Y75617857D01*
X42268873Y75617856D01*
X42326078Y75581093D01*
X42389947Y75540047D01*
X42496403Y75508789D01*
X42528035Y75499501D01*
X42528036Y75499501D01*
X42528039Y75499500D01*
X42528041Y75499500D01*
X42671959Y75499500D01*
X42671961Y75499500D01*
X42810053Y75540047D01*
X42931128Y75617857D01*
X42936480Y75622494D01*
X42937968Y75620777D01*
X42981341Y75646928D01*
X43003759Y75649500D01*
X43549902Y75649500D01*
X43608093Y75630593D01*
X43644057Y75581093D01*
X43644057Y75519907D01*
X43608093Y75470407D01*
X43591026Y75460446D01*
X43589946Y75459954D01*
X43468876Y75382146D01*
X43468871Y75382142D01*
X43427736Y75334669D01*
X43375340Y75303073D01*
X43352917Y75300500D01*
X40184076Y75300500D01*
X40107652Y75280022D01*
X40107648Y75280020D01*
X40039132Y75240462D01*
X37915489Y73116819D01*
X37915488Y73116820D01*
X37859539Y73060870D01*
X37819980Y72992352D01*
X37819978Y72992348D01*
X37799500Y72915924D01*
X37799500Y72553895D01*
X37780593Y72495704D01*
X37773258Y72487711D01*
X37773509Y72487494D01*
X37768872Y72482144D01*
X37768872Y72482143D01*
X37758787Y72470504D01*
X37674622Y72373372D01*
X37614834Y72242457D01*
X37594353Y72100003D01*
X37594353Y72099998D01*
X37614834Y71957544D01*
X37663720Y71850500D01*
X37674623Y71826627D01*
X37768872Y71717857D01*
X37823447Y71682784D01*
X37862178Y71635418D01*
X37865671Y71574332D01*
X37832591Y71522860D01*
X37775575Y71500661D01*
X37769923Y71500500D01*
X37419253Y71500500D01*
X37361062Y71519407D01*
X37344434Y71534669D01*
X37303298Y71582143D01*
X37248138Y71617592D01*
X37182227Y71659951D01*
X37182224Y71659953D01*
X37182223Y71659953D01*
X37182220Y71659954D01*
X37044134Y71700500D01*
X37044131Y71700500D01*
X36900209Y71700500D01*
X36900205Y71700500D01*
X36762119Y71659954D01*
X36762112Y71659951D01*
X36641043Y71582145D01*
X36546792Y71473372D01*
X36487004Y71342457D01*
X36466523Y71200003D01*
X36466523Y71199998D01*
X36487004Y71057544D01*
X36531762Y70959540D01*
X36546793Y70926627D01*
X36630440Y70830093D01*
X36641043Y70817856D01*
X36758367Y70742457D01*
X36762117Y70740047D01*
X36868573Y70708789D01*
X36900205Y70699501D01*
X36900206Y70699501D01*
X36900209Y70699500D01*
X36900211Y70699500D01*
X37044129Y70699500D01*
X37044131Y70699500D01*
X37182223Y70740047D01*
X37303298Y70817857D01*
X37344434Y70865332D01*
X37396830Y70896927D01*
X37419253Y70899500D01*
X38239563Y70899500D01*
X38239563Y70899501D01*
X38315989Y70919979D01*
X38384511Y70959540D01*
X38440460Y71015489D01*
X39067623Y71642653D01*
X39122138Y71670428D01*
X39182570Y71660857D01*
X39225835Y71617592D01*
X39235406Y71557160D01*
X39227679Y71531521D01*
X39187003Y71442455D01*
X39166523Y71300003D01*
X39166523Y71299998D01*
X39187004Y71157544D01*
X39232674Y71057543D01*
X39246793Y71026627D01*
X39341042Y70917857D01*
X39395617Y70882784D01*
X39434348Y70835418D01*
X39437841Y70774332D01*
X39404761Y70722860D01*
X39347745Y70700661D01*
X39342093Y70700500D01*
X39260435Y70700500D01*
X39184011Y70680022D01*
X39184007Y70680020D01*
X39115491Y70640462D01*
X35715489Y67240460D01*
X35715488Y67240461D01*
X35659539Y67184511D01*
X35619980Y67115993D01*
X35619978Y67115989D01*
X35599500Y67039565D01*
X35599500Y65065479D01*
X35580593Y65007288D01*
X35570504Y64995475D01*
X35229528Y64654499D01*
X35175011Y64626722D01*
X35159524Y64625503D01*
X34647083Y64625503D01*
X34588892Y64644410D01*
X34572264Y64659672D01*
X34531128Y64707146D01*
X34456666Y64755000D01*
X34410057Y64784954D01*
X34410054Y64784956D01*
X34410053Y64784956D01*
X34410050Y64784957D01*
X34271964Y64825503D01*
X34271961Y64825503D01*
X34128039Y64825503D01*
X34128035Y64825503D01*
X33989949Y64784957D01*
X33989942Y64784954D01*
X33868873Y64707148D01*
X33774622Y64598375D01*
X33714834Y64467460D01*
X33694353Y64325006D01*
X33694353Y64325001D01*
X33714834Y64182547D01*
X33757439Y64089257D01*
X33774623Y64051630D01*
X33868870Y63942862D01*
X33868873Y63942859D01*
X33949583Y63890990D01*
X33989947Y63865050D01*
X34066893Y63842457D01*
X34128035Y63824504D01*
X34128036Y63824504D01*
X34128039Y63824503D01*
X34128041Y63824503D01*
X34271959Y63824503D01*
X34271961Y63824503D01*
X34410053Y63865050D01*
X34531128Y63942860D01*
X34572264Y63990335D01*
X34624660Y64021930D01*
X34647083Y64024503D01*
X35364566Y64024503D01*
X35364566Y64024504D01*
X35440992Y64044982D01*
X35509514Y64084543D01*
X35548920Y64123949D01*
X35565464Y64140492D01*
X36030496Y64605525D01*
X36085013Y64633303D01*
X36145445Y64623732D01*
X36188710Y64580467D01*
X36199500Y64535522D01*
X36199500Y64265479D01*
X36180593Y64207288D01*
X36170504Y64195475D01*
X35304525Y63329496D01*
X35250008Y63301719D01*
X35234521Y63300500D01*
X34647083Y63300500D01*
X34588892Y63319407D01*
X34572264Y63334669D01*
X34531128Y63382143D01*
X34490119Y63408498D01*
X34410057Y63459951D01*
X34410054Y63459953D01*
X34410053Y63459953D01*
X34405350Y63461334D01*
X34271964Y63500500D01*
X34271961Y63500500D01*
X34128039Y63500500D01*
X34128035Y63500500D01*
X33989949Y63459954D01*
X33989942Y63459951D01*
X33868873Y63382145D01*
X33774622Y63273372D01*
X33714834Y63142457D01*
X33694353Y63000003D01*
X33694353Y62999998D01*
X33714834Y62857544D01*
X33753275Y62773372D01*
X33774623Y62726627D01*
X33827736Y62665331D01*
X33868873Y62617856D01*
X33989942Y62540050D01*
X33989947Y62540047D01*
X34096403Y62508789D01*
X34128035Y62499501D01*
X34128036Y62499501D01*
X34128039Y62499500D01*
X34128041Y62499500D01*
X34271959Y62499500D01*
X34271961Y62499500D01*
X34410053Y62540047D01*
X34531128Y62617857D01*
X34572264Y62665332D01*
X34624660Y62696927D01*
X34647083Y62699500D01*
X35439563Y62699500D01*
X35439563Y62699501D01*
X35515989Y62719979D01*
X35584511Y62759540D01*
X35612485Y62787515D01*
X35640461Y62815489D01*
X36353421Y63528451D01*
X36407938Y63556229D01*
X36468370Y63546658D01*
X36511635Y63503393D01*
X36513478Y63499575D01*
X36542387Y63436275D01*
X36546793Y63426627D01*
X36630957Y63329496D01*
X36641043Y63317856D01*
X36762112Y63240050D01*
X36762117Y63240047D01*
X36868573Y63208789D01*
X36900205Y63199501D01*
X36900206Y63199501D01*
X36900209Y63199500D01*
X36900211Y63199500D01*
X37044129Y63199500D01*
X37044131Y63199500D01*
X37182223Y63240047D01*
X37303298Y63317857D01*
X37397547Y63426627D01*
X37457335Y63557543D01*
X37477817Y63700000D01*
X37470556Y63750500D01*
X37457335Y63842457D01*
X37405413Y63956148D01*
X37397547Y63973373D01*
X37303298Y64082143D01*
X37303297Y64082144D01*
X37298661Y64087494D01*
X37300694Y64089257D01*
X37275237Y64131495D01*
X37272670Y64153895D01*
X37272670Y64542235D01*
X37291577Y64600426D01*
X37341077Y64636390D01*
X37399558Y64637225D01*
X37528039Y64599500D01*
X37528041Y64599500D01*
X37671959Y64599500D01*
X37671961Y64599500D01*
X37810053Y64640047D01*
X37931128Y64717857D01*
X38025377Y64826627D01*
X38085165Y64957543D01*
X38105647Y65100000D01*
X38105575Y65100500D01*
X38085165Y65242457D01*
X38068250Y65279496D01*
X38025377Y65373373D01*
X37931128Y65482143D01*
X37931127Y65482144D01*
X37926491Y65487494D01*
X37928524Y65489257D01*
X37903067Y65531495D01*
X37900500Y65553895D01*
X37900500Y66508051D01*
X37919407Y66566242D01*
X37929490Y66578049D01*
X38863665Y67512225D01*
X38918180Y67540000D01*
X38978612Y67530429D01*
X39021877Y67487164D01*
X39023720Y67483345D01*
X39049621Y67426630D01*
X39049622Y67426629D01*
X39049623Y67426627D01*
X39107754Y67359540D01*
X39143873Y67317856D01*
X39264304Y67240460D01*
X39264947Y67240047D01*
X39371403Y67208789D01*
X39403035Y67199501D01*
X39403036Y67199501D01*
X39403039Y67199500D01*
X39403041Y67199500D01*
X39546959Y67199500D01*
X39546961Y67199500D01*
X39567742Y67205602D01*
X39628901Y67203855D01*
X39677354Y67166493D01*
X39694593Y67107786D01*
X39674032Y67050159D01*
X39665637Y67040608D01*
X38954524Y66329496D01*
X38900007Y66301719D01*
X38884520Y66300500D01*
X38778035Y66300500D01*
X38639949Y66259954D01*
X38639942Y66259951D01*
X38518873Y66182145D01*
X38424622Y66073372D01*
X38364834Y65942457D01*
X38344353Y65800003D01*
X38344353Y65799998D01*
X38364834Y65657544D01*
X38418493Y65540050D01*
X38424623Y65526627D01*
X38518872Y65417857D01*
X38518873Y65417856D01*
X38588092Y65373372D01*
X38639947Y65340047D01*
X38746403Y65308789D01*
X38778035Y65299501D01*
X38778036Y65299501D01*
X38778039Y65299500D01*
X38778041Y65299500D01*
X38921959Y65299500D01*
X38921961Y65299500D01*
X39060053Y65340047D01*
X39181128Y65417857D01*
X39275377Y65526627D01*
X39335165Y65657543D01*
X39349177Y65755000D01*
X39355647Y65799998D01*
X39355647Y65800000D01*
X39352558Y65821482D01*
X39362990Y65881772D01*
X39380547Y65905577D01*
X39945476Y66470504D01*
X39999992Y66498281D01*
X40015479Y66499500D01*
X40303783Y66499500D01*
X40361974Y66480593D01*
X40397938Y66431093D01*
X40397938Y66369907D01*
X40378602Y66335669D01*
X40324623Y66273374D01*
X40264834Y66142457D01*
X40244353Y66000003D01*
X40244353Y65999998D01*
X40264834Y65857544D01*
X40324451Y65727003D01*
X40324623Y65726627D01*
X40418870Y65617859D01*
X40418873Y65617856D01*
X40518399Y65553895D01*
X40539947Y65540047D01*
X40646403Y65508789D01*
X40678035Y65499501D01*
X40678036Y65499501D01*
X40678039Y65499500D01*
X40678041Y65499500D01*
X40821959Y65499500D01*
X40821961Y65499500D01*
X40960053Y65540047D01*
X41081128Y65617857D01*
X41122264Y65665332D01*
X41174660Y65696927D01*
X41197083Y65699500D01*
X41741808Y65699500D01*
X41741854Y65699485D01*
X41842050Y65699475D01*
X41842050Y65699476D01*
X41842056Y65699475D01*
X41957526Y65725822D01*
X42064236Y65777207D01*
X42155632Y65850097D01*
X42212914Y65871596D01*
X42271895Y65855320D01*
X42310044Y65807484D01*
X42312993Y65798287D01*
X42332068Y65727003D01*
X42328846Y65665903D01*
X42306437Y65631409D01*
X41954523Y65279496D01*
X41900008Y65251719D01*
X41884521Y65250500D01*
X41778035Y65250500D01*
X41639949Y65209954D01*
X41639942Y65209951D01*
X41518873Y65132145D01*
X41424622Y65023372D01*
X41364834Y64892457D01*
X41344353Y64750003D01*
X41344353Y64749998D01*
X41364834Y64607544D01*
X41394660Y64542235D01*
X41424623Y64476627D01*
X41518872Y64367857D01*
X41518873Y64367856D01*
X41585554Y64325003D01*
X41639947Y64290047D01*
X41723619Y64265479D01*
X41778035Y64249501D01*
X41778036Y64249501D01*
X41778039Y64249500D01*
X41778041Y64249500D01*
X41921959Y64249500D01*
X41921961Y64249500D01*
X42060053Y64290047D01*
X42181128Y64367857D01*
X42275377Y64476627D01*
X42335165Y64607543D01*
X42347016Y64689968D01*
X42355647Y64749998D01*
X42355647Y64750002D01*
X42352558Y64771484D01*
X42362991Y64831773D01*
X42380543Y64855574D01*
X42595475Y65070504D01*
X42649991Y65098281D01*
X42665478Y65099500D01*
X43121029Y65099500D01*
X43179220Y65080593D01*
X43215184Y65031093D01*
X43217551Y65022511D01*
X43243113Y64910417D01*
X43243239Y64910057D01*
X43243243Y64909845D01*
X43244349Y64904998D01*
X43243356Y64904772D01*
X43244599Y64848887D01*
X43209745Y64798600D01*
X43151989Y64778403D01*
X43149788Y64778379D01*
X42963314Y64778379D01*
X42886891Y64757901D01*
X42845513Y64734011D01*
X42845512Y64734012D01*
X42818369Y64718340D01*
X42115489Y64015460D01*
X42115488Y64015461D01*
X42059539Y63959511D01*
X42019980Y63890993D01*
X42019979Y63890990D01*
X42005282Y63836144D01*
X41973650Y63787437D01*
X41974221Y63786778D01*
X41968874Y63782146D01*
X41874622Y63673372D01*
X41814834Y63542457D01*
X41794353Y63400003D01*
X41794353Y63399998D01*
X41814834Y63257544D01*
X41872338Y63131631D01*
X41874623Y63126627D01*
X41968872Y63017857D01*
X41968873Y63017856D01*
X42084314Y62943667D01*
X42089947Y62940047D01*
X42196403Y62908789D01*
X42228035Y62899501D01*
X42228036Y62899501D01*
X42228039Y62899500D01*
X42228041Y62899500D01*
X42371959Y62899500D01*
X42371961Y62899500D01*
X42510053Y62940047D01*
X42631128Y63017857D01*
X42725377Y63126627D01*
X42785165Y63257543D01*
X42799604Y63357971D01*
X42805647Y63399998D01*
X42805647Y63400003D01*
X42785165Y63542457D01*
X42722436Y63679813D01*
X42725245Y63681097D01*
X42713036Y63727551D01*
X42735235Y63784567D01*
X42741871Y63791901D01*
X42906119Y63956148D01*
X43098354Y64148383D01*
X43152870Y64176160D01*
X43168357Y64177379D01*
X43559760Y64177379D01*
X43617951Y64158472D01*
X43653915Y64108972D01*
X43655379Y64052726D01*
X43649982Y64032609D01*
X43624367Y63988259D01*
X43115489Y63479379D01*
X43059539Y63423429D01*
X43019980Y63354911D01*
X43019978Y63354907D01*
X42999500Y63278483D01*
X42999500Y62953895D01*
X42980593Y62895704D01*
X42973258Y62887711D01*
X42973509Y62887494D01*
X42874622Y62773372D01*
X42814834Y62642457D01*
X42794353Y62500003D01*
X42794353Y62499998D01*
X42814834Y62357544D01*
X42874622Y62226629D01*
X42874623Y62226627D01*
X42968872Y62117857D01*
X42968873Y62117856D01*
X43089942Y62040050D01*
X43089947Y62040047D01*
X43196403Y62008789D01*
X43228035Y61999501D01*
X43228036Y61999501D01*
X43228039Y61999500D01*
X43228041Y61999500D01*
X43371959Y61999500D01*
X43371961Y61999500D01*
X43510053Y62040047D01*
X43631128Y62117857D01*
X43725377Y62226627D01*
X43785165Y62357543D01*
X43791992Y62405029D01*
X43805647Y62499998D01*
X43805647Y62500003D01*
X43785165Y62642457D01*
X43760289Y62696927D01*
X43725377Y62773373D01*
X43631128Y62882143D01*
X43631127Y62882144D01*
X43626491Y62887494D01*
X43628524Y62889257D01*
X43603067Y62931495D01*
X43600500Y62953895D01*
X43600500Y63073440D01*
X43619407Y63131631D01*
X43629490Y63143438D01*
X43974733Y63488682D01*
X44029250Y63516458D01*
X44089682Y63506887D01*
X44132947Y63463622D01*
X44143737Y63418677D01*
X44143737Y62960436D01*
X44143733Y62943670D01*
X44143734Y62943669D01*
X44143734Y62943667D01*
X44168817Y62833686D01*
X44217750Y62732046D01*
X44288078Y62643848D01*
X44376273Y62573516D01*
X44477910Y62524579D01*
X44587890Y62499491D01*
X44587893Y62499492D01*
X44587894Y62499491D01*
X44644293Y62499500D01*
X44688935Y62499500D01*
X44689063Y62499491D01*
X44696694Y62499493D01*
X44696698Y62499491D01*
X44703197Y62499493D01*
X44703453Y62499410D01*
X44744293Y62499418D01*
X44744293Y62499417D01*
X44800653Y62499428D01*
X44800693Y62499428D01*
X44837345Y62507802D01*
X44910655Y62524549D01*
X45012272Y62573510D01*
X45100446Y62643855D01*
X45116841Y62664423D01*
X45167896Y62698141D01*
X45229020Y62695410D01*
X45271660Y62664437D01*
X45288072Y62643855D01*
X45288078Y62643848D01*
X45376273Y62573516D01*
X45477910Y62524579D01*
X45587890Y62499491D01*
X45587893Y62499492D01*
X45587894Y62499491D01*
X45644293Y62499500D01*
X45688935Y62499500D01*
X45689063Y62499491D01*
X45696694Y62499493D01*
X45696698Y62499491D01*
X45703197Y62499493D01*
X45703453Y62499410D01*
X45744293Y62499418D01*
X45744293Y62499417D01*
X45800653Y62499428D01*
X45800693Y62499428D01*
X45837345Y62507802D01*
X45910655Y62524549D01*
X46012272Y62573510D01*
X46100446Y62643855D01*
X46116841Y62664423D01*
X46167896Y62698141D01*
X46229020Y62695410D01*
X46271660Y62664437D01*
X46288072Y62643855D01*
X46288078Y62643848D01*
X46376273Y62573516D01*
X46477910Y62524579D01*
X46587890Y62499491D01*
X46587893Y62499492D01*
X46587894Y62499491D01*
X46644293Y62499500D01*
X46688935Y62499500D01*
X46689063Y62499491D01*
X46696694Y62499493D01*
X46696698Y62499491D01*
X46703197Y62499493D01*
X46703453Y62499410D01*
X46744293Y62499418D01*
X46744293Y62499417D01*
X46800653Y62499428D01*
X46800693Y62499428D01*
X46837345Y62507802D01*
X46910655Y62524549D01*
X47012272Y62573510D01*
X47100446Y62643855D01*
X47116841Y62664423D01*
X47167896Y62698141D01*
X47229020Y62695410D01*
X47271660Y62664437D01*
X47288072Y62643855D01*
X47288078Y62643848D01*
X47376273Y62573516D01*
X47477910Y62524579D01*
X47587890Y62499491D01*
X47587893Y62499492D01*
X47587894Y62499491D01*
X47644293Y62499500D01*
X47688935Y62499500D01*
X47689063Y62499491D01*
X47696694Y62499493D01*
X47696698Y62499491D01*
X47703197Y62499493D01*
X47703453Y62499410D01*
X47744293Y62499418D01*
X47744293Y62499417D01*
X47800653Y62499428D01*
X47800693Y62499428D01*
X47837345Y62507802D01*
X47910655Y62524549D01*
X48012272Y62573510D01*
X48100446Y62643855D01*
X48116841Y62664423D01*
X48167896Y62698141D01*
X48229020Y62695410D01*
X48271660Y62664437D01*
X48288072Y62643855D01*
X48288078Y62643848D01*
X48376273Y62573516D01*
X48477910Y62524579D01*
X48587890Y62499491D01*
X48587893Y62499492D01*
X48587894Y62499491D01*
X48644293Y62499500D01*
X48688935Y62499500D01*
X48689063Y62499491D01*
X48696694Y62499493D01*
X48696698Y62499491D01*
X48703197Y62499493D01*
X48703453Y62499410D01*
X48744293Y62499418D01*
X48744293Y62499417D01*
X48800653Y62499428D01*
X48800693Y62499428D01*
X48837345Y62507802D01*
X48910655Y62524549D01*
X49012272Y62573510D01*
X49100446Y62643855D01*
X49116841Y62664423D01*
X49167896Y62698141D01*
X49229020Y62695410D01*
X49271660Y62664437D01*
X49288072Y62643855D01*
X49288078Y62643848D01*
X49376273Y62573516D01*
X49477910Y62524579D01*
X49587890Y62499491D01*
X49587893Y62499492D01*
X49587894Y62499491D01*
X49644293Y62499500D01*
X49688935Y62499500D01*
X49689063Y62499491D01*
X49696694Y62499493D01*
X49696698Y62499491D01*
X49703197Y62499493D01*
X49703453Y62499410D01*
X49744293Y62499418D01*
X49744293Y62499417D01*
X49800653Y62499428D01*
X49800693Y62499428D01*
X49837345Y62507802D01*
X49910655Y62524549D01*
X50012272Y62573510D01*
X50100446Y62643855D01*
X50170756Y62732059D01*
X50210911Y62815489D01*
X50219673Y62833693D01*
X50225111Y62857543D01*
X50244750Y62943671D01*
X50244737Y63000069D01*
X50244737Y63000500D01*
X50244737Y63400500D01*
X50263644Y63458691D01*
X50313144Y63494655D01*
X50343737Y63499500D01*
X56977720Y63499500D01*
X57035911Y63480593D01*
X57067773Y63441626D01*
X57074623Y63426627D01*
X57085278Y63414330D01*
X57109095Y63357971D01*
X57095236Y63298376D01*
X57048995Y63258308D01*
X57010458Y63250500D01*
X51746144Y63250500D01*
X51653856Y63250500D01*
X51564712Y63226614D01*
X51484788Y63180470D01*
X50619528Y62315210D01*
X50588611Y62261659D01*
X50588611Y62261658D01*
X50573387Y62235291D01*
X50573386Y62235289D01*
X50573386Y62235288D01*
X50571066Y62226627D01*
X50549500Y62146143D01*
X50549500Y59386190D01*
X50530593Y59327999D01*
X50520504Y59316186D01*
X50183814Y58979496D01*
X50129297Y58951719D01*
X50113810Y58950500D01*
X49003759Y58950500D01*
X48945568Y58969407D01*
X48936596Y58977641D01*
X48936480Y58977506D01*
X48931128Y58982144D01*
X48810057Y59059951D01*
X48810054Y59059953D01*
X48810053Y59059953D01*
X48810050Y59059954D01*
X48671964Y59100500D01*
X48671961Y59100500D01*
X48528039Y59100500D01*
X48528035Y59100500D01*
X48389943Y59059952D01*
X48388838Y59059447D01*
X48386468Y59058932D01*
X48383153Y59057958D01*
X48383083Y59058196D01*
X48347712Y59050500D01*
X47052288Y59050500D01*
X47016916Y59058196D01*
X47016847Y59057958D01*
X47013531Y59058932D01*
X47011162Y59059447D01*
X47010056Y59059952D01*
X47010049Y59059954D01*
X46979800Y59068836D01*
X46871964Y59100500D01*
X46871961Y59100500D01*
X46728039Y59100500D01*
X46728035Y59100500D01*
X46589943Y59059952D01*
X46588838Y59059447D01*
X46586468Y59058932D01*
X46583153Y59057958D01*
X46583083Y59058196D01*
X46547712Y59050500D01*
X45740691Y59050500D01*
X45670567Y59031711D01*
X45626109Y59019798D01*
X45601334Y59005493D01*
X45523388Y58960491D01*
X44739507Y58176610D01*
X44680200Y58073888D01*
X44680200Y58073887D01*
X44680201Y58073886D01*
X44649500Y57959308D01*
X44649500Y56727612D01*
X44630593Y56669421D01*
X44620504Y56657608D01*
X43854392Y55891497D01*
X43812281Y55866512D01*
X43789949Y55859955D01*
X43788843Y55859449D01*
X43786469Y55858933D01*
X43783154Y55857959D01*
X43783084Y55858197D01*
X43747712Y55850500D01*
X40852288Y55850500D01*
X40816916Y55858196D01*
X40816847Y55857958D01*
X40813531Y55858932D01*
X40811162Y55859447D01*
X40810056Y55859952D01*
X40671964Y55900500D01*
X40671961Y55900500D01*
X40528039Y55900500D01*
X40528035Y55900500D01*
X40389943Y55859952D01*
X40388838Y55859447D01*
X40386468Y55858932D01*
X40383153Y55857958D01*
X40383083Y55858196D01*
X40347712Y55850500D01*
X36852288Y55850500D01*
X36816916Y55858196D01*
X36816847Y55857958D01*
X36813531Y55858932D01*
X36811162Y55859447D01*
X36810056Y55859952D01*
X36671964Y55900500D01*
X36671961Y55900500D01*
X36528039Y55900500D01*
X36528035Y55900500D01*
X36389943Y55859952D01*
X36388838Y55859447D01*
X36386468Y55858932D01*
X36383153Y55857958D01*
X36383083Y55858196D01*
X36347712Y55850500D01*
X34427611Y55850500D01*
X34369420Y55869407D01*
X34357607Y55879496D01*
X33679496Y56557607D01*
X33651719Y56612124D01*
X33650500Y56627611D01*
X33650500Y61360103D01*
X33659446Y61401229D01*
X33685165Y61457543D01*
X33685165Y61457545D01*
X33685166Y61457546D01*
X33705647Y61599998D01*
X33705647Y61600003D01*
X33685165Y61742457D01*
X33625377Y61873372D01*
X33625377Y61873373D01*
X33531128Y61982143D01*
X33531127Y61982144D01*
X33531126Y61982145D01*
X33410057Y62059951D01*
X33410054Y62059953D01*
X33410053Y62059953D01*
X33410050Y62059954D01*
X33271964Y62100500D01*
X33271961Y62100500D01*
X33128039Y62100500D01*
X33128035Y62100500D01*
X32989949Y62059954D01*
X32989942Y62059951D01*
X32868873Y61982145D01*
X32774622Y61873372D01*
X32714834Y61742457D01*
X32694353Y61600003D01*
X32694353Y61599998D01*
X32714833Y61457546D01*
X32728286Y61428089D01*
X32740553Y61401229D01*
X32749500Y61360103D01*
X32749500Y56340691D01*
X32773667Y56250500D01*
X32773666Y56250500D01*
X32773667Y56250498D01*
X32780198Y56226120D01*
X32780202Y56226111D01*
X32839507Y56123391D01*
X32839509Y56123389D01*
X32839511Y56123386D01*
X33923387Y55039510D01*
X34026114Y54980201D01*
X34140691Y54949500D01*
X36347712Y54949500D01*
X36383083Y54941805D01*
X36383153Y54942042D01*
X36386468Y54941069D01*
X36388838Y54940553D01*
X36389943Y54940049D01*
X36389944Y54940049D01*
X36389947Y54940047D01*
X36503939Y54906577D01*
X36528035Y54899501D01*
X36528036Y54899501D01*
X36528039Y54899500D01*
X36528041Y54899500D01*
X36671959Y54899500D01*
X36671961Y54899500D01*
X36810053Y54940047D01*
X36810056Y54940050D01*
X36811162Y54940553D01*
X36813531Y54941069D01*
X36816847Y54942042D01*
X36816916Y54941805D01*
X36852288Y54949500D01*
X40347712Y54949500D01*
X40383083Y54941805D01*
X40383153Y54942042D01*
X40386468Y54941069D01*
X40388838Y54940553D01*
X40389943Y54940049D01*
X40389944Y54940049D01*
X40389947Y54940047D01*
X40503939Y54906577D01*
X40528035Y54899501D01*
X40528036Y54899501D01*
X40528039Y54899500D01*
X40528041Y54899500D01*
X40671959Y54899500D01*
X40671961Y54899500D01*
X40810053Y54940047D01*
X40810056Y54940050D01*
X40811162Y54940553D01*
X40813531Y54941069D01*
X40816847Y54942042D01*
X40816916Y54941805D01*
X40852288Y54949500D01*
X43747712Y54949500D01*
X43783083Y54941805D01*
X43783153Y54942042D01*
X43786468Y54941069D01*
X43788838Y54940553D01*
X43789943Y54940049D01*
X43789944Y54940049D01*
X43789947Y54940047D01*
X43903939Y54906577D01*
X43928035Y54899501D01*
X43928036Y54899501D01*
X43928039Y54899500D01*
X43928041Y54899500D01*
X44071959Y54899500D01*
X44071961Y54899500D01*
X44210053Y54940047D01*
X44331128Y55017857D01*
X44425377Y55126627D01*
X44469776Y55223849D01*
X44489821Y55252720D01*
X45460489Y56223386D01*
X45462064Y56226113D01*
X45476143Y56250500D01*
X45519799Y56326113D01*
X45522741Y56337097D01*
X45526287Y56350328D01*
X45526287Y56350331D01*
X45550500Y56440691D01*
X45550500Y57672389D01*
X45569407Y57730580D01*
X45579496Y57742393D01*
X45957607Y58120504D01*
X46012124Y58148281D01*
X46027611Y58149500D01*
X46547712Y58149500D01*
X46583083Y58141805D01*
X46583153Y58142042D01*
X46586468Y58141069D01*
X46588838Y58140553D01*
X46589943Y58140049D01*
X46589944Y58140049D01*
X46589947Y58140047D01*
X46703939Y58106577D01*
X46728035Y58099501D01*
X46728036Y58099501D01*
X46728039Y58099500D01*
X46728041Y58099500D01*
X46871959Y58099500D01*
X46871961Y58099500D01*
X47010053Y58140047D01*
X47010056Y58140050D01*
X47011162Y58140553D01*
X47013531Y58141069D01*
X47016847Y58142042D01*
X47016916Y58141805D01*
X47052288Y58149500D01*
X48347712Y58149500D01*
X48383083Y58141805D01*
X48383153Y58142042D01*
X48386468Y58141069D01*
X48388838Y58140553D01*
X48389943Y58140049D01*
X48389944Y58140049D01*
X48389947Y58140047D01*
X48503939Y58106577D01*
X48528035Y58099501D01*
X48528036Y58099501D01*
X48528039Y58099500D01*
X48528041Y58099500D01*
X48671959Y58099500D01*
X48671961Y58099500D01*
X48810053Y58140047D01*
X48931128Y58217857D01*
X48936480Y58222494D01*
X48937968Y58220777D01*
X48981341Y58246928D01*
X49003759Y58249500D01*
X50346142Y58249500D01*
X50346144Y58249500D01*
X50435288Y58273386D01*
X50515212Y58319530D01*
X51180470Y58984788D01*
X51226614Y59064712D01*
X51236203Y59100500D01*
X51250500Y59153856D01*
X51250500Y61913810D01*
X51269407Y61972001D01*
X51279496Y61983814D01*
X51816186Y62520504D01*
X51870703Y62548281D01*
X51886190Y62549500D01*
X53759286Y62549500D01*
X53817477Y62530593D01*
X53853441Y62481093D01*
X53853441Y62419907D01*
X53817477Y62370407D01*
X53814288Y62368185D01*
X53735010Y62315213D01*
X53735009Y62315212D01*
X53703431Y62294113D01*
X53703429Y62294111D01*
X53703228Y62293911D01*
X53605656Y62196339D01*
X53528994Y62081605D01*
X53476191Y61954126D01*
X53476191Y61954124D01*
X53449271Y61818793D01*
X53449271Y61678274D01*
X53449500Y61673613D01*
X53449500Y53281165D01*
X53430593Y53222974D01*
X53420504Y53211161D01*
X52938839Y52729496D01*
X52884322Y52701719D01*
X52868835Y52700500D01*
X28731165Y52700500D01*
X28672974Y52719407D01*
X28661161Y52729496D01*
X28129496Y53261161D01*
X28101719Y53315678D01*
X28100500Y53331165D01*
X28100500Y59568835D01*
X28119407Y59627026D01*
X28129496Y59638839D01*
X28461161Y59970504D01*
X28515678Y59998281D01*
X28531165Y59999500D01*
X30668992Y59999500D01*
X30668993Y59999500D01*
X30804328Y60026420D01*
X30931811Y60079225D01*
X31046542Y60155886D01*
X31144114Y60253458D01*
X31220775Y60368189D01*
X31273580Y60495672D01*
X31300500Y60631007D01*
X31300500Y60768993D01*
X31273580Y60904328D01*
X31230352Y61008691D01*
X31220777Y61031807D01*
X31220771Y61031818D01*
X31144114Y61146542D01*
X31046541Y61244115D01*
X30931817Y61320772D01*
X30931806Y61320778D01*
X30804328Y61373580D01*
X30668995Y61400500D01*
X30668993Y61400500D01*
X28268994Y61400500D01*
X28131006Y61400500D01*
X28131003Y61400500D01*
X27995672Y61373580D01*
X27995670Y61373580D01*
X27868191Y61320777D01*
X27753460Y61244117D01*
X26855883Y60346540D01*
X26822645Y60296794D01*
X26779223Y60231809D01*
X26726420Y60104330D01*
X26726420Y60104328D01*
X26699500Y59968996D01*
X26699500Y52931004D01*
X26726420Y52795673D01*
X26726420Y52795671D01*
X26779223Y52668192D01*
X26779224Y52668190D01*
X26779225Y52668189D01*
X26855886Y52553457D01*
X27953457Y51455886D01*
X28068189Y51379225D01*
X28195672Y51326420D01*
X28331006Y51299500D01*
X28331007Y51299500D01*
X45600500Y51299500D01*
X45658691Y51280593D01*
X45694655Y51231093D01*
X45699500Y51200500D01*
X45699500Y43745379D01*
X45680593Y43687188D01*
X45670504Y43675375D01*
X44755883Y42760754D01*
X44679223Y42646023D01*
X44626420Y42518544D01*
X44626420Y42518542D01*
X44600273Y42387091D01*
X44600271Y42387080D01*
X44599500Y42383207D01*
X44599500Y39490850D01*
X44626420Y39355519D01*
X44626420Y39355517D01*
X44679223Y39228038D01*
X44679224Y39228036D01*
X44679225Y39228035D01*
X44755886Y39113303D01*
X45100300Y38768889D01*
X45128076Y38714374D01*
X45129295Y38698887D01*
X45129295Y37631056D01*
X45156215Y37495724D01*
X45156215Y37495722D01*
X45209017Y37368245D01*
X45209023Y37368234D01*
X45285680Y37253510D01*
X45383253Y37155937D01*
X45497977Y37079280D01*
X45497988Y37079274D01*
X45545078Y37059769D01*
X45625467Y37026471D01*
X45760802Y36999551D01*
X45760803Y36999551D01*
X45898787Y36999551D01*
X45898788Y36999551D01*
X46034123Y37026471D01*
X46161606Y37079276D01*
X46276337Y37155937D01*
X46373909Y37253509D01*
X46450570Y37368240D01*
X46503375Y37495723D01*
X46530295Y37631058D01*
X46530295Y39099044D01*
X46503375Y39234379D01*
X46501733Y39238342D01*
X46500029Y39242457D01*
X46450570Y39361863D01*
X46448278Y39366151D01*
X46449962Y39367052D01*
X46435444Y39418535D01*
X46456624Y39475938D01*
X46506476Y39509635D01*
X46610053Y39540047D01*
X46731128Y39617857D01*
X46825377Y39726627D01*
X46885165Y39857543D01*
X46905647Y40000000D01*
X46901073Y40031811D01*
X46885165Y40142457D01*
X46859447Y40198771D01*
X46850500Y40239898D01*
X46850500Y40450500D01*
X46869407Y40508691D01*
X46918907Y40544655D01*
X46949500Y40549500D01*
X50359309Y40549500D01*
X50449669Y40573713D01*
X50449672Y40573713D01*
X50462903Y40577259D01*
X50473887Y40580201D01*
X50576614Y40639511D01*
X50897056Y40959953D01*
X51007608Y41070504D01*
X51062124Y41098281D01*
X51077611Y41099500D01*
X51423389Y41099500D01*
X51481580Y41080593D01*
X51517544Y41031093D01*
X51517544Y40969907D01*
X51493394Y40930499D01*
X49302791Y38739894D01*
X47042393Y36479496D01*
X46987876Y36451719D01*
X46972389Y36450500D01*
X40659391Y36450500D01*
X40605868Y36466216D01*
X40600058Y36469950D01*
X40600055Y36469952D01*
X40600054Y36469952D01*
X40600051Y36469953D01*
X40461965Y36510499D01*
X40461962Y36510499D01*
X40318040Y36510499D01*
X40318036Y36510499D01*
X40179950Y36469953D01*
X40179943Y36469950D01*
X40058874Y36392144D01*
X39964623Y36283371D01*
X39904835Y36152456D01*
X39884354Y36010002D01*
X39884354Y36009997D01*
X39904835Y35867543D01*
X39921845Y35830298D01*
X39964624Y35736626D01*
X40048774Y35639511D01*
X40058874Y35627855D01*
X40095578Y35604267D01*
X40179948Y35550046D01*
X40179951Y35550045D01*
X40185806Y35547371D01*
X40230884Y35506000D01*
X40243036Y35446033D01*
X40217619Y35390377D01*
X40199683Y35375002D01*
X40153458Y35344116D01*
X39738838Y34929496D01*
X39684322Y34901719D01*
X39668835Y34900500D01*
X38399500Y34900500D01*
X38341309Y34919407D01*
X38305345Y34968907D01*
X38300500Y34999500D01*
X38300500Y39768992D01*
X38300499Y39768996D01*
X38273580Y39904328D01*
X38255978Y39946823D01*
X38220777Y40031807D01*
X38220771Y40031818D01*
X38144114Y40146542D01*
X38046541Y40244115D01*
X37931817Y40320772D01*
X37931806Y40320778D01*
X37804328Y40373580D01*
X37668995Y40400500D01*
X37668993Y40400500D01*
X24268993Y40400500D01*
X23431007Y40400500D01*
X23431004Y40400500D01*
X23338721Y40382143D01*
X23295673Y40373581D01*
X23295667Y40373579D01*
X23256955Y40357543D01*
X23168189Y40320776D01*
X23079716Y40261659D01*
X23053459Y40244115D01*
X21108903Y38299560D01*
X21054386Y38271783D01*
X21038899Y38270564D01*
X17599500Y38270564D01*
X17541309Y38289471D01*
X17505345Y38338971D01*
X17500500Y38369564D01*
X17500500Y44247520D01*
X32049352Y44247520D01*
X32049352Y44247515D01*
X32069833Y44105061D01*
X32118042Y43999500D01*
X32129622Y43974144D01*
X32193434Y43900500D01*
X32228508Y43860023D01*
X32226470Y43858258D01*
X32251924Y43816059D01*
X32254499Y43793624D01*
X32254499Y42670435D01*
X32274976Y42594014D01*
X32274978Y42594009D01*
X32300120Y42550461D01*
X32314538Y42525489D01*
X32714538Y42125488D01*
X32770488Y42069539D01*
X32839006Y42029980D01*
X32839010Y42029978D01*
X32915434Y42009500D01*
X32915436Y42009499D01*
X32915437Y42009499D01*
X32994561Y42009499D01*
X36302907Y42009499D01*
X36361098Y41990592D01*
X36377728Y41975328D01*
X36386351Y41965376D01*
X36474271Y41908873D01*
X36507426Y41887566D01*
X36613882Y41856308D01*
X36645514Y41847020D01*
X36645515Y41847020D01*
X36645518Y41847019D01*
X36645520Y41847019D01*
X36789438Y41847019D01*
X36789440Y41847019D01*
X36927532Y41887566D01*
X37048607Y41965376D01*
X37142856Y42074146D01*
X37202644Y42205062D01*
X37223126Y42347519D01*
X37217436Y42387091D01*
X37202644Y42489976D01*
X37186426Y42525488D01*
X37142856Y42620892D01*
X37048607Y42729662D01*
X37048606Y42729663D01*
X37048605Y42729664D01*
X36927536Y42807470D01*
X36927533Y42807472D01*
X36927532Y42807472D01*
X36927529Y42807473D01*
X36789443Y42848019D01*
X36789440Y42848019D01*
X36645518Y42848019D01*
X36645514Y42848019D01*
X36507428Y42807473D01*
X36507421Y42807470D01*
X36386351Y42729663D01*
X36386349Y42729661D01*
X36312703Y42644668D01*
X36260307Y42613072D01*
X36237884Y42610499D01*
X33120478Y42610499D01*
X33062287Y42629406D01*
X33050474Y42639495D01*
X32884495Y42805474D01*
X32856718Y42859991D01*
X32855499Y42875478D01*
X32855499Y43793624D01*
X32874406Y43851815D01*
X32881740Y43859806D01*
X32881490Y43860023D01*
X32893237Y43873580D01*
X32980376Y43974144D01*
X33040164Y44105060D01*
X33060646Y44247517D01*
X33040164Y44389974D01*
X32980376Y44520890D01*
X32886127Y44629660D01*
X32886126Y44629661D01*
X32886125Y44629662D01*
X32765056Y44707468D01*
X32765053Y44707470D01*
X32765052Y44707470D01*
X32765049Y44707471D01*
X32626963Y44748017D01*
X32626960Y44748017D01*
X32483038Y44748017D01*
X32483034Y44748017D01*
X32344948Y44707471D01*
X32344941Y44707468D01*
X32223872Y44629662D01*
X32129621Y44520889D01*
X32069833Y44389974D01*
X32049352Y44247520D01*
X17500500Y44247520D01*
X17500500Y46868992D01*
X17500499Y46868996D01*
X17473580Y47004328D01*
X17420775Y47131811D01*
X17420774Y47131813D01*
X17420771Y47131818D01*
X17344114Y47246542D01*
X17246541Y47344115D01*
X17131817Y47420772D01*
X17131806Y47420778D01*
X17004328Y47473580D01*
X16868995Y47500500D01*
X16868993Y47500500D01*
X16731007Y47500500D01*
X16731004Y47500500D01*
X16595672Y47473580D01*
X16595670Y47473580D01*
X16468193Y47420778D01*
X16468182Y47420772D01*
X16353458Y47344115D01*
X16255885Y47246542D01*
X16179228Y47131818D01*
X16179222Y47131807D01*
X16126420Y47004330D01*
X16126420Y47004328D01*
X16099500Y46868996D01*
X16099500Y41799500D01*
X16080593Y41741309D01*
X16031093Y41705345D01*
X16000500Y41700500D01*
X11731004Y41700500D01*
X11595672Y41673580D01*
X11595670Y41673580D01*
X11468193Y41620778D01*
X11468182Y41620772D01*
X11353458Y41544115D01*
X11255885Y41446542D01*
X11179228Y41331818D01*
X11179222Y41331807D01*
X11126420Y41204330D01*
X11126420Y41204328D01*
X11099500Y41068996D01*
X1100500Y41068996D01*
X1100500Y44983796D01*
X1413013Y44983796D01*
X1413013Y44816257D01*
X1445696Y44651947D01*
X1445698Y44651941D01*
X1509809Y44497164D01*
X1509810Y44497163D01*
X1602887Y44357864D01*
X1721351Y44239400D01*
X1860650Y44146323D01*
X2015431Y44082210D01*
X2179746Y44049526D01*
X2179747Y44049526D01*
X2347279Y44049526D01*
X2347280Y44049526D01*
X2511595Y44082210D01*
X2666376Y44146323D01*
X2805675Y44239400D01*
X2924139Y44357864D01*
X3017216Y44497163D01*
X3081329Y44651944D01*
X3114013Y44816259D01*
X3114013Y44983793D01*
X3081329Y45148108D01*
X3017216Y45302889D01*
X2924139Y45442188D01*
X2805675Y45560652D01*
X2666376Y45653729D01*
X2666377Y45653729D01*
X2666375Y45653730D01*
X2511598Y45717841D01*
X2511592Y45717843D01*
X2347282Y45750526D01*
X2347280Y45750526D01*
X2179746Y45750526D01*
X2179743Y45750526D01*
X2015433Y45717843D01*
X2015427Y45717841D01*
X1860650Y45653730D01*
X1721351Y45560652D01*
X1721347Y45560649D01*
X1602890Y45442192D01*
X1602887Y45442188D01*
X1509809Y45302889D01*
X1445698Y45148112D01*
X1445696Y45148106D01*
X1413013Y44983796D01*
X1100500Y44983796D01*
X1100500Y65054999D01*
X8925001Y65054999D01*
X8925001Y63010209D01*
X8927909Y62985126D01*
X8973213Y62882523D01*
X9052522Y62803214D01*
X9155127Y62757910D01*
X9180203Y62755001D01*
X10449998Y62755001D01*
X10450000Y62755002D01*
X10450000Y65054999D01*
X10950000Y65054999D01*
X10950000Y62755002D01*
X10950001Y62755001D01*
X12219790Y62755001D01*
X12219791Y62755002D01*
X12244874Y62757910D01*
X12347477Y62803214D01*
X12426786Y62882523D01*
X12472090Y62985128D01*
X12474999Y63010203D01*
X12475000Y63010205D01*
X12475000Y65054999D01*
X12474999Y65055000D01*
X10950001Y65055000D01*
X10950000Y65054999D01*
X10450000Y65054999D01*
X10449999Y65055000D01*
X8925002Y65055000D01*
X8925001Y65054999D01*
X1100500Y65054999D01*
X1100500Y67599798D01*
X8925000Y67599798D01*
X8925000Y65555001D01*
X8925001Y65555000D01*
X10449999Y65555000D01*
X10450000Y65555001D01*
X10450000Y67854999D01*
X10950000Y67854999D01*
X10950000Y65555001D01*
X10950001Y65555000D01*
X12474998Y65555000D01*
X12474999Y65555001D01*
X12474999Y67599790D01*
X12474998Y67599792D01*
X12472090Y67624875D01*
X12426786Y67727478D01*
X12347477Y67806787D01*
X12244872Y67852091D01*
X12219797Y67855000D01*
X10950001Y67855000D01*
X10950000Y67854999D01*
X10450000Y67854999D01*
X10449999Y67855000D01*
X9180210Y67855000D01*
X9180208Y67854999D01*
X9155125Y67852091D01*
X9052522Y67806787D01*
X8973213Y67727478D01*
X8927909Y67624873D01*
X8925000Y67599798D01*
X1100500Y67599798D01*
X1100500Y70468835D01*
X1119407Y70527026D01*
X1129496Y70538839D01*
X1861161Y71270504D01*
X1915678Y71298281D01*
X1931165Y71299500D01*
X6668993Y71299500D01*
X6668994Y71299500D01*
X6804328Y71326420D01*
X6931811Y71379225D01*
X7046543Y71455886D01*
X17061160Y81470505D01*
X17115677Y81498281D01*
X17131164Y81499500D01*
X27268992Y81499500D01*
X27268993Y81499500D01*
X27404328Y81526420D01*
X27531811Y81579225D01*
X27646542Y81655886D01*
X27744114Y81753458D01*
X27820775Y81868189D01*
X27873580Y81995672D01*
X27900500Y82131007D01*
X27900500Y83818761D01*
X65329112Y83818761D01*
X65329112Y83818748D01*
X65348837Y83492649D01*
X65407726Y83171304D01*
X65407726Y83171303D01*
X65504921Y82859393D01*
X65639005Y82561471D01*
X65808015Y82281895D01*
X65808017Y82281892D01*
X65808018Y82281891D01*
X66009500Y82024718D01*
X66240512Y81793706D01*
X66490813Y81597608D01*
X66497688Y81592222D01*
X66606536Y81526421D01*
X66777269Y81423209D01*
X67075187Y81289127D01*
X67387095Y81191933D01*
X67601327Y81152674D01*
X67708443Y81133044D01*
X67708440Y81133044D01*
X68034542Y81113318D01*
X68034548Y81113318D01*
X68034554Y81113318D01*
X68360653Y81133044D01*
X68440989Y81147767D01*
X68682001Y81191933D01*
X68993909Y81289127D01*
X69291827Y81423209D01*
X69571411Y81592224D01*
X69828584Y81793706D01*
X70059596Y82024718D01*
X70261078Y82281891D01*
X70430093Y82561475D01*
X70564175Y82859393D01*
X70661369Y83171301D01*
X70720258Y83492650D01*
X70739984Y83818754D01*
X70720258Y84144858D01*
X70661369Y84466207D01*
X70564175Y84778115D01*
X70430093Y85076033D01*
X70261078Y85355617D01*
X70059596Y85612790D01*
X69828584Y85843802D01*
X69571411Y86045284D01*
X69571410Y86045285D01*
X69571407Y86045287D01*
X69291831Y86214297D01*
X68993910Y86348381D01*
X68681998Y86445576D01*
X68360652Y86504465D01*
X68360655Y86504465D01*
X68034554Y86524190D01*
X68034542Y86524190D01*
X67708442Y86504465D01*
X67387097Y86445576D01*
X67387096Y86445576D01*
X67075185Y86348381D01*
X66777264Y86214297D01*
X66497688Y86045287D01*
X66240518Y85843807D01*
X66240515Y85843805D01*
X66009497Y85612787D01*
X66009495Y85612784D01*
X65808015Y85355614D01*
X65639005Y85076038D01*
X65504921Y84778117D01*
X65407726Y84466206D01*
X65407726Y84466205D01*
X65348837Y84144860D01*
X65329112Y83818761D01*
X27900500Y83818761D01*
X27900500Y85548456D01*
X36374544Y85548456D01*
X36374544Y85351367D01*
X36412992Y85158074D01*
X36488413Y84975991D01*
X36488414Y84975990D01*
X36597908Y84812121D01*
X36737267Y84672762D01*
X36901136Y84563268D01*
X37083218Y84487847D01*
X37276515Y84449398D01*
X37276516Y84449398D01*
X37473598Y84449398D01*
X37473599Y84449398D01*
X37666896Y84487847D01*
X37848978Y84563268D01*
X38012847Y84672762D01*
X38152206Y84812121D01*
X38261700Y84975990D01*
X38337121Y85158072D01*
X38375570Y85351369D01*
X38375570Y85548453D01*
X38337121Y85741750D01*
X38261700Y85923832D01*
X38152206Y86087701D01*
X38012847Y86227060D01*
X37848978Y86336554D01*
X37848979Y86336554D01*
X37848977Y86336555D01*
X37666894Y86411976D01*
X37473601Y86450424D01*
X37473599Y86450424D01*
X37276515Y86450424D01*
X37276512Y86450424D01*
X37083219Y86411976D01*
X36901136Y86336555D01*
X36737267Y86227060D01*
X36737263Y86227057D01*
X36597911Y86087705D01*
X36597908Y86087701D01*
X36488413Y85923832D01*
X36412992Y85741749D01*
X36374544Y85548456D01*
X27900500Y85548456D01*
X27900500Y90448634D01*
X36374544Y90448634D01*
X36374544Y90251545D01*
X36412992Y90058252D01*
X36488413Y89876169D01*
X36488414Y89876168D01*
X36597908Y89712299D01*
X36737267Y89572940D01*
X36901136Y89463446D01*
X37083218Y89388025D01*
X37276515Y89349576D01*
X37276516Y89349576D01*
X37473598Y89349576D01*
X37473599Y89349576D01*
X37666896Y89388025D01*
X37848978Y89463446D01*
X38012847Y89572940D01*
X38152206Y89712299D01*
X38223342Y89818761D01*
X65329112Y89818761D01*
X65329112Y89818748D01*
X65348837Y89492649D01*
X65407726Y89171304D01*
X65407726Y89171303D01*
X65504921Y88859392D01*
X65639005Y88561471D01*
X65808015Y88281895D01*
X65808017Y88281892D01*
X65808018Y88281891D01*
X66009500Y88024718D01*
X66240512Y87793706D01*
X66490813Y87597608D01*
X66497688Y87592222D01*
X66618392Y87519254D01*
X66777269Y87423209D01*
X67075187Y87289127D01*
X67387095Y87191933D01*
X67601327Y87152674D01*
X67708443Y87133044D01*
X67708440Y87133044D01*
X68034542Y87113318D01*
X68034548Y87113318D01*
X68034554Y87113318D01*
X68360653Y87133044D01*
X68440989Y87147767D01*
X68682001Y87191933D01*
X68993909Y87289127D01*
X69291827Y87423209D01*
X69571411Y87592224D01*
X69828584Y87793706D01*
X70059596Y88024718D01*
X70261078Y88281891D01*
X70430093Y88561475D01*
X70564175Y88859393D01*
X70661369Y89171301D01*
X70720258Y89492650D01*
X70728057Y89621584D01*
X70739984Y89818748D01*
X70739984Y89818761D01*
X70720258Y90144860D01*
X70661369Y90466205D01*
X70661369Y90466206D01*
X70661369Y90466207D01*
X70564175Y90778115D01*
X70430093Y91076033D01*
X70287353Y91312153D01*
X70261080Y91355614D01*
X70261078Y91355617D01*
X70059596Y91612790D01*
X69828584Y91843802D01*
X69571411Y92045284D01*
X69571410Y92045285D01*
X69571407Y92045287D01*
X69291831Y92214297D01*
X68993910Y92348381D01*
X68681998Y92445576D01*
X68360652Y92504465D01*
X68360655Y92504465D01*
X68034554Y92524190D01*
X68034542Y92524190D01*
X67708442Y92504465D01*
X67387097Y92445576D01*
X67387096Y92445576D01*
X67075185Y92348381D01*
X66777264Y92214297D01*
X66497688Y92045287D01*
X66240518Y91843807D01*
X66240515Y91843805D01*
X66009497Y91612787D01*
X66009495Y91612784D01*
X65808015Y91355614D01*
X65639005Y91076038D01*
X65504921Y90778117D01*
X65407726Y90466206D01*
X65407726Y90466205D01*
X65348837Y90144860D01*
X65329112Y89818761D01*
X38223342Y89818761D01*
X38261700Y89876168D01*
X38337121Y90058250D01*
X38375570Y90251547D01*
X38375570Y90448631D01*
X38337121Y90641928D01*
X38261700Y90824010D01*
X38152206Y90987879D01*
X38012847Y91127238D01*
X37848978Y91236732D01*
X37848979Y91236732D01*
X37848977Y91236733D01*
X37666894Y91312154D01*
X37473601Y91350602D01*
X37473599Y91350602D01*
X37276515Y91350602D01*
X37276512Y91350602D01*
X37083219Y91312154D01*
X36901136Y91236733D01*
X36737267Y91127238D01*
X36737263Y91127235D01*
X36597911Y90987883D01*
X36597908Y90987879D01*
X36488413Y90824010D01*
X36412992Y90641927D01*
X36374544Y90448634D01*
X27900500Y90448634D01*
X27900500Y91868993D01*
X27873580Y92004328D01*
X27834539Y92098581D01*
X27820777Y92131807D01*
X27820771Y92131818D01*
X27744114Y92246542D01*
X27646541Y92344115D01*
X27531817Y92420772D01*
X27531806Y92420778D01*
X27404328Y92473580D01*
X27268995Y92500500D01*
X27268993Y92500500D01*
X27131007Y92500500D01*
X27131004Y92500500D01*
X26995672Y92473580D01*
X26995670Y92473580D01*
X26868193Y92420778D01*
X26868182Y92420772D01*
X26753458Y92344115D01*
X26655885Y92246542D01*
X26579228Y92131818D01*
X26579222Y92131807D01*
X26526420Y92004330D01*
X26526420Y92004328D01*
X26499500Y91868996D01*
X26499500Y82999500D01*
X26480593Y82941309D01*
X26431093Y82905345D01*
X26400500Y82900500D01*
X16731004Y82900500D01*
X16622591Y82878936D01*
X16622591Y82878935D01*
X16609131Y82876258D01*
X16595670Y82873580D01*
X16561421Y82859393D01*
X16468191Y82820777D01*
X16464315Y82818186D01*
X16464313Y82818185D01*
X16353457Y82744113D01*
X16353453Y82744110D01*
X6338839Y72729496D01*
X6284322Y72701719D01*
X6268835Y72700500D01*
X1531004Y72700500D01*
X1422591Y72678936D01*
X1422591Y72678935D01*
X1409131Y72676258D01*
X1395670Y72673580D01*
X1268189Y72620776D01*
X1153460Y72544117D01*
X-144117Y71246540D01*
X-220777Y71131809D01*
X-273580Y71004330D01*
X-273580Y71004328D01*
X-294232Y70900500D01*
X-298305Y70880024D01*
X-298306Y70880022D01*
X-300500Y70868997D01*
X-3464952Y70868997D01*
X-3464952Y83818761D01*
X3129111Y83818761D01*
X3129111Y83818748D01*
X3148836Y83492649D01*
X3207725Y83171304D01*
X3207725Y83171303D01*
X3304920Y82859393D01*
X3439004Y82561471D01*
X3608014Y82281895D01*
X3608016Y82281892D01*
X3608017Y82281891D01*
X3809499Y82024718D01*
X4040511Y81793706D01*
X4290812Y81597608D01*
X4297687Y81592222D01*
X4406535Y81526421D01*
X4577268Y81423209D01*
X4875186Y81289127D01*
X5187094Y81191933D01*
X5401326Y81152674D01*
X5508442Y81133044D01*
X5508439Y81133044D01*
X5834541Y81113318D01*
X5834547Y81113318D01*
X5834553Y81113318D01*
X6160652Y81133044D01*
X6240988Y81147767D01*
X6482000Y81191933D01*
X6793908Y81289127D01*
X7091826Y81423209D01*
X7371410Y81592224D01*
X7628583Y81793706D01*
X7859595Y82024718D01*
X8061077Y82281891D01*
X8230092Y82561475D01*
X8364174Y82859393D01*
X8461368Y83171301D01*
X8520257Y83492650D01*
X8539983Y83818754D01*
X8520257Y84144858D01*
X8461368Y84466207D01*
X8364174Y84778115D01*
X8230092Y85076033D01*
X8061077Y85355617D01*
X7859595Y85612790D01*
X7628583Y85843802D01*
X7371410Y86045284D01*
X7371409Y86045285D01*
X7371406Y86045287D01*
X7091830Y86214297D01*
X6793909Y86348381D01*
X6481997Y86445576D01*
X6160651Y86504465D01*
X6160654Y86504465D01*
X5834553Y86524190D01*
X5834541Y86524190D01*
X5508441Y86504465D01*
X5187096Y86445576D01*
X5187095Y86445576D01*
X4875184Y86348381D01*
X4577263Y86214297D01*
X4297687Y86045287D01*
X4040517Y85843807D01*
X4040514Y85843805D01*
X3809496Y85612787D01*
X3809494Y85612784D01*
X3608014Y85355614D01*
X3439004Y85076038D01*
X3304920Y84778117D01*
X3207725Y84466206D01*
X3207725Y84466205D01*
X3148836Y84144860D01*
X3129111Y83818761D01*
X-3464952Y83818761D01*
X-3464952Y89818761D01*
X3129111Y89818761D01*
X3129111Y89818748D01*
X3148836Y89492649D01*
X3207725Y89171304D01*
X3207725Y89171303D01*
X3304920Y88859392D01*
X3439004Y88561471D01*
X3608014Y88281895D01*
X3608016Y88281892D01*
X3608017Y88281891D01*
X3809499Y88024718D01*
X4040511Y87793706D01*
X4290812Y87597608D01*
X4297687Y87592222D01*
X4418391Y87519254D01*
X4577268Y87423209D01*
X4875186Y87289127D01*
X5187094Y87191933D01*
X5401326Y87152674D01*
X5508442Y87133044D01*
X5508439Y87133044D01*
X5834541Y87113318D01*
X5834547Y87113318D01*
X5834553Y87113318D01*
X6160652Y87133044D01*
X6240988Y87147767D01*
X6482000Y87191933D01*
X6793908Y87289127D01*
X7091826Y87423209D01*
X7371410Y87592224D01*
X7628583Y87793706D01*
X7859595Y88024718D01*
X8061077Y88281891D01*
X8230092Y88561475D01*
X8364174Y88859393D01*
X8461368Y89171301D01*
X8520257Y89492650D01*
X8528056Y89621584D01*
X8539983Y89818748D01*
X8539983Y89818761D01*
X8520257Y90144860D01*
X8514932Y90173919D01*
X17249500Y90173919D01*
X17249500Y90026082D01*
X17278342Y89881086D01*
X17334915Y89744507D01*
X17334916Y89744505D01*
X17417049Y89621584D01*
X17521584Y89517049D01*
X17644505Y89434916D01*
X17781087Y89378342D01*
X17926082Y89349500D01*
X17926083Y89349500D01*
X18073917Y89349500D01*
X18073918Y89349500D01*
X18218913Y89378342D01*
X18355495Y89434916D01*
X18478416Y89517049D01*
X18582951Y89621584D01*
X18665084Y89744505D01*
X18721658Y89881087D01*
X18750500Y90026082D01*
X18750500Y90173918D01*
X18750500Y90173919D01*
X21649500Y90173919D01*
X21649500Y90026082D01*
X21678342Y89881086D01*
X21734915Y89744507D01*
X21734916Y89744505D01*
X21817049Y89621584D01*
X21921584Y89517049D01*
X22044505Y89434916D01*
X22181087Y89378342D01*
X22326082Y89349500D01*
X22326083Y89349500D01*
X22473917Y89349500D01*
X22473918Y89349500D01*
X22618913Y89378342D01*
X22755495Y89434916D01*
X22878416Y89517049D01*
X22982951Y89621584D01*
X23065084Y89744505D01*
X23121658Y89881087D01*
X23150500Y90026082D01*
X23150500Y90173918D01*
X23121658Y90318913D01*
X23065084Y90455495D01*
X22982951Y90578416D01*
X22878416Y90682951D01*
X22755495Y90765084D01*
X22755493Y90765085D01*
X22618914Y90821658D01*
X22473918Y90850500D01*
X22326082Y90850500D01*
X22326081Y90850500D01*
X22181085Y90821658D01*
X22044506Y90765085D01*
X21921585Y90682952D01*
X21817048Y90578415D01*
X21734915Y90455494D01*
X21678342Y90318915D01*
X21649500Y90173919D01*
X18750500Y90173919D01*
X18721658Y90318913D01*
X18665084Y90455495D01*
X18582951Y90578416D01*
X18478416Y90682951D01*
X18355495Y90765084D01*
X18355493Y90765085D01*
X18218914Y90821658D01*
X18073918Y90850500D01*
X17926082Y90850500D01*
X17926081Y90850500D01*
X17781085Y90821658D01*
X17644506Y90765085D01*
X17521585Y90682952D01*
X17417048Y90578415D01*
X17334915Y90455494D01*
X17278342Y90318915D01*
X17249500Y90173919D01*
X8514932Y90173919D01*
X8461368Y90466205D01*
X8461368Y90466206D01*
X8461368Y90466207D01*
X8364174Y90778115D01*
X8230092Y91076033D01*
X8087352Y91312153D01*
X8061079Y91355614D01*
X8061077Y91355617D01*
X7859595Y91612790D01*
X7628583Y91843802D01*
X7371410Y92045284D01*
X7371409Y92045285D01*
X7371406Y92045287D01*
X7091830Y92214297D01*
X6793909Y92348381D01*
X6481997Y92445576D01*
X6160651Y92504465D01*
X6160654Y92504465D01*
X5834553Y92524190D01*
X5834541Y92524190D01*
X5508441Y92504465D01*
X5187096Y92445576D01*
X5187095Y92445576D01*
X4875184Y92348381D01*
X4577263Y92214297D01*
X4297687Y92045287D01*
X4040517Y91843807D01*
X4040514Y91843805D01*
X3809496Y91612787D01*
X3809494Y91612784D01*
X3608014Y91355614D01*
X3439004Y91076038D01*
X3304920Y90778117D01*
X3207725Y90466206D01*
X3207725Y90466205D01*
X3148836Y90144860D01*
X3129111Y89818761D01*
X-3464952Y89818761D01*
X-3464952Y94215769D01*
X-3464771Y94221746D01*
X-3447819Y94502002D01*
X-3446378Y94513869D01*
X-3396306Y94787103D01*
X-3393448Y94798697D01*
X-3310802Y95063915D01*
X-3306575Y95075062D01*
X-3192557Y95328396D01*
X-3187005Y95338972D01*
X-3043297Y95576692D01*
X-3036516Y95586517D01*
X-2865186Y95805199D01*
X-2857274Y95814129D01*
X-2660844Y96010555D01*
X-2651912Y96018469D01*
X-2433222Y96189799D01*
X-2423403Y96196575D01*
X-2185671Y96340285D01*
X-2175113Y96345827D01*
X-1921779Y96459840D01*
X-1910611Y96464074D01*
X-1645406Y96546711D01*
X-1633808Y96549569D01*
X-1360563Y96599639D01*
X-1348700Y96601078D01*
X-1173966Y96611645D01*
X-1067654Y96618073D01*
X-1061680Y96618254D01*
X-1025574Y96618253D01*
X-1025572Y96618254D01*
X74931556Y96618254D01*
X74937535Y96618073D01*
G37*
%TD.AperFunction*%
%TD*%
M02*
