%TF.GenerationSoftware,KiCad,Pcbnew,8.0.3*%
%TF.CreationDate,2024-06-17T20:01:43-07:00*%
%TF.ProjectId,underglow3,756e6465-7267-46c6-9f77-332e6b696361,rev?*%
%TF.SameCoordinates,Original*%
%TF.FileFunction,Soldermask,Top*%
%TF.FilePolarity,Negative*%
%FSLAX46Y46*%
G04 Gerber Fmt 4.6, Leading zero omitted, Abs format (unit mm)*
G04 Created by KiCad (PCBNEW 8.0.3) date 2024-06-17 20:01:43*
%MOMM*%
%LPD*%
G01*
G04 APERTURE LIST*
G04 Aperture macros list*
%AMRoundRect*
0 Rectangle with rounded corners*
0 $1 Rounding radius*
0 $2 $3 $4 $5 $6 $7 $8 $9 X,Y pos of 4 corners*
0 Add a 4 corners polygon primitive as box body*
4,1,4,$2,$3,$4,$5,$6,$7,$8,$9,$2,$3,0*
0 Add four circle primitives for the rounded corners*
1,1,$1+$1,$2,$3*
1,1,$1+$1,$4,$5*
1,1,$1+$1,$6,$7*
1,1,$1+$1,$8,$9*
0 Add four rect primitives between the rounded corners*
20,1,$1+$1,$2,$3,$4,$5,0*
20,1,$1+$1,$4,$5,$6,$7,0*
20,1,$1+$1,$6,$7,$8,$9,0*
20,1,$1+$1,$8,$9,$2,$3,0*%
%AMRotRect*
0 Rectangle, with rotation*
0 The origin of the aperture is its center*
0 $1 length*
0 $2 width*
0 $3 Rotation angle, in degrees counterclockwise*
0 Add horizontal line*
21,1,$1,$2,0,0,$3*%
G04 Aperture macros list end*
%ADD10R,1.500000X0.600000*%
%ADD11R,0.600000X1.500000*%
%ADD12C,0.600000*%
%ADD13R,0.200000X1.459995*%
%ADD14R,1.459995X0.200000*%
%ADD15R,5.600000X5.600000*%
%ADD16RoundRect,0.135000X-0.135000X-0.185000X0.135000X-0.185000X0.135000X0.185000X-0.135000X0.185000X0*%
%ADD17RoundRect,0.250000X-0.425000X0.450000X-0.425000X-0.450000X0.425000X-0.450000X0.425000X0.450000X0*%
%ADD18C,1.500025*%
%ADD19R,3.000000X0.900000*%
%ADD20R,5.500000X2.050013*%
%ADD21RoundRect,0.147500X-0.172500X0.147500X-0.172500X-0.147500X0.172500X-0.147500X0.172500X0.147500X0*%
%ADD22RoundRect,0.135000X-0.185000X0.135000X-0.185000X-0.135000X0.185000X-0.135000X0.185000X0.135000X0*%
%ADD23C,1.000000*%
%ADD24RoundRect,0.147500X-0.147500X-0.172500X0.147500X-0.172500X0.147500X0.172500X-0.147500X0.172500X0*%
%ADD25RoundRect,0.150000X-0.150000X0.825000X-0.150000X-0.825000X0.150000X-0.825000X0.150000X0.825000X0*%
%ADD26RoundRect,0.135000X0.135000X0.185000X-0.135000X0.185000X-0.135000X-0.185000X0.135000X-0.185000X0*%
%ADD27RoundRect,0.150000X-0.150000X0.512500X-0.150000X-0.512500X0.150000X-0.512500X0.150000X0.512500X0*%
%ADD28RoundRect,0.140000X0.170000X-0.140000X0.170000X0.140000X-0.170000X0.140000X-0.170000X-0.140000X0*%
%ADD29RoundRect,0.250000X-0.650000X1.000000X-0.650000X-1.000000X0.650000X-1.000000X0.650000X1.000000X0*%
%ADD30RoundRect,0.225000X-0.250000X0.225000X-0.250000X-0.225000X0.250000X-0.225000X0.250000X0.225000X0*%
%ADD31RoundRect,0.150000X0.512500X0.150000X-0.512500X0.150000X-0.512500X-0.150000X0.512500X-0.150000X0*%
%ADD32RoundRect,0.135000X0.185000X-0.135000X0.185000X0.135000X-0.185000X0.135000X-0.185000X-0.135000X0*%
%ADD33RoundRect,0.140000X-0.140000X-0.170000X0.140000X-0.170000X0.140000X0.170000X-0.140000X0.170000X0*%
%ADD34RoundRect,0.140000X-0.170000X0.140000X-0.170000X-0.140000X0.170000X-0.140000X0.170000X0.140000X0*%
%ADD35RoundRect,0.218750X0.218750X0.256250X-0.218750X0.256250X-0.218750X-0.256250X0.218750X-0.256250X0*%
%ADD36RoundRect,0.140000X0.140000X0.170000X-0.140000X0.170000X-0.140000X-0.170000X0.140000X-0.170000X0*%
%ADD37RoundRect,0.112500X0.187500X0.112500X-0.187500X0.112500X-0.187500X-0.112500X0.187500X-0.112500X0*%
%ADD38RoundRect,0.150000X0.587500X0.150000X-0.587500X0.150000X-0.587500X-0.150000X0.587500X-0.150000X0*%
%ADD39RoundRect,0.135000X-0.226274X-0.035355X-0.035355X-0.226274X0.226274X0.035355X0.035355X0.226274X0*%
%ADD40RoundRect,0.225000X0.250000X-0.225000X0.250000X0.225000X-0.250000X0.225000X-0.250000X-0.225000X0*%
%ADD41C,3.000000*%
%ADD42RoundRect,0.225000X-0.225000X-0.250000X0.225000X-0.250000X0.225000X0.250000X-0.225000X0.250000X0*%
%ADD43RoundRect,0.175000X-0.175000X0.325000X-0.175000X-0.325000X0.175000X-0.325000X0.175000X0.325000X0*%
%ADD44RoundRect,0.112500X0.112500X-0.187500X0.112500X0.187500X-0.112500X0.187500X-0.112500X-0.187500X0*%
%ADD45R,0.500000X2.000000*%
%ADD46R,2.000000X1.700000*%
%ADD47R,1.200000X1.400000*%
%ADD48RoundRect,0.250000X-1.000000X-0.650000X1.000000X-0.650000X1.000000X0.650000X-1.000000X0.650000X0*%
%ADD49R,1.800000X0.800000*%
%ADD50C,2.000000*%
%ADD51RoundRect,0.218750X-0.256250X0.218750X-0.256250X-0.218750X0.256250X-0.218750X0.256250X0.218750X0*%
%ADD52R,1.550000X0.600000*%
%ADD53R,2.600000X3.100000*%
%ADD54RoundRect,0.225000X0.225000X0.250000X-0.225000X0.250000X-0.225000X-0.250000X0.225000X-0.250000X0*%
%ADD55RotRect,1.050013X1.000000X315.000000*%
%ADD56RotRect,2.200000X1.050013X315.000000*%
%ADD57R,0.300000X0.750000*%
%ADD58R,1.500000X1.300000*%
%ADD59RoundRect,0.250000X0.425000X-0.450000X0.425000X0.450000X-0.425000X0.450000X-0.425000X-0.450000X0*%
%ADD60R,1.000000X1.720015*%
%ADD61C,0.990600*%
%ADD62C,0.787400*%
%ADD63RoundRect,0.135000X-0.035355X0.226274X-0.226274X0.035355X0.035355X-0.226274X0.226274X-0.035355X0*%
%ADD64R,2.300000X2.500000*%
%ADD65C,1.200000*%
%ADD66R,1.600000X0.700000*%
%ADD67R,1.500000X1.200000*%
%ADD68R,2.200000X1.200000*%
%ADD69R,1.500000X1.600000*%
G04 APERTURE END LIST*
D10*
%TO.C,U401*%
X35582559Y68820809D03*
X35582559Y67931807D03*
X35582559Y67017405D03*
X35582559Y66128404D03*
X35582559Y65214002D03*
X35582559Y64325000D03*
X35582559Y63435998D03*
X35582559Y62521596D03*
X35582559Y61632595D03*
X35582559Y60718193D03*
X35582559Y59829191D03*
D11*
X36976361Y58435389D03*
X37865363Y58435389D03*
X38779765Y58435389D03*
X39668766Y58435389D03*
X40583168Y58435389D03*
X41472170Y58435389D03*
X42361172Y58435389D03*
X43275574Y58435389D03*
X44164575Y58435389D03*
X45078977Y58435389D03*
X45967979Y58435389D03*
D10*
X47361781Y59829191D03*
X47361781Y60718193D03*
X47361781Y61632595D03*
X47361781Y62521596D03*
X47361781Y63435998D03*
X47361781Y64325000D03*
X47361781Y65214002D03*
X47361781Y66128404D03*
X47361781Y67017405D03*
X47361781Y67931807D03*
X47361781Y68820809D03*
D11*
X45967979Y70214611D03*
X45078977Y70214611D03*
X44164575Y70214611D03*
X43275574Y70214611D03*
X42361172Y70214611D03*
X41472170Y70214611D03*
X40583168Y70214611D03*
X39668766Y70214611D03*
X38779765Y70214611D03*
X37865363Y70214611D03*
X36976361Y70214611D03*
D12*
X38772145Y67931807D03*
X40572246Y67931807D03*
X42372094Y67931807D03*
%TD*%
D13*
%TO.C,U201*%
X54500051Y42569952D03*
X54899848Y42569952D03*
X55299898Y42569952D03*
X55699949Y42569952D03*
X56100000Y42569952D03*
X56500051Y42569952D03*
X56899848Y42569952D03*
X57299898Y42569952D03*
X57699949Y42569952D03*
X58100000Y42569952D03*
X58500051Y42569952D03*
X58899848Y42569952D03*
X59299898Y42569952D03*
X59699949Y42569952D03*
X60100000Y42569952D03*
X60500051Y42569952D03*
X60899848Y42569952D03*
X61299898Y42569952D03*
X61699949Y42569952D03*
X62100000Y42569952D03*
X62500051Y42569952D03*
X62899848Y42569952D03*
X63299898Y42569952D03*
X63699949Y42569952D03*
X64100000Y42569952D03*
X64500051Y42569952D03*
X64899848Y42569952D03*
X65299898Y42569952D03*
X65699949Y42569952D03*
X66100000Y42569952D03*
X66500051Y42569952D03*
X66899848Y42569952D03*
D14*
X68329870Y43999975D03*
X68329870Y44399771D03*
X68329870Y44799822D03*
X68329870Y45199873D03*
X68329870Y45599924D03*
X68329870Y45999975D03*
X68329870Y46399771D03*
X68329870Y46799822D03*
X68329870Y47199873D03*
X68329870Y47599924D03*
X68329870Y47999975D03*
X68329870Y48399771D03*
X68329870Y48799822D03*
X68329870Y49199873D03*
X68329870Y49599924D03*
X68329870Y49999975D03*
X68329870Y50399771D03*
X68329870Y50799822D03*
X68329870Y51199873D03*
X68329870Y51599924D03*
X68329870Y51999975D03*
X68329870Y52400025D03*
X68329870Y52799822D03*
X68329870Y53199873D03*
X68329870Y53599924D03*
X68329870Y53999975D03*
X68329870Y54399771D03*
X68329870Y54799822D03*
X68329870Y55199873D03*
X68329870Y55599924D03*
X68329870Y56000229D03*
X68329870Y56399771D03*
D13*
X66899848Y57829794D03*
X66500051Y57829794D03*
X66100000Y57829794D03*
X65699949Y57829794D03*
X65299898Y57829794D03*
X64899848Y57829794D03*
X64500051Y57829794D03*
X64100000Y57829794D03*
X63699949Y57829794D03*
X63299898Y57829794D03*
X62899848Y57829794D03*
X62500051Y57829794D03*
X62100000Y57829794D03*
X61699949Y57829794D03*
X61299898Y57829794D03*
X60899848Y57829794D03*
X60500051Y57829794D03*
X60100000Y57829794D03*
X59699949Y57829794D03*
X59299898Y57829794D03*
X58899848Y57829794D03*
X58500051Y57829794D03*
X58100000Y57829794D03*
X57699949Y57829794D03*
X57299898Y57829794D03*
X56899848Y57829794D03*
X56500051Y57829794D03*
X56100000Y57829794D03*
X55699949Y57829794D03*
X55299898Y57829794D03*
X54899848Y57829794D03*
X54500051Y57829794D03*
D14*
X53070028Y56399771D03*
X53070028Y56000229D03*
X53070028Y55599924D03*
X53070028Y55199873D03*
X53070028Y54799822D03*
X53070028Y54399771D03*
X53070028Y53999975D03*
X53070028Y53599924D03*
X53070028Y53199873D03*
X53070028Y52799822D03*
X53070028Y52400025D03*
X53070028Y51999975D03*
X53070028Y51599924D03*
X53070028Y51199873D03*
X53070028Y50799822D03*
X53070028Y50399771D03*
X53070028Y49999975D03*
X53070028Y49599924D03*
X53070028Y49199873D03*
X53070028Y48799822D03*
X53070028Y48399771D03*
X53070028Y47999975D03*
X53070028Y47599924D03*
X53070028Y47199873D03*
X53070028Y46799822D03*
X53070028Y46399771D03*
X53070028Y45999975D03*
X53070028Y45599924D03*
X53070028Y45199873D03*
X53070028Y44799822D03*
X53070028Y44399771D03*
X53070028Y43999975D03*
D15*
X60699949Y50199873D03*
%TD*%
D16*
%TO.C,R203*%
X46939796Y50859999D03*
X47959794Y50859999D03*
%TD*%
D17*
%TO.C,C313*%
X4400000Y70500000D03*
X4400000Y67800000D03*
%TD*%
D18*
%TO.C,J302*%
X37375057Y85449911D03*
X37375057Y90350089D03*
D19*
X32975005Y84400127D03*
X32975006Y86900000D03*
X32975006Y88900000D03*
X32975005Y91399873D03*
D20*
X36624994Y80874854D03*
X36624994Y94925146D03*
%TD*%
D21*
%TO.C,D311*%
X9310000Y26985000D03*
X9310000Y26015000D03*
%TD*%
D22*
%TO.C,R308*%
X67200000Y23109999D03*
X67200000Y22090001D03*
%TD*%
D16*
%TO.C,R428*%
X36400231Y45859999D03*
X37420229Y45859999D03*
%TD*%
D23*
%TO.C,TP304*%
X24200000Y37200000D03*
%TD*%
D24*
%TO.C,D307*%
X23300000Y24062500D03*
X24270000Y24062500D03*
%TD*%
D25*
%TO.C,U405*%
X73505000Y24475000D03*
X72235000Y24475000D03*
X70965000Y24475000D03*
X69695000Y24475000D03*
X69695000Y19525000D03*
X70965000Y19525000D03*
X72235000Y19525000D03*
X73505000Y19525000D03*
%TD*%
D26*
%TO.C,R330*%
X7421872Y13600627D03*
X6401874Y13600627D03*
%TD*%
D27*
%TO.C,Q309*%
X41030998Y18937500D03*
X39131000Y18937500D03*
X40080999Y16662500D03*
%TD*%
D28*
%TO.C,C402*%
X33200000Y58120000D03*
X33200000Y59080000D03*
%TD*%
D29*
%TO.C,D304*%
X1200000Y9800002D03*
X1200000Y5800000D03*
%TD*%
D21*
%TO.C,D202*%
X64800000Y33085000D03*
X64800000Y32115000D03*
%TD*%
D30*
%TO.C,C213*%
X58000000Y39285000D03*
X58000000Y37735000D03*
%TD*%
D31*
%TO.C,U403*%
X35792727Y36147523D03*
X35792727Y37097522D03*
X35792727Y38047521D03*
X33517727Y38047521D03*
X33517727Y36147523D03*
%TD*%
D32*
%TO.C,R419*%
X36354999Y33600000D03*
X36354999Y34619998D03*
%TD*%
D26*
%TO.C,C218*%
X47959794Y42992051D03*
X46939796Y42992051D03*
%TD*%
D33*
%TO.C,C205*%
X46969795Y45400051D03*
X47929795Y45400051D03*
%TD*%
D32*
%TO.C,R214*%
X54279975Y40090052D03*
X54279975Y41110050D03*
%TD*%
D34*
%TO.C,C319*%
X45011998Y20992500D03*
X45011998Y20032500D03*
%TD*%
D35*
%TO.C,L403*%
X47625000Y55200000D03*
X46049998Y55200000D03*
%TD*%
D32*
%TO.C,R455*%
X39509999Y56080002D03*
X39509999Y57100000D03*
%TD*%
D26*
%TO.C,R331*%
X7421873Y18800628D03*
X6401875Y18800628D03*
%TD*%
D34*
%TO.C,C211*%
X59200000Y39560000D03*
X59200000Y38600000D03*
%TD*%
D32*
%TO.C,R453*%
X43909999Y56080002D03*
X43909999Y57100000D03*
%TD*%
D26*
%TO.C,R220*%
X15983536Y37550064D03*
X14963538Y37550064D03*
%TD*%
D22*
%TO.C,R401*%
X40600000Y75209999D03*
X40600000Y74190001D03*
%TD*%
%TO.C,R207*%
X60200000Y39589999D03*
X60200000Y38570001D03*
%TD*%
D16*
%TO.C,R202*%
X14963538Y42450064D03*
X15983536Y42450064D03*
%TD*%
D36*
%TO.C,C236*%
X54319975Y59250000D03*
X53359975Y59250000D03*
%TD*%
D21*
%TO.C,D310*%
X11620000Y26985000D03*
X11620000Y26015000D03*
%TD*%
D33*
%TO.C,C201*%
X14993537Y41350064D03*
X15953537Y41350064D03*
%TD*%
D26*
%TO.C,R221*%
X15983536Y38820064D03*
X14963538Y38820064D03*
%TD*%
D37*
%TO.C,D405*%
X26700000Y83800000D03*
X24600000Y83800000D03*
%TD*%
D22*
%TO.C,R415*%
X30655227Y40719998D03*
X30655227Y39700000D03*
%TD*%
D16*
%TO.C,R340*%
X32800000Y24062500D03*
X33820000Y24062500D03*
%TD*%
D30*
%TO.C,C416*%
X31800000Y62175000D03*
X31800000Y60625000D03*
%TD*%
D27*
%TO.C,U305*%
X48011996Y22470000D03*
X47061997Y22470000D03*
X46111998Y22470000D03*
X46111998Y20195000D03*
X48011996Y20195000D03*
%TD*%
D26*
%TO.C,R329*%
X7421873Y14650626D03*
X6401875Y14650626D03*
%TD*%
D34*
%TO.C,C413*%
X34154999Y34589999D03*
X34154999Y33629999D03*
%TD*%
D26*
%TO.C,R204*%
X15983536Y46750064D03*
X14963538Y46750064D03*
%TD*%
D34*
%TO.C,C321*%
X51013000Y20992500D03*
X51013000Y20032500D03*
%TD*%
D27*
%TO.C,U303*%
X21549999Y84737500D03*
X20600000Y84737500D03*
X19650001Y84737500D03*
X19650001Y82462500D03*
X20600000Y82462500D03*
X21549999Y82462500D03*
%TD*%
D22*
%TO.C,R212*%
X64800000Y35009999D03*
X64800000Y33990001D03*
%TD*%
D38*
%TO.C,Q302*%
X14155003Y17850000D03*
X14155003Y19750000D03*
X12280002Y18800000D03*
%TD*%
D28*
%TO.C,C215*%
X60149819Y60900052D03*
X60149819Y61860052D03*
%TD*%
D16*
%TO.C,R339*%
X27044001Y24062500D03*
X28064001Y24062500D03*
%TD*%
D22*
%TO.C,R436*%
X38980999Y22979999D03*
X38980999Y21960001D03*
%TD*%
D32*
%TO.C,R418*%
X35226999Y33600000D03*
X35226999Y34619998D03*
%TD*%
D30*
%TO.C,C303*%
X19000000Y65975000D03*
X19000000Y64425000D03*
%TD*%
D39*
%TO.C,R405*%
X32478752Y69321248D03*
X33200000Y68600000D03*
%TD*%
D32*
%TO.C,R411*%
X51013000Y21960001D03*
X51013000Y22979999D03*
%TD*%
D40*
%TO.C,C316*%
X55800000Y21187500D03*
X55800000Y22737500D03*
%TD*%
D30*
%TO.C,C409*%
X31454999Y37897521D03*
X31454999Y36347521D03*
%TD*%
D26*
%TO.C,R216*%
X71849793Y54200000D03*
X70829795Y54200000D03*
%TD*%
D41*
%TO.C,REF\u002A\u002A*%
X74000000Y0D03*
%TD*%
D23*
%TO.C,TP214*%
X44629795Y38400051D03*
%TD*%
D28*
%TO.C,C405*%
X32891227Y39729999D03*
X32891227Y40689999D03*
%TD*%
D42*
%TO.C,C415*%
X46050000Y56800000D03*
X47600000Y56800000D03*
%TD*%
D40*
%TO.C,C429*%
X49225000Y55225000D03*
X49225000Y56775000D03*
%TD*%
D26*
%TO.C,R320*%
X16700000Y17900001D03*
X15680002Y17900001D03*
%TD*%
D16*
%TO.C,R460*%
X32190001Y64325000D03*
X33209999Y64325000D03*
%TD*%
D43*
%TO.C,Q304*%
X11430002Y17600002D03*
X9530002Y17600002D03*
X10480002Y15200001D03*
%TD*%
D26*
%TO.C,R333*%
X1521873Y18800628D03*
X501875Y18800628D03*
%TD*%
D24*
%TO.C,D308*%
X29094000Y24062500D03*
X30064000Y24062500D03*
%TD*%
D30*
%TO.C,C228*%
X61600000Y39285000D03*
X61600000Y37735000D03*
%TD*%
D22*
%TO.C,R347*%
X6200000Y65309999D03*
X6200000Y64290001D03*
%TD*%
D26*
%TO.C,R328*%
X2621872Y13500628D03*
X1601874Y13500628D03*
%TD*%
D43*
%TO.C,Q307*%
X29884593Y92800001D03*
X27984593Y92800001D03*
X28934593Y90400000D03*
%TD*%
D33*
%TO.C,C212*%
X70849795Y51000000D03*
X71809795Y51000000D03*
%TD*%
D22*
%TO.C,R301*%
X42330999Y18442499D03*
X42330999Y17422501D03*
%TD*%
%TO.C,R346*%
X20200000Y22942499D03*
X20200000Y21922501D03*
%TD*%
D41*
%TO.C,REF\u002A\u002A*%
X0Y0D03*
%TD*%
D16*
%TO.C,R217*%
X46939796Y37700051D03*
X47959794Y37700051D03*
%TD*%
D30*
%TO.C,C408*%
X29854999Y37897521D03*
X29854999Y36347521D03*
%TD*%
D24*
%TO.C,D301*%
X41030998Y24062500D03*
X42000998Y24062500D03*
%TD*%
D44*
%TO.C,D313*%
X17200000Y25400000D03*
X17200000Y27500000D03*
%TD*%
D24*
%TO.C,D409*%
X38569999Y45859999D03*
X39539999Y45859999D03*
%TD*%
D23*
%TO.C,J404*%
X22400000Y90100000D03*
X18000000Y90100000D03*
D45*
X21800000Y87400000D03*
X21000000Y87400000D03*
X20200000Y87400000D03*
X19400000Y87400000D03*
X18600000Y87400000D03*
D46*
X24650000Y87500000D03*
X24650000Y92950000D03*
X15750000Y87500000D03*
X15750000Y92950000D03*
%TD*%
D28*
%TO.C,C204*%
X44529795Y46900051D03*
X44529795Y47860051D03*
%TD*%
D47*
%TO.C,Y201*%
X41379795Y47700051D03*
X41379795Y45500051D03*
X43079795Y45500051D03*
X43079795Y47700051D03*
%TD*%
D16*
%TO.C,R341*%
X10890000Y27900000D03*
X11910000Y27900000D03*
%TD*%
D26*
%TO.C,R201*%
X15983536Y45400064D03*
X14963538Y45400064D03*
%TD*%
D22*
%TO.C,R435*%
X45011998Y22979999D03*
X45011998Y21960001D03*
%TD*%
D32*
%TO.C,R454*%
X38409999Y56080002D03*
X38409999Y57100000D03*
%TD*%
D26*
%TO.C,R322*%
X10790001Y18900001D03*
X9770003Y18900001D03*
%TD*%
D30*
%TO.C,C311*%
X400000Y70775000D03*
X400000Y69225000D03*
%TD*%
D16*
%TO.C,R323*%
X8880002Y13600000D03*
X9900000Y13600000D03*
%TD*%
D28*
%TO.C,C304*%
X6400000Y67320000D03*
X6400000Y68280000D03*
%TD*%
D34*
%TO.C,C323*%
X21250001Y20955000D03*
X21250001Y19995000D03*
%TD*%
D47*
%TO.C,Y401*%
X30080000Y58800000D03*
X30080000Y56600000D03*
X31780000Y56600000D03*
X31780000Y58800000D03*
%TD*%
D16*
%TO.C,R338*%
X21250001Y24062500D03*
X22270001Y24062500D03*
%TD*%
D26*
%TO.C,R222*%
X15983536Y40050064D03*
X14963538Y40050064D03*
%TD*%
D48*
%TO.C,D305*%
X5799998Y10900000D03*
X9800000Y10900000D03*
%TD*%
D32*
%TO.C,R452*%
X42809999Y56080002D03*
X42809999Y57100000D03*
%TD*%
D49*
%TO.C,K301*%
X4077500Y7450000D03*
X4077500Y4250000D03*
X4077500Y2050000D03*
X4077500Y-150000D03*
X11077500Y-150000D03*
X11077500Y2050000D03*
X11077500Y4250000D03*
X11077500Y7450000D03*
%TD*%
D50*
%TO.C,J301*%
X49475000Y12500000D03*
X45325000Y12500000D03*
X41995000Y12500000D03*
X38665000Y12500000D03*
X35335000Y12500000D03*
X32005000Y12500000D03*
X28675000Y12500000D03*
X24525000Y12500000D03*
X49475000Y8300000D03*
X45325000Y8300000D03*
X41995000Y8300000D03*
X38665000Y8300000D03*
X35335000Y8300000D03*
X32005000Y8300000D03*
X28675000Y8300000D03*
X24525000Y8300000D03*
X49475000Y4100000D03*
X45325000Y4100000D03*
X41995000Y4100000D03*
X38665000Y4100000D03*
X35335000Y4100000D03*
X32005000Y4100000D03*
X28675000Y4100000D03*
X24525000Y4100000D03*
%TD*%
D26*
%TO.C,R206*%
X47959794Y49906666D03*
X46939796Y49906666D03*
%TD*%
D34*
%TO.C,C235*%
X65000000Y39560000D03*
X65000000Y38600000D03*
%TD*%
D32*
%TO.C,R461*%
X30600000Y61335002D03*
X30600000Y62355000D03*
%TD*%
D51*
%TO.C,FB403*%
X28200000Y83787501D03*
X28200000Y82212499D03*
%TD*%
D34*
%TO.C,C231*%
X64000000Y39560000D03*
X64000000Y38600000D03*
%TD*%
D26*
%TO.C,C219*%
X47959794Y41990051D03*
X46939796Y41990051D03*
%TD*%
D24*
%TO.C,D302*%
X47061997Y24062500D03*
X48031997Y24062500D03*
%TD*%
D22*
%TO.C,R344*%
X31700000Y22979999D03*
X31700000Y21960001D03*
%TD*%
D16*
%TO.C,R337*%
X51013000Y24062500D03*
X52033000Y24062500D03*
%TD*%
%TO.C,R335*%
X38980999Y24062500D03*
X40000999Y24062500D03*
%TD*%
D26*
%TO.C,R210*%
X47959794Y40988051D03*
X46939796Y40988051D03*
%TD*%
D52*
%TO.C,U310*%
X8000000Y67210000D03*
X8000000Y65940000D03*
X8000000Y64670000D03*
X8000000Y63400000D03*
X13400000Y63400000D03*
X13400000Y64670000D03*
X13400000Y65940000D03*
X13400000Y67210000D03*
D53*
X10700000Y65305000D03*
%TD*%
D27*
%TO.C,Q311*%
X53062999Y18937500D03*
X51163001Y18937500D03*
X52113000Y16662500D03*
%TD*%
D22*
%TO.C,R348*%
X6200000Y63309999D03*
X6200000Y62290001D03*
%TD*%
D38*
%TO.C,Q305*%
X4800000Y13650000D03*
X4800000Y15550000D03*
X2924999Y14600000D03*
%TD*%
D34*
%TO.C,C414*%
X33200000Y57070001D03*
X33200000Y56110001D03*
%TD*%
D54*
%TO.C,C412*%
X39454885Y36009999D03*
X37904885Y36009999D03*
%TD*%
D32*
%TO.C,R404*%
X37300000Y74190001D03*
X37300000Y75209999D03*
%TD*%
D22*
%TO.C,R417*%
X30418999Y34619998D03*
X30418999Y33600000D03*
%TD*%
D27*
%TO.C,U304*%
X41980997Y22470000D03*
X41030998Y22470000D03*
X40080999Y22470000D03*
X40080999Y20195000D03*
X41980997Y20195000D03*
%TD*%
D26*
%TO.C,C217*%
X47959794Y44000051D03*
X46939796Y44000051D03*
%TD*%
D23*
%TO.C,TP219*%
X73600000Y53200000D03*
%TD*%
%TO.C,TP302*%
X5400000Y78300000D03*
%TD*%
D27*
%TO.C,Q320*%
X29094000Y18937500D03*
X27194002Y18937500D03*
X28144001Y16662500D03*
%TD*%
%TO.C,U306*%
X54012998Y22470000D03*
X53062999Y22470000D03*
X52113000Y22470000D03*
X52113000Y20195000D03*
X54012998Y20195000D03*
%TD*%
D23*
%TO.C,TP213*%
X44629795Y36300051D03*
%TD*%
D33*
%TO.C,C222*%
X70849795Y49100051D03*
X71809795Y49100051D03*
%TD*%
D16*
%TO.C,R303*%
X29535001Y94300000D03*
X30554999Y94300000D03*
%TD*%
D55*
%TO.C,ANT401*%
X30626182Y71256661D03*
D56*
X30590799Y73377982D03*
X28504861Y71292044D03*
%TD*%
D17*
%TO.C,C314*%
X2200000Y70500000D03*
X2200000Y67800000D03*
%TD*%
D54*
%TO.C,C407*%
X39454885Y42259999D03*
X37904885Y42259999D03*
%TD*%
D22*
%TO.C,R312*%
X64333334Y23109999D03*
X64333334Y22090001D03*
%TD*%
D26*
%TO.C,R457*%
X49509999Y60725000D03*
X48490001Y60725000D03*
%TD*%
D27*
%TO.C,Q310*%
X47061997Y18937500D03*
X45161999Y18937500D03*
X46111998Y16662500D03*
%TD*%
D30*
%TO.C,C404*%
X31554999Y44097518D03*
X31554999Y42547518D03*
%TD*%
D36*
%TO.C,C232*%
X47929795Y48000000D03*
X46969795Y48000000D03*
%TD*%
D23*
%TO.C,TP*%
X53700000Y32200000D03*
%TD*%
D34*
%TO.C,C325*%
X27044001Y20992500D03*
X27044001Y20032500D03*
%TD*%
D22*
%TO.C,R213*%
X55500000Y41110050D03*
X55500000Y40090052D03*
%TD*%
%TO.C,R402*%
X39500000Y75209999D03*
X39500000Y74190001D03*
%TD*%
%TO.C,R403*%
X38400000Y75209999D03*
X38400000Y74190001D03*
%TD*%
D32*
%TO.C,R430*%
X32800000Y21960001D03*
X32800000Y22979999D03*
%TD*%
D27*
%TO.C,Q319*%
X23300000Y18900000D03*
X21400002Y18900000D03*
X22350001Y16625000D03*
%TD*%
D22*
%TO.C,R209*%
X63700000Y35009999D03*
X63700000Y33990001D03*
%TD*%
D27*
%TO.C,U307*%
X24249999Y22432500D03*
X23300000Y22432500D03*
X22350001Y22432500D03*
X22350001Y20157500D03*
X24249999Y20157500D03*
%TD*%
D32*
%TO.C,R205*%
X45849795Y44380053D03*
X45849795Y45400051D03*
%TD*%
D24*
%TO.C,D309*%
X35050000Y24062500D03*
X36020000Y24062500D03*
%TD*%
D26*
%TO.C,R324*%
X11890001Y13600001D03*
X10870003Y13600001D03*
%TD*%
D16*
%TO.C,R342*%
X8290000Y27900000D03*
X9310000Y27900000D03*
%TD*%
D57*
%TO.C,U203*%
X43729795Y43100000D03*
X43229795Y43100000D03*
X42729795Y43100000D03*
X42229795Y43100000D03*
X42229795Y40200000D03*
X42729795Y40200000D03*
X43229795Y40200000D03*
X43729795Y40200000D03*
D58*
X42979795Y41650000D03*
%TD*%
D59*
%TO.C,C315*%
X13800000Y250000D03*
X13800000Y2950000D03*
%TD*%
D26*
%TO.C,R211*%
X54329975Y39100051D03*
X53309977Y39100051D03*
%TD*%
D32*
%TO.C,R414*%
X31773227Y39700000D03*
X31773227Y40719998D03*
%TD*%
D24*
%TO.C,D408*%
X38569999Y46972480D03*
X39539999Y46972480D03*
%TD*%
D16*
%TO.C,C233*%
X70829795Y53100051D03*
X71849793Y53100051D03*
%TD*%
D34*
%TO.C,C327*%
X32900000Y20992500D03*
X32900000Y20032500D03*
%TD*%
D30*
%TO.C,C403*%
X29954999Y44097518D03*
X29954999Y42547518D03*
%TD*%
D32*
%TO.C,R311*%
X63200000Y22090001D03*
X63200000Y23109999D03*
%TD*%
D30*
%TO.C,C302*%
X20600000Y65975000D03*
X20600000Y64425000D03*
%TD*%
D31*
%TO.C,U402*%
X35792727Y42347519D03*
X35792727Y43297518D03*
X35792727Y44247517D03*
X33517727Y44247517D03*
X33517727Y42347519D03*
%TD*%
D32*
%TO.C,R434*%
X27044001Y21960001D03*
X27044001Y22979999D03*
%TD*%
D43*
%TO.C,Q301*%
X2161873Y17400628D03*
X261873Y17400628D03*
X1211873Y15000627D03*
%TD*%
D22*
%TO.C,R317*%
X24600000Y18314998D03*
X24600000Y17295000D03*
%TD*%
D40*
%TO.C,C312*%
X23100000Y82225000D03*
X23100000Y83775000D03*
%TD*%
D32*
%TO.C,R408*%
X21250001Y21922501D03*
X21250001Y22942499D03*
%TD*%
D33*
%TO.C,C220*%
X69829795Y43600051D03*
X70789795Y43600051D03*
%TD*%
D16*
%TO.C,C230*%
X46939796Y39986051D03*
X47959794Y39986051D03*
%TD*%
D34*
%TO.C,C203*%
X44529795Y46000051D03*
X44529795Y45040051D03*
%TD*%
D60*
%TO.C,L401*%
X37705113Y44159999D03*
X39404885Y44159999D03*
%TD*%
D22*
%TO.C,R223*%
X58500000Y65409999D03*
X58500000Y64390001D03*
%TD*%
D24*
%TO.C,D303*%
X53062999Y24062500D03*
X54032999Y24062500D03*
%TD*%
D61*
%TO.C,J202*%
X54999795Y34235000D03*
X49919795Y33219000D03*
X49919795Y35251000D03*
D62*
X53729795Y34870000D03*
X53729795Y33600000D03*
X52459795Y34870000D03*
X52459795Y33600000D03*
X51189795Y34870000D03*
X51189795Y33600000D03*
%TD*%
D33*
%TO.C,C426*%
X71120000Y26400000D03*
X72080000Y26400000D03*
%TD*%
D23*
%TO.C,TP215*%
X52429795Y36600051D03*
%TD*%
D38*
%TO.C,Q306*%
X4886874Y17750628D03*
X4886874Y19650628D03*
X3011873Y18700628D03*
%TD*%
D16*
%TO.C,R427*%
X36400230Y46972480D03*
X37420230Y46972480D03*
%TD*%
%TO.C,R336*%
X45011998Y24062500D03*
X46031998Y24062500D03*
%TD*%
D54*
%TO.C,C237*%
X54149975Y60550000D03*
X52599975Y60550000D03*
%TD*%
D16*
%TO.C,R458*%
X48490001Y59600000D03*
X49509999Y59600000D03*
%TD*%
D26*
%TO.C,R343*%
X7400000Y27900000D03*
X6380002Y27900000D03*
%TD*%
%TO.C,R321*%
X16709999Y16800001D03*
X15690001Y16800001D03*
%TD*%
%TO.C,R334*%
X28464998Y94300000D03*
X27445000Y94300000D03*
%TD*%
D22*
%TO.C,R325*%
X37900000Y22979999D03*
X37900000Y21960001D03*
%TD*%
D54*
%TO.C,C318*%
X19975000Y20600000D03*
X18425000Y20600000D03*
%TD*%
D22*
%TO.C,R345*%
X26000000Y22979999D03*
X26000000Y21960001D03*
%TD*%
%TO.C,R327*%
X49900000Y22979999D03*
X49900000Y21960001D03*
%TD*%
D33*
%TO.C,C221*%
X69849795Y44609950D03*
X70809795Y44609950D03*
%TD*%
D32*
%TO.C,R450*%
X36700000Y56080002D03*
X36700000Y57100000D03*
%TD*%
D34*
%TO.C,C317*%
X38980999Y20992500D03*
X38980999Y20032500D03*
%TD*%
D32*
%TO.C,R451*%
X40609999Y56080002D03*
X40609999Y57100000D03*
%TD*%
D38*
%TO.C,Q303*%
X14155003Y13650001D03*
X14155003Y15550001D03*
X12280002Y14600001D03*
%TD*%
D33*
%TO.C,C227*%
X53339976Y38100000D03*
X54299976Y38100000D03*
%TD*%
D32*
%TO.C,R416*%
X31536999Y33600000D03*
X31536999Y34619998D03*
%TD*%
D60*
%TO.C,L402*%
X37705113Y38009999D03*
X39404885Y38009999D03*
%TD*%
D26*
%TO.C,R332*%
X7421872Y17700628D03*
X6401874Y17700628D03*
%TD*%
D22*
%TO.C,R302*%
X48361998Y18442499D03*
X48361998Y17422501D03*
%TD*%
D16*
%TO.C,R306*%
X-398125Y13500628D03*
X621873Y13500628D03*
%TD*%
D23*
%TO.C,TP216*%
X50429795Y36600051D03*
%TD*%
D29*
%TO.C,D306*%
X16400000Y67400001D03*
X16400000Y63399999D03*
%TD*%
D27*
%TO.C,U308*%
X30043999Y22470000D03*
X29094000Y22470000D03*
X28144001Y22470000D03*
X28144001Y20195000D03*
X30043999Y20195000D03*
%TD*%
D16*
%TO.C,R218*%
X46939796Y38950000D03*
X47959794Y38950000D03*
%TD*%
D23*
%TO.C,TP*%
X44600000Y34100000D03*
%TD*%
D27*
%TO.C,Q321*%
X34849999Y18937500D03*
X32950001Y18937500D03*
X33900000Y16662500D03*
%TD*%
D23*
%TO.C,TP303*%
X24200000Y38796618D03*
%TD*%
D32*
%TO.C,R307*%
X66000000Y22090001D03*
X66000000Y23109999D03*
%TD*%
D23*
%TO.C,TP202*%
X48900000Y47999999D03*
%TD*%
D22*
%TO.C,R456*%
X41700000Y75209999D03*
X41700000Y74190001D03*
%TD*%
D63*
%TO.C,C428*%
X31780526Y70102317D03*
X31059278Y69381069D03*
%TD*%
D22*
%TO.C,R319*%
X36200000Y18442499D03*
X36200000Y17422501D03*
%TD*%
D63*
%TO.C,C427*%
X33958416Y67924428D03*
X33237168Y67203180D03*
%TD*%
D28*
%TO.C,C234*%
X44804795Y40105000D03*
X44804795Y41065000D03*
%TD*%
D23*
%TO.C,TP301*%
X5400000Y76400000D03*
%TD*%
D26*
%TO.C,R219*%
X15983536Y44050064D03*
X14963538Y44050064D03*
%TD*%
D36*
%TO.C,C406*%
X39624885Y40867500D03*
X38664885Y40867500D03*
%TD*%
D64*
%TO.C,L303*%
X14249999Y74000000D03*
X7350001Y74000000D03*
%TD*%
D27*
%TO.C,U309*%
X35949999Y22470000D03*
X35000000Y22470000D03*
X34050001Y22470000D03*
X34050001Y20195000D03*
X35949999Y20195000D03*
%TD*%
D22*
%TO.C,R326*%
X43900000Y22979999D03*
X43900000Y21960001D03*
%TD*%
D21*
%TO.C,D312*%
X6380002Y26985000D03*
X6380002Y26015000D03*
%TD*%
D31*
%TO.C,U302*%
X30136244Y86950001D03*
X30136244Y87900000D03*
X30136244Y88849999D03*
X27861244Y88849999D03*
X27861244Y87900000D03*
X27861244Y86950001D03*
%TD*%
D36*
%TO.C,C411*%
X39624885Y34800000D03*
X38664885Y34800000D03*
%TD*%
D65*
%TO.C,J203*%
X2263513Y44900026D03*
X2263513Y36900026D03*
D66*
X13263513Y37699873D03*
X13263513Y38799950D03*
X13263513Y39900026D03*
X13263513Y41000102D03*
X13263513Y42099924D03*
X13263513Y43200000D03*
X13263513Y44300077D03*
X13263513Y45399899D03*
X13263513Y46499975D03*
D67*
X12263513Y47700128D03*
D68*
X2663563Y47700128D03*
X2663563Y32200000D03*
D69*
X12263513Y33099924D03*
%TD*%
D22*
%TO.C,R316*%
X54363000Y18442499D03*
X54363000Y17422501D03*
%TD*%
D28*
%TO.C,C214*%
X59129795Y60900051D03*
X59129795Y61860051D03*
%TD*%
D22*
%TO.C,R318*%
X30394001Y18442499D03*
X30394001Y17422501D03*
%TD*%
D34*
%TO.C,C229*%
X62900000Y39560000D03*
X62900000Y38600000D03*
%TD*%
D28*
%TO.C,C410*%
X32654999Y33629999D03*
X32654999Y34589999D03*
%TD*%
D41*
%TO.C,REF\u002A\u002A*%
X74000000Y93600000D03*
%TD*%
D21*
%TO.C,D201*%
X63700000Y33085000D03*
X63700000Y32115000D03*
%TD*%
G36*
X62815677Y52580315D02*
G01*
X62836319Y52563681D01*
X63363681Y52036319D01*
X63397166Y51974996D01*
X63400000Y51948638D01*
X63400000Y48251362D01*
X63380315Y48184323D01*
X63363681Y48163681D01*
X62836319Y47636319D01*
X62774996Y47602834D01*
X62748638Y47600000D01*
X58651362Y47600000D01*
X58584323Y47619685D01*
X58563681Y47636319D01*
X58036319Y48163681D01*
X58002834Y48225004D01*
X58000000Y48251362D01*
X58000000Y51948638D01*
X58019685Y52015677D01*
X58036319Y52036319D01*
X58563681Y52563681D01*
X58625004Y52597166D01*
X58651362Y52600000D01*
X62748638Y52600000D01*
X62815677Y52580315D01*
G37*
M02*
