M48
; DRILL file {KiCad 8.0.3} date 2024-06-17T20:01:43-0700
; FORMAT={-:-/ absolute / inch / decimal}
; #@! TF.CreationDate,2024-06-17T20:01:43-07:00
; #@! TF.GenerationSoftware,Kicad,Pcbnew,8.0.3
; #@! TF.FileFunction,Plated,1,4,PTH
FMAT,2
INCH
; #@! TA.AperFunction,Plated,PTH,ViaDrill
T1C0.0118
; #@! TA.AperFunction,Plated,PTH,ComponentDrill
T2C0.0118
; #@! TA.AperFunction,Plated,PTH,ComponentDrill
T3C0.0512
%
G90
G05
T1
X-0.063Y0.122
X0.0079Y0.6299
X0.0157Y0.7835
X0.0787Y1.063
X0.0787Y0.6299
X0.0866Y2.8346
X0.0866Y2.6142
X0.1496Y0.8189
X0.1496Y0.6535
X0.1575Y1.063
X0.1732Y2.8346
X0.1732Y2.6142
X0.1969Y0.8189
X0.2283Y0.0787
X0.2441Y0.6535
X0.2512Y0.9921
X0.2598Y2.8346
X0.2598Y2.6142
X0.3307Y1.0315
X0.3406Y0.7423
X0.3665Y0.9921
X0.378Y0.6457
X0.378Y0.0787
X0.3858Y1.1575
X0.4016Y1.0315
X0.4575Y0.9913
X0.4646Y1.7
X0.4646Y1.6142
X0.4646Y1.5276
X0.4882Y0.9528
X0.4882Y0.8583
X0.5118Y0.2441
X0.5591Y0.5787
X0.5591Y0.4331
X0.5669Y0.2441
X0.5984Y0.9528
X0.5984Y0.8583
X0.6142Y0.7795
X0.6457Y0.6181
X0.6496Y3.3386
X0.6496Y3.2835
X0.6614Y1.8425
X0.6614Y1.7874
X0.6614Y1.7323
X0.6614Y1.576
X0.6614Y1.5295
X0.6614Y1.4791
X0.6614Y1.378
X0.6614Y1.2992
X0.7008Y1.6811
X0.7126Y3.3386
X0.7126Y3.2835
X0.7244Y0.8425
X0.748Y2.4803
X0.7717Y0.8976
X0.7795Y1.378
X0.7795Y1.2992
X0.7874Y1.0236
X0.8031Y0.7505
X0.8031Y0.7072
X0.8104Y3.3687
X0.811Y3.1732
X0.811Y2.4803
X0.9528Y1.563
X0.9843Y1.0236
X0.9843Y0.9473
X0.9921Y3.5354
X0.9952Y2.8377
X1.0354Y0.7505
X1.0354Y0.7072
X1.037Y2.8795
X1.037Y2.796
X1.0709Y3.6142
X1.0709Y3.2362
X1.0787Y2.9213
X1.0787Y2.7542
X1.1205Y2.963
X1.1205Y2.7125
X1.1281Y1.4965
X1.1409Y2.315
X1.1417Y2.2283
X1.1623Y3.0048
X1.1693Y1.3228
X1.1732Y3.5984
X1.1732Y1.3937
X1.1762Y2.7176
X1.1811Y1.6378
X1.204Y2.963
X1.2047Y2.3898
X1.2165Y1.0236
X1.2165Y0.9473
X1.2179Y2.6759
X1.2224Y3.4606
X1.2362Y1.3937
X1.2384Y1.7839
X1.2441Y2.5354
X1.2441Y1.6378
X1.2458Y2.9213
X1.2597Y2.6341
X1.2598Y0.7505
X1.2598Y0.7072
X1.2771Y2.8173
X1.2817Y1.7839
X1.2817Y1.742
X1.2835Y1.4567
X1.2875Y2.8795
X1.2992Y3.6457
X1.3015Y2.5923
X1.3071Y2.4803
X1.3071Y2.4252
X1.3189Y2.7756
X1.3189Y1.3228
X1.3465Y2.5325
X1.3465Y2.4803
X1.3607Y2.7338
X1.3622Y1.7047
X1.3858Y2.2205
X1.3937Y3.5984
X1.3959Y1.8493
X1.3959Y1.8055
X1.4409Y2.1811
X1.4456Y1.6672
X1.4528Y1.0236
X1.4528Y0.9473
X1.4556Y2.8031
X1.4556Y2.5079
X1.4724Y3.4606
X1.4764Y2.2205
X1.4803Y2.563
X1.4803Y1.6063
X1.4803Y1.563
X1.4803Y1.3472
X1.5Y2.8386
X1.5039Y0.7505
X1.5039Y0.7072
X1.5059Y2.4961
X1.5059Y2.3976
X1.5295Y2.5906
X1.5428Y2.8785
X1.5541Y2.6654
X1.5619Y2.8071
X1.5902Y1.4177
X1.5984Y2.1811
X1.6043Y2.5984
X1.6142Y1.6378
X1.6142Y1.5748
X1.6417Y2.2205
X1.6476Y2.5492
X1.6496Y2.8071
X1.6654Y2.4961
X1.6772Y2.9921
X1.6772Y2.9291
X1.6772Y2.874
X1.689Y1.0039
X1.689Y0.9473
X1.6929Y1.6378
X1.7008Y3.4606
X1.7008Y3.2598
X1.7047Y2.4606
X1.7087Y1.5433
X1.7087Y1.4724
X1.7244Y2.9528
X1.7244Y2.9016
X1.7323Y2.1811
X1.7391Y2.8031
X1.7402Y2.3622
X1.7441Y0.7505
X1.7441Y0.7072
X1.7531Y1.9114
X1.7559Y1.7402
X1.7756Y2.4173
X1.8043Y1.5366
X1.8043Y1.4843
X1.8071Y2.3622
X1.811Y2.815
X1.8268Y2.0024
X1.8268Y1.6142
X1.8268Y1.5748
X1.8425Y2.3071
X1.8976Y2.2677
X1.9134Y2.3071
X1.9144Y1.5738
X1.9153Y1.7835
X1.9252Y1.7008
X1.9252Y0.9473
X1.9331Y2.6969
X1.937Y2.2677
X1.9567Y0.9803
X1.9685Y2.0079
X1.9685Y1.937
X1.9764Y0.7505
X1.9764Y0.7072
X2.0153Y1.4016
X2.0436Y1.5354
X2.072Y2.4309
X2.1142Y1.6693
X2.1319Y2.4311
X2.1378Y1.4724
X2.1457Y1.874
X2.1457Y1.8189
X2.1575Y1.7402
X2.1614Y1.4016
X2.1614Y1.2677
X2.1732Y0.9473
X2.1752Y2.8091
X2.1969Y2.7441
X2.248Y0.8937
X2.248Y0.5039
X2.2638Y2.5079
X2.2677Y3.4606
X2.2677Y3.2598
X2.2677Y2.7795
X2.2677Y2.7165
X2.2677Y2.6378
X2.2756Y2.5748
X2.315Y2.0472
X2.315Y1.9724
X2.315Y1.8976
X2.3219Y2.7795
X2.3219Y2.628
X2.3228Y2.7165
X2.3228Y2.6732
X2.3279Y2.363
X2.3307Y1.4803
X2.3319Y2.4606
X2.3374Y2.5433
X2.3386Y1.5945
X2.3465Y1.3071
X2.3465Y1.2047
X2.3673Y2.4606
X2.3701Y2.5906
X2.3701Y1.4803
X2.3898Y1.6299
X2.3937Y2.0472
X2.3937Y1.9724
X2.3937Y1.8976
X2.4016Y0.2362
X2.4016Y0.0394
X2.4252Y1.3071
X2.4252Y1.2047
X2.4646Y2.0472
X2.4646Y1.9724
X2.4646Y1.8976
X2.4724Y1.6063
X2.4764Y1.4803
X2.5079Y1.2205
X2.5079Y1.1811
X2.5197Y1.4803
X2.5354Y2.3622
X2.5354Y0.8346
X2.5591Y1.4803
X2.5984Y1.2795
X2.5984Y0.2362
X2.5984Y0.0394
X2.6614Y0.8346
X2.6634Y1.6358
X2.748Y1.9291
X2.748Y1.7874
X2.7559Y3.1496
X2.7559Y2.9528
X2.7559Y2.7559
X2.7559Y2.5512
X2.7559Y2.2913
X2.7559Y2.0079
X2.7559Y1.4724
X2.7638Y1.2677
X2.7953Y1.5118
X2.7953Y1.2992
X2.7953Y1.063
X2.7953Y0.2362
X2.7953Y0.0394
X2.8122Y1.7559
X2.8122Y1.7165
X2.8307Y1.5394
X2.8425Y1.063
X2.8465Y1.3071
X2.8504Y2.0118
X2.8504Y1.9291
X2.8555Y2.1334
X2.8563Y1.5866
X2.878Y1.2677
X2.8898Y0.7087
X2.9528Y3.1496
X2.9528Y2.9528
X2.9528Y2.7559
X2.9528Y2.5512
X2.9843Y0.9567
X2.9843Y0.8661
T2
X0.3976Y2.6419
X0.3976Y2.5947
X0.3976Y2.5435
X0.3976Y2.5002
X0.4449Y2.6419
X0.4449Y2.5947
X0.4449Y2.5435
X0.4449Y2.5002
T3
X0.9656Y0.4921
X0.9656Y0.3268
X0.9656Y0.1614
X1.1289Y0.4921
X1.1289Y0.3268
X1.1289Y0.1614
X1.26Y0.4921
X1.26Y0.3268
X1.26Y0.1614
X1.3911Y0.4921
X1.3911Y0.3268
X1.3911Y0.1614
X1.5222Y0.4921
X1.5222Y0.3268
X1.5222Y0.1614
X1.6533Y0.4921
X1.6533Y0.3268
X1.6533Y0.1614
X1.7844Y0.4921
X1.7844Y0.3268
X1.7844Y0.1614
X1.9478Y0.4921
X1.9478Y0.3268
X1.9478Y0.1614
M30
