M48
; DRILL file {KiCad 8.0.0} date 2024-03-14T10:46:31-0600
; FORMAT={-:-/ absolute / inch / decimal}
; #@! TF.CreationDate,2024-03-14T10:46:31-06:00
; #@! TF.GenerationSoftware,Kicad,Pcbnew,8.0.0
; #@! TF.FileFunction,Plated,1,4,PTH
FMAT,2
INCH
; #@! TA.AperFunction,Plated,PTH,ViaDrill
T1C0.0118
; #@! TA.AperFunction,Plated,PTH,ViaDrill
T2C0.0197
; #@! TA.AperFunction,Plated,PTH,ComponentDrill
T3C0.0512
%
G90
G05
T1
X0.2559Y0.689
X0.315Y1.0
X0.315Y0.9606
X0.3386Y0.8425
X0.3543Y0.689
X0.4488Y0.8976
X0.4528Y0.689
X0.4528Y0.6102
X0.4724Y1.7
X0.4724Y1.6142
X0.5315Y0.689
X0.5315Y0.6102
X0.5512Y1.0
X0.5512Y0.8976
X0.6639Y1.8406
X0.6639Y1.787
X0.6639Y1.7343
X0.6639Y1.6295
X0.6639Y1.578
X0.6639Y1.5276
X0.6639Y1.4772
X0.6639Y1.3937
X0.6639Y1.3465
X0.685Y2.874
X0.685Y2.7835
X0.685Y2.748
X0.6979Y0.8984
X0.7008Y1.0
X0.7323Y0.8898
X0.752Y3.2913
X0.7874Y2.748
X0.7874Y2.7008
X0.874Y1.6412
X0.874Y1.0551
X0.9252Y3.3543
X0.9449Y3.2362
X0.9764Y1.6412
X0.9764Y1.4011
X0.9921Y0.9213
X1.0039Y3.3543
X1.0157Y0.8583
X1.0315Y1.7835
X1.0394Y1.6412
X1.0394Y1.4011
X1.0748Y1.7835
X1.0748Y1.7416
X1.1339Y1.6063
X1.1654Y1.0551
X1.189Y1.8425
X1.2205Y3.0315
X1.2205Y2.9724
X1.2205Y2.9134
X1.2205Y2.8543
X1.2205Y1.6063
X1.2283Y3.4606
X1.2402Y1.6654
X1.2441Y2.5354
X1.2441Y1.3255
X1.2677Y2.8346
X1.2677Y2.7953
X1.2677Y2.7559
X1.2677Y2.7165
X1.2677Y2.6772
X1.2677Y2.6378
X1.2756Y1.0
X1.2795Y3.0315
X1.2835Y1.3268
X1.2913Y0.9213
X1.3071Y2.6378
X1.3071Y0.8583
X1.3386Y3.0315
X1.3386Y1.3268
X1.3465Y2.6378
X1.3465Y2.5325
X1.3465Y2.497
X1.3701Y1.9606
X1.3858Y1.6535
X1.3858Y1.6063
X1.3976Y3.0315
X1.4016Y1.2756
X1.4134Y1.8819
X1.4134Y1.4646
X1.4173Y2.8346
X1.4173Y2.7953
X1.4449Y2.185
X1.4488Y1.9291
X1.4488Y1.5591
X1.4528Y2.6309
X1.4567Y3.0315
X1.4567Y2.9724
X1.4567Y2.9134
X1.4567Y2.8543
X1.4567Y1.0551
X1.4724Y3.4606
X1.4783Y2.0059
X1.4882Y1.5984
X1.4882Y1.2756
X1.4885Y2.6909
X1.4905Y1.4252
X1.491Y2.8031
X1.5079Y1.874
X1.5118Y2.185
X1.5197Y1.5748
X1.5236Y2.6654
X1.5265Y2.8031
X1.5354Y2.9528
X1.5354Y2.9055
X1.5394Y1.2756
X1.5512Y0.8583
X1.5551Y2.185
X1.563Y2.6299
X1.5669Y1.5748
X1.5669Y1.9606
X1.5748Y1.0
X1.5791Y0.9208
X1.5906Y1.4252
X1.5906Y1.2756
X1.5984Y2.6024
X1.5984Y2.185
X1.6142Y0.8898
X1.6172Y1.7105
X1.6299Y1.2756
X1.6328Y2.5748
X1.6339Y2.815
X1.6682Y2.5394
X1.685Y2.185
X1.6929Y1.6378
X1.7008Y3.4606
X1.7047Y2.5118
X1.7283Y2.185
X1.7402Y2.815
X1.748Y1.0551
X1.7531Y1.9114
X1.7531Y1.7441
X1.7559Y1.2756
X1.764Y1.6537
X1.8031Y1.3465
X1.8043Y1.5366
X1.8043Y1.4843
X1.8051Y1.6929
X1.8051Y1.5748
X1.811Y2.815
X1.811Y2.185
X1.8189Y1.8976
X1.8543Y2.185
X1.8661Y1.0
X1.874Y0.9213
X1.9055Y0.8583
X1.9134Y2.2874
X1.9134Y1.6929
X1.9153Y1.7835
X1.9153Y1.5748
X1.9606Y2.6909
X2.0153Y1.4016
X2.0472Y1.0551
X2.0681Y1.5394
X2.0681Y1.4961
X2.0709Y2.6909
X2.1614Y2.815
X2.1705Y1.4961
X2.1732Y1.0
X2.1732Y0.9213
X2.1811Y1.4134
X2.1811Y1.2874
X2.1969Y2.7441
X2.2047Y0.8583
X2.2441Y2.7717
X2.2657Y2.5748
X2.2657Y2.5114
X2.2677Y2.811
X2.2677Y2.7165
X2.2677Y2.6654
X2.2677Y2.628
X2.2953Y1.6063
X2.3071Y2.811
X2.3071Y2.7717
X2.3071Y2.7165
X2.3071Y2.6654
X2.3071Y2.628
X2.315Y1.378
X2.3161Y1.4961
X2.3287Y2.3622
X2.3319Y2.4606
X2.3374Y2.5385
X2.3504Y1.4961
X2.3563Y1.437
X2.3563Y1.378
X2.3661Y2.5906
X2.3673Y2.4606
X2.3858Y1.0157
X2.4134Y1.4961
X2.4488Y1.6024
X2.45Y1.4961
X2.4882Y0.9213
X2.5354Y0.7244
X2.5591Y2.4764
X2.5591Y2.1969
X2.6693Y0.7244
X2.7492Y1.7835
X2.7492Y1.689
X2.7559Y1.5748
X2.7559Y1.3071
X2.7886Y2.0217
X2.7886Y1.9606
X2.7953Y1.5748
X2.7953Y1.3071
X2.8031Y2.2756
X2.8031Y1.063
X2.8122Y1.7559
X2.8122Y1.7165
X2.8268Y2.0217
X2.8268Y1.9606
X2.8386Y1.063
X2.8555Y2.1693
X2.8898Y0.7087
T2
X-0.0315Y0.9606
X-0.0315Y0.8976
X-0.0236Y2.8031
X-0.0236Y2.7402
X-0.0236Y2.6772
X0.0236Y2.5354
X0.0236Y2.3622
X0.1496Y2.5354
X0.1496Y2.3622
X0.2362Y3.4173
X0.2362Y0.2402
X0.2992Y2.3622
X0.3701Y1.7008
X0.3701Y1.6142
X0.378Y0.2402
X0.4173Y2.3622
X0.5197Y2.8425
X0.5197Y2.7874
X0.5984Y2.8425
X0.5984Y2.7874
X0.622Y3.063
X0.622Y3.0157
X0.626Y3.3543
X0.626Y3.2992
X0.6811Y3.3543
X0.6811Y3.2992
X0.7795Y2.5433
X0.7795Y2.4803
X0.9134Y0.7717
X1.1575Y1.5591
X1.2047Y0.7717
X1.2205Y1.5586
X1.2441Y3.7323
X1.2441Y3.6772
X1.2756Y1.5586
X1.2992Y3.7323
X1.2992Y3.6772
X1.3386Y1.5586
X1.3465Y2.3465
X1.4961Y0.7717
X1.7402Y2.4252
X1.7402Y2.3701
X1.7913Y0.7717
X1.7953Y2.4252
X1.7953Y2.3701
X2.072Y2.4252
X2.0866Y0.7717
X2.1299Y2.4252
X2.315Y2.0472
X2.315Y1.9724
X2.315Y1.8976
X2.315Y1.3071
X2.3543Y0.7244
X2.3937Y2.0472
X2.3937Y1.9724
X2.3937Y1.8976
X2.3937Y1.3071
X2.4016Y0.2362
X2.4016Y0.0394
X2.4646Y2.0472
X2.4646Y1.9724
X2.4646Y1.8976
X2.5591Y3.1496
X2.5591Y2.9528
X2.5591Y2.7559
X2.5984Y0.2362
X2.5984Y0.0394
X2.6772Y3.4173
X2.685Y1.4961
X2.685Y1.4409
X2.7559Y3.1496
X2.7559Y2.9528
X2.7559Y2.7559
X2.7953Y0.2362
X2.7953Y0.0394
X2.937Y1.4409
X2.937Y1.3071
X2.9528Y3.1496
X2.9528Y2.9528
X2.9528Y2.7559
T3
X0.9656Y0.4921
X0.9656Y0.3268
X0.9656Y0.1614
X1.1289Y0.4921
X1.1289Y0.3268
X1.1289Y0.1614
X1.26Y0.4921
X1.26Y0.3268
X1.26Y0.1614
X1.3911Y0.4921
X1.3911Y0.3268
X1.3911Y0.1614
X1.5222Y0.4921
X1.5222Y0.3268
X1.5222Y0.1614
X1.6533Y0.4921
X1.6533Y0.3268
X1.6533Y0.1614
X1.7844Y0.4921
X1.7844Y0.3268
X1.7844Y0.1614
X1.9478Y0.4921
X1.9478Y0.3268
X1.9478Y0.1614
M30
